<svg width="130" height="49" viewBox="0 0 130 49" fill="none" xmlns="http://www.w3.org/2000/svg">
<g clip-path="url(#clip0_127_1433)">
<mask id="mask0_127_1433" style="mask-type:luminance" maskUnits="userSpaceOnUse" x="0" y="0" width="64" height="49">
<path d="M40 0.779297H24C10.7452 0.779297 0 11.5245 0 24.7793C0 38.0341 10.7452 48.7793 24 48.7793H40C53.2548 48.7793 64 38.0341 64 24.7793C64 11.5245 53.2548 0.779297 40 0.779297Z" fill="white"/>
</mask>
<g mask="url(#mask0_127_1433)">
<path d="M40 0.779297H24C10.7452 0.779297 0 11.5245 0 24.7793C0 38.0341 10.7452 48.7793 24 48.7793H40C53.2548 48.7793 64 38.0341 64 24.7793C64 11.5245 53.2548 0.779297 40 0.779297Z" fill="#EBEBEB"/>
<path fill-rule="evenodd" clip-rule="evenodd" d="M0 7.42188V18.6719L22.5 29.9219L0 41.1719V52.4219L22.5 41.1719V52.4219L45 41.1719V18.6719L22.5 7.42188V18.6719L0 7.42188ZM22.5 18.6719V41.1719L45 29.9219L22.5 18.6719Z" fill="black"/>
</g>
<path d="M80.75 35.1689C79.39 35.1689 78.159 34.9309 77.058 34.4539C75.958 33.9769 75.0519 33.2929 74.341 32.3999C73.6389 31.5069 73.193 30.4539 73.002 29.2409L76.252 28.7469C76.434 29.4749 76.75 30.1029 77.201 30.6319C77.651 31.1519 78.198 31.5509 78.839 31.8279C79.489 32.0969 80.191 32.2309 80.945 32.2309C81.5951 32.2367 82.2414 32.1312 82.856 31.9189C83.446 31.7019 83.918 31.3899 84.273 30.9829C84.637 30.5759 84.819 30.0949 84.819 29.5399C84.819 29.0199 84.65 28.5869 84.312 28.2399C83.974 27.8849 83.45 27.5989 82.739 27.3819L77.903 25.9519C77.2118 25.7589 76.5445 25.4885 75.914 25.1459C75.316 24.8159 74.8 24.3269 74.367 23.6769C73.942 23.0179 73.7299 22.1819 73.7299 21.1679C73.7299 19.9979 74.029 19.0009 74.627 18.1779C75.225 17.3459 76.04 16.7219 77.071 16.3059C78.111 15.8899 79.277 15.6859 80.568 15.6949C82.501 15.7119 84.108 16.1979 85.391 17.1509C86.682 18.0959 87.5359 19.4349 87.952 21.1679L84.585 21.7529C84.4609 21.1328 84.1788 20.5551 83.766 20.0759C83.3682 19.5999 82.8591 19.2293 82.284 18.9969C81.6969 18.7443 81.064 18.616 80.425 18.6199C79.81 18.6199 79.242 18.7239 78.722 18.9319C78.202 19.1319 77.786 19.4129 77.474 19.7769C77.1756 20.1187 77.0136 20.5583 77.019 21.0119C77.019 21.6359 77.262 22.1119 77.747 22.4419C78.241 22.7619 78.9 23.0319 79.723 23.2479L83.077 24.1839C83.9609 24.4269 84.75 24.7129 85.443 25.0419C86.136 25.3619 86.752 25.8739 87.289 26.5759C87.826 27.2779 88.095 28.1959 88.095 29.3319C88.095 30.5799 87.757 31.6459 87.081 32.5299C86.414 33.4049 85.521 34.0639 84.403 34.5059C83.285 34.9479 82.067 35.1689 80.75 35.1689ZM90.129 15.6689H93.262V34.7789H90.129V15.6689ZM96.376 15.7339H99.509V18.6069H96.376V15.7339ZM96.376 20.7389H99.509V34.7789H96.376V20.7389ZM108.46 35.1689C107.047 35.1689 105.821 34.8529 104.781 34.2199C103.756 33.5852 102.934 32.6692 102.415 31.5809C101.869 30.4539 101.592 29.1809 101.583 27.7589C101.583 26.3289 101.865 25.0549 102.428 23.9369C102.991 22.8099 103.793 21.9309 104.833 21.2979C105.882 20.6649 107.104 20.3489 108.499 20.3489C109.556 20.3489 110.514 20.5309 111.372 20.8949C112.201 21.2375 112.936 21.7722 113.517 22.4549C114.098 23.1219 114.496 23.9149 114.713 24.8339L111.593 25.6789C111.359 24.9339 110.956 24.3489 110.384 23.9239C109.832 23.5029 109.154 23.2786 108.46 23.2869C107.281 23.2869 106.393 23.6939 105.795 24.5089C105.206 25.3239 104.907 26.4069 104.898 27.7589C104.907 29.1369 105.214 30.2289 105.821 31.0349C106.428 31.8319 107.307 32.2309 108.46 32.2309C109.275 32.2309 109.925 32.0489 110.41 31.6849C110.895 31.3119 111.264 30.7529 111.515 30.0079L114.713 30.7229C114.28 32.1529 113.521 33.2529 112.438 34.0249C111.355 34.7879 110.029 35.1689 108.46 35.1689ZM118.471 28.6299C118.593 29.7909 118.961 30.6839 119.576 31.3079C120.2 31.9229 121.041 32.2309 122.098 32.2309C122.861 32.2309 123.524 32.0619 124.087 31.7239C124.651 31.3769 125.084 30.8789 125.387 30.2289L128.481 31.1649C128.139 31.9777 127.635 32.7121 126.999 33.3229C126.377 33.9196 125.644 34.3879 124.841 34.7009C124.024 35.015 123.155 35.1738 122.28 35.1689C120.876 35.1689 119.633 34.8609 118.549 34.2459C117.479 33.6435 116.6 32.7513 116.014 31.6719C115.416 30.5719 115.117 29.3189 115.117 27.9149C115.117 26.3979 115.408 25.0719 115.988 23.9369C116.578 22.7929 117.401 21.9089 118.458 21.2849C119.516 20.6609 120.729 20.3489 122.098 20.3489C123.45 20.3489 124.62 20.6479 125.608 21.2459C126.596 21.8439 127.355 22.6979 127.883 23.8069C128.412 24.9069 128.676 26.2029 128.676 27.6939C128.676 27.9889 128.663 28.3009 128.637 28.6299H118.471ZM122.228 23.0919C120.148 23.0919 118.922 24.1489 118.549 26.2639H125.465C125.327 25.1719 124.993 24.3699 124.464 23.8589C123.944 23.3479 123.199 23.0919 122.228 23.0919Z" fill="black"/>
</g>
<defs>
<clipPath id="clip0_127_1433">
<rect width="130" height="48" fill="white" transform="translate(0 0.779297)"/>
</clipPath>
</defs>
</svg>
