<svg width="89" height="36" viewBox="0 0 89 36" fill="none" xmlns="http://www.w3.org/2000/svg">
<g clip-path="url(#clip0_127_438)">
<mask id="mask0_127_438" style="mask-type:luminance" maskUnits="userSpaceOnUse" x="1" y="0" width="88" height="36">
<path d="M1.5 0H88.5V36H1.5V0Z" fill="white"/>
</mask>
<g mask="url(#mask0_127_438)">
<path d="M19.5763 0.000161615C16.4301 -0.013169 13.3353 0.79839 10.6005 2.35394C7.86573 3.90949 5.58644 6.15468 3.98985 8.86572C2.39326 11.5767 1.53515 14.6589 1.50106 17.805C1.46697 20.951 2.25809 24.0511 3.79556 26.7961C5.33303 29.541 7.56314 31.8351 10.2636 33.4495C12.964 35.064 16.0405 35.9424 19.1862 35.9973C22.332 36.0521 25.4372 35.2815 28.1922 33.7621C30.9473 32.2428 33.256 30.0279 34.8883 27.3382H50.1463L53.3363 35.1342H60.0303L63.2203 27.3382H78.3973L81.6403 35.1342H88.0073L73.6253 0.538162H67.8263L56.6903 27.7922L45.5403 0.531162H39.7453L30.5753 22.4082C27.5603 29.5982 19.3553 31.9002 13.4573 28.4962C11.3812 27.2979 9.70703 25.5112 8.64621 23.3617C7.5854 21.2122 7.18561 18.7965 7.49736 16.4198C7.80912 14.0432 8.81843 11.8123 10.3977 10.0091C11.977 8.20594 14.0554 6.91142 16.3703 6.28916C17.9076 5.8765 19.5111 5.7707 21.0893 5.9778C22.6675 6.1849 24.1895 6.70084 25.5683 7.49616C25.9453 7.71616 26.3103 7.95716 26.6613 8.21616L29.1913 2.80916C28.9703 2.66716 28.7373 2.53916 28.5093 2.40716C25.7953 0.832648 22.7139 0.00235075 19.5763 0.000161615ZM42.6213 8.94216L47.7363 21.4542H37.4203L42.6213 8.94216ZM70.7473 8.94216L75.9493 21.4542H65.6323L70.7473 8.94216Z" fill="#A3A3A3"/>
</g>
</g>
<defs>
<clipPath id="clip0_127_438">
<rect width="88" height="36" fill="white" transform="translate(1)"/>
</clipPath>
</defs>
</svg>
