<svg width="118" height="98" viewBox="0 0 118 98" fill="none" xmlns="http://www.w3.org/2000/svg">
<g clip-path="url(#clip0_127_1143)">
<g clip-path="url(#clip1_127_1143)">
<g clip-path="url(#clip2_127_1143)">
<g clip-path="url(#clip3_127_1143)">
<mask id="mask0_127_1143" style="mask-type:luminance" maskUnits="userSpaceOnUse" x="-1" y="0" width="119" height="98">
<path d="M-0.00195312 0.519531H117.027V97.5195H-0.00195312V0.519531Z" fill="white"/>
</mask>
<g mask="url(#mask0_127_1143)">
<path d="M0.444247 29.2582C0.319359 29.0338 0.0780719 29.3297 -0.00195312 29.3382C0.319359 29.6328 0.515784 29.1951 0.444247 29.2582ZM3.6695 32.2882L3.49975 32.3149L4.17875 32.6277L3.6695 32.2882ZM6.00113 35.6383C6.30547 34.9593 5.08206 34.4768 4.84926 33.7529L4.90261 33.5747L4.29636 33.6013C4.86623 34.2803 5.79622 35.0309 6.01083 35.6383H5.99992H6.00113ZM6.08116 38.2088C6.21575 37.9591 6.51887 38.4768 5.85806 37.7444V37.8524C5.91141 37.9239 5.97446 38.0221 6.08116 38.2003V38.2088ZM5.85806 37.8633C5.59858 37.5238 5.83987 38.2113 5.85806 37.8633V37.8633ZM7.08268 39.4153L6.58192 39.0758C6.52857 39.254 6.77956 39.6917 6.58192 39.5935C7.00266 40.0058 7.0548 39.8263 7.0742 39.4153H7.08268ZM7.77017 39.6044L7.52888 39.4165C7.50221 39.4965 7.52767 39.568 7.77017 39.6044ZM7.01963 39.0042L7.52888 39.4068C7.57375 39.2819 7.73501 39.1558 7.31427 39.2104C7.50221 39.1473 7.2779 39.1473 7.01963 39.0042ZM6.90323 38.6659C6.8414 38.3264 6.68983 37.9336 7.18938 38.2828C6.51038 37.434 6.23393 37.8172 6.90323 38.6659ZM6.66195 35.4395L6.57343 34.9848L6.18907 34.8053C6.3758 34.8951 6.51038 35.5741 6.66195 35.4395ZM8.74381 42.5253C8.87718 42.4805 8.94023 42.1689 9.06512 42.0343L8.70743 41.7748C8.74381 42.0076 8.89537 42.3907 8.74381 42.5253ZM9.06512 42.044L9.60105 42.4368C9.3149 41.9542 9.17182 41.9276 9.06512 42.044ZM8.4128 39.2916L7.44037 38.7108L8.53041 39.4613L8.4128 39.2916ZM10.0303 44.5272L9.57437 44.4011L10.3067 44.6787L10.0303 44.5272ZM10.9239 45.8306C10.5662 45.7494 10.7456 46.3653 10.4595 46.2235C10.7275 46.563 11.1118 46.7497 11.4598 46.9194C11.1737 46.6878 11.0039 46.358 10.9239 45.8306Z" fill="#F9CF01"/>
<path d="M11.9951 47.2252C11.852 47.1088 11.6556 47.0191 11.4494 46.9124C11.6118 47.0476 11.7964 47.1534 11.9951 47.2252ZM10.1278 43.3646C10.0842 43.4543 9.95807 43.6411 10.066 43.9903L10.2539 43.578C10.2132 43.5089 10.1711 43.4406 10.1278 43.3731V43.3646ZM10.2624 43.561V43.5792C10.3958 43.8108 10.4855 43.9636 10.5304 44.0351L10.2636 43.561H10.2624ZM10.0927 43.3088C10.0927 43.3088 10.1108 43.3452 10.129 43.3634C10.146 43.3185 10.146 43.2991 10.0927 43.3088ZM9.0293 40.8559C9.40517 41.0427 10.0211 41.5616 9.88653 40.7577C9.52036 40.6765 9.6016 41.1421 9.0293 40.8559ZM10.3327 42.7923L10.0466 42.1861C9.96656 42.2467 9.91321 42.4358 9.72527 42.3376L10.3424 42.7838L10.3327 42.7923ZM10.6104 42.9997L10.3339 42.7935L10.4309 43.0166L10.6104 42.9997ZM11.6907 46.0794C11.9866 46.2322 12.1636 46.4917 12.3794 46.7766C12.2408 46.418 12.067 46.0739 11.8605 45.7496C11.7356 45.7678 11.4591 45.7496 11.6907 46.0794ZM11.0311 44.8305C11.0311 44.8305 11.0663 44.8572 11.0833 44.8742C11.0833 44.8208 11.0833 44.7941 11.0299 44.8305H11.0311ZM14.2018 49.7351L14.2382 49.6454L14.1751 49.672L14.2018 49.7351ZM11.8884 45.6514C11.7986 45.3737 11.6289 45.2755 11.441 45.204C11.584 45.3652 11.7271 45.5435 11.8617 45.7411C11.9235 45.7314 11.9502 45.7132 11.8884 45.6514ZM12.6644 47.9551C12.6559 47.7854 12.6195 47.6072 12.5843 47.4289C12.5577 47.6156 12.5577 47.9648 12.6644 47.9551ZM11.0481 45.0088L11.0117 44.9821C10.9948 45.107 11.0117 45.0718 11.0481 45.0088Z" fill="#F9CF01"/>
<path d="M11.0488 45.0096C11.1737 45.1066 11.3156 45.1514 11.4502 45.206C11.3428 45.0839 11.2234 44.973 11.0937 44.875C11.0911 44.9215 11.0787 44.967 11.0573 45.0084L11.0488 45.0096ZM16.8555 49.3588C16.5245 49.5019 15.8552 49.0278 15.837 48.2688C15.2744 47.8577 14.5057 48.8314 14.2365 49.645C14.3808 49.5819 14.5057 49.5116 15.0246 49.9578C15.0683 49.6619 14.6487 48.4834 15.2113 48.7865C15.8188 49.4388 15.4793 49.457 15.5327 49.9214C15.7291 49.3855 16.6591 50.5374 17.1138 50.0463L16.5245 49.5104C16.6045 49.4485 16.8822 49.6001 16.8555 49.3673V49.3588ZM13.6218 48.5634L13.4435 48.3585C13.5502 48.6532 13.5502 48.9126 13.5235 49.4037C13.9079 49.6983 14.0595 49.7068 14.1844 49.6716L13.5332 48.5198L13.6218 48.5731V48.5634Z" fill="#F9CF01"/>
<path d="M12.7994 47.3318C13.2359 47.3051 13.7197 47.7695 13.8627 47.2154C13.425 46.5546 13.2989 46.9123 12.9061 46.5994C13.6663 47.6361 12.5302 46.403 12.8345 47.3051C12.6701 47.1432 12.5207 46.9667 12.3883 46.7777C12.4684 47.0008 12.5399 47.2154 12.5848 47.43V47.3936C12.5945 47.3233 12.6114 47.2869 12.6211 47.3585C12.6211 47.3585 12.6381 47.3682 12.6381 47.3766C12.6867 47.3592 12.738 47.3502 12.7897 47.35C12.9158 47.7064 12.7363 47.447 12.6381 47.3766C12.6211 47.3766 12.6017 47.3754 12.5848 47.3936L13.442 48.377C13.345 48.1175 13.1571 47.841 12.7994 47.35V47.3318ZM10.9588 40.8728C10.9588 40.9261 10.9321 40.9358 10.9054 40.954C10.9952 40.9977 11.0303 41.0074 10.9588 40.8728ZM11.0485 41.4439C10.9515 41.399 10.7818 41.4172 10.6472 41.1408C10.6023 40.8546 10.7987 41.0425 10.897 40.9613C10.709 40.8643 10.3162 40.5782 10.4774 41.1589L10.5659 41.2026C10.7357 41.7118 10.6993 42.5242 10.6023 42.4806C10.8084 42.1677 10.9418 41.918 11.0388 41.4439H11.0485ZM12.0488 44.366L12.7812 45.1699V44.5358L12.6211 44.6691C12.3617 44.115 12.2271 44.3563 12.0573 44.3745L12.0488 44.366ZM14.104 49.9314L13.6833 50.0296L14.4957 50.2527L14.104 49.9314ZM14.863 51.0917L14.532 51.2251L14.9079 51.4312L14.863 51.0917ZM55.403 44.0714L55.5545 43.7767C55.4936 43.8692 55.4428 43.968 55.403 44.0714ZM53.7867 45.7131L53.8764 45.8744C53.8764 45.7313 53.8583 45.6513 53.7867 45.7131ZM32.4176 81.9572C32.8905 81.7425 33.578 81.5546 33.2033 81.4115L32.7923 81.3509C32.7026 81.6625 32.5777 81.8238 32.4079 81.9572H32.4176ZM43.2355 61.3834C43.1822 61.3931 43.1191 61.4101 43.0573 61.4198C43.0937 61.5896 43.1288 61.7496 43.164 61.8927C43.1822 61.7411 43.2077 61.5714 43.2355 61.3834ZM42.1637 60.1418L42.736 59.8108C42.5832 59.8654 42.3965 59.9721 42.1637 60.1418ZM64.0505 34.9218V34.3762C63.631 34.7788 63.9535 34.7436 64.0505 34.9218ZM21.8313 63.3392C21.8761 63.7502 21.9562 64.0631 22.0544 64.3128C22.0544 63.7951 22.1708 63.304 21.8313 63.3392ZM57.7698 47.5464C57.851 47.3585 57.851 47.2518 57.788 47.1887C57.6995 47.3766 57.6716 47.51 57.7698 47.5464ZM22.5454 65.3229V65.0998C22.344 64.8646 22.1812 64.599 22.0629 64.3128C22.0629 64.6972 22.1441 65.0998 22.5539 65.3229H22.5454ZM100.429 7.52541C100.429 7.52541 100.499 7.50722 100.536 7.50722C100.518 7.45387 100.473 7.48055 100.429 7.52541ZM113.775 4.28076C113.677 4.36079 113.489 4.46749 113.319 4.5657C113.417 4.53902 113.552 4.459 113.775 4.28076ZM17.5172 55.9611C17.3475 55.7186 17.4542 55.943 17.5172 55.9611V55.9611ZM18.1416 53.9593C18.2144 53.9957 18.2847 54.0042 18.3647 53.9593C18.2921 53.9818 18.2143 53.9818 18.1416 53.9593ZM25.9683 66.9403V66.967C26.012 66.8603 26.0035 66.8773 25.9683 66.9403ZM17.4542 55.4871C17.4626 55.6035 17.499 55.7368 17.5342 55.8714C17.5216 55.7408 17.4948 55.6119 17.4542 55.4871ZM17.3293 55.6313L17.2395 55.3888C17.168 55.3888 17.1498 55.4349 17.3293 55.6313ZM17.7403 56.2994C17.6566 56.1654 17.5906 56.0211 17.5439 55.8702C17.5439 55.9333 17.5439 55.9684 17.5257 55.9599C17.5706 56.0315 17.6324 56.1382 17.7403 56.2994ZM81.0158 22.2536C81.0158 22.2536 81.0607 22.2452 81.0874 22.2452C81.2207 21.9323 81.1419 22.0305 81.0158 22.2536ZM32.7571 73.3642V73.4005C32.7668 73.3908 32.7838 73.3823 32.7935 73.3739H32.7571V73.3642Z" fill="#F9CF01"/>
<path d="M33.0778 72.291C33.2391 72.9433 33.0609 73.1313 32.7832 73.3726L33.9181 73.6672L33.0778 72.3007V72.291Z" fill="#F9CF01"/>
<path d="M59.1636 40.0422L58.3949 40.3369C58.618 39.282 59.2267 38.9425 58.3864 39.1037C59.1721 40.0422 56.4294 41.3008 57.2248 42.2211L56.6974 42.4005C56.8053 42.3023 56.7701 42.2393 56.8769 42.1495C55.7856 42.4357 57.0102 43.276 56.0184 44.0435C55.6522 44.2932 55.3127 44.383 55.4121 44.0701L54.9562 44.9735C54.7416 45.1602 54.6349 44.9735 54.8483 44.7758L53.9026 45.9022L53.8844 45.8659C53.8844 46.152 53.7862 46.7061 53.7231 46.9656C53.3473 47.1256 53.7498 46.7413 53.5801 46.7061L53.2587 47.51C52.8028 47.5464 53.026 46.8395 53.437 46.4466C52.0341 46.1969 53.2139 47.1523 51.5964 47.9029L51.999 47.2239C51.1587 47.1353 50.9441 47.7513 50.0335 48.1175C50.3366 48.1175 51.9977 47.5367 51.6413 48.4036C51.4097 48.5285 51.1587 48.7431 51.0156 49.2609C50.6943 48.9747 50.4627 49.3942 50.0868 49.8501L49.6855 49.4391C49.3909 50.0211 49.6406 50.1727 49.5873 50.6189C49.078 51.1014 48.6488 50.922 48.256 50.8068C47.4339 51.5925 49.3108 50.6904 48.5057 51.7525C47.7298 52.3164 47.4969 52.9857 47.041 54.0672C46.4688 54.4431 46.8446 53.7544 46.5682 53.8344L46.55 54.5765C46.4518 54.6747 46.3705 54.5583 46.3354 54.4867C46.1559 54.9778 46.7464 54.8796 46.3802 55.578C46.7367 56.1309 44.6645 56.2109 44.61 57.3907C44.3335 57.4707 44.4051 57.0875 44.1917 56.9978C43.7261 58.2928 43.7528 58.0782 43.5927 59.3113L42.744 59.8023C43.4848 59.5356 43.3696 60.5262 43.2532 61.3665C43.5563 61.3034 43.8243 61.2585 43.9771 61.2052L43.5042 62.3304C43.3429 62.3837 43.2617 62.1703 43.1902 61.8745C43.1824 61.9611 43.1735 62.0476 43.1635 62.134C42.7355 62.3401 42.6094 61.9727 42.5378 61.535L43.075 61.4101C42.9755 60.9639 42.8422 60.508 42.5378 60.3552C42.5274 60.4963 42.4882 60.6337 42.4226 60.759C42.3948 60.6426 42.3596 60.5529 42.2893 60.5444C42.2165 60.5444 42.2432 60.7141 42.2347 60.9554L41.5642 60.7857L41.7255 60.9906L40.4572 61.9909C40.2777 63.2604 40.4657 64.6087 39.6618 66.1983C39.5369 65.5738 39.0992 65.6805 38.6615 65.3325C39.4205 65.2792 39.2592 64.0643 39.8934 63.3853C39.5636 63.7417 39.412 63.5005 39.412 63.3404L38.8846 64.993C38.5366 64.6984 38.402 65.0828 37.9994 65.3228C38.9209 65.5823 37.7763 66.6639 37.6163 67.3695C37.3483 67.2362 37.1871 66.9221 37.723 66.2965C36.6511 66.6457 37.9109 67.8424 36.9276 68.2365C37.0355 68.0667 37.1337 68.0122 37.0537 67.8606C36.9906 68.388 36.1952 69.2186 36.1237 68.8427L36.2316 68.673C35.4095 69.7182 33.9982 72.0316 34.5244 72.6039C34.4359 72.559 33.8454 71.9613 33.7654 71.8182C34.0431 72.9337 34.3644 74.0698 34.6772 75.1768C34.2298 74.6591 32.4886 74.516 32.7566 73.3908C32.5141 73.6139 32.211 73.8904 32.0594 74.5791C32.2558 74.4445 33.1494 74.6142 33.0415 74.9004C31.9964 75.2035 32.4171 75.1671 31.3622 75.7043C31.6484 75.4981 32.3443 76.3299 32.0594 76.7494C31.9697 76.6064 31.1658 76.2766 31.1658 76.062L31.3986 77.6697C31.3986 77.3036 30.6929 77.1969 30.2988 77.3036C30.5413 77.2854 29.7278 78.2493 29.6562 78.607L30.1206 78.2408C29.4149 79.2775 30.317 79.948 30.157 80.9035L30.6565 80.9932C30.5761 80.8344 30.5275 80.6614 30.5135 80.4839C30.7463 80.6173 31.8448 80.7507 31.8533 79.9747C31.5683 79.8413 30.9075 79.554 30.2285 79.1975C29.5313 78.8398 28.8341 78.4021 28.5128 77.8662L28.7444 77.5715L28.1733 76.7591C29.0839 77.0792 31.0591 78.3305 31.863 79.1878C31.9963 78.59 32.1758 78.9647 31.9794 78.1426C32.1855 77.7946 32.4886 78.5088 32.5602 78.7501L32.3007 76.7676C31.7381 76.9907 31.327 75.4812 30.8627 75.6861C31.247 76.302 31.6484 76.9107 31.9879 77.5715C31.7017 77.6782 31.2288 77.4733 30.7911 77.089C30.3352 76.7131 29.9242 76.1505 29.7993 75.4981C29.9327 75.1053 30.8893 75.4448 31.0761 75.3648C30.8445 75.2399 30.317 74.2481 30.4249 74.0868L30.9075 74.5342C30.8796 73.7388 29.7908 73.6042 30.0224 72.5772C29.9509 72.2741 30.4334 71.4423 30.0757 71.5139C29.6114 72.2292 27.6374 73.0234 27.0481 72.8985C27.0651 72.7834 27.1282 71.201 27.2979 70.7548C27.6107 70.094 28.7723 70.9876 29.0403 70.4238C28.879 70.4687 28.5844 70.282 28.4862 70.1922C28.4947 69.8443 29.0039 70.1292 28.6826 69.5048C28.0751 69.6199 28.2 68.1552 28.0836 69.3884C27.6726 68.8161 27.9139 68.673 27.5841 67.9406C27.3246 68.325 26.0745 67.8073 25.6441 67.2713C25.8053 67.2447 25.9229 67.0203 25.9751 66.9221C25.4488 65.6454 25.3943 64.8415 24.8232 63.6799C24.9032 63.5102 24.7868 62.8675 25.1445 62.9912C24.9663 62.876 24.708 62.8045 24.5201 62.4553C24.645 61.5265 24.9929 63.224 25.2961 62.4104C24.9566 62.5183 24.394 61.706 23.9381 61.2949C23.5283 61.6963 24.4473 62.5098 24.8947 62.9294C24.2242 63.2604 23.0723 62.7232 22.1521 61.6963C21.4997 60.8293 22.3752 61.0621 22.1969 60.9457C21.3664 59.1148 20.2497 60.0521 19.9271 58.3376C20.035 57.5253 20.7492 57.8551 20.982 57.5604C21.5628 58.2394 21.3579 58.882 21.6513 59.3913L21.5082 58.6408C21.7762 58.8105 22.1606 59.2664 22.1872 59.6144C22.3133 58.9184 20.6595 56.5771 20.2315 55.0311C19.9538 54.8711 19.5791 54.5413 19.5161 54.8262L19.8204 55.2191C19.704 55.8011 18.9001 54.6832 19.0517 55.3088C18.4976 54.8723 17.7567 54.4419 17.4803 53.5398L17.8635 53.1118C17.7386 53.2088 17.8816 53.7992 18.1593 53.9423C17.7568 53.7277 18.0866 52.343 17.256 52.3345V53.0839C16.6849 52.6559 15.7646 52.2533 15.4967 51.4591C15.2202 52.0569 15.6482 51.5925 15.3984 52.4146C15.8277 51.5743 16.4351 54.2285 16.7298 53.1118C16.3903 53.9957 16.9795 54.1569 16.8268 55.1391C16.9711 55.0324 16.988 54.728 17.256 55.3622C17.3301 55.3672 17.4028 55.3852 17.4706 55.4155C17.4706 55.4337 17.4706 55.4434 17.4803 55.4604V55.4167C17.4803 55.4167 17.5239 55.4252 17.4803 55.3985C17.4706 55.2191 17.4803 55.059 17.5421 54.9608C18.0696 55.0493 18.597 56.006 18.9632 56.2206C19.0881 56.6135 18.6952 56.1757 18.6407 56.4619L19.1948 56.7832C18.8735 57.0245 19.1329 58.0515 18.4709 57.3288L18.865 58.0866C18.9098 58.6408 19.1681 59.2931 19.5173 59.5877C19.6325 59.9818 20.383 60.2849 19.9453 60.1152L20.7941 61.187L20.714 61.2404C21.2766 62.4383 22.5631 63.3756 22.5631 65.0549C22.8493 65.4126 23.1694 65.7703 23.367 66.4941L23.1172 66.7706C23.4652 67.235 23.5186 68.4584 23.9393 68.5396C23.3306 69.4684 24.8317 71.1307 25.0281 72.1213L25.467 71.9964C25.6986 72.6391 26.0199 73.2029 26.4855 73.9437L26.842 73.7655C27.3876 74.3548 27.1815 75.6327 27.521 76.7131C27.3513 76.6779 27.3149 76.3918 27.3513 76.1687C27.0918 76.9459 27.458 77.58 27.7987 78.2141C28.12 78.8398 28.531 79.4752 28.28 80.1178C28.3576 80.2177 28.4082 80.3358 28.4271 80.4608C28.446 80.5858 28.4325 80.7136 28.388 80.8319C28.388 80.8053 28.3698 80.7786 28.3516 80.7604C28.3516 80.7871 28.3516 80.8319 28.3698 80.8853C28.3214 81.0082 28.2797 81.1337 28.2449 81.2612L26.8153 86.139L32.3989 81.9668C32.3989 81.9668 32.4353 81.9402 32.4522 81.9305C32.4256 81.9402 32.4074 81.9486 32.3807 81.9571L26.6007 84.467L28.2716 81.2612C28.3274 81.1666 28.3694 81.0645 28.3964 80.958C28.4146 81.0381 28.4328 81.1278 28.4692 81.243L30.2103 87.4958L32.2207 81.8856C32.2825 81.7159 32.3358 81.5024 32.3904 81.2696L32.8451 81.3412C32.8451 81.3412 32.8633 81.2963 32.8718 81.2612C33.1749 81.0284 32.8281 80.912 32.4522 80.9301C32.4789 80.7422 32.4789 80.5543 32.4522 80.3845C33.2028 80.4658 32.6935 79.4388 33.5508 79.4654C33.364 79.0714 34.2298 77.7595 33.6769 77.1956C33.7654 77.232 33.8636 77.169 33.7654 77.3387C34.0431 77.0259 34.3377 76.7325 34.3474 76.3117L34.9088 76.4451L34.7487 75.3017C35.3198 75.0156 35.5975 74.9355 35.6775 75.6048C35.8109 74.168 36.0085 74.5791 36.0703 73.3096L36.3383 73.5424C36.5444 73.2029 36.4996 72.4257 36.8742 72.3808C37.4017 72.1929 38.0176 71.2993 38.733 70.2638C39.4569 69.2271 40.3141 68.0752 41.2247 67.3332C40.1262 67.0834 42.2165 66.7524 41.6091 66.208C41.8855 66.2443 42.1814 66.0746 42.145 66.4941C42.6094 65.4029 43.4763 65.3325 43.4132 64.2874C43.6909 64.3322 43.5563 64.6984 43.7443 64.6984C43.7625 64.5905 43.7976 64.2777 43.9855 64.2692C44.1735 64.2692 44.0486 64.5287 44.0219 64.7336C44.7009 63.7781 44.1735 63.224 43.6545 62.7232C44.2887 62.4565 44.4317 62.1873 44.325 61.5532C44.6379 61.5265 45.0404 61.4016 44.6646 62.0358C44.941 61.7326 46.4687 60.2485 46.0407 59.8557C46.2275 59.8387 46.4421 59.4362 46.4603 59.3101C47.0762 58.6141 47.1659 58.5874 47.7104 57.8466L47.4788 57.9799C47.1756 57.2646 47.8449 57.3009 48.2463 56.6753L48.2911 56.7383C49.7474 55.7562 48.5773 56.023 50.0699 55.1039L49.6855 54.8978C49.0865 54.1824 51.0253 54.1024 51.4182 53.1639L50.9986 53.2633C51.1138 52.6643 52.9277 52.9869 53.3654 52.674C53.4988 52.6377 53.3388 52.8971 53.2757 53.0487C54.5986 52.3782 52.9726 52.5479 53.5619 51.6907C53.9111 51.7538 53.9741 52.3879 54.4737 51.9053C54.8847 51.8156 55.0799 49.7519 56.1445 49.4391C55.8317 49.4391 55.5273 49.4391 55.7153 48.9577C56.1348 48.3406 57.6989 48.0993 57.6274 47.1269C57.6643 47.1155 57.7032 47.1119 57.7416 47.1162C57.78 47.1206 57.8171 47.1329 57.8505 47.1523C58.1003 46.6164 58.8872 45.6246 58.8423 45.1068C60.2621 45.7676 60.7629 42.0962 61.7281 43.0613L62.8799 41.7749L62.9418 41.9083C63.8087 41.2123 63.8633 40.7115 63.9166 40.2108C64.1664 40.1041 64.1227 40.3187 64.1579 40.3902C65.5244 39.4784 65.5959 39.3268 66.1137 37.9058L66.5162 38.1301C66.6047 37.6924 68.6781 37.0389 69.482 35.5754C69.5087 35.619 69.5353 35.7087 69.482 35.8421C70.4459 34.244 73.5014 33.9749 72.9207 32.3234L73.5548 31.2516C72.3229 32.1537 73.2699 30.5726 72.6175 30.7775C73.0104 30.3131 74.1089 30.1349 73.6093 30.6793L73.4663 30.6975C73.8058 31.5099 75.091 29.6875 75.4305 30.1519C77.6288 28.1149 80.2829 26.7569 82.4885 25.0424L81.8362 24.7296L82.6316 24.1573C82.9262 24.1221 83.2136 24.3452 82.6497 24.7562C83.1675 24.8193 83.3821 23.7911 83.3106 23.6662C84.5437 23.0321 83.3554 24.5962 83.6949 24.3537L84.1144 23.9705L83.9714 23.9875C84.1678 23.4964 84.0344 23.237 84.7134 22.7459C85.2142 22.5228 85.1693 22.8987 85.3476 22.7908C85.3742 22.8271 85.4458 22.8005 85.607 22.6125C85.9465 22.3797 86.2679 22.13 86.6158 21.9069L85.9102 21.782C86.1878 21.2448 86.8668 21.1296 86.0532 20.9866C87.2682 21.2279 90.0023 18.5919 90.5831 18.5203C90.9942 17.7698 91.6101 17.3418 92.4055 16.841C92.1545 16.8859 91.7083 16.493 92.4055 16.082C92.842 17.2339 93.9066 15.6528 94.9239 15.9923C94.531 15.9207 94.9784 15.5643 95.3713 15.2066C95.7726 14.8489 96.1388 14.5191 95.5229 14.4197C96.1485 14.1432 95.809 14.7689 96.3898 14.7325C97.4883 13.4909 99.5338 13.098 101.115 11.9195C101.062 11.7667 100.651 11.74 100.883 11.3205L102.188 11.4272C102.473 11.1508 102.009 10.4633 102.902 10.5421C102.751 10.4815 102.518 10.3917 102.714 10.2123C104.555 9.49692 106.127 8.29169 107.852 7.29138C109.549 6.25469 111.3 5.29075 113.364 4.95974C112.756 4.95974 113.051 4.75362 113.4 4.5487C113.131 4.61175 113.221 4.2092 113.068 4.04794L114.792 3.763C114.775 3.09249 116.311 2.8609 116.204 2.28011L115.792 2.6281C116.088 1.69933 114.247 1.79754 113.925 0.993652C113.605 2.03883 111.576 1.02033 110.979 2.60143C110.648 2.59173 111.059 2.24374 110.826 2.14553C110.719 2.6281 110.415 2.88758 109.691 3.10098L109.719 2.98579C107.967 4.06613 107.02 4.18253 104.876 5.1113L105.242 5.38897C104.778 5.58539 104.617 5.52234 104.367 5.54053C104.197 6.37109 105.6 4.8882 105.51 5.75514C104.475 5.29075 102.518 7.56783 101.634 6.97007C100.982 7.3714 102.08 7.2647 101.428 7.67574L101.115 7.55934L101.133 7.95219C100.677 8.17529 100.294 8.02494 100.159 7.84549C100.276 7.80063 100.419 7.60299 100.517 7.52418C99.8018 7.6042 99.0161 8.59603 98.7748 8.63119L99.4805 8.37172C97.846 9.69334 95.4962 10.7749 94.0933 12.3026L94.3358 12.3839C93.2628 13.5358 93.1997 12.9016 91.9048 14.0086L91.9314 13.9383C91.7714 14.2948 91.4586 14.644 91.0645 14.8841C91.2791 14.4476 90.1539 14.9738 90.4583 14.4379C89.3233 15.7243 89.9575 15.1702 89.4834 16.413L89.0821 16.2869C88.9487 16.7513 89.0093 16.8944 88.3764 17.4485C88.7777 16.8144 87.644 17.3515 88.0539 16.5997C86.1781 17.0375 86.3394 18.7083 85.0444 18.3239C84.928 19.5304 86.5989 17.851 86.3394 18.2706C86.8304 18.2972 86.1963 19.209 85.6871 19.4588C85.2142 19.7619 84.1957 19.0563 83.0875 19.9584C83.2039 19.8783 83.1675 19.8165 83.2839 19.7268C82.7213 19.8699 82.6497 20.6204 81.9077 20.7271C81.9526 21.3976 81.2202 21.2279 81.5682 21.8523L82.4982 20.915C82.0253 21.5213 81.9889 22.6028 80.7825 23.0321C80.774 22.8623 80.9438 22.4864 81.0686 22.2561C80.6576 22.3082 80.6127 22.7908 80.1932 22.8441C79.8355 22.2197 81.3451 21.7456 81.6397 20.8253C81.1584 20.8253 80.774 22.1566 80.6127 21.3079C80.7558 22.4331 79.4342 22.0766 79.1299 23.2552L78.9152 22.8793C78.8352 23.0236 78.7091 23.38 78.4872 23.5413L78.5491 22.8005C78.2278 23.6492 77.1026 23.4067 76.6733 24.0772C77.9064 23.0951 77.2723 24.2567 77.9865 24.0869C76.8249 25.7214 76.4139 23.9075 74.834 25.417C75.0207 25.1758 75.8597 24.926 75.6197 25.3637C75.2353 25.5419 74.7164 25.7747 74.3866 25.7747C73.3499 26.7847 74.8328 25.9627 74.5381 26.5701C73.8409 26.4889 74.1368 27.1946 73.7694 27.7317L73.493 27.4007C72.0719 28.2579 73.7427 28.3658 72.4114 29.08L72.4926 28.2228L72.0101 28.8387L71.8136 28.3658C71.4208 29.1867 71.1613 29.2861 70.4472 29.7238C70.7867 29.8305 70.8752 30.3847 70.3392 30.8672C69.7936 31.0006 70.2762 30.375 69.5438 31.0988C69.5438 30.7423 69.5075 30.3228 70.1077 30.3313C70.0531 30.1979 70.1077 29.9736 70.0446 29.839C69.4456 29.9651 68.9812 30.6708 68.7048 30.9109C68.8212 30.8309 68.9715 30.7326 69.0807 30.7242L68.3471 32.144C68.0609 32.1804 68.1143 31.9573 68.1689 31.7427C67.9724 31.9742 67.9458 32.2604 67.6329 32.5732C67.4802 32.2337 67.2207 31.9839 67.5881 31.4565C67.3201 31.8675 67.034 32.2604 66.7842 32.6896C66.6144 32.6448 65.9718 32.886 66.0155 32.6629C65.3001 33.0558 65.0697 34.4938 64.1215 35.0116C64.1215 35.1013 64.0949 35.2177 63.97 35.4141C63.2013 36.0301 62.2725 36.3162 61.7547 37.4693H60.8332C60.2719 38.2016 62.0397 37.4244 61.1024 38.6394C60.4598 39.5245 60.4319 38.5314 60.0391 38.666C59.8693 39.2553 59.6911 40.3902 58.6362 40.7394C58.7793 40.4169 59.0205 40.3005 59.2085 40.0507L59.1636 40.0422ZM51.6413 48.4036C51.7213 48.1805 51.8025 47.6713 52.0972 47.7246C52.2936 48.2424 51.999 48.2242 51.6413 48.4036ZM41.5739 62.1873C41.5557 61.9739 41.7703 61.8211 42.0649 61.6963C41.9543 61.9056 41.7832 62.0767 41.5739 62.1873ZM19.373 58.5874H19.4009C19.4809 59.0967 19.4627 58.9184 19.3742 58.5874H19.373ZM19.0614 57.632C18.9632 57.5786 18.9086 57.6053 18.882 57.6768C19.0081 57.6768 19.1244 57.8732 19.2214 58.1133C19.2845 57.9981 19.2942 57.8466 19.0699 57.632H19.0614ZM85.2578 22.621L85.0347 22.6477C85.3027 22.2815 85.2772 22.4416 85.2578 22.621Z" fill="#F9CF01"/>
<path d="M42.2804 60.2947C42.3786 60.2947 42.4501 60.3214 42.5229 60.3663C42.5229 60.2499 42.4501 60.2062 42.2804 60.2947ZM64.0508 35.0299L64.0775 35.0117L64.0508 34.9316V35.0299ZM29.0945 69.9874C29.1159 70.1415 29.0975 70.2984 29.0411 70.4433C29.1381 70.4167 29.1927 70.2918 29.0945 69.9874ZM15.837 53.4417L16.2492 53.9327C16.0795 53.6829 16.1049 53.5399 16.088 53.3701C16.0067 53.432 15.9449 53.6114 15.837 53.4417ZM15.2744 47.3319C15.1762 47.2785 15.1665 47.1621 15.0683 47.1185L14.9082 47.2434C15.1313 47.5732 15.4175 47.7259 15.2647 47.3331L15.2744 47.3319ZM16.7755 52.2098C17.0616 51.9867 16.7488 51.7005 16.4626 51.3525C16.4808 51.3792 16.4893 51.3974 16.5075 51.4241C16.0079 51.5671 16.3923 51.8885 16.7755 52.2098ZM16.3996 51.2701C16.3119 51.1628 16.237 51.0456 16.1765 50.9209C15.9704 50.9839 16.2298 51.0906 16.3996 51.2701ZM18.2486 56.6499C18.2317 56.4184 17.7758 56.7663 17.8473 56.5869C17.3284 56.6051 19.0259 57.5339 18.2486 56.6499ZM17.6157 51.2883L17.3126 51.6544L17.7576 51.6908L17.6157 51.2883ZM19.1156 54.5123L18.8658 53.8333C18.8028 53.8782 18.7227 53.8248 18.633 53.7448C18.8476 54.1279 19.0089 54.5935 19.1059 54.5123H19.1156ZM18.6342 53.7363C18.5263 53.5314 18.4111 53.3532 18.2765 53.2731C18.3396 53.3798 18.4911 53.6017 18.6342 53.7363ZM18.2305 52.0655L18.2571 52.2971L18.4814 52.7445L18.2305 52.0655ZM22.707 61.3035L23.1714 61.9377C23.3411 61.9377 23.3327 61.7061 23.1447 61.4733C22.9653 61.3569 22.7785 61.1253 22.707 61.295V61.3035ZM22.6973 58.6409C22.7155 58.8737 22.6355 58.9367 22.5554 59.1065L23.055 58.864L22.6888 58.6409H22.6973ZM23.8771 60.6063C24.0468 60.6063 24.7889 61.4284 24.3063 60.553C24.1365 60.553 23.6637 59.9104 23.8771 60.6063ZM28.1208 71.674L28.0481 71.4958L27.209 71.845L28.1208 71.6752V71.674ZM28.6204 79.2073C28.0663 79.8681 28.7283 79.7517 28.5403 80.1094L32.4446 80.7787C32.4349 80.7072 32.4446 80.6089 32.4531 80.4659C32.3197 80.3507 32.3015 80.5992 32.2748 80.7969L28.7016 80.1809C28.8168 80.0548 28.9247 79.9566 28.9514 80.0912C29.0229 79.4486 29.2812 79.2606 28.6301 79.2061L28.6204 79.2073Z" fill="#F9CF01"/>
<path d="M28.9427 80.09C28.9427 80.153 28.9342 80.2149 28.9257 80.2961L32.0164 80.8223L31.9351 80.7156C31.963 80.7775 31.9982 80.8223 32.0079 80.8223L28.916 80.2961C28.9373 80.2296 28.9435 80.1592 28.9342 80.09H28.9427ZM115.901 3.64792L116.5 3.53152L116.027 3.44179L115.901 3.64792ZM116.571 2.49604L116.964 2.94224L117.026 2.30811C116.919 2.39662 116.723 2.56637 116.571 2.50453V2.49483V2.49604ZM49.6595 48.8669L49.731 48.9918C49.9092 49.0185 50.0075 48.9202 50.2136 48.7335L49.6595 48.8669ZM55.5195 43.1415L55.4225 43.2312L55.9754 43.4009L55.5195 43.1415ZM59.8614 37.7543C59.648 37.9326 59.4856 38.2369 59.2637 38.4248C59.6396 37.9326 60.3707 38.1739 59.8614 37.7543ZM59.1921 84.6005C59.4237 84.4489 59.0939 84.2343 59.0757 84.164C58.7896 84.5205 59.2637 84.6732 59.1921 84.6005ZM56.1815 88.1313L56.1536 87.9518L55.8056 88.6405L56.1815 88.1313ZM52.527 90.4168C53.1878 90.7563 53.8402 89.5596 54.5907 89.3268L54.7774 89.3802V88.7545C54.0815 89.362 53.1794 90.2301 52.527 90.4168ZM49.8826 90.2471C50.1142 90.4084 49.5431 90.6593 50.3821 90.0773C50.3288 90.0773 50.3021 90.0773 50.2669 90.0604C50.1426 90.1276 50.0142 90.1871 49.8826 90.2386V90.2471Z" fill="#F9CF01"/>
<path d="M50.2677 90.0688C49.9185 90.0155 50.6508 89.8542 50.2677 90.0688V90.0688ZM48.489 91.0606L48.9279 90.6242C48.7581 90.5344 48.2756 90.7127 48.4004 90.5429C47.9094 90.8909 48.0791 90.9806 48.4805 91.0606H48.489ZM48.1676 91.7142L48.4101 91.5081C48.3374 91.4717 48.2574 91.4814 48.1676 91.7142ZM48.9182 91.0691L48.4089 91.5056C48.5253 91.5687 48.6235 91.7566 48.6502 91.3189C48.6769 91.5153 48.7218 91.2922 48.9182 91.0691ZM49.2941 91.0085C49.6505 91.0085 50.0701 90.8909 49.6336 91.348C50.6072 90.766 50.2592 90.4532 49.2941 91.0085ZM52.6527 91.1152L53.1353 91.0425L53.3668 90.6593C53.2517 90.846 52.5278 90.954 52.6442 91.1152H52.6527ZM45.0151 92.0779C45.0236 92.221 45.3098 92.3544 45.408 92.4975L45.756 92.2028C45.5147 92.1943 45.0952 92.2562 45.0054 92.0779H45.0151ZM45.4068 92.4999C45.2313 92.6473 45.0497 92.7873 44.8624 92.9194C45.425 92.786 45.488 92.6151 45.408 92.4975L45.4068 92.4999ZM48.3471 92.4102L49.1328 91.525L48.1507 92.4999L48.3471 92.4102ZM42.675 92.7666C42.7663 92.6359 42.8524 92.5016 42.9333 92.3641C42.7732 92.5872 42.6035 92.7836 42.4337 92.9897L42.6653 92.7666H42.675ZM41.1194 93.2031C41.3158 92.8915 40.6635 92.8636 40.9048 92.6417C40.4937 92.8018 40.1809 93.0783 39.8863 93.3377C40.2173 93.168 40.5919 93.1316 41.1194 93.2128V93.2031ZM39.3867 93.7245C39.5565 93.6251 39.7165 93.482 39.8863 93.3304C39.6962 93.4283 39.5266 93.5629 39.3867 93.7245ZM43.7905 93.185C43.7178 93.1231 43.5674 92.9449 43.2012 92.9618L43.5492 93.2565C43.6208 93.2395 43.7105 93.2128 43.799 93.1862L43.7905 93.185ZM43.5577 93.2565H43.5492C43.3692 93.2953 43.1905 93.3397 43.0133 93.3899C43.0848 93.3729 43.2449 93.3377 43.5577 93.2565Z" fill="#F9CF01"/>
<path d="M43.8534 93.1691C43.8534 93.1691 43.817 93.1776 43.7904 93.1873C43.8267 93.214 43.8449 93.2237 43.8534 93.1691ZM46.6131 92.7217C46.3281 93.0527 45.6394 93.5522 46.4882 93.5886C46.6579 93.2491 46.1754 93.2309 46.6131 92.7217ZM44.2911 93.5268L44.9883 93.4116C44.9435 93.3219 44.7822 93.2152 44.9253 93.0624L44.2911 93.5353V93.5268ZM44.005 93.7414L44.2911 93.5268L44.0401 93.5716L44.005 93.7414ZM40.6015 93.8578C40.342 94.0712 40.0195 94.1427 39.6715 94.2409C40.0741 94.2409 40.4839 94.2143 40.8695 94.1342C40.8961 94.0009 41.0125 93.7584 40.61 93.8663L40.6015 93.8578ZM42.048 93.6165L41.9862 93.6529C42.031 93.6699 42.065 93.6796 42.048 93.6165ZM36.0801 94.7587L36.1431 94.8205L36.1516 94.7587H36.0801Z" fill="#F9CF01"/>
<path d="M40.9383 94.1864C41.2427 94.1864 41.3942 94.053 41.5373 93.9014C41.3178 93.9973 41.0907 94.0748 40.8583 94.133C40.8498 94.1961 40.8498 94.2312 40.9383 94.1864ZM38.4297 94.0809C38.5897 94.1342 38.7777 94.1694 38.9656 94.1961C38.7959 94.1076 38.4648 93.973 38.4297 94.0809ZM41.8683 93.5801C41.8683 93.5801 41.895 93.5631 41.9047 93.5534C41.7883 93.5001 41.815 93.5365 41.8683 93.5801Z" fill="#F9CF01"/>
<path d="M41.8697 93.5791C41.7364 93.6688 41.6369 93.7852 41.5387 93.9004C41.7085 93.8289 41.8612 93.7489 41.9861 93.6591C41.9396 93.6411 41.8971 93.6139 41.8612 93.5791H41.8697ZM35.1513 97.2797C35.1876 96.9123 35.9733 96.5728 36.7057 96.8504C37.3677 96.5024 36.7687 95.4027 36.1431 94.8219C36.1431 94.9832 36.1528 95.125 35.4823 95.376C35.7418 95.5725 37.0634 95.6792 36.5093 96.0635C35.5987 96.3497 35.7333 96.0017 35.2774 95.8501C35.6969 96.2612 34.1328 96.5655 34.3656 97.1984L35.1876 96.9123C35.2143 97.0117 34.9197 97.1899 35.161 97.2699L35.1513 97.2797ZM37.4477 94.697L37.7242 94.6158C37.4029 94.5988 37.1531 94.4824 36.7057 94.2593C36.2692 94.4909 36.1795 94.634 36.1613 94.7504L37.5375 94.6255L37.4477 94.6873V94.697Z" fill="#F9CF01"/>
<path d="M38.9649 94.4288C38.8134 94.8496 38.161 95.1345 38.6436 95.474C39.4657 95.2958 39.1711 95.046 39.6354 94.795C38.3308 95.1345 39.9749 94.5186 38.9831 94.4737C39.2039 94.3736 39.4343 94.2961 39.6706 94.2421C39.4293 94.2421 39.188 94.2239 38.9649 94.1973C38.9746 94.1973 38.9916 94.2058 39.0013 94.2142C39.0631 94.2506 39.0898 94.2773 39.0183 94.2591C39.0183 94.2591 39.0013 94.2688 38.9916 94.2688C38.9891 94.3212 38.9767 94.3726 38.9552 94.4204C38.5636 94.4204 38.8849 94.3306 38.9916 94.2688V94.2057C38.5721 94.3573 38.1429 94.4919 37.7148 94.6083C38.001 94.6253 38.3575 94.5816 38.9649 94.4204V94.4288ZM46.0678 94.6265C46.0144 94.6083 46.0047 94.5816 45.9962 94.5537C45.9247 94.6265 45.9077 94.6701 46.069 94.6265H46.0678Z" fill="#F9CF01"/>
<path d="M45.4525 94.5816C45.5325 94.5004 45.5689 94.3391 45.889 94.2688C46.1934 94.2772 45.9521 94.447 46.0054 94.5549C46.1582 94.3852 46.5595 94.0541 45.9254 94.0893L45.8539 94.1705C45.2828 94.2239 44.4595 93.9559 44.5407 93.8844C44.8002 94.1705 45.0051 94.367 45.4707 94.5816H45.4525ZM42.157 94.7319L41.0924 95.1878L41.735 95.3758L41.6647 95.1878C42.317 95.1078 42.1206 94.9017 42.1654 94.7319H42.157ZM35.9368 94.5816L36.0459 94.1621L35.464 94.778L35.9368 94.5816ZM34.5085 94.7222L34.5449 94.3645L34.1775 94.607L34.5085 94.7222ZM20.0894 37.9166L20.3489 37.6571C20.2155 37.7638 20.1331 37.8536 20.0894 37.9166ZM17.8827 39.2746L17.9276 39.4529C17.9724 39.3013 17.9724 39.2213 17.8827 39.2746ZM6.16267 79.7321C6.31424 79.1792 6.63555 78.5354 6.27907 78.7233L5.95776 78.9828C6.12751 79.2592 6.17116 79.5078 6.16267 79.7321ZM5.37576 55.818C5.32241 55.8458 5.26057 55.8725 5.20601 55.8992C5.26906 56.0689 5.33211 56.2205 5.38546 56.3636C5.38546 56.1938 5.38546 56.0144 5.37576 55.818ZM4.11719 54.7546C4.29542 54.5933 4.46517 54.4151 4.65311 54.2623C4.49185 54.3521 4.3221 54.5145 4.11719 54.7546ZM32.9904 32.1002L33.3021 31.6177C32.6594 31.7789 32.9904 31.9038 32.9904 32.1002ZM20.0628 92.9362C19.733 92.6683 19.465 92.4803 19.2055 92.3736C19.5717 92.7495 19.8312 93.2042 20.0628 92.9362ZM21.3844 41.953C21.519 41.7833 21.5541 41.6766 21.5008 41.605C21.3577 41.7748 21.2947 41.8997 21.3844 41.953ZM18.1422 91.9347C18.187 91.9977 18.2501 92.0426 18.2937 92.1044C18.5884 92.159 18.8757 92.2208 19.197 92.3724C18.9291 92.0875 18.5981 91.8462 18.1337 91.9359L18.1422 91.9347ZM75.1563 53.5057V53.6294C75.2097 53.6294 75.1927 53.5773 75.1563 53.5057ZM74.7271 67.9769C74.7089 67.8605 74.7271 67.6908 74.7271 67.504C74.6992 67.5925 74.6908 67.7259 74.7271 67.9769ZM28.7734 94.4737C28.8267 94.4373 29.0765 94.4834 28.7734 94.4737V94.4737ZM30.1581 96.0984C30.0853 96.1348 30.0332 96.1881 30.0247 96.2767C30.0341 96.2396 30.0507 96.2048 30.0736 96.1742C30.0965 96.1436 30.1252 96.1179 30.1581 96.0984ZM14.318 92.7034L14.2925 92.6864C14.3361 92.8028 14.3264 92.775 14.318 92.7034ZM29.2111 94.6883C29.0891 94.6322 28.9636 94.5844 28.8352 94.5452C28.8983 94.5816 29.005 94.6349 29.2111 94.6883ZM29.1662 94.5003C29.2729 94.5185 29.3542 94.5367 29.4257 94.5537C29.4694 94.4919 29.4342 94.447 29.1662 94.5003Z" fill="#F9CF01"/>
<path d="M28.3536 94.4459C28.5234 94.464 28.6834 94.4992 28.835 94.5429C28.7816 94.5077 28.755 94.4907 28.7732 94.4725C28.6834 94.4725 28.5585 94.4543 28.3536 94.4459ZM56.4764 34.1907C56.4764 34.1907 56.5127 34.2258 56.5297 34.2525C56.9056 34.2343 56.7528 34.1992 56.4764 34.1895V34.1907ZM0.409144 72.5869C0.409144 72.5869 0.426119 72.6136 0.435819 72.6233V72.5687L0.409144 72.5869ZM0.0429688 71.3793C0.552219 71.88 0.489169 72.1674 0.435819 72.5687L1.50767 72.0849C1.01327 71.8627 0.524864 71.6274 0.0429688 71.3793Z" fill="#F9CF01"/>
<path d="M25.5566 35.0032L24.6351 35.0299C25.3408 34.0829 26.1192 33.958 25.1807 33.8416C25.3687 34.4224 24.6181 34.7874 23.8761 35.1633C23.1437 35.5658 22.4211 35.9672 22.643 36.531L22.027 36.5576C22.1786 36.4946 22.1604 36.4243 22.3132 36.36C21.0716 36.3515 22.0185 37.5216 20.7224 38.0405C20.2495 38.1921 19.8736 38.2188 20.0882 37.9241L19.3207 38.7547C19.0431 38.8978 18.9897 38.6832 19.2759 38.5316C18.8284 38.8529 18.3641 39.1572 17.9348 39.4967V39.4604C17.7923 39.8362 17.6221 40.201 17.4256 40.5516C16.9891 40.6401 17.525 40.3273 17.3553 40.2643L16.783 41.0245C16.2919 40.9796 16.7381 40.3006 17.2837 39.9793C15.8809 39.4785 16.8193 40.6304 14.9339 41.1942L15.5329 40.5419C14.6744 40.3455 14.2549 40.9348 13.2182 41.2476C13.5407 41.2379 15.4613 40.8717 14.8442 41.712C14.558 41.8017 14.2464 42.0066 13.9954 42.5425C13.719 42.2115 13.3795 42.6323 12.8969 43.0785L12.5574 42.6226C12.1112 43.2131 12.361 43.4095 12.2264 43.8739C11.6104 44.3746 11.1812 44.1685 10.7884 44.0254C9.78804 44.8475 11.9233 43.9284 10.9048 45.0439C10.0293 45.6696 9.62678 46.3304 9.08237 47.5271C8.44823 47.9564 8.90413 47.1973 8.60949 47.2955L8.52826 48.0897C8.41186 48.2061 8.34032 48.0728 8.30516 48.0097C8.09054 48.5456 8.69801 48.3941 8.29667 49.1713C8.67254 49.7436 6.45609 49.9934 6.46579 51.3332C6.17843 51.4581 6.24997 51.03 6.01717 50.9755C5.58067 52.4584 5.58067 52.2171 5.51762 53.5751L4.67857 54.2723C5.43759 53.8346 5.37454 54.9064 5.40122 55.8267C5.70556 55.6933 5.95533 55.5854 6.09841 55.4957L5.80377 56.7737C5.65221 56.8719 5.52732 56.6754 5.41092 56.3808C5.41092 56.4778 5.41092 56.5772 5.42911 56.6476C5.03504 56.9701 4.83862 56.6124 4.70524 56.1747C4.87499 56.0862 5.05323 55.9964 5.23147 55.9164C5.06172 55.469 4.86529 55.0228 4.53549 54.9246C4.55011 55.0822 4.52855 55.241 4.47244 55.389C4.42758 55.2726 4.37544 55.1829 4.31239 55.1926C4.23964 55.201 4.28451 55.389 4.31239 55.6485H3.60672L3.80314 55.8182C3.40908 56.2826 3.06109 56.7737 2.70341 57.2732C2.74827 57.9886 2.87316 58.6676 2.99926 59.4363C3.12414 60.1953 3.12414 60.981 3.03442 61.9547C2.70341 61.3654 2.31904 61.6515 1.79282 61.4903C2.46212 61.1144 1.99894 59.9359 2.45363 58.9622C2.22204 59.463 2.00743 59.2569 1.97106 59.0956C1.94438 59.7576 1.88254 60.3918 1.89952 61.0441C1.47151 60.8743 1.47151 61.3387 1.16717 61.7679C2.13232 61.6346 1.37329 63.2508 1.56002 64.045C1.25689 64.045 0.979231 63.8037 1.23022 62.9016C0.371769 63.7868 2.02441 64.393 1.29206 65.2612C1.32843 65.0368 1.39027 64.9301 1.25568 64.8137C1.39997 65.3594 1.10533 66.601 0.864044 66.2784L0.881019 66.0553C0.541519 67.5297 0.631244 70.6204 1.44483 70.7902C1.34541 70.8083 0.523331 70.6301 0.363281 70.5404C1.25689 71.4158 2.12262 72.2197 3.08777 72.9533C2.40877 72.7835 0.970744 73.8541 0.461494 72.6574C0.408144 73.0236 0.354794 73.4795 0.667619 74.2033C0.729456 73.9439 1.53334 73.4795 1.63156 73.8008C1.00591 74.7926 1.31873 74.4616 0.916181 75.6862C0.988931 75.3019 2.06927 75.5165 2.14081 76.0706C1.97106 76.016 1.15868 76.3204 1.01561 76.1324C1.42664 76.5447 1.85466 76.9278 2.31056 77.294C2.04381 76.9994 1.47151 77.4371 1.27508 77.8214C1.43513 77.625 1.56002 79.0461 1.80131 79.3844C1.80131 79.1697 1.81949 78.9466 1.84617 78.732C1.99773 79.5359 2.49849 79.8039 2.96288 80.0452C3.45394 80.2877 3.88317 80.5277 4.18751 81.2334C3.91833 81.1449 2.81132 81.2868 3.03442 82.0907C3.34724 82.1634 4.07959 82.2883 4.83862 82.5029C5.60734 82.7163 6.44639 82.9673 6.92048 83.4402L6.78711 83.8063C7.02718 84.0488 7.33152 84.2441 7.59948 84.4672C7.09872 84.4308 6.25967 84.2525 5.44608 83.9409C4.62401 83.6463 3.74009 83.2619 3.25752 82.9042C3.31087 83.5651 2.99077 83.2256 3.46364 84.0294C3.38241 84.4502 2.82951 83.7797 2.71189 83.5202C2.98107 84.2089 3.30238 84.8697 3.60672 85.5572C4.04322 85.191 5.01807 86.6654 5.39273 86.3089L4.48336 85.5038L3.64309 84.6284C3.88438 84.4405 4.42031 84.5387 4.96472 84.8248C5.50186 85.1195 6.13599 85.5572 6.49247 86.201C6.51066 86.6557 5.45699 86.5769 5.30422 86.7103C5.44729 86.737 5.72496 86.977 5.96624 87.2365C6.22451 87.4875 6.45731 87.7458 6.43912 87.844L5.77831 87.5324C6.15418 88.3447 7.25271 88.1301 7.48429 89.265C7.69891 89.5415 7.66374 90.56 7.96687 90.3635C8.03841 89.453 9.53948 87.9604 10.1469 87.844C10.1651 87.8985 10.3349 88.3168 10.5131 88.774C10.6829 89.2468 10.9242 89.7112 10.9423 89.9707C11.0224 90.7394 9.45824 90.3999 9.51159 91.0425C9.63769 90.9358 10.0124 90.9892 10.1554 91.0243C10.3434 91.3638 9.70923 91.3105 10.37 91.7761C10.8429 91.4002 11.5947 92.8298 10.9775 91.6148C11.6832 91.9543 11.5401 92.2211 12.3088 92.7134C12.3088 92.2308 13.7117 92.0526 14.4174 92.2575C14.301 92.3654 14.3361 92.6236 14.3628 92.7485C15.6408 93.5439 16.2664 94.1514 17.5796 94.714C17.6414 94.9019 18.2222 95.3214 17.8463 95.456C18.0791 95.4379 18.3301 95.3033 18.7496 95.456C19.3753 96.2514 17.7942 95.1881 18.187 96.0101C18.3653 95.707 19.4468 95.9556 20.1076 95.9289C20.0894 95.3578 18.7763 95.3748 18.0973 95.3481C18.375 94.6425 19.6517 94.3127 21.1079 94.3842C22.2428 94.5176 21.4474 94.9904 21.6621 94.9468C23.7257 95.6161 23.7257 94.1429 25.3238 94.9832C25.9325 95.5809 25.1904 95.9289 25.2802 96.2951C24.315 96.3133 23.9137 95.7422 23.288 95.6161L24.0034 96.0101C23.6809 96.0987 23.0285 96.0817 22.7254 95.8671C22.9667 96.1532 23.8688 96.3933 24.914 96.5825C25.4402 96.6891 25.9943 96.7959 26.5218 96.9025C27.0577 96.9923 27.5584 97.1087 27.9695 97.2518C28.2908 97.1269 28.8182 97.019 28.5939 96.7959H28.058C27.6215 96.3581 29.1032 96.3848 28.4521 96.1253C29.1747 95.9471 29.9798 95.5191 30.9437 95.804L31.1135 96.3581C31.0953 96.1969 30.4794 96.0005 30.1932 96.152C30.6055 95.9386 31.6943 96.9741 32.1587 96.2333L31.4712 95.8574C32.1769 95.5724 33.0159 95.0001 33.8744 95.1517C33.4718 94.634 33.6779 95.2245 33.062 94.5988C33.5967 95.3845 30.8989 94.5806 31.7307 95.4027C31.122 94.6788 30.6576 95.045 29.8901 94.3842C29.8986 94.5624 30.1483 94.7407 29.4524 94.6158C29.4046 94.6758 29.3473 94.7274 29.2826 94.7686C29.2644 94.7686 29.2559 94.7589 29.2378 94.7504L29.2741 94.777C29.2741 94.777 29.2378 94.8037 29.2911 94.777C29.4524 94.8656 29.5857 94.965 29.6306 95.0717C29.2462 95.4912 28.1029 95.3396 27.6918 95.5094C27.2723 95.376 27.8979 95.3215 27.6918 95.1068L27.0759 95.3578C27.0662 94.9553 26.0477 94.5624 27.0759 94.446C26.7818 94.4093 26.4897 94.3587 26.2004 94.2945C25.7179 93.9816 25.0389 93.767 24.566 93.8568C24.1719 93.687 23.4311 94.0629 23.8591 93.8386C23.3862 93.8119 22.9134 93.7852 22.4393 93.7416L22.4575 93.6421C21.1613 93.2493 19.5087 93.4457 18.3386 92.1677C17.8827 92.0792 17.3928 91.998 16.766 91.5615L16.7927 91.1856C16.2119 91.0341 15.4625 90.0604 15.0697 90.2302C15.0515 89.6664 14.5156 89.2735 13.9166 88.8807C13.3091 88.4963 12.6665 88.0768 12.3355 87.7106L12.0045 88.0234C11.4619 87.5166 10.8728 87.062 10.2452 86.6654L9.98568 86.9685C9.26182 86.5842 8.92232 85.3074 8.27969 84.3253C8.44944 84.3071 8.58282 84.5751 8.62768 84.8067C8.61919 83.9494 8.03841 83.4668 7.53764 82.9042C7.01142 82.3586 6.44761 81.8142 6.50217 81.0734C6.23421 80.8406 6.18934 80.6005 6.18934 80.3495C6.19935 80.3757 6.21823 80.3976 6.24269 80.4113C6.23095 80.3674 6.21298 80.3253 6.18934 80.2865C6.18934 80.1264 6.19783 79.9651 6.20753 79.7954C6.16267 79.9567 6.14448 80.0985 6.15297 80.2246C6.02808 80.0003 5.86803 79.6608 5.65342 79.3395L6.00141 79.0449C6.00141 79.0449 5.97473 79 5.96503 78.9648C5.99292 78.572 5.68009 78.7502 5.43881 79.0449C5.32024 78.8983 5.1819 78.769 5.02777 78.6605C5.57339 78.1694 4.50033 77.7754 5.11749 77.1776C4.91137 77.1061 4.72464 76.6684 4.48336 76.2403C4.26874 75.8111 4.02746 75.3819 3.63461 75.3467C3.73161 75.3104 3.74979 75.194 3.79466 75.4001C3.79466 74.9624 3.80436 74.5247 3.51821 74.1755L4.03594 73.9172L3.20538 73.0769C3.47334 72.4707 3.63461 72.2282 4.11597 72.7374C3.70614 72.1033 3.63461 71.8268 3.57156 71.5856C3.50002 71.3358 3.42848 71.1212 3.08898 70.5404L3.44667 70.5852C3.40181 70.173 2.93742 69.5037 3.24054 69.2539C3.58974 68.7895 3.62491 67.6546 3.81284 66.35C3.98259 65.0465 4.26874 63.554 4.88469 62.5185C3.77768 62.6882 5.59037 61.5885 4.88469 61.2854C5.16236 61.232 5.40243 60.9641 5.48367 61.3824C5.62674 60.1868 6.40396 59.8558 6.11781 58.8458C6.39426 58.8191 6.34939 59.2217 6.53733 59.1683C6.52884 59.0604 6.48398 58.7391 6.67071 58.6858C6.85016 58.6324 6.79681 58.9271 6.82348 59.1405C7.23452 58.025 6.62706 57.5957 6.02808 57.2126C6.61736 56.7918 6.70708 56.4972 6.50096 55.8631C6.80529 55.7733 7.17996 55.5672 6.91321 56.2911C7.10963 55.8982 8.52098 54.1741 8.05659 53.8261C8.25302 53.7897 8.43247 53.3435 8.44096 53.2089C9.02053 52.4147 9.08358 52.3601 9.63769 51.566L9.39519 51.726C9.07509 51.0106 9.76258 50.9937 10.1736 50.3147L10.2185 50.3777C11.7729 49.341 10.5313 49.609 12.1391 48.6705L11.7547 48.4474C11.2091 47.7066 13.2109 47.6532 13.719 46.7232L13.2825 46.8033C13.4886 46.1873 15.2746 46.625 15.7657 46.3753C15.9087 46.3571 15.7038 46.5899 15.6141 46.7511C17.0691 46.2322 15.3813 46.2055 16.1318 45.4101C16.481 45.518 16.435 46.1619 17.017 45.7411C17.2231 45.7144 17.4814 45.2052 17.839 44.6778C18.1955 44.1503 18.6429 43.5974 19.2322 43.561C18.9194 43.4895 18.5981 43.4277 18.9194 42.9984C19.214 42.739 19.7766 42.6226 20.2774 42.4528C20.7866 42.2928 21.2425 42.0782 21.3492 41.5871C21.4656 41.5871 21.5275 41.6235 21.5638 41.6671C21.9567 41.1761 23.0734 40.434 23.1983 39.8981C23.7876 40.3988 24.5199 39.8362 25.2086 39.2736C25.8779 38.7013 26.5399 38.2188 26.8079 38.8347C27.3535 38.5583 27.8979 38.2903 28.4605 38.049V38.1921C29.5857 37.8441 29.8549 37.3882 30.1314 36.9505C30.4163 36.9505 30.2732 37.1384 30.2732 37.2088C31.9804 36.8971 32.1138 36.8341 33.3118 35.7538L33.57 36.1369C33.7228 35.9672 34.3739 35.9853 35.1608 35.9308C35.9465 35.8956 36.8753 35.8156 37.6525 35.4143C37.6525 35.4676 37.6258 35.5561 37.5106 35.6374C38.3946 35.2348 39.5476 35.3512 40.5201 35.4409C41.4937 35.4858 42.2903 35.5125 42.6019 34.6807C43.0045 34.5206 43.4143 34.3679 43.835 34.2442C42.2091 34.1351 44.0666 33.5373 43.3876 33.279C44.0497 33.1808 45.0682 33.7616 44.2728 33.8501L44.1479 33.7701C44.0048 34.1896 44.514 34.2612 45.0415 34.306C45.5677 34.3509 46.1303 34.4042 46.0951 34.6819C49.2476 34.8056 52.1783 35.8241 54.8142 36.879L54.7342 36.1466L55.663 36.5576C55.8509 36.7989 55.7964 37.1639 55.1452 36.8705C55.3502 37.3518 56.3687 37.0305 56.4584 36.9141C57.62 37.7629 55.6545 37.37 56.0376 37.5846C56.2256 37.638 56.3953 37.718 56.5736 37.7811L56.4935 37.6562C57.021 37.6198 57.1907 37.3882 57.9498 37.7992C58.379 38.1569 58.0031 38.2903 58.1729 38.4055C58.1462 38.4419 58.1995 38.5049 58.4408 38.5849L59.486 39.2736L59.3259 38.5765C59.9601 38.6298 60.3178 39.2639 60.1565 38.4249C60.2547 39.076 61.2199 39.7647 62.0771 40.5225C62.3002 40.702 62.5233 40.8814 62.7294 41.0512C62.9259 41.2379 63.1138 41.4076 63.2835 41.5604C63.6133 41.8732 63.8546 42.123 63.8995 42.2661C64.7119 42.5789 65.2757 43.1585 65.865 43.9539C65.7934 43.6944 66.1414 43.2034 66.6337 43.9175C66.0699 44.177 66.2129 44.5614 66.4639 45.0088C66.6955 45.4732 67.0265 46.0176 66.875 46.5365C67.0168 45.6878 68.313 48.4474 68.4646 47.2155C68.7677 47.8666 68.1069 47.492 68.1614 48.0897C69.4382 49.2962 69.7328 51.4484 70.698 53.2804C70.8592 53.2441 70.9308 52.8342 71.3321 53.1471L71.029 54.4772C71.2521 54.8264 72.0293 54.4869 71.788 55.3987C71.8777 55.2459 72.0026 55.0228 72.1457 55.2726C72.5386 57.3363 73.3158 59.3017 73.9584 61.3387C74.2809 62.3572 74.5477 63.4024 74.7101 64.4476C74.852 65.4479 74.7987 66.4761 74.441 67.3418C74.7356 66.8689 74.7902 67.1817 74.7805 67.5479C74.8605 67.3054 75.1648 67.5649 75.3794 67.5213C75.1648 68.0475 74.9066 68.5119 74.6022 68.8611C74.852 69.049 74.7538 69.397 74.6022 69.665C74.4592 69.9317 74.2797 70.1293 74.4325 70.3706C74.5125 70.2627 74.5477 70.1209 74.6107 70.0129C74.7089 70.4058 75.1115 70.5586 75.6207 70.4688C76.147 70.4155 76.7096 70.1112 77.0854 70.3355C76.9242 69.7183 77.3716 69.2091 77.7014 68.4949C78.0239 67.7977 78.2203 66.9405 77.6214 66.2251C77.7729 65.8686 77.916 66.493 78.1039 66.2978C77.7111 65.922 77.5862 65.4927 77.6032 64.6173L77.7111 64.6973C77.4431 63.5006 77.2903 62.7586 77.2018 61.8928C77.0854 61.0441 77.0224 60.1505 76.7641 58.8907L76.4149 59.1938C76.3082 58.6494 76.4064 58.5063 76.4331 58.2214C75.6377 57.8091 76.8454 59.7128 75.9966 59.3648C76.6295 58.4081 74.852 55.6836 75.5662 54.8979C75.2715 54.094 75.1915 55.2992 74.9054 54.5051L75.0751 54.2019L74.6823 54.1207C74.5307 53.5848 74.7271 53.1992 74.9235 53.0925C74.9502 53.2271 75.1297 53.432 75.2 53.5581C75.2 52.7627 74.3246 51.6812 74.2979 51.4229C74.3706 51.6993 74.4313 51.9685 74.4773 52.245C73.3424 50.1983 72.3239 47.4556 70.6264 45.8211L70.5549 46.0709C69.3218 44.8208 69.9741 44.7942 68.7325 43.3379L68.8125 43.3646C68.373 43.1504 67.9928 42.8315 67.7055 42.4358C68.1881 42.6589 67.4824 41.4355 68.0814 41.7653C66.5258 40.5953 67.2048 41.2561 65.8383 40.8547L65.8747 40.417C65.3557 40.3358 65.2211 40.4255 64.4803 39.8447C65.2393 40.166 64.3821 39.059 65.2757 39.3803C64.8028 38.3982 64.0511 38.0854 63.4969 37.7992C62.944 37.5046 62.4784 37.3433 62.4081 36.6377C61.1217 36.8523 63.5418 38.0575 62.9877 37.9229C63.1405 38.4152 61.9789 38.0223 61.523 37.6028C61.0404 37.2185 61.2914 36.0217 59.8522 35.1899C59.9868 35.2797 60.0316 35.2263 60.1747 35.3063C59.7624 34.7607 58.9683 35.0202 58.4675 34.3412C57.8612 34.654 57.6018 33.8865 57.1992 34.494C57.6818 34.6092 58.1377 34.8153 58.6021 34.9765C58.1826 34.8783 57.717 34.9135 57.2174 34.8953C56.7082 34.8868 56.1904 34.7886 55.6266 34.3497C55.7697 34.2527 56.2171 34.2345 56.5202 34.243C56.2171 33.9035 55.7612 34.0732 55.4399 33.7337C55.7964 33.0996 57.1738 34.226 58.2177 34.1278C57.951 33.627 56.4135 33.9302 57.1459 33.3857C56.6548 33.7071 56.2971 33.5373 55.8861 33.3057C55.475 33.0911 55.001 32.8583 54.368 33.0462L54.5645 32.6619C54.3765 32.6716 53.974 32.7516 53.6708 32.6534C53.9121 32.5285 54.1437 32.4206 54.3862 32.2957C53.3932 32.4655 52.7954 31.4567 51.8751 31.4833C53.6527 31.9029 52.1613 32.0811 52.8306 32.5637C51.6969 32.5637 51.4556 32.2424 51.1695 31.8665C50.8833 31.5003 50.562 31.0359 49.2937 30.9644C49.6417 30.928 50.5171 31.4203 49.963 31.5185C49.5083 31.3403 48.9081 31.1341 48.6414 30.8662C46.9803 30.7692 48.8475 31.3306 48.1224 31.5088C47.6132 30.9292 47.3016 31.6349 46.5862 31.7598L46.6044 31.3306C44.7553 30.9644 46.077 32.1708 44.434 31.8313L45.1397 31.2323L44.2643 31.3851L44.4425 30.8928C43.4871 31.259 43.2009 31.1523 42.2624 31.0808C42.4952 31.3754 42.1824 31.8677 41.3773 31.9295C40.8074 31.7149 41.6562 31.4736 40.5116 31.6531C40.7444 31.3572 41.0026 30.9826 41.5386 31.3572C41.5834 31.2154 41.7811 31.0723 41.8247 30.9292C41.1906 30.6528 40.297 30.9741 39.8774 31.0262C40.0387 31.0262 40.2351 31.0262 40.3418 31.0808C39.7962 31.3403 39.2615 31.59 38.7341 31.858C38.4479 31.7416 38.6358 31.5815 38.8311 31.4215C38.5013 31.5185 38.2963 31.7513 37.8053 31.8665C37.8768 31.5003 37.7871 31.1523 38.4843 30.8759L36.9383 31.51C36.805 31.3669 36.0447 31.2505 36.2327 31.0808C35.2942 31.0541 34.2139 32.1793 33.0074 32.2242C32.9626 32.3054 32.8643 32.3939 32.6315 32.5103C31.5524 32.7431 30.4612 32.5903 29.3711 33.4924L28.4508 33.1445C27.5318 33.627 29.6658 33.547 28.1477 34.3509C27.1025 34.9753 27.5318 34.0199 27.0759 34.0114C26.62 34.5206 25.924 35.521 24.7079 35.5125C24.994 35.253 25.2983 35.2166 25.593 35.0396L25.5566 35.0032ZM14.8624 41.6938C14.9957 41.4707 15.22 40.953 15.5147 41.0512C15.5947 41.6138 15.2819 41.5507 14.8624 41.6938ZM3.83831 57.095C3.77647 56.8719 3.94622 56.6403 4.24086 56.4342C4.16098 56.6832 4.023 56.9097 3.83831 57.095ZM25.4305 94.3672C25.4305 94.3672 25.4123 94.3757 25.4038 94.3854C24.9479 94.1344 25.1092 94.2326 25.4305 94.3672ZM26.4126 94.7334C26.5205 94.6885 26.529 94.6352 26.4939 94.5636C26.4041 94.6618 26.181 94.6267 25.9216 94.5454C25.9761 94.6703 26.0913 94.7686 26.4138 94.7334H26.4126ZM58.2699 38.2636L58.1535 38.0672C58.6009 38.1921 58.4396 38.2188 58.2699 38.2636Z" fill="#F9CF01"/>
<path d="M4.25957 54.8881C4.35657 54.8602 4.43781 54.8881 4.50935 54.905C4.49116 54.7886 4.41235 54.745 4.25957 54.8881ZM32.9267 32.1888H32.9631C32.9631 32.1888 32.9801 32.1258 32.9801 32.0991L32.9267 32.1888ZM9.68187 91.4716C9.5388 91.2655 9.48545 91.1236 9.47575 91.0072C9.39572 91.0788 9.4224 91.2133 9.68187 91.4716ZM31.8985 94.4289C31.6839 94.4653 31.4608 94.5101 31.2462 94.5368C31.559 94.5271 31.6754 94.6071 31.8367 94.6787C31.8185 94.5817 31.7021 94.4386 31.907 94.4289H31.8985ZM37.9028 96.7072C37.9998 96.6441 38.1174 96.6708 38.2059 96.6078L38.1526 96.4113C37.7234 96.4744 37.4469 96.6805 37.9028 96.7072ZM32.506 95.8584C32.5605 96.2246 32.9885 96.0912 33.4626 96.0282H33.3826C33.5075 95.5189 33.0067 95.6887 32.506 95.8584ZM33.5778 96.01C33.7209 95.993 33.8737 95.9748 34.0155 95.9833C34.0604 95.7699 33.8361 95.9663 33.5778 96.01ZM27.7542 94.652C27.9603 94.7672 27.9421 94.2046 28.0488 94.3658C28.3447 93.9366 26.5393 94.7502 27.7542 94.652ZM32.9085 97.0455L32.7303 96.5981L32.4623 96.9642L32.9085 97.0455ZM29.0855 96.6078L29.853 96.769C29.853 96.6975 29.9427 96.6526 30.0676 96.6259C29.5948 96.5811 29.0758 96.4647 29.0855 96.5993V96.6078ZM30.0676 96.6357C30.3174 96.6538 30.5502 96.6623 30.6933 96.5908C30.5587 96.5908 30.2725 96.5908 30.0676 96.6357ZM31.8452 97.1898L31.6136 97.1C31.4283 97.094 31.2433 97.079 31.0595 97.0552C31.3177 97.1182 31.5772 97.1449 31.8355 97.1885L31.8452 97.1898ZM20.9557 95.0279L20.1154 94.8933C19.9821 95.0097 20.1785 95.1697 20.4998 95.2146C20.7229 95.1782 21.0454 95.2061 20.9642 95.0279H20.9557ZM23.1443 96.8684C22.9381 96.7266 22.9381 96.6284 22.8496 96.4489L22.6968 96.9848L23.1443 96.8684ZM20.6611 96.3495C20.5362 96.4829 19.3115 96.3944 20.3931 96.6987C20.5265 96.5823 21.4031 96.6987 20.6611 96.3495ZM9.68187 89.4334L9.83344 89.585L10.4397 88.906L9.68187 89.4334ZM1.56176 80.6452C1.7303 81.7534 2.14982 80.6998 2.26622 81.7086C2.55237 81.8601 2.16922 80.8865 2.44446 81.0562C2.01645 80.53 2.02615 80.1541 1.56176 80.6452ZM2.44567 81.0562C2.51721 81.1363 2.58875 81.226 2.69545 81.3145C2.56207 81.1629 2.50872 81.0914 2.44567 81.0562ZM73.851 69.2719C73.7528 69.335 73.6449 69.352 73.5479 69.3702C73.6546 69.3968 73.7698 69.4235 73.8959 69.4235L73.851 69.2719ZM73.9577 70.1825C73.8085 70.0525 73.6657 69.9153 73.5297 69.7715C73.5915 69.9412 73.6364 70.1207 73.6631 70.3171C73.7164 70.2359 73.8146 70.111 73.9492 70.174L73.9577 70.1825ZM12.6561 41.9968L12.7095 42.1398C12.8889 42.1847 13.0223 42.0865 13.2818 41.8985L12.6561 41.9968ZM20.5447 37.0037L20.4016 37.0752L20.9193 37.388L20.5447 37.0037ZM27.325 33.0558C27.0218 33.154 26.709 33.4038 26.4047 33.502C27.0206 33.154 27.6463 33.6354 27.325 33.0558Z" fill="#F9CF01"/>
</g>
</g>
</g>
</g>
</g>
<defs>
<clipPath id="clip0_127_1143">
<rect width="118" height="97" fill="white" transform="translate(0 0.519531)"/>
</clipPath>
<clipPath id="clip1_127_1143">
<rect width="117.61" height="97" fill="white" transform="translate(0 0.519531)"/>
</clipPath>
<clipPath id="clip2_127_1143">
<rect width="117.61" height="97" fill="white" transform="translate(0 0.519531)"/>
</clipPath>
<clipPath id="clip3_127_1143">
<rect width="117.613" height="97" fill="white" transform="translate(-0.00195312 0.519531)"/>
</clipPath>
</defs>
</svg>
