<svg width="71" height="97" viewBox="0 0 71 97" fill="none" xmlns="http://www.w3.org/2000/svg">
<g clip-path="url(#clip0_127_1005)">
<g clip-path="url(#clip1_127_1005)">
<g clip-path="url(#clip2_127_1005)">
<g clip-path="url(#clip3_127_1005)">
<mask id="mask0_127_1005" style="mask-type:luminance" maskUnits="userSpaceOnUse" x="0" y="0" width="71" height="97">
<path d="M0 0.519043H70.018V96.7902H0V0.519043Z" fill="white"/>
</mask>
<g mask="url(#mask0_127_1005)">
<path d="M2.09412 41.6742C1.91963 41.8475 2.20002 41.9546 2.21446 42.0148C2.42144 41.661 2.02673 41.6417 2.09412 41.6742ZM4.10739 38.1314L4.15432 38.2578L4.31437 37.6224L4.10739 38.1314ZM6.51537 35.2289C5.91368 35.1879 5.69948 36.3324 5.14351 36.7403L4.99068 36.7524L5.09056 37.2349C5.5659 36.5658 6.04124 35.5827 6.51537 35.2289ZM8.60927 34.3576C8.38785 34.3311 8.76932 33.9232 8.26029 34.6789C8.30842 34.6585 8.32046 34.6524 8.35415 34.6452C8.4083 34.5778 8.47449 34.4984 8.60927 34.3576ZM8.35415 34.6476C8.10625 34.9605 8.64176 34.5465 8.35415 34.6476V34.6476ZM9.45164 33.1735L9.23744 33.6813C9.39147 33.6693 9.71278 33.3347 9.65863 33.5152C9.933 33.0459 9.77897 33.0604 9.44563 33.1735H9.45164ZM9.51061 32.5718L9.38425 32.8257C9.45044 32.8257 9.51061 32.7788 9.51061 32.5718Z" fill="#F9CF01"/>
<path d="M9.13025 33.3611L9.39138 32.8256C9.28428 32.8328 9.16394 32.7389 9.26382 33.0602C9.1844 32.9327 9.21689 33.1072 9.13747 33.3611H9.13025ZM8.86189 33.5621C8.59474 33.7161 8.29991 33.964 8.51411 33.455C7.91843 34.2648 8.26742 34.3647 8.86309 33.5633L8.86189 33.5621ZM6.26738 34.7594L5.90636 34.9664L5.8125 35.3274C5.85943 35.1469 6.40096 34.8328 6.26738 34.7522V34.7594ZM11.7717 30.8737C11.7187 30.7798 11.4504 30.8268 11.33 30.7738L11.1628 31.1408C11.3433 31.0337 11.6381 30.7931 11.7717 30.8737ZM11.33 30.7726L11.5779 30.2166C11.2229 30.5909 11.2229 30.7196 11.33 30.7726ZM9.16996 32.1565L8.82819 33.1192L9.28308 32.0169L9.16996 32.1565ZM13.2314 29.2142L13.1905 29.6161L13.3108 28.9471L13.2314 29.2142ZM14.1737 28.089C14.1604 28.3971 14.6418 28.0565 14.5611 28.3297C14.7958 28.0096 14.8957 27.6414 14.9896 27.3141C14.8355 27.6149 14.5948 27.8616 14.1737 28.089ZM15.1568 26.7773C15.0846 26.9314 15.0365 27.1119 14.9835 27.3068C15.0711 27.1415 15.1297 26.9624 15.1568 26.7773ZM12.2603 29.509C12.3349 29.5151 12.5154 29.556 12.7825 29.355L12.4143 29.3345C12.3674 29.3887 12.3144 29.4429 12.2603 29.503V29.509Z" fill="#F9CF01"/>
<path d="M12.3998 29.3406H12.4142C12.5803 29.1601 12.7019 29.0337 12.7476 28.9796L12.3998 29.3406ZM12.2205 29.5488L12.2602 29.5091C12.2265 29.5091 12.2073 29.5091 12.2205 29.5488ZM10.3613 31.1806C10.4611 30.8196 10.7945 30.1697 10.1663 30.5308C10.1543 30.846 10.5165 30.6391 10.3613 31.1806ZM11.7656 29.5271L11.3107 29.9483C11.3781 29.9892 11.531 29.976 11.478 30.1565L11.7584 29.5271H11.7656ZM11.892 29.2407L11.7656 29.5295L11.9329 29.3743L11.892 29.2407ZM14.2602 27.3947C14.3397 27.1131 14.5274 26.8857 14.7284 26.6246C14.454 26.8532 14.1929 27.1059 13.9582 27.367C13.9919 27.4609 14.0123 27.6823 14.253 27.3947H14.2602ZM13.3372 28.3261L13.3637 28.2732C13.324 28.2852 13.2975 28.2997 13.3372 28.3261ZM16.8896 24.2178L16.8162 24.225L16.8427 24.2647L16.8896 24.2178Z" fill="#F9CF01"/>
<path d="M13.8878 27.3739C13.8068 27.4313 13.7383 27.5047 13.6865 27.5895C13.6348 27.6744 13.6009 27.7689 13.587 27.8673C13.6929 27.7012 13.8204 27.5339 13.9672 27.3594C13.954 27.3197 13.9336 27.2932 13.8866 27.3666V27.3739H13.8878ZM15.658 26.0225C15.5256 26.0826 15.3776 26.1705 15.2368 26.2571C15.3969 26.2162 15.6857 26.1031 15.658 26.0225ZM13.4859 28.2511L13.4727 28.2908C13.5725 28.2644 13.5449 28.2584 13.4847 28.2511H13.4859Z" fill="#F9CF01"/>
<path d="M13.4858 28.2512C13.5459 28.1249 13.558 27.9985 13.5856 27.8698C13.5011 27.9948 13.4274 28.1268 13.3654 28.2645C13.4051 28.2524 13.4448 28.2512 13.4858 28.2512ZM16.1741 22.2632C16.3402 22.4774 16.0598 23.1597 15.4449 23.4208C15.197 23.996 16.1067 24.2825 16.8083 24.2295C16.7361 24.1356 16.6555 24.0695 16.9431 23.5075C16.6952 23.5676 15.7927 24.2897 15.9527 23.7481C16.3871 23.0526 16.4605 23.3197 16.8288 23.1188C16.3607 23.1465 17.1573 22.0357 16.682 21.842L16.333 22.4834C16.2668 22.4437 16.3474 22.1705 16.1669 22.2704L16.1741 22.2632ZM16.0201 25.0683L15.8793 25.274C16.1079 25.0935 16.3209 25.0141 16.7217 24.8661C16.9022 24.4714 16.8901 24.3378 16.842 24.2584L15.9936 25.1537L16.0201 25.0683ZM15.1296 26.1164C15.0429 25.7819 15.3582 25.2464 14.8769 25.3138C14.4003 25.8757 14.7084 25.8553 14.5147 26.2705C15.2499 25.3342 14.4076 26.6315 15.0971 26.102C14.9768 26.3102 14.8492 26.4774 14.7289 26.6315C14.888 26.498 15.0556 26.375 15.2307 26.2632C15.2174 26.2632 15.2102 26.2632 15.197 26.2705C15.1368 26.2825 15.1103 26.2825 15.1633 26.25C15.1633 26.25 15.1705 26.2295 15.1765 26.2295C15.15 26.197 15.144 26.1573 15.1296 26.1164C15.404 25.9022 15.2235 26.1224 15.1777 26.2295L15.197 26.2705L15.8721 25.2801C15.6795 25.4413 15.4714 25.682 15.1236 26.1164H15.1296ZM10.1066 29.6412C10.1464 29.6291 10.1668 29.6411 10.18 29.6556C10.2065 29.575 10.2065 29.5353 10.1066 29.6412ZM10.5615 29.3884C10.535 29.4823 10.5748 29.6087 10.3678 29.8024C10.1403 29.93 10.2679 29.7085 10.1873 29.6556C10.1331 29.8361 9.95261 30.238 10.4075 29.93L10.4352 29.8433C10.8227 29.5485 11.4978 29.3138 11.4713 29.4077C11.1738 29.3293 10.862 29.3227 10.5615 29.3884ZM12.8107 27.6676L13.3582 26.8312L12.8371 27.0454L12.9635 27.1261C12.5495 27.5075 12.7625 27.54 12.8107 27.6676ZM17.0695 24.2307L17.2103 24.5316L17.2704 23.8155L17.0695 24.2307ZM17.8998 23.2463L18.0671 23.4605L18.1742 23.0995L17.8998 23.2463ZM66.0185 37.8495L66.3796 38.2249C66.2673 38.0926 66.1467 37.9664 66.0185 37.8495ZM64.1725 35.3404L64.039 35.3801C64.1521 35.4138 64.2195 35.4138 64.1725 35.3392V35.3404ZM36.6149 7.51562C36.6955 8.0042 36.6955 8.61312 36.8965 8.38568L37.0361 8.09807C36.85 7.94147 36.7053 7.74143 36.6149 7.51562ZM51.9918 22.913C51.9908 22.8614 51.9864 22.81 51.9786 22.759C51.8378 22.7457 51.7042 22.7385 51.5839 22.7253C51.7114 22.7794 51.851 22.8456 51.9991 22.913H51.9918ZM53.0965 22.345L53.324 22.8937C53.2691 22.7027 53.1924 22.5185 53.0953 22.345H53.0965ZM58.1327 42.7172L57.7922 43.012C58.3205 43.012 58.093 42.858 58.1327 42.7172ZM26.7086 13.4676C27.0431 13.2811 27.2706 13.1006 27.4583 12.92C27.0371 13.127 26.6087 13.2197 26.7086 13.4676ZM62.1918 37.8543C62.2688 37.8926 62.3564 37.9045 62.4409 37.888C62.3326 37.8278 62.2519 37.8146 62.1918 37.8543ZM28.1816 12.1511C28.1142 12.1776 28.0612 12.2113 28.001 12.2449C27.853 12.4724 27.7002 12.6986 27.4655 12.9188C27.7796 12.766 28.0877 12.5458 28.1816 12.1439V12.1511ZM16.4016 42.4789C16.4016 42.4789 16.3342 42.4585 16.3077 42.4452C16.3017 42.4849 16.3414 42.4849 16.4016 42.4789ZM4.21484 39.5475C4.33518 39.527 4.52893 39.527 4.71666 39.527C4.63001 39.5077 4.47598 39.5077 4.21484 39.5475ZM21.4642 19.5002C21.2982 19.7144 21.4642 19.5543 21.4642 19.5002V19.5002ZM19.7241 19.7096C19.7386 19.6434 19.7386 19.5832 19.6916 19.5363C19.7253 19.6025 19.7386 19.6566 19.7253 19.7096H19.7241ZM28.7219 8.93322L28.7423 8.91878C28.6425 8.93923 28.6617 8.93924 28.7219 8.93322ZM21.09 19.7156C21.1838 19.6614 21.2837 19.5953 21.3908 19.5146C21.2857 19.574 21.1851 19.6412 21.09 19.7156ZM21.2308 19.7685C21.1586 19.8287 21.1044 19.8829 21.0503 19.9226C21.0635 19.9827 21.1044 19.9755 21.2308 19.7685Z" fill="#F9CF01"/>
<path d="M21.7127 19.2139C21.6128 19.3342 21.5057 19.4281 21.3926 19.522C21.4455 19.4955 21.472 19.4883 21.4648 19.5087C21.5189 19.4486 21.5923 19.3607 21.7127 19.2199V19.2139ZM38.7623 41.7004C38.7623 41.7004 38.7226 41.6884 38.7021 41.674C38.429 41.7943 38.5493 41.7738 38.7623 41.7004ZM43.4712 11.0669L43.4375 11.0537C43.4375 11.0669 43.4507 11.0802 43.4579 11.0934L43.47 11.0742L43.4712 11.0669Z" fill="#F9CF01"/>
<path d="M44.2677 11.6749C43.7262 11.5882 43.6059 11.3813 43.4579 11.0864L43.0234 11.8758L44.2605 11.6749H44.2677Z" fill="#F9CF01"/>
<path d="M66.8081 42.4574L68.2931 42.686C67.5374 43.1337 66.139 43.0338 67.8117 43.3551C67.3364 42.9062 68.4399 42.8533 69.5506 42.7991L69.9586 42.7799H70.0055L69.9718 42.7318L69.9044 42.6391L69.7721 42.4586C69.6018 42.2287 69.4228 42.0055 69.2353 41.7895C68.8743 41.3815 68.5133 41.0602 68.1258 40.893L68.0247 40.4056C68.133 40.5717 68.2329 40.6318 68.34 40.7991C68.2726 40.3178 67.8442 39.9904 67.3833 39.6763C66.908 39.3478 66.4002 39.0337 65.9922 38.3647C65.7443 37.8965 65.6312 37.5151 66.0042 37.8496L64.9416 36.7858C64.7274 36.4657 64.9284 36.4729 65.1559 36.8063L64.4868 35.9699L63.9982 35.3887H64.0259C63.7912 35.3153 63.3568 35.0938 63.1486 34.9867C63.0415 34.6329 63.3291 35.0674 63.37 34.9266L62.7346 34.4657C62.7346 34.077 63.2966 34.432 63.5842 34.8664C63.8718 33.7569 63.0222 34.5126 62.5132 32.9939L63.0427 33.4825C63.1691 32.8002 62.6745 32.4861 62.4338 31.6497C62.4205 31.9025 62.7948 33.4151 62.1125 32.9133C62.0258 32.6931 61.8646 32.4319 61.4506 32.1973C61.7033 31.9903 61.37 31.7099 61.0222 31.302L61.376 31.0613C60.9151 30.6858 60.7743 30.8531 60.4133 30.7063C60.039 30.1768 60.2123 29.8639 60.3327 29.5691C59.731 28.7195 60.3736 30.4596 59.5372 29.5558C59.1221 28.7797 58.601 28.4247 57.7442 27.7965C57.477 27.2417 58.0125 27.7098 57.9728 27.4692L57.3711 27.2754C57.2893 27.1671 57.4036 27.1346 57.4566 27.1142C57.0691 26.8542 57.1028 27.3621 56.5612 26.8939C56.0799 27.054 56.1521 25.3356 55.1761 25.0203C55.1292 24.7796 55.4433 24.9276 55.5239 24.7736C54.4734 24.0913 54.6611 24.1574 53.6587 23.717L53.3229 22.9011C53.4842 23.575 52.6815 23.2284 51.992 22.9204C52.0196 23.1887 52.0401 23.4161 52.0726 23.5557L51.1761 22.8806C51.1424 22.7338 51.3229 22.7194 51.578 22.7398C51.51 22.7076 51.4406 22.6787 51.3698 22.6532C51.2302 22.2513 51.5503 22.244 51.9186 22.2982L51.9787 22.7735C52.353 22.8072 52.7345 22.8072 52.8885 22.599C52.7697 22.5568 52.6605 22.4914 52.5672 22.4065C52.6683 22.4125 52.7477 22.4065 52.7549 22.3524C52.7609 22.2922 52.6141 22.2717 52.4132 22.2043L52.6081 21.7037L52.4276 21.7831L51.7056 20.5064C50.6682 20.0515 49.5443 19.8505 48.3264 18.747C48.8559 18.8204 48.815 18.4389 49.1423 18.185C49.1026 18.8072 50.1123 19.0154 50.6008 19.7097C50.3469 19.3487 50.5611 19.2885 50.6815 19.3282L49.3902 18.4594C49.6706 18.2656 49.3698 18.0502 49.223 17.6627C48.9149 18.3246 48.152 17.1092 47.5984 16.7807C47.7452 16.6062 48.0124 16.5665 48.4612 17.1681C48.3 16.2175 47.17 16.8733 46.9618 15.984C47.0821 16.1176 47.1231 16.2187 47.2566 16.1982C46.8282 16.0045 46.2662 15.1152 46.5743 15.1681L46.6946 15.3017C45.9654 14.3318 44.3071 12.493 43.7584 12.7264C43.8053 12.6735 44.3877 12.4063 44.5213 12.3859L41.6645 11.9647C42.1603 11.7962 42.5815 10.4857 43.4371 11.0814C43.2609 10.6935 42.9752 10.3656 42.6152 10.1379C42.6874 10.3329 42.3865 10.9683 42.1795 10.7878C42.1266 9.87079 42.0724 10.2053 41.845 9.21494C41.9533 9.50978 41.1566 9.75045 40.875 9.3762C41.0098 9.35574 41.431 8.86115 41.6043 8.94057L40.2866 8.52661C40.5754 8.66018 40.8089 8.15837 40.8089 7.82383C40.7679 8.01156 40.1795 7.04162 39.9256 6.85389L40.1061 7.34247C39.3636 6.25942 38.4671 7.01515 37.6788 5.97783C37.8991 6.0043 38.668 5.67698 38.3203 5.10176C38.0724 5.10176 37.5044 5.13545 36.8762 5.07528C36.2071 4.96698 35.6656 4.99466 35.378 4.87432C35.378 4.7612 35.384 4.64688 35.378 4.52654C35.2351 4.46189 35.0874 4.40838 34.9363 4.36649C35.0964 4.09813 35.4646 3.85144 36.0868 3.92484C36.3876 3.95132 36.7486 4.0512 37.1096 4.20523C37.2035 4.24615 37.2901 4.28586 37.3768 4.31956C37.4514 4.34603 37.5248 4.36649 37.5982 4.38574L37.9797 4.51932C37.8918 4.27262 37.9255 4.20644 37.9123 4.13183C37.8991 4.04518 37.8991 4.02473 37.4971 3.54217C37.3503 3.02832 38.1999 3.91762 38.2541 3.96456C38.153 3.8045 37.792 3.32917 37.5116 2.92844L36.6078 1.68413C36.467 2.23288 35.0952 0.480742 35.1216 1.12817C35.7041 1.61674 36.3455 2.19918 37.0747 2.85383C36.9881 3.08247 36.5597 3.03434 36.1253 2.88752C35.6137 2.70992 35.165 2.38709 34.834 1.9585C34.7943 1.9585 34.7474 2.03071 34.7017 2.06561C34.4935 2.07764 34.7546 1.15584 34.8942 0.693742C34.9242 0.650518 34.9409 0.599503 34.9423 0.546929C34.9351 0.546929 34.9219 0.546929 34.9014 0.533691C34.6475 0.981352 33.7775 2.07884 33.6499 2.05117L34.1457 1.18834C33.7714 1.45669 33.4838 1.97054 33.2432 2.39173C32.988 2.82735 32.7546 3.18837 32.2263 3.43627C32.0855 3.56383 31.7642 3.69018 31.5103 3.79728C31.3093 3.85144 31.1493 3.91762 31.2287 4.02593C31.9182 4.04518 33.1216 5.0813 33.195 5.56386C33.1024 5.60959 31.8316 6.29191 31.4236 6.34606C30.8147 6.40623 31.2022 5.18239 30.6811 5.22932C30.7606 5.32198 30.6932 5.61681 30.6535 5.72271C30.3731 5.86471 30.4609 5.37613 30.065 5.87795C30.3261 6.26544 29.142 6.79373 30.1384 6.3593C29.8039 6.90083 29.6173 6.78049 29.1215 7.32923C29.497 7.36293 29.3959 8.49291 29.0686 9.04166C29.0084 8.93335 28.8014 8.93335 28.7076 8.93335C27.805 9.84432 27.1757 10.1981 26.3598 11.0682C26.2057 11.0682 25.7099 11.4027 25.7376 11.0886C25.6774 11.2691 25.6847 11.4894 25.4428 11.7709C24.6678 12.0237 25.9578 11.1283 25.243 11.2017C25.4031 11.4159 24.8615 12.1524 24.6209 12.6458C25.0288 12.8071 25.5029 11.8107 25.7448 11.3161C26.1588 11.6963 25.965 12.7734 25.3092 13.8636C24.7412 14.6868 24.7472 13.931 24.6943 14.1115C23.3561 15.416 24.3393 15.9443 22.9951 16.8071C22.3128 17.0141 22.4463 16.345 22.1659 16.2656C22.6136 15.5761 23.1768 15.5099 23.5378 15.0947L22.9554 15.4762C23.042 15.2078 23.3429 14.7469 23.6172 14.6001C23.0288 14.7602 21.4367 16.8745 20.2465 17.7301C20.1659 17.9973 19.9577 18.4125 20.2056 18.3523L20.474 17.984C20.9686 17.8709 20.1924 18.8866 20.681 18.5532C20.4198 19.1417 20.1924 19.8577 19.4968 20.386L19.0829 20.232C19.1827 20.2982 19.6364 19.9781 19.711 19.7169C19.6039 20.1044 18.4138 20.3186 18.5546 20.9745L19.1683 20.7194C18.9084 21.315 18.7279 22.1646 18.1189 22.64C18.6545 22.652 18.1996 22.4787 18.9156 22.3993C18.1659 22.3511 20.2393 20.9745 19.2766 21.1153C20.0588 21.0744 20.0925 20.5593 20.9289 20.3391C20.8145 20.2657 20.5678 20.3511 21.042 19.9299C21.036 19.8842 21.042 19.7976 21.042 19.7494C21.0552 19.7374 21.0624 19.7374 21.0757 19.7229L21.042 19.7362C21.042 19.7037 21.042 19.6965 21.0299 19.7362C20.8819 19.8108 20.7484 19.8505 20.6545 19.8373C20.6413 19.3956 21.3296 18.6531 21.4439 18.2921C21.7448 18.0575 21.4499 18.5123 21.6966 18.4594L21.8651 17.9179C22.119 18.0851 22.9145 17.5087 22.4403 18.2909L22.9891 17.7097C23.4307 17.4762 23.9181 17.0406 24.0986 16.6603C24.4067 16.4257 24.5005 15.7301 24.4536 16.1308L25.1696 15.0815L25.2298 15.1212C26.0986 14.2319 26.6077 12.9069 27.9711 12.2391C28.1997 11.878 28.426 11.5026 28.9687 11.0477L29.2491 11.1283C29.5499 10.6735 30.5403 10.1319 30.5006 9.77693C31.4104 9.8371 32.3996 7.98388 33.1421 7.3894L32.9218 7.12827C33.2675 6.77526 33.5785 6.39002 33.8509 5.97783C33.8846 5.8972 33.9183 5.81778 33.9592 5.72993L33.7714 5.49647C33.8244 5.28227 34.0121 5.12823 34.1986 5.02715C34.3731 4.94171 34.5404 4.90079 34.68 4.81415C34.7077 4.86108 34.7402 4.90079 34.7678 4.93449C34.7402 5.02113 34.7077 5.00188 34.674 4.92125C34.6535 4.90079 34.6331 4.91403 34.6138 4.89478C34.6343 4.92727 34.6535 4.94171 34.6668 4.98142C34.7871 5.51091 34.9074 5.4363 35.1553 5.52295C35.2757 5.55664 35.4093 5.62403 35.5164 5.71669C35.6969 5.90442 35.8918 6.17879 35.9712 6.4664C36.1899 6.58781 36.3529 6.78925 36.4261 7.02839C36.4097 7.00828 36.3892 6.99187 36.3659 6.98025C36.3792 7.00793 36.4129 7.04042 36.4394 7.08134C36.4803 7.21491 36.52 7.36293 36.5802 7.50252C36.563 7.37503 36.5315 7.24988 36.4863 7.12947C36.6331 7.30276 36.8882 7.55066 37.1626 7.77088L37.0086 8.08496C37.0086 8.08496 37.041 8.11866 37.0687 8.13791C37.1891 8.47245 37.3563 8.25223 37.4297 7.9574C37.5766 8.05849 37.7306 8.13791 37.8642 8.18605C37.6367 8.72757 38.5742 8.76728 38.3792 9.40989C38.7342 9.41591 39.6368 10.6061 40.1843 10.3786C40.1386 10.4328 40.1723 10.5327 40.0519 10.3991C40.2445 10.7336 40.4394 11.0682 40.7812 11.2294L40.573 11.6169L41.5297 11.8973C41.6633 12.446 41.6897 12.7 41.1217 12.5195C42.2722 13.1344 41.8979 13.1548 42.9268 13.6302L42.6934 13.7638C42.9413 14.0381 43.5899 14.2584 43.5694 14.5664C43.7235 15.5231 46.1652 17.7169 47.2013 19.6158C47.5226 18.7939 47.5827 20.5858 48.0918 20.2585C48.0316 20.4727 48.152 20.7603 47.803 20.6135C48.6538 21.309 48.6538 22.0238 49.5298 22.2513C49.4697 22.4655 49.1748 22.2513 49.1616 22.4125C49.2482 22.4522 49.5106 22.5666 49.5034 22.7194C49.4961 22.8734 49.2819 22.7001 49.1086 22.6267C49.8572 23.4354 50.353 23.1418 50.8066 22.8542C50.9811 23.4426 51.1953 23.6231 51.7236 23.6965C51.7236 23.9577 51.791 24.3187 51.2952 23.8506C51.5299 24.1514 52.6334 25.7904 52.98 25.5425C52.98 25.7026 53.3085 25.9709 53.4096 26.0179C53.9511 26.6858 53.9703 26.7736 54.5456 27.3958L54.4457 27.1671C55.0546 27.0877 54.9872 27.6292 55.4758 28.1106L55.4228 28.131C56.1376 29.5691 55.9908 28.5402 56.6467 29.9963L56.8404 29.7291C57.4686 29.4018 57.3952 31.048 58.1581 31.5691L58.098 31.2009C58.5926 31.4295 58.2243 32.8531 58.4662 33.2888C58.4855 33.4091 58.2857 33.2141 58.1581 33.1275C58.6395 34.379 58.5926 32.9939 59.2616 33.6823C59.1943 33.9639 58.672 33.8628 59.0342 34.3923C59.0872 34.7533 60.7671 35.4019 60.9536 36.3658C60.9741 36.1035 60.9945 35.8496 61.3688 36.1179C61.6022 36.3646 61.7503 36.8327 61.9368 37.2551C61.9777 37.3478 62.0571 37.4886 62.0704 37.5283C62.0875 37.5763 62.115 37.6198 62.151 37.6559C62.2184 37.7293 62.3255 37.7702 62.512 37.7967C62.5037 37.819 62.4904 37.839 62.4731 37.8553C62.4557 37.8716 62.4349 37.8836 62.4121 37.8905C62.713 38.0506 63.2148 38.5789 63.8032 38.8737C63.074 38.8195 63.4687 39.1264 64.0102 39.6487L64.1113 39.7425C64.1113 39.7425 64.2052 39.8232 64.1715 39.8159C64.1497 39.8358 64.1249 39.852 64.0981 39.8641C64.029 39.8965 63.9527 39.9102 63.8766 39.9038C63.6901 39.9038 63.4482 39.8099 63.068 39.5548L62.2978 39.609L62.2256 39.5019C61.6961 39.4357 61.6564 39.6824 61.4626 39.923C61.2942 39.8569 61.3953 39.7558 61.3892 39.7028L61.1004 39.6354C60.9667 39.6236 60.8331 39.6103 60.6997 39.5957C60.4882 39.5773 60.2754 39.5793 60.0643 39.6017C59.6828 39.6499 59.329 39.7895 58.6924 40.0434L58.5661 39.7088C58.2255 39.9038 56.4 39.1878 54.9198 39.5765C54.9343 39.5356 54.9679 39.4754 55.0811 39.4285C53.4228 39.8159 51.1219 38.5127 50.5058 39.7161L49.4095 40.0109C50.8199 40.1036 49.1953 40.532 49.7765 40.7329C49.223 40.8063 48.3385 40.3719 49.028 40.3045L49.1351 40.3647C49.389 39.7365 47.3758 40.1445 47.4155 39.7161C44.6332 39.7498 41.9172 39.402 39.3094 39.3743L39.6103 39.8629L38.7005 39.8364C38.4598 39.7233 38.3792 39.4549 39.0278 39.4754C38.6873 39.201 37.9376 39.7088 37.9183 39.8159C36.6475 39.6162 38.4129 39.2479 38.0254 39.2347L37.4959 39.2684L37.6163 39.3286C37.1891 39.5283 37.1482 39.7425 36.3659 39.7161C35.8714 39.6162 36.112 39.4152 35.9183 39.3948C35.9183 39.3611 35.8509 39.3418 35.6174 39.3827L34.4742 39.3418L34.9279 39.7293C34.4201 39.917 33.8509 39.7088 34.3792 40.1445C33.6042 39.4682 30.1059 39.9038 29.6234 39.6896C28.9146 39.97 28.213 39.964 27.3429 39.9303C27.5571 40.0109 27.6919 40.4453 26.9422 40.3912C27.2154 39.4958 25.5703 40.0037 24.9614 39.355C25.5029 39.7835 22.8278 39.4621 23.6774 40.0711C23.0492 39.9965 23.6377 39.7365 23.1624 39.5223C21.6702 39.8701 19.8783 39.2937 18.0323 39.414C18.0058 39.5343 18.3127 39.7088 17.918 39.8906L16.942 39.3009C16.581 39.3611 16.6075 39.9832 15.9456 39.5692C16.0395 39.6691 16.1791 39.8159 15.9384 39.8569C12.327 39.2816 8.56764 40.325 4.8961 39.2479C5.38949 39.4754 5.06217 39.4958 4.6819 39.5091C4.92859 39.562 4.6819 39.7967 4.72883 39.9567L3.18969 39.5151C2.91532 39.9567 1.54466 39.5428 1.39062 39.97L1.8792 39.8978C1.23659 40.3984 2.79498 41.0073 2.70112 41.6487C3.41713 41.0807 4.61451 42.4911 5.79864 41.6764C6.05978 41.8088 5.57722 41.8834 5.71802 42.0302C6.01886 41.7558 6.37988 41.6956 7.05618 41.8232L6.98278 41.8894C8.87571 41.8232 9.68439 42.0903 11.812 42.2709L11.6507 41.9568C12.1056 41.9965 12.2067 42.0976 12.4209 42.177C12.942 41.6956 11.1357 42.1505 11.611 41.6234C12.2199 42.2648 14.8289 41.6294 15.2428 42.3647C15.9456 42.3647 15.0359 41.9965 15.7386 42.0037L15.9252 42.2047L16.0997 41.9496C16.5606 41.9905 16.7952 42.2384 16.8085 42.4044C16.6941 42.3852 16.4944 42.4526 16.374 42.4646C16.9685 42.6993 18.0588 42.3852 18.2597 42.4646L17.5846 42.3443C19.498 42.1577 21.8386 42.4189 23.6906 42.0169L23.5498 41.8701C24.9614 41.5958 24.681 42.0374 26.2334 41.9026L26.1793 41.9363C26.4873 41.7895 26.9013 41.7089 27.3297 41.7293C26.935 41.9038 28.065 42.0711 27.5499 42.2648C29.0818 41.97 28.3056 42.0302 29.3225 41.4754L29.5572 41.7233C29.9049 41.4947 29.9314 41.3816 30.7076 41.3142C30.0722 41.5284 31.2022 41.6956 30.4862 41.976C32.112 42.5176 32.9014 41.4285 33.6511 42.2239C34.3996 41.5356 32.2455 41.8437 32.6607 41.6956C32.3117 41.4682 33.2756 41.1806 33.7919 41.254C34.313 41.2672 34.674 42.1301 35.9785 42.1168C35.8509 42.1168 35.8377 42.165 35.7101 42.165C36.1987 42.3382 36.6668 41.9303 37.2697 42.2107C37.603 41.7967 38.0447 42.2372 38.1458 41.7029L36.9484 41.8232C37.6307 41.6824 38.2661 41.0675 39.3901 41.3683C39.3022 41.4754 38.9689 41.6162 38.7402 41.6956C39.0688 41.8497 39.3696 41.5958 39.7102 41.7498C39.6103 42.2781 38.2529 41.8629 37.5236 42.2709C37.8714 42.4923 38.9015 41.8894 38.5333 42.4586C39.0627 41.7293 39.8245 42.5524 40.7066 41.9893L40.6464 42.3046C40.7872 42.2576 41.0748 42.1036 41.3359 42.1108L40.8666 42.526C41.5838 42.177 42.2457 42.8328 42.9341 42.6391C41.496 42.6463 42.6139 42.2576 42.005 42.0242C43.7836 41.5958 43.0219 42.8533 45.0075 42.6993C44.7403 42.7462 43.9978 42.5055 44.419 42.3647C44.8005 42.4321 45.2951 42.5525 45.5298 42.7197C46.8475 42.6523 45.3288 42.3912 45.8908 42.1974C46.3396 42.5849 46.5406 42.0374 47.1146 41.9171V42.2372C48.6189 42.4453 47.5166 41.5633 48.8668 41.816L48.2927 42.2648L48.9943 42.1505L48.8475 42.5188C49.6165 42.2444 49.8511 42.3178 50.6069 42.4177C50.4324 42.1914 50.7067 41.8292 51.3758 41.8232C51.8307 42.0169 51.1219 42.1301 52.0642 42.0843C51.85 42.2841 51.6165 42.5392 51.2086 42.2444C51.1688 42.3515 50.9944 42.4454 50.9546 42.5525C51.442 42.7727 52.1785 42.6054 52.5191 42.5994C52.3867 42.5849 52.2314 42.5717 52.152 42.5248L53.5239 42.0771C53.7369 42.1975 53.5624 42.2985 53.3951 42.3912C53.6695 42.3575 53.8644 42.2107 54.2724 42.177C54.1641 42.4381 54.1845 42.7125 53.6105 42.8328L54.9138 42.5392C55.0004 42.6523 55.5757 42.8521 55.4084 42.9472C56.1304 43.1012 57.181 42.4381 58.1377 42.6391C58.1858 42.5861 58.2857 42.5392 58.4927 42.4983C58.9403 42.526 59.3615 42.6259 59.8104 42.6668C60.0393 42.6872 60.2693 42.6912 60.4987 42.6788C60.6191 42.6728 60.7394 42.6523 60.867 42.6259C60.9271 42.6126 60.9945 42.5994 61.0607 42.5777L61.3748 42.5176C61.7238 42.6728 62.1041 42.8328 62.5252 42.9869C63.2822 42.9339 62.8333 42.7859 62.5529 42.6259C62.2641 42.4718 62.151 42.3046 63.1883 42.2107C64.6203 42.0639 64.0379 42.6126 64.7202 42.7462L65.2822 42.5392C65.4747 42.4586 65.6829 42.3852 65.9164 42.325C66.3978 42.2107 66.9742 42.171 67.9766 42.3443C67.6493 42.4381 67.1751 42.3852 66.7792 42.4249L66.8069 42.4586L66.8081 42.4574ZM62.1257 32.9265C62.3002 33.0409 62.7154 33.2274 62.6552 33.462C62.2196 33.509 62.2533 33.2611 62.1257 32.9265ZM51.4637 21.362C51.6442 21.4029 51.7525 21.6099 51.8319 21.8915C51.6696 21.746 51.5435 21.5647 51.4637 21.362ZM23.2911 17.1284V17.102C23.6858 16.8613 23.5378 16.9407 23.2911 17.1284ZM22.5619 17.7169C22.5354 17.8168 22.5679 17.8433 22.628 17.8433C22.6088 17.7434 22.7484 17.5833 22.9229 17.4293C22.8158 17.4221 22.6954 17.469 22.5619 17.7229V17.7169ZM35.8461 39.5344L36.0266 39.6222C35.6174 39.7161 35.7318 39.6282 35.8461 39.5344Z" fill="#F9CF01"/>
<path d="M52.9685 22.4102C52.9685 22.4908 52.9276 22.5377 52.8951 22.5907C52.9877 22.6183 53.0359 22.5786 52.9685 22.4102ZM58.1984 42.6656H58.1659C58.1659 42.6656 58.1382 42.6993 58.1322 42.7198L58.1924 42.6656H58.1984ZM30.3255 5.37497C30.4374 5.29601 30.5658 5.24335 30.7009 5.22093C30.648 5.16076 30.5397 5.174 30.3255 5.37497ZM19.6779 21.6905L20.0124 21.1959C19.8319 21.4162 19.7116 21.4426 19.578 21.516C19.6442 21.557 19.7982 21.5497 19.6779 21.6905ZM14.762 24.1719C14.7356 24.2646 14.6417 24.3115 14.6152 24.3994L14.7416 24.4788C14.9823 24.1984 15.0629 23.924 14.762 24.1659V24.1719ZM18.5142 21.374C18.2796 21.2272 18.099 21.5618 17.8584 21.9035C17.8716 21.8831 17.8921 21.8626 17.9053 21.8494C18.1063 22.1984 18.3072 21.782 18.507 21.374H18.5142ZM17.8054 21.983C17.7316 22.0879 17.6465 22.1843 17.5515 22.2706C17.6321 22.4114 17.6791 22.1767 17.8054 21.9817V21.983ZM21.9066 18.6917C21.7188 18.7916 22.0799 19.019 21.9186 19.0262C22.0269 19.4209 22.495 17.7819 21.9066 18.6917ZM17.6249 21.0275L17.9715 21.1406L17.9318 20.7868L17.6249 21.0275ZM20.0064 18.7651L19.4914 19.1935C19.5383 19.2272 19.5034 19.3066 19.4577 19.4005C19.7381 19.1068 20.0931 18.8192 20.0064 18.7651ZM19.4577 19.4017C19.3097 19.5557 19.1761 19.7097 19.1424 19.8373C19.2607 19.7021 19.3662 19.5563 19.4577 19.4017ZM18.1592 20.2862L18.3397 20.1863L18.6755 19.8578L18.1592 20.2862ZM24.8753 13.5688L25.2965 12.9732C25.2628 12.8396 25.0763 12.9395 24.9283 13.1669C24.8681 13.3474 24.7213 13.5749 24.8753 13.5688ZM22.7165 14.5532C22.897 14.4594 22.9631 14.4991 23.1172 14.4931L22.8296 14.1922L22.7153 14.5532H22.7165ZM24.0799 12.9347C24.0462 12.8011 24.5552 11.9383 23.9463 12.6266C23.98 12.7602 23.5576 13.3559 24.0799 12.9347ZM31.9176 5.3497L31.7972 5.48207L32.3123 5.93815L31.9176 5.3497ZM39.7179 5.82504C39.304 5.06209 39.2631 5.93093 38.9357 5.2089C38.6818 5.15595 39.2029 5.80458 38.9694 5.73117C39.4243 6.0248 39.5242 6.29436 39.7179 5.82504Z" fill="#F9CF01"/>
<path d="M38.9701 5.73015C38.8899 5.67895 38.8072 5.63195 38.7222 5.58936C38.8497 5.676 38.9159 5.70969 38.9701 5.73015ZM2.19446 39.1868L1.6397 39.04L2.00071 39.2734L2.19446 39.1868ZM1.13788 39.6886L1.0031 39.2542L0.675781 39.6477C0.803341 39.6284 1.04402 39.5947 1.13788 39.6886ZM61.8525 31.1734L61.7442 31.2059C61.7117 31.3467 61.7851 31.4538 61.9319 31.668L61.8525 31.1794V31.1734ZM67.216 38.7993L67.0957 38.6188C67.009 38.7271 66.9152 38.8198 66.8153 38.9004C66.9504 38.8731 67.0841 38.8393 67.216 38.7993ZM64.2256 43.3349C64.7479 43.3469 65.2762 43.2603 65.79 43.2807C64.7202 43.3541 63.7912 42.8463 64.2256 43.3349ZM6.30163 41.0208C6.32931 40.7861 6.04892 40.8739 5.99476 40.8403C6.05493 41.2277 6.37624 41.0135 6.30163 41.0208ZM6.95026 44.8716L6.83714 44.8054L7.12475 45.3734L6.95026 44.8716ZM6.95026 48.4782C7.42439 48.1376 6.87565 47.1737 7.04292 46.5251L7.15122 46.418L6.76975 46.1304C6.82992 46.9126 7.08263 47.9294 6.95026 48.4782ZM5.91293 50.4036C6.10066 50.2832 6.07419 50.8176 5.9731 49.9547C5.95385 49.9944 5.94061 50.0077 5.92617 50.0354C5.92617 50.116 5.92497 50.2219 5.91293 50.4036Z" fill="#F9CF01"/>
<path d="M5.92672 50.0364C5.77268 50.2831 5.91348 49.655 5.92672 50.0364V50.0364ZM6.0266 51.7886L5.86534 51.288C5.75824 51.3939 5.72575 51.8355 5.65234 51.6682C5.73899 52.1833 5.85211 52.0774 6.03261 51.7886H6.0266ZM6.37438 52.2627L6.30819 52.0016C6.26006 52.0497 6.24802 52.1159 6.37438 52.2627Z" fill="#F9CF01"/>
<path d="M6.16119 51.4542L6.308 52.0029C6.38863 51.9295 6.54146 51.9223 6.25385 51.7478C6.39464 51.7959 6.25385 51.6816 6.16119 51.4469V51.4542ZM6.23339 51.1461C6.34169 50.8645 6.40186 50.5035 6.56793 51.0053C6.50054 50.0486 6.1672 50.1894 6.23339 51.1461ZM7.444 48.6635L7.5848 48.2904L7.42474 47.9619C7.50417 48.122 7.29719 48.6839 7.444 48.6635ZM5.76407 54.9043C5.86515 54.938 6.03964 54.737 6.166 54.7033L6.05288 54.3363C5.97947 54.5228 5.9193 54.885 5.76407 54.9115V54.9043ZM6.1672 54.6973L6.34169 55.2533C6.36095 54.7575 6.28152 54.6708 6.1672 54.6973ZM6.90127 52.3567L6.54025 51.4469L6.90849 52.53L6.90127 52.3567ZM5.74 57.0126L5.50534 56.6985L5.85312 57.2605L5.74 57.0126ZM5.76407 58.417C5.57152 58.1823 5.43073 58.731 5.31641 58.4844C5.3501 58.8646 5.51136 59.1932 5.65817 59.4868C5.57754 59.1739 5.60281 58.8454 5.76407 58.417ZM5.87237 59.9754C5.82664 59.8225 5.74602 59.6625 5.65937 59.482C5.7063 59.648 5.76527 59.8081 5.87237 59.9754ZM6.28032 56.1979C6.22015 56.2376 6.0589 56.3183 5.98549 56.6311L6.2743 56.4181V56.1979H6.28032ZM6.28634 56.4049H6.28152C6.26829 56.6456 6.26107 56.8128 6.26107 56.879C6.26107 56.8189 6.2743 56.6781 6.28754 56.4037L6.28634 56.4049ZM6.28152 56.1438V56.1967C6.308 56.1763 6.32124 56.163 6.28152 56.1438ZM6.63532 53.802C6.79537 54.1305 6.96264 54.8056 7.21054 54.1509C7.0168 53.9163 6.876 54.2905 6.63532 53.802ZM6.64254 55.8754L6.70873 55.2882C6.63652 55.3002 6.5222 55.4013 6.44158 55.24L6.63532 55.8766L6.64254 55.8754Z" fill="#F9CF01"/>
<path d="M6.73029 56.1626L6.64364 55.875L6.61717 56.0892L6.73029 56.1626ZM6.14785 58.9725C6.26818 59.2264 6.2742 59.508 6.29466 59.8221C6.35483 59.4876 6.38852 59.1398 6.38852 58.8113C6.30188 58.7655 6.14063 58.6187 6.14785 58.9797V58.9725ZM6.24171 57.7282C6.24171 57.7282 6.25495 57.7679 6.25495 57.7812C6.28142 57.7487 6.28864 57.721 6.24171 57.7282ZM6.26096 62.904L6.31512 62.8571L6.26698 62.8438L6.26096 62.904ZM6.44869 58.7511C6.47365 58.6579 6.47764 58.5604 6.46037 58.4655C6.4431 58.3706 6.405 58.2807 6.34881 58.2024C6.37529 58.3889 6.39574 58.5898 6.39574 58.804C6.43546 58.8245 6.46193 58.8317 6.44869 58.7511ZM6.00103 60.839C6.0612 60.7054 6.11415 60.5586 6.16108 60.4046C6.06722 60.5309 5.92763 60.7921 6.00103 60.839ZM6.17432 57.8678L6.16229 57.8281C6.10212 57.9087 6.12739 57.9015 6.17432 57.8678ZM6.17432 57.8678C6.21524 57.9954 6.28263 58.1025 6.34881 58.2024C6.33 58.0595 6.29859 57.9185 6.25495 57.7812C6.23569 57.8149 6.2008 57.8413 6.17432 57.8678ZM8.08771 63.8607C7.81935 63.8138 7.5859 63.1459 7.87952 62.5767C7.68698 62.0087 6.80851 62.3697 6.32113 62.8583C6.43546 62.8775 6.54256 62.8775 6.69539 63.46C6.84341 63.259 7.05039 62.1759 7.28505 62.6705C7.41141 63.4407 7.18396 63.2987 7.03715 63.6742C7.37169 63.3589 7.50527 64.6573 7.99385 64.4961L7.83259 63.821C7.906 63.8077 8.02754 64.0544 8.10095 63.8679L8.08771 63.8607Z" fill="#F9CF01"/>
<path d="M6.3537 61.7549L6.32722 61.5142C6.28029 61.7874 6.16717 61.9824 5.95898 62.3362C6.08654 62.7381 6.18041 62.8175 6.26705 62.8452L6.3212 61.6671L6.36092 61.7477L6.3537 61.7549ZM6.33444 60.436C6.62205 60.6237 6.73517 61.1989 7.05648 60.8512C7.04444 60.1484 6.82302 60.3566 6.70268 59.9354C6.76285 61.0654 6.54142 59.6069 6.37415 60.4228C6.33478 60.2219 6.31064 60.0183 6.30195 59.8138C6.26881 60.0105 6.2238 60.205 6.16717 60.3963C6.17439 60.3891 6.18041 60.3758 6.18763 60.3698C6.22012 60.3217 6.2478 60.3024 6.22734 60.3626V60.3891C6.26717 60.3974 6.3041 60.4161 6.33444 60.4432C6.27427 60.7705 6.26104 60.4962 6.22734 60.3891C6.2141 60.3891 6.20087 60.377 6.18763 60.377L6.33444 61.513C6.37415 61.2724 6.37415 60.9715 6.34768 60.442L6.33444 60.436ZM7.82544 54.7656C7.79897 54.7993 7.77731 54.7993 7.75805 54.7993C7.79175 54.8727 7.81822 54.8992 7.82544 54.7656Z" fill="#F9CF01"/>
<path d="M7.65212 55.2256C7.61121 55.1462 7.49809 55.0727 7.53178 54.8044C7.61843 54.5709 7.67138 54.8044 7.76524 54.7984C7.69304 54.6383 7.56548 54.2304 7.41746 54.7382L7.45838 54.8188C7.35729 55.2737 6.99628 55.8549 6.95656 55.7815C7.22941 55.6548 7.46945 55.4671 7.65814 55.2328L7.65212 55.2256ZM7.06968 57.8682L7.20326 58.8117L7.45838 58.3303L7.31036 58.3496C7.37053 57.8153 7.19002 57.9284 7.0769 57.861L7.06968 57.8682ZM6.12021 63.0139L5.81214 62.8864L6.24055 63.4351L6.12021 63.0139ZM6.13946 64.239L5.87231 64.1908L6.03236 64.5194L6.13946 64.239ZM45.8104 91.3718L46.0788 91.2719C45.9855 91.2938 45.8953 91.3273 45.8104 91.3718ZM43.8104 91.5258L43.7707 91.6594C43.8573 91.5788 43.891 91.5258 43.8104 91.5258ZM5.43067 95.9206C5.3705 96.1156 5.30431 96.3225 5.24414 96.5223C5.55702 96.7365 5.92646 96.9182 6.03958 96.6836C6.03958 96.5897 6.06004 96.4898 6.07328 96.3959C5.83602 96.4283 5.59598 96.4352 5.35726 96.4164C5.37772 96.2419 5.4054 96.0819 5.43067 95.9278V95.9206ZM27.5177 94.0951C27.4776 94.0681 27.4375 94.0413 27.3973 94.0144C27.3035 94.1155 27.2168 94.2154 27.1362 94.3032C27.2505 94.2431 27.3841 94.1685 27.5177 94.0951ZM27.7511 92.8845L28.2927 93.0517C28.1723 92.9916 27.999 92.9386 27.7511 92.8845ZM56.6602 89.9795L56.9478 89.6521C56.446 89.7123 56.6866 89.8327 56.6602 89.9807V89.9795ZM6.03356 76.7987C5.93253 77.0769 5.86742 77.3669 5.83982 77.6616C6.01311 77.2464 6.27424 76.9119 6.03356 76.7987ZM45.2966 94.5102C45.4638 94.4428 45.5312 94.3755 45.5168 94.3153C45.3495 94.3827 45.2569 94.4428 45.2966 94.5102ZM5.81816 78.6712C5.85185 78.611 5.86509 78.5509 5.89156 78.4907C5.84217 78.2193 5.8244 77.9431 5.83862 77.6676C5.71106 77.9757 5.62441 78.3295 5.81816 78.6712ZM57.6843 55.8959C57.6843 55.8959 57.6963 55.8297 57.7107 55.802C57.6698 55.802 57.6698 55.8357 57.6843 55.8959ZM59.777 44.1099C59.8034 44.223 59.8094 44.4107 59.8299 44.584C59.8431 44.4974 59.8299 44.3566 59.777 44.1099ZM5.9397 69.1729C5.90601 69.1319 5.92646 68.9117 5.9397 69.1729V69.1729ZM7.1106 67.9237C7.14429 67.9767 7.18401 68.0236 7.2514 68.0308C7.19214 68.0145 7.14162 67.9768 7.1106 67.9237ZM7.56548 81.3066V81.3259C7.62565 81.2537 7.61241 81.2657 7.56548 81.3066ZM6.07929 68.7854C6.03836 68.894 6.00695 69.0059 5.98543 69.1199C6.00589 69.067 6.03958 68.9671 6.07929 68.7854ZM5.9385 68.8323C5.95294 68.7445 5.95895 68.671 5.97219 68.6037C5.92526 68.5712 5.89277 68.6037 5.9385 68.8323Z" fill="#F9CF01"/>
<path d="M5.95464 69.5335C5.95464 69.3867 5.96788 69.2459 5.98834 69.1123C5.96788 69.1653 5.94863 69.1857 5.94141 69.1725C5.94141 69.2459 5.94141 69.3602 5.95464 69.5335ZM59.7594 77.0643C59.7594 77.0643 59.7714 77.0246 59.7859 77.0114C59.6583 76.7502 59.6788 76.8706 59.7594 77.0643ZM13.6263 93.2162C13.6263 93.2162 13.607 93.2306 13.5998 93.2306C13.613 93.2306 13.6263 93.2379 13.6395 93.2379V93.2102L13.6275 93.2174L13.6263 93.2162ZM14.5565 92.9851C14.169 93.3534 13.9415 93.3125 13.6407 93.2463L13.968 94.0754L14.5637 92.9851H14.5565Z" fill="#F9CF01"/>
<path d="M50.5794 90.8373L49.9043 90.6448C50.6468 90.1418 51.228 90.2284 50.5866 89.9276C50.5866 90.8446 48.0643 90.2621 48.0583 91.1719L47.6094 91.0251C47.737 91.0251 47.7502 90.9649 47.8706 90.9649C46.9945 90.6099 47.3086 91.6749 46.2183 91.6472C45.838 91.6135 45.5637 91.5064 45.8104 91.3728L44.9945 91.6737C44.7478 91.6737 44.7947 91.5136 45.0426 91.5136L43.7706 91.7002V91.6737C43.6106 91.8337 43.2158 92.0889 43.0221 92.196C42.6876 92.0949 43.1749 92.0877 43.0823 91.9818L42.3927 92.2621C42.0847 92.0552 42.6539 91.7736 43.1424 91.7676C42.406 90.918 42.5732 92.0479 41.1015 91.64L41.7573 91.4667C41.282 90.9853 40.7742 91.226 39.998 90.9577C40.1857 91.1189 41.5696 91.64 40.8211 91.9348C40.6009 91.8867 40.3133 91.8747 39.9186 92.0889C39.8909 91.7676 39.4901 91.8747 38.9883 91.9348V91.5064C38.4588 91.6749 38.513 91.8879 38.2061 92.1021C37.5972 92.1021 37.4432 91.7808 37.2831 91.5064C36.306 91.5064 37.9919 91.995 36.8415 92.149C36.0184 92.0347 35.4636 92.2489 34.5069 92.557C33.9317 92.4427 34.5936 92.2886 34.3794 92.1827L33.898 92.5498C33.7716 92.5498 33.8113 92.4427 33.8246 92.3897C33.4094 92.5437 33.8114 92.8169 33.1495 92.9709C32.9955 93.4523 31.7439 92.356 30.9413 92.9252C30.7343 92.8109 31.0291 92.6569 30.9557 92.4968C29.8378 92.9048 29.993 92.7977 29.082 93.3127L28.2734 93.0648C28.8678 93.3596 28.1386 93.7748 27.4972 94.1154C27.7114 94.2622 27.8919 94.3897 28.0182 94.4499L26.9821 94.7243C26.8546 94.6569 26.9556 94.5101 27.1157 94.3223C27.0483 94.3633 26.9821 94.3958 26.928 94.4307C26.5477 94.2826 26.7354 94.0287 26.9881 93.7808L27.3768 94.0287C27.6235 93.7604 27.851 93.4595 27.7908 93.2128C27.6901 93.2785 27.5764 93.3217 27.4575 93.3392C27.5236 93.2658 27.5634 93.1984 27.5297 93.1587C27.4899 93.1117 27.3901 93.2116 27.2228 93.332L26.9689 92.8638L26.9147 93.0588L25.5368 92.8109C24.5801 93.3259 23.751 94.0624 22.2059 94.3091C22.5813 93.9481 22.2732 93.7339 22.2793 93.3187C22.7149 93.7471 23.4766 93.0913 24.2793 93.1587C23.8581 93.125 23.9448 92.924 24.0458 92.8506L22.627 93.2995C22.6475 92.9577 22.3142 93.0516 21.9387 92.924C22.2396 93.5859 20.8821 93.4054 20.3069 93.6268C20.266 93.4066 20.4008 93.1719 21.1096 93.2056C20.3069 92.7243 20.1192 94.0215 19.3298 93.6136C19.5042 93.6003 19.5981 93.634 19.6643 93.5197C19.2636 93.7339 18.266 93.6003 18.4934 93.3994H18.6679C17.5102 93.3392 15.1564 93.4728 14.9951 94.042C14.9831 93.9686 15.1299 93.3524 15.1961 93.2393L13.1768 95.1924C13.3501 94.6966 12.6281 93.5534 13.5848 93.2525C13.3104 93.1851 12.9686 93.1117 12.3934 93.2995C12.5811 93.3657 12.8748 93.995 12.6221 94.048C11.906 93.5197 12.1263 93.7676 11.2502 93.3187C11.5306 93.4198 11.237 94.1888 10.7881 94.1755C10.8555 94.0612 10.7412 93.4198 10.9024 93.3392L9.81215 94.1094C10.0998 93.9686 9.77845 93.4728 9.71828 93.2586C9.75198 93.4066 9.27664 93.2525 9.10937 93.3259C9.15561 93.3906 9.20978 93.4492 9.27062 93.5004C9.04198 93.4595 8.82176 93.5931 8.52091 93.7808C8.22608 93.9613 7.86506 94.2092 7.47035 94.356C7.35723 94.3031 7.28984 94.1346 7.3103 93.8145C7.46433 93.8807 8.28023 93.3127 8.39335 92.924C8.20081 92.9722 7.73149 93.0383 7.28984 92.7507C7.03485 92.5769 6.82422 92.3457 6.67491 92.0756C6.50042 91.7868 6.36082 91.5401 6.29343 91.2525L6.52208 91.0515L6.29343 90.2019C6.57503 90.4703 7.00945 90.9841 7.43064 91.5329C7.84581 92.1755 8.26098 92.4559 8.49444 92.5558C8.67494 92.2754 8.76159 92.4162 8.74835 92.1286C8.95533 92.0419 9.05642 92.2357 9.06966 92.2754C9.09613 92.1815 9.11659 92.143 9.14306 92.0287L9.23693 91.2128C8.78205 91.273 8.82176 89.948 8.4475 90.0022L8.86267 91.788C8.41381 91.8482 7.61837 90.7242 7.73149 89.5666C7.91921 89.2789 8.52813 89.8072 8.67494 89.788C8.52813 89.6339 8.41381 88.6833 8.52091 88.5774L8.74835 89.0708C8.93608 88.4294 8.18637 88.0021 8.63523 87.2464C8.66772 86.9781 9.23693 86.4642 8.96857 86.4101C8.4475 86.8312 6.85542 86.871 6.48116 86.5701C6.52088 86.4763 7.00945 85.1862 7.27059 84.8854C7.68455 84.457 8.21284 85.5665 8.56784 85.2055C8.4475 85.1862 8.30069 84.9383 8.25376 84.8372C8.36688 84.5568 8.62801 84.9648 8.5883 84.3559C8.13342 84.2428 8.65449 83.1188 8.20683 84.055C8.0925 83.4533 8.31393 83.4269 8.31393 82.7241C8.01308 82.9383 7.33076 82.0682 7.21042 81.4726C7.32354 81.5135 7.47757 81.3799 7.55098 81.3197C7.61837 80.1019 7.83979 79.4472 7.87228 78.31C7.9854 78.209 8.13342 77.6602 8.31994 77.9009C8.24052 77.7348 8.0925 77.5808 8.08649 77.233C8.49443 76.5639 8.13342 78.0152 8.61477 77.5074C8.35364 77.4593 8.26579 76.5904 8.11296 76.0886C7.69779 76.2366 8.01308 77.2463 8.16591 77.7481C7.60513 77.7408 7.02991 76.8515 6.79525 75.6614C6.67491 74.7107 7.1695 75.2595 7.09008 75.0922C7.22245 73.3196 6.13338 73.5603 6.56781 72.0957C6.93605 71.5205 7.28382 72.0825 7.54496 71.9549C7.6653 72.7311 7.29706 73.1331 7.29706 73.6541L7.47757 73.0115C7.59069 73.2594 7.67132 73.7745 7.56421 74.0561C7.89876 73.5747 7.67854 71.0596 7.99984 69.6878C7.88552 69.4399 7.76518 69.0187 7.61837 69.2196L7.6653 69.6541C7.37047 70.0488 7.2766 68.8321 7.12979 69.3797C6.93605 68.7985 6.62196 68.1366 6.80247 67.3195L7.21644 67.1727C7.0961 67.1859 6.96252 67.7022 7.08286 67.9356C6.90957 67.5939 7.65808 66.6913 7.12257 66.3038L6.82894 66.8718C6.62798 66.2822 6.20679 65.5601 6.34759 64.8321C5.93844 65.1594 6.39452 64.9994 5.91196 65.5072C6.50764 65.0655 5.85901 67.3604 6.48718 66.6504C5.93242 67.1727 6.24049 67.5614 5.75793 68.2509C5.89271 68.2292 6.01906 68.009 5.94566 68.6179C5.98537 68.6444 6.0323 68.7118 6.06599 68.7503C6.06599 68.772 6.06599 68.778 6.05396 68.7912L6.06599 68.7587C6.06599 68.7587 6.09247 68.7852 6.06599 68.7443C6.12616 68.5975 6.19957 68.4844 6.27298 68.4374C6.58104 68.7443 6.55457 69.7142 6.7086 70.0428C6.6352 70.4038 6.55457 69.8887 6.40776 70.0825L6.64121 70.5771C6.34037 70.618 6.12616 71.5277 5.96611 70.6781L5.93964 71.4399C5.76515 71.8888 5.68452 72.5037 5.80486 72.8924C5.73266 73.2534 6.12015 73.8082 5.89271 73.4941L6.05276 74.6975H5.98055C5.92038 75.8888 6.42821 77.1596 5.86021 78.4966C5.9264 78.8985 6.00703 79.3125 5.90715 79.9755L5.64601 80.1019C5.72664 80.617 5.35118 81.6338 5.61954 81.8613C4.90352 82.3968 5.40533 84.3426 5.25852 85.2392L5.59908 85.2789C5.56538 85.901 5.64601 86.4967 5.75913 87.2657L6.05998 87.226C6.28862 87.8951 5.80005 88.9251 5.80005 89.9745C5.68572 89.9023 5.72664 89.6339 5.80005 89.4462C5.44505 90.0612 5.54613 90.7302 5.67249 91.3789C5.70618 91.5401 5.73265 91.7074 5.76635 91.8602C5.79282 92.0347 5.81328 92.3295 5.8205 92.5498C5.83254 93.0251 5.80005 93.4667 5.65925 93.9746C5.75311 94.3693 5.70618 94.6906 5.61954 95.0576C5.61954 95.0179 5.61954 94.9854 5.6063 94.9577C5.6063 95.0059 5.6063 95.0721 5.59306 95.1455C5.53289 95.3862 5.4655 95.6401 5.40533 95.9144C5.47529 95.6936 5.5379 95.4704 5.59306 95.2454C5.59306 95.486 5.59306 95.8013 5.62555 96.1214C5.77959 96.1094 5.95408 96.0877 6.12135 96.0612C6.09249 96.1669 6.06998 96.2742 6.05396 96.3826C6.10089 96.3826 6.13459 96.3826 6.18754 96.3693C6.62918 96.4824 6.71703 96.2093 6.64964 95.9674C6.93725 95.9144 7.2044 95.847 7.4186 95.7676C7.43906 96.0276 7.8061 95.9818 8.15388 95.9349C8.51489 95.8868 8.84944 95.8543 9.07688 96.1274C9.69903 95.847 10.9698 95.894 11.1575 95.326C11.1708 95.3994 11.2646 95.4331 11.0901 95.4391C11.4512 95.4993 11.8194 95.5594 12.1407 95.3934L12.302 95.8001L13.0842 95.2321C13.5715 95.4728 13.7725 95.6136 13.2984 95.9349C14.4416 95.4259 14.2346 95.7339 15.2045 95.2321L15.1636 95.4993C15.5126 95.48 16.0662 95.1118 16.2816 95.326C17.077 95.8146 20.1673 95.2995 22.1938 95.7002C21.7787 94.9301 23.1445 96.0215 23.2047 95.4126C23.325 95.5931 23.6114 95.687 23.2913 95.8615C24.3142 95.6473 24.8497 96.1022 25.538 95.5667C25.6656 95.7472 25.3311 95.847 25.4382 95.9481C25.5188 95.9072 25.7595 95.7736 25.8726 95.8807C25.9809 95.9891 25.7258 96.042 25.5657 96.1286C26.6151 96.0612 26.7017 95.486 26.7559 94.9517C27.2974 95.1852 27.5646 95.1382 27.9328 94.7712C28.1265 94.9373 28.4418 95.1058 27.792 95.1984C28.1602 95.2056 30.0459 95.3597 30.0664 94.9313C30.1867 95.0312 30.5815 94.9373 30.6753 94.8843C31.4984 94.8711 31.5779 94.9048 32.3805 94.8242L32.1531 94.764C32.4479 94.2345 32.8222 94.6172 33.4708 94.5161L33.4588 94.5702C34.9762 94.8579 34.0929 94.356 35.5912 94.6966L35.4913 94.3837C35.5851 93.687 36.8222 94.7038 37.6646 94.3837L37.3445 94.2225C37.7922 93.9613 38.7152 95.0721 39.1977 95.119C39.3036 95.1719 39.0425 95.2249 38.9029 95.2791C40.1665 95.5931 39.0292 94.8506 39.9462 94.6774C40.1328 94.8916 39.7717 95.2658 40.3939 95.2658C40.7224 95.4259 42.1196 94.3825 42.9956 94.7435C42.7959 94.5835 42.5949 94.4307 43.0089 94.2622C43.6515 94.1418 44.8284 94.764 45.3639 94.1683C45.4505 94.2092 45.4842 94.2489 45.4915 94.2959C45.9728 94.1082 47.0823 93.9144 47.3567 93.5859C47.9187 94.6509 50.3941 92.764 50.4807 93.7736L52.0054 93.5666L51.9789 93.6737C52.9621 93.64 53.2834 93.3657 53.6035 93.0841C53.8382 93.1322 53.6841 93.2453 53.6709 93.2995C55.1222 93.3524 55.257 93.2995 56.4002 92.6569L56.5614 92.9709C56.7143 92.8578 57.2426 92.9312 57.9056 92.9589C58.0729 92.9649 58.2462 92.9709 58.4207 92.9709H58.6878L58.8346 92.9589L59.0428 92.9385C59.5767 92.8916 60.1038 92.7859 60.6145 92.6232C60.6145 92.6641 60.6145 92.7315 60.4664 92.7916C61.0019 92.6171 61.6313 92.551 62.3197 92.4908C62.3798 91.5666 62.5266 90.5894 62.5483 89.6809C62.5483 89.4522 62.5483 89.2392 62.5339 89.0383C62.5249 88.9146 62.4978 88.793 62.4532 88.6773C62.4141 88.5722 62.3543 88.476 62.2774 88.3944C62.2005 88.3127 62.1081 88.2473 62.0056 88.2019L61.6843 87.1658C61.6169 88.5172 61.156 86.9781 60.9683 87.534C60.8888 87.0045 61.3028 86.1549 61.3774 86.8048L61.3172 86.9047C61.9514 87.1321 61.5038 85.2259 61.931 85.2524C61.8383 82.5965 62.1187 80.002 62.0585 77.5074L61.5772 77.8082V76.9382C61.6855 76.7047 61.9514 76.6169 61.9514 77.239C62.2198 76.9045 61.6843 76.2089 61.5784 76.1957C61.7312 74.9791 62.1656 76.6506 62.1656 76.2763L62.1127 75.7745L62.0585 75.8888C61.8443 75.4869 61.6313 75.4604 61.6313 74.7107C61.7107 74.2366 61.9249 74.458 61.9382 74.2691C61.9719 74.2691 61.9863 74.2089 61.9382 73.9827V72.8852L61.5711 73.34C61.363 72.8647 61.5507 72.3099 61.1355 72.8322C61.7854 72.062 61.2029 68.7443 61.3834 68.2762C61.0621 67.6143 61.0417 66.9392 61.0224 66.1101C60.955 66.3231 60.5278 66.4711 60.541 65.7491C61.4508 65.956 60.8539 64.4169 61.4568 63.7875C61.0693 64.3363 61.2089 61.755 60.6614 62.6106C60.6879 62.0089 60.9959 62.5505 61.1692 62.0763C60.7083 60.6647 61.1163 58.9114 60.8479 57.1869C60.7276 57.1665 60.5735 57.4806 60.3666 57.1196L60.8756 56.1496C60.7877 55.8091 60.1728 55.8885 60.5266 55.2266C60.4339 55.3277 60.3004 55.4673 60.239 55.2399C60.5278 51.7753 59.2294 48.277 60.0922 44.7258C59.8924 45.2132 59.8515 44.8991 59.8178 44.5381C59.7781 44.7728 59.5302 44.5513 59.3701 44.6055L59.7239 43.1205C59.2703 42.8798 59.6036 41.5621 59.1764 41.4346L59.2763 41.8894C58.742 41.2998 58.2197 42.8124 57.5711 42.7583C58.18 43.4141 56.8418 44.632 57.7251 45.709C57.6108 45.9701 57.5037 45.508 57.3641 45.6488C57.6577 45.916 57.7371 46.2566 57.6517 46.9124L57.5771 46.8462C57.7648 48.6453 57.5506 49.4335 57.5169 51.4745L57.825 51.3C57.8178 51.7416 57.7251 51.8355 57.6577 52.0497C58.1728 52.5118 57.5903 50.8258 58.1523 51.2398C57.5506 51.8692 58.381 54.3036 57.6782 54.7585C57.7311 55.4276 58.026 54.5311 58.0789 55.2001L57.8984 55.3939L58.1656 55.5407C58.1656 55.9824 57.9321 56.223 57.7648 56.2567C57.7781 56.1496 57.6914 55.9559 57.671 55.8416C57.4832 56.4312 57.8852 57.4409 57.831 57.6418L57.8984 56.986C58.0729 57.8885 58.1391 58.9054 58.2474 59.915C58.34 60.9187 58.4676 61.8826 58.7287 62.7454L58.8683 62.5974C59.2366 63.9151 58.7877 63.6804 59.0019 65.1402L58.9622 65.086C59.1295 65.3736 59.2294 65.7611 59.2366 66.163C59.0428 65.802 58.9357 66.879 58.7143 66.4037C59.0898 67.8418 58.9887 67.1065 59.5904 68.0427L59.3569 68.2762C59.5976 68.5903 59.7179 68.6179 59.8178 69.3472C59.5771 68.7515 59.464 69.8346 59.1487 69.1727C58.6746 70.7443 59.8046 71.4471 59.0356 72.1896C59.7516 72.8719 59.3629 70.831 59.5242 71.2269C59.7312 70.8851 60.0657 71.7877 60.0116 72.2835C60.0116 72.7781 59.1692 73.1595 59.2294 74.4038C59.2294 74.2763 59.1764 74.2763 59.1764 74.1487C59.0224 74.618 59.4436 75.0513 59.1764 75.6337C59.6036 75.9418 59.1764 76.3762 59.7107 76.4496L59.5507 75.3136C59.7107 75.955 60.3533 76.5435 60.0862 77.6205C59.9779 77.5411 59.825 77.2258 59.7372 77.0116C59.5904 77.3269 59.8575 77.6073 59.7107 77.9346C59.1764 77.8624 59.5507 76.5507 59.1222 75.8744C58.908 76.2161 59.5507 77.1728 58.9682 76.8443C59.7179 77.3197 58.9153 78.0754 59.4977 78.8985L59.1764 78.8504C59.2294 78.9852 59.3906 79.2523 59.3906 79.5002L58.9622 79.0658C59.3365 79.7349 58.6938 80.3895 58.902 81.0393C58.8539 79.6675 59.2763 80.718 59.4905 80.1368C59.9658 81.8143 58.6878 81.132 58.8888 83.0189C58.8346 82.7638 59.0561 82.0562 59.2101 82.4497C59.1559 82.8107 59.0416 83.2921 58.8816 83.5135C58.9827 84.765 59.2029 83.3125 59.4111 83.8408C59.0356 84.2765 59.5844 84.4497 59.7179 84.9985L59.3966 85.0117C59.2233 86.4438 60.0789 85.3727 59.8587 86.6712L59.3966 86.1357L59.5242 86.8048L59.1559 86.6772C59.4448 87.3993 59.3774 87.6279 59.2895 88.3427C59.5109 88.1622 59.8792 88.4426 59.8984 89.0383C59.7107 89.2789 59.5904 88.9047 59.6445 89.3728C59.5434 89.2922 59.4231 89.226 59.3762 89.1718C59.3497 89.1454 59.3365 89.1189 59.3569 89.0852C59.3689 89.0587 59.4099 89.0323 59.4833 88.9119C59.3762 88.871 59.2763 88.717 59.1704 88.6773C59.1207 88.7946 59.0887 88.9187 59.0753 89.0455C59.0619 89.0845 59.0619 89.1268 59.0753 89.1658C59.0958 89.2453 59.1355 89.3391 59.1427 89.386C59.1559 89.3524 59.1692 89.3126 59.2161 89.2994C59.3701 89.4859 59.5242 89.7543 59.6782 90.0888C59.5579 90.0888 59.4568 89.9203 59.3569 89.794C59.3774 89.8542 59.4099 89.9216 59.4568 90.0082C59.4568 90.0684 59.4303 90.1153 59.3497 90.149C59.1824 89.9276 58.9887 89.7074 58.949 89.5666C58.9357 89.5545 58.9285 89.5329 58.9153 89.5064L58.949 89.5605C58.961 89.6544 58.9213 89.741 58.8551 89.8409C58.742 89.741 58.5278 89.5666 58.5338 89.4667C58.7348 89.2862 57.4772 90.1081 56.6204 89.995C56.5807 90.0479 56.494 90.1081 56.3075 90.1695C55.4507 90.2019 54.6685 89.9685 53.6974 90.4294L53.0764 90.0214C52.3002 90.2092 53.9116 90.5305 52.6143 90.8446C51.6985 91.0852 52.2268 90.4835 51.8851 90.3825C51.4506 90.6641 50.6877 91.2248 49.7984 90.924C50.0728 90.8109 50.3002 90.8578 50.5613 90.7976L50.5806 90.8373H50.5794ZM40.8476 91.9204C41.0281 91.841 41.3891 91.6003 41.5431 91.7736C41.3566 92.1623 41.1761 92.001 40.8476 91.9204ZM26.0531 93.5281C26.1939 93.4138 26.4081 93.4607 26.662 93.5751C26.4815 93.6075 26.2805 93.6027 26.0531 93.5281ZM6.16106 72.0223L6.1743 72.0428C6.04072 72.464 6.09367 72.316 6.16106 72.0223ZM6.3151 71.1463C6.27418 71.0596 6.22845 71.0596 6.18152 71.0981C6.26094 71.1583 6.26094 71.3605 6.23447 71.5879C6.32111 71.5277 6.38128 71.4134 6.3151 71.1523V71.1463ZM61.8311 74.2101L61.7517 74.3834C61.6433 74.0019 61.7312 74.1042 61.8311 74.2101Z" fill="#F9CF01"/>
<path d="M27.7179 93.0252C27.7637 93.0733 27.7939 93.1341 27.8046 93.1997C27.878 93.1395 27.878 93.0793 27.7179 93.0252ZM56.6065 90.042H56.633C56.633 90.042 56.6534 90.0023 56.6534 89.9818L56.5993 90.042H56.6065ZM8.75611 84.8505C8.72524 84.9786 8.66556 85.098 8.58162 85.1995C8.66225 85.2116 8.72964 85.1321 8.75611 84.8505ZM5.8403 66.4772L5.9125 67.0392C5.90047 66.7648 5.97267 66.6709 6.02682 66.5313C5.95462 66.5434 5.8403 66.6517 5.8403 66.4712V66.4772ZM7.89208 61.6083C7.85237 61.5276 7.89208 61.4338 7.85237 61.3544L7.70555 61.3736C7.70555 61.7286 7.82589 61.9693 7.8993 61.6083H7.89208ZM6.91613 65.9669C7.1905 65.9272 7.10386 65.5722 7.05692 65.1775V65.2449C6.67545 65.1246 6.80301 65.5458 6.91613 65.9669ZM7.0497 65.0849C7.03307 64.9631 7.03307 64.8396 7.0497 64.7178C6.89687 64.6697 7.01721 64.8646 7.0497 65.0849ZM6.15318 70.0296C6.22659 69.8419 5.8054 69.9093 5.91972 69.8009C5.57796 69.5879 6.31443 71.0597 6.15318 70.0296ZM7.81867 65.6589L7.47811 65.8009L7.74526 66.0211L7.81867 65.6589ZM7.52504 68.7781L7.62613 68.1487C7.57198 68.1559 7.53828 68.0765 7.51181 67.9754C7.49135 68.3629 7.42516 68.7913 7.51903 68.7781H7.52504ZM7.51181 67.9754C7.51903 67.7756 7.51181 67.5807 7.46487 67.4676C7.46487 67.5747 7.47209 67.8154 7.51181 67.9754ZM7.90652 66.5289L7.83311 66.7094L7.79942 67.1583L7.90652 66.5289ZM7.33852 75.5676L7.41915 76.2571C7.53226 76.3293 7.60567 76.1428 7.56596 75.8829C7.49255 75.7144 7.45164 75.4617 7.33732 75.5616L7.33852 75.5676ZM8.29401 73.5014C8.2206 73.6879 8.1472 73.6939 8.03287 73.8022L8.44804 73.8287L8.29401 73.5014ZM8.35538 75.5146C8.4685 75.5868 8.66225 76.5243 8.65623 75.647C8.54191 75.5748 8.46248 74.8853 8.35538 75.5146ZM7.58642 85.883V85.7086L6.90409 85.7158L7.58642 85.883ZM9.12315 92.8362C9.10389 92.7953 9.0702 92.8025 9.02928 92.823C8.95708 92.823 8.62855 93.1973 8.80184 92.835C8.64179 92.8759 8.62133 93.237 8.48174 93.2839C8.50099 93.2911 8.51423 93.3044 8.52867 93.3116C8.81628 93.2105 8.84877 93.2309 9.12315 92.8362ZM8.47452 93.2863C8.47452 93.2863 8.41435 93.2598 8.37464 93.2466C8.41435 93.2863 8.44684 93.2935 8.47452 93.2863ZM60.0253 42.1771L60.1385 41.6476L59.9315 41.9966L60.0253 42.1771ZM59.4706 41.2012L59.8978 41.0544L59.4898 40.7607C59.5163 40.8739 59.5632 41.1013 59.4694 41.194L59.4706 41.2012ZM39.3367 91.1659L39.303 91.2742C39.3896 91.3801 39.5172 91.3801 39.7578 91.3801L39.3367 91.1659ZM46.427 90.8843L46.3067 90.8904L46.5678 91.2586L46.427 90.8843ZM52.3068 89.8217C52.0661 89.8278 51.7917 89.9493 51.5438 89.9553C52.0661 89.829 52.4199 90.3043 52.3068 89.8217ZM56.8412 91.6533C56.8279 91.7339 57.1023 91.6533 57.1492 91.6533C57.0686 91.5474 56.7678 91.6738 56.8412 91.6533ZM56.0048 90.5089L56.1179 90.5161L55.8171 90.3621L56.0048 90.5089ZM55.864 89.2935C55.4031 89.4595 55.9916 89.7267 55.8508 89.9613L55.7497 90.0083L56.1456 90.0552C56.0517 89.8013 55.7569 89.486 55.8712 89.285L55.864 89.2935ZM56.8279 88.545C56.6474 88.5979 56.6546 88.4174 56.781 88.699C56.8015 88.6857 56.8147 88.6785 56.8291 88.6653C56.8291 88.6388 56.8219 88.6051 56.8291 88.5377L56.8279 88.545ZM56.8279 88.6701C56.8556 88.7977 56.9759 88.5702 56.8279 88.6701V88.6701ZM56.6751 88.0889L56.8556 88.2417C56.9615 88.196 56.9759 88.0492 57.0554 88.0949C56.9483 87.9348 56.8412 87.9745 56.6751 88.0889ZM56.3129 87.9553L56.3935 88.0359C56.4392 88.0155 56.4537 87.9962 56.3129 87.9553ZM56.5536 88.2164L56.3923 88.0431C56.3201 88.0756 56.1649 88.0889 56.4525 88.1226C56.3129 88.1226 56.4525 88.143 56.5536 88.2164ZM56.4874 88.3223C56.3935 88.4222 56.3406 88.5558 56.16 88.3957C56.2539 88.717 56.5812 88.6364 56.4874 88.3223ZM55.3634 89.2862L55.2431 89.4258L55.4164 89.5197C55.3297 89.4728 55.5174 89.2586 55.3694 89.2862H55.3634ZM56.8412 87.0178C56.7413 87.0178 56.574 87.0913 56.4464 87.1117L56.574 87.2321C56.6414 87.1647 56.6944 87.0383 56.8484 87.0178H56.8412ZM56.4464 87.1117L56.2587 86.9312C56.2467 87.0985 56.3333 87.1237 56.4464 87.1117ZM55.7774 87.9697L56.1733 88.2501L55.7714 87.9084L55.7786 87.9685L55.7774 87.9697ZM56.8147 86.3018L57.0554 86.3945L56.6871 86.2212L56.8147 86.3018ZM56.7401 85.8277C56.941 85.8939 57.0686 85.7001 57.1889 85.7796C57.1492 85.6532 56.9747 85.5533 56.8207 85.4595C56.9086 85.5593 56.8941 85.6737 56.7401 85.8277ZM56.5993 85.2994C56.6474 85.3536 56.7341 85.4005 56.8279 85.4607C56.7641 85.3912 56.6861 85.3362 56.5993 85.2994ZM56.2924 86.6099C56.3526 86.5894 56.5138 86.5557 56.574 86.4414L56.2924 86.5353V86.6099ZM56.2804 86.5437H56.2864V86.3752C56.2864 86.3957 56.2864 86.4426 56.2744 86.5437H56.2804ZM56.2948 86.6316V86.6111C56.2948 86.6111 56.2587 86.6255 56.2948 86.6316ZM55.9976 87.4523C55.8303 87.3536 55.6438 87.1322 55.4164 87.3729C55.6173 87.4402 55.7437 87.2982 55.9976 87.4523ZM55.9386 86.7423L55.8857 86.9505C55.9579 86.9432 56.0662 86.8963 56.1528 86.9505L55.9386 86.7495V86.7423Z" fill="#F9CF01"/>
<path d="M55.8457 86.6507L55.9396 86.7445L55.9588 86.6711L55.8457 86.6507ZM56.3475 85.653C56.2212 85.5724 56.2067 85.4798 56.1802 85.3727C56.1273 85.493 56.1068 85.6133 56.1068 85.7265C56.2007 85.7397 56.3608 85.7806 56.3475 85.6603V85.653ZM56.2873 86.0875L56.2681 86.0682C56.2681 86.0682 56.2344 86.0875 56.2873 86.0875ZM56.1393 84.3101L56.0864 84.3305H56.1333V84.3101H56.1393Z" fill="#F9CF01"/>
<path d="M56.0594 85.747C56.0053 85.8336 56.0787 85.8878 56.1726 85.9275C56.1387 85.8632 56.1183 85.7928 56.1124 85.7205C56.0727 85.7205 56.0462 85.7205 56.0594 85.7397V85.747ZM56.453 85.0093C56.3928 85.0574 56.3471 85.1104 56.3001 85.1645C56.3868 85.1164 56.5276 85.0153 56.453 85.0093ZM56.3471 86.0346C56.3471 86.0346 56.3603 86.0406 56.3603 86.0478C56.4205 86.0141 56.3868 86.0213 56.3471 86.0346Z" fill="#F9CF01"/>
<path d="M56.3475 86.0348C56.2917 85.9918 56.2311 85.9555 56.167 85.9265C56.1934 85.9806 56.2271 86.0275 56.268 86.0673C56.2921 86.0514 56.3191 86.0403 56.3475 86.0348ZM54.2945 84.0468C54.5616 84.054 54.8095 84.2754 54.5352 84.4896C54.7421 84.6761 55.6062 84.5161 56.0875 84.3284C55.9732 84.3284 55.8661 84.3284 55.6988 84.1346C55.552 84.208 55.3775 84.5895 55.1296 84.4294C54.9828 84.1683 55.2175 84.208 55.3511 84.0744C55.0225 84.1948 54.8625 83.7459 54.3811 83.8205L54.5544 84.048C54.4822 84.054 54.3546 83.9746 54.2873 84.0408L54.2945 84.0468ZM56.0731 84.711L56.1068 84.7905C56.1465 84.6966 56.2536 84.6232 56.4546 84.4968C56.321 84.3633 56.2199 84.3428 56.1333 84.3356L56.1128 84.7447L56.0731 84.7171V84.711ZM56.1272 85.1647C55.8384 85.1106 55.7061 84.9168 55.398 85.0504C55.4245 85.2911 55.6447 85.2117 55.7783 85.3512C55.6916 84.9638 55.9467 85.4596 56.0935 85.1707C56.1465 85.2453 56.1597 85.3115 56.1802 85.3789C56.2139 85.3055 56.2536 85.2381 56.3005 85.1719H56.2801V85.184C56.2476 85.2044 56.2271 85.2117 56.2476 85.184V85.178C56.2067 85.178 56.173 85.178 56.1393 85.1647C56.1934 85.0504 56.2139 85.1443 56.2476 85.178H56.2873L56.1128 84.7965C56.0803 84.8843 56.0875 84.9842 56.1272 85.1647ZM54.7891 87.2057C54.7891 87.2057 54.836 87.1936 54.8553 87.1864C54.8155 87.166 54.7951 87.1527 54.7891 87.2057ZM54.9551 87.0312C54.9961 87.0577 55.1164 87.0709 55.0899 87.172C55.0093 87.2586 54.9491 87.178 54.8553 87.1912C54.9359 87.2454 55.0755 87.3717 55.203 87.1912L55.1633 87.1648C55.25 86.9975 55.5977 86.7773 55.6375 86.8037C55.3847 86.8639 55.203 86.9181 54.9551 87.0384V87.0312ZM55.4582 86.0889L55.3041 85.7676L55.0634 85.9481L55.2103 85.9349C55.1633 86.1214 55.3438 86.0757 55.4582 86.0889ZM56.2801 84.2694L56.5881 84.3031L56.1465 84.1286L56.2801 84.2694ZM56.2331 83.8494L56.4943 83.8554L56.3342 83.7483L56.2331 83.8494ZM44.5615 73.1862L44.5482 73.2668C44.5482 73.2668 44.5615 73.2127 44.5615 73.1862ZM45.1367 73.0719L45.1246 72.9395C45.1102 73.0117 45.1102 73.0719 45.1367 73.0719ZM56.2067 73.4208C56.333 73.3535 56.4871 73.28 56.5797 73.2331C56.6748 73.1465 56.694 73.0731 56.5472 73.0923L56.2536 73.1669C56.2993 73.3065 56.2656 73.3534 56.2055 73.4269L56.2067 73.4208ZM50.4882 70.7252C50.4882 70.7252 50.5218 70.7794 50.5363 70.8131C50.5616 70.7132 50.582 70.6193 50.6025 70.5243C50.5641 70.5927 50.524 70.6601 50.4821 70.7264L50.4882 70.7252ZM50.5074 71.9286L50.3076 71.7614C50.3558 71.8215 50.422 71.8817 50.5086 71.9298L50.5074 71.9286ZM44.1475 74.3499C44.2474 74.3763 44.34 74.3823 44.4411 74.416C44.4411 74.3499 44.2943 74.3691 44.1475 74.3499ZM56.0598 79.5064C56.173 79.386 56.2199 79.2922 56.2331 79.2055C56.0659 79.3523 55.8192 79.4655 56.0598 79.5064ZM44.0536 70.1416C44.032 70.1687 44.0166 70.2002 44.0085 70.2339C44.0004 70.2676 43.9998 70.3026 44.0067 70.3365C44.0596 70.2764 44.0801 70.209 44.0536 70.1416Z" fill="#F9CF01"/>
<path d="M56.2267 78.8576C56.2267 78.8576 56.1798 78.8973 56.1605 78.9238C56.2075 79.0105 56.2472 79.0983 56.2267 79.2126C56.3543 79.1043 56.4277 78.984 56.2267 78.8636V78.8576ZM43.2433 88.1153C43.2433 88.1153 43.2229 88.1358 43.2096 88.1418C43.2506 88.1418 43.2506 88.1358 43.2433 88.1153ZM40.1795 92.0612C40.159 92.0215 40.1675 91.9553 40.159 91.8951C40.1398 91.9216 40.1398 91.9734 40.1795 92.0612ZM56.3134 82.1429C56.3326 82.2295 56.3458 82.1561 56.3134 82.1429V82.1429ZM55.1761 82.6038C55.1761 82.6038 55.1015 82.5713 55.0354 82.5713C55.0842 82.571 55.1324 82.5821 55.1761 82.6038ZM54.4276 77.9551C54.3675 77.9743 54.3807 77.9671 54.4276 77.9551V77.9551ZM56.187 82.2825C56.2215 82.2494 56.2507 82.2112 56.2736 82.1693C56.2413 82.2043 56.2123 82.2422 56.187 82.2825ZM56.3194 82.2632C56.3194 82.2632 56.3001 82.3162 56.2929 82.3426C56.341 82.3571 56.3723 82.3426 56.3194 82.2632Z" fill="#F9CF01"/>
<path d="M56.2999 82.0211C56.3014 82.0713 56.2924 82.1214 56.2734 82.1679C56.2938 82.1474 56.3071 82.1414 56.3215 82.1474C56.3185 82.1047 56.3112 82.0624 56.2999 82.0211ZM42.7882 80.6576C42.7882 80.6576 42.775 80.6697 42.7617 80.6769C42.8748 80.778 42.8616 80.731 42.7882 80.6576ZM53.23 72.1088L53.242 72.1015L53.2565 72.0883L53.23 72.1076V72.1088ZM53.0098 72.1557C53.3768 71.8741 53.3299 71.9752 53.2505 72.0883C53.5369 71.8404 53.8245 71.5865 54.1121 71.3193C53.7439 71.5672 53.378 71.8488 53.0098 72.1557Z" fill="#F9CF01"/>
<path d="M44.02 73.4279C44.1259 73.4881 44.2198 73.5482 44.3136 73.6144C44.6145 73.9827 44.5074 73.8551 44.8491 74.1439C44.4279 73.7889 44.4472 73.7552 44.4737 73.7227C44.5013 73.689 44.5218 73.6626 44.2739 73.2534C44.3269 73.3076 44.381 73.3545 44.4267 73.4074C44.4075 73.4074 44.434 73.4544 44.4207 73.4471C44.7143 73.8226 44.1596 72.8334 44.4207 72.9056C44.5146 72.9538 44.5748 73.0741 44.5748 73.1872C44.5794 73.1457 44.5904 73.1051 44.6072 73.0669L44.7216 72.9261C44.8022 72.9261 44.8214 73.0801 44.7348 73.0861L45.1367 72.9261V72.9526C45.1692 72.7985 45.2571 72.5578 45.31 72.4507C45.4436 72.559 45.2763 72.559 45.3233 72.6649L45.517 72.4038C45.6578 72.618 45.505 72.8791 45.3437 72.8791C45.7384 73.7215 45.4905 72.618 46.0658 73.0464L45.8648 73.2005C46.1055 73.6818 46.233 73.4616 46.5411 73.736C46.4544 73.5747 45.8985 73.0332 46.1127 72.7588C46.1993 72.8118 46.3004 72.8262 46.4075 72.6252C46.4677 72.9465 46.588 72.8394 46.7553 72.7925L46.8155 73.2137C46.9755 73.0597 46.9226 72.8455 47.002 72.6385C47.2162 72.6445 47.3101 72.9658 47.3967 73.2341C47.7312 73.2534 47.0898 72.7456 47.4641 72.6048C47.7649 72.7251 47.925 72.5181 48.2198 72.2233C48.434 72.3436 48.2198 72.4844 48.3065 72.5988L48.434 72.2377C48.4737 72.2377 48.481 72.3436 48.481 72.3978C48.6073 72.251 48.4328 71.9694 48.6482 71.8286C48.6482 71.3545 49.203 72.4507 49.4172 71.8888C49.5038 72.0031 49.4172 72.1571 49.4569 72.3172C49.8059 71.9224 49.7578 72.0296 50.0261 71.5217L50.327 71.7684C50.0923 71.4676 50.3065 71.0668 50.5075 70.7323C50.4208 70.5855 50.3462 70.4579 50.2933 70.3978L50.6338 70.1366C50.688 70.204 50.6615 70.3508 50.6218 70.5386C50.641 70.4976 50.6615 70.4639 50.6747 70.4302C50.8215 70.5783 50.7746 70.8262 50.7084 71.0729C50.6547 70.9922 50.6033 70.9099 50.5544 70.8262C50.487 71.0933 50.4341 71.3881 50.481 71.6348C50.5013 71.5818 50.5391 71.5372 50.5881 71.5085C50.5736 71.5807 50.5604 71.6409 50.5809 71.689C50.5941 71.7359 50.6278 71.6348 50.6747 71.5205L50.8011 71.9898V71.8021L51.2969 72.056C51.6182 71.541 51.7313 70.8262 52.333 70.5783C52.1465 70.9465 52.2199 71.1595 52.1393 71.5819C52.0923 71.1463 51.8384 71.7889 51.6916 71.7143C51.7855 71.7552 51.7638 71.9561 51.7518 72.0235C51.8381 71.8722 51.941 71.7309 52.0586 71.6024C52.0117 71.9429 52.0923 71.8551 52.1332 71.9898C52.1994 71.3135 52.4666 71.5145 52.6868 71.2943C52.6074 71.5277 52.487 71.7684 52.3607 71.7215C52.3607 71.9766 52.4666 71.7696 52.6074 71.5482C52.741 71.334 52.9154 71.0993 52.9022 71.3196C52.8613 71.3268 52.8541 71.2943 52.7819 71.4146C52.9744 71.2004 53.1297 71.3545 52.9419 71.5614H52.9022C53.0346 71.6288 53.3439 71.5614 53.765 71.3075C53.8959 71.2569 54.0145 71.1789 54.1128 71.0789C54.0394 71.1463 53.41 71.7287 53.2897 71.843C53.9455 71.3075 54.587 70.9465 55.2356 70.7588C54.9889 70.9056 54.5617 71.2738 54.1658 71.5614C53.7711 71.8563 53.4028 72.0969 53.2632 72.1306C53.1898 72.2365 53.102 72.3376 53.2753 72.3172C53.3499 72.251 53.9985 71.7359 54.0454 71.7756C53.4834 72.2967 53.7446 72.103 53.2692 72.5181C53.3775 72.4098 54.1525 72.0837 54.1261 72.2365C54.0117 72.2702 53.3559 72.5651 53.2837 72.5711C53.5326 72.5232 53.7872 72.5119 54.0394 72.5374C53.9046 72.5049 53.3968 72.7323 53.1826 72.819C53.3294 72.766 53.1621 72.979 53.2368 73.0127C53.2969 72.979 53.3571 72.9465 53.4173 72.9056C53.3571 73.026 53.617 73.0597 53.8914 73.1463C54.1658 73.2341 54.4401 73.3677 54.4209 73.5819C54.2669 73.5278 53.4702 73.4279 53.3703 73.6481C53.7518 73.7624 55.2091 74.1367 55.5039 74.5242L55.2825 74.5916L55.5304 74.8924C54.9552 74.6987 53.7446 74.1632 53.2765 73.8695C53.096 74.0296 53.0153 73.9092 53.0286 74.1571C52.8216 74.2366 52.7217 74.0163 52.7073 73.9429L52.5604 74.5109C53.0093 74.4989 53.0021 74.9598 53.3763 74.9454L52.9215 74.3172C53.3703 74.304 54.1922 74.7047 54.1056 75.1066C53.9251 75.2065 53.3102 75.0128 53.1549 75.02C53.3102 75.0729 53.4437 75.4075 53.3366 75.4472L53.102 75.2739C52.9287 75.4941 53.6916 75.6554 53.256 75.9165C53.2295 76.0092 52.6748 76.1897 52.9419 76.2101C53.457 76.0633 55.0418 76.0561 55.4305 76.1632C55.3968 76.1969 54.9347 76.6446 54.6808 76.7456C54.2801 76.8924 53.7241 76.505 53.3763 76.6313C53.4967 76.6385 53.6507 76.7252 53.6977 76.7589C53.5906 76.8588 53.3162 76.7107 53.3703 76.9261C53.8252 76.9659 53.3222 77.3606 53.7518 77.0332C53.8782 77.2402 53.6579 77.2535 53.6712 77.5014C53.9648 77.428 54.6748 77.7288 54.8024 77.9358C54.688 77.9226 54.534 77.9695 54.4666 77.9887C54.4269 78.4171 54.2139 78.6446 54.2139 79.0393C54.1056 79.073 53.972 79.2679 53.7711 79.1873C53.8517 79.2475 54.0057 79.2932 54.019 79.4208C53.6242 79.6615 53.9588 79.1464 53.4834 79.3269C53.7518 79.3401 53.8517 79.6482 54.019 79.8227C54.4269 79.7686 54.0996 79.4208 53.9323 79.2403C54.4931 79.2403 55.0888 79.5411 55.3499 79.9563C55.4907 80.2836 54.9889 80.1031 55.0695 80.156C54.9684 80.7782 56.0587 80.6711 55.658 81.1861C55.303 81.3943 54.942 81.2066 54.6808 81.2535C54.54 80.9864 54.9022 80.8384 54.8878 80.6579L54.7205 80.8865C54.6002 80.7987 54.5075 80.6242 54.6146 80.5255C54.2933 80.6988 54.5665 81.5748 54.2729 82.0562C54.3932 82.1368 54.5208 82.2836 54.6676 82.2102L54.6146 82.0622C54.9022 81.9226 55.0226 82.3366 55.1489 82.1501C55.3571 82.3498 55.6784 82.5712 55.5232 82.8516L55.1152 82.9118C55.2356 82.9058 55.3559 82.7193 55.2296 82.6447C55.4173 82.759 54.688 83.0935 55.2296 83.2127L55.51 83.0057C55.7242 83.2066 56.1658 83.4401 56.0394 83.6952C56.4402 83.5676 55.9913 83.6411 56.4606 83.4473C55.871 83.6146 56.4667 82.8047 55.8589 83.0731C56.4005 82.8793 56.0852 82.7518 56.5473 82.5039C56.4137 82.5111 56.2934 82.5917 56.3535 82.3835C56.3126 82.3775 56.2669 82.3498 56.2332 82.3366C56.2332 82.3366 56.2332 82.3306 56.2392 82.3245L56.2272 82.3366C56.1683 82.3914 56.0968 82.4306 56.019 82.4509C55.7049 82.3498 55.7109 82.0165 55.5497 81.9022C55.6098 81.7746 55.7049 81.9491 55.8505 81.8817L55.6098 81.7144C55.9107 81.6952 56.1056 81.3739 56.2861 81.6687V81.4003C56.4606 81.2403 56.5268 81.0261 56.4005 80.8985C56.4606 80.7722 56.0659 80.5857 56.2994 80.6916L56.1129 80.2764H56.1851C56.22 79.8624 55.6844 79.4268 56.226 78.9599C56.1526 78.8191 56.0587 78.6783 56.1453 78.4436L56.4065 78.3979C56.3198 78.2174 56.6676 77.8684 56.4005 77.789C57.102 77.6012 56.5605 76.9322 56.6881 76.6181L56.3463 76.6048C56.3668 76.3906 56.2729 76.1837 56.1393 75.9165L55.8385 75.9285C55.5906 75.6951 56.0587 75.3401 56.0382 74.973C56.1526 74.9995 56.1189 75.0934 56.0527 75.1536C56.741 74.7324 55.5773 74.2233 56.0792 73.8419C55.9709 73.742 56.0118 73.6686 56.0852 73.6012C56.0852 73.6084 56.0852 73.6216 56.0984 73.6289V73.5879C56.1526 73.5482 56.2127 73.5013 56.2597 73.4544C56.2003 73.4832 56.1462 73.5219 56.0996 73.5687C56.0886 73.4579 56.0493 73.3518 55.9853 73.2606C56.0924 73.2534 56.1995 73.2197 56.3066 73.2005C56.3066 73.1872 56.3066 73.174 56.2994 73.1523C56.4197 72.9598 56.1526 73.0127 55.9047 73.1066C55.8571 73.0237 55.7937 72.9509 55.7181 72.8924C56.2464 72.7059 55.5569 72.4977 56.1189 72.204C55.8517 72.1499 55.9456 71.3737 55.3631 71.5747C55.4365 71.535 55.4775 71.4748 55.4775 71.5542C55.5497 71.3617 55.6243 71.1402 55.4642 71.0861L55.8854 70.7588C55.703 70.7388 55.519 70.7388 55.3367 70.7588C55.6038 70.3641 55.7579 70.1162 56.0719 70.1234C55.8313 70.003 55.7915 69.9429 55.7506 69.8755C55.7109 69.8153 55.664 69.7551 55.4233 69.7756L55.6977 69.5277C55.6977 69.4808 55.664 69.4555 55.6243 69.4411C55.4173 69.5217 55.1357 69.689 55.2151 69.5217C55.2693 69.2678 54.7939 69.281 54.2464 69.3003C53.6772 69.3207 53.1032 69.3544 52.6411 69.1535C52.6615 69.5409 52.5677 69.4615 52.4473 69.3604C52.3198 69.2606 52.1465 69.1402 52.1128 69.4483C52.0731 69.2678 51.9251 69.1739 52.0995 68.9994C51.8312 69.1137 51.6182 69.0536 51.4497 69.0331C51.3234 69.0127 51.2163 69.0331 51.1164 69.3003C51.0562 69.1198 51.1693 69.0271 51.1164 68.92C51.0887 68.9597 51.0153 69.0933 50.9684 68.9862C50.9214 68.8791 51.0093 68.8261 51.0562 68.7383C50.6807 68.8057 50.7012 69.3749 50.7277 69.9092C50.5135 69.6757 50.4268 69.7227 50.327 70.0837C50.2463 69.9152 50.1188 69.7419 50.339 69.6625C50.2066 69.642 49.5243 69.494 49.5568 69.9224C49.5038 69.8225 49.3763 69.9104 49.3438 69.9633C49.049 69.9694 49.0225 69.9296 48.7421 70.0091L48.8287 70.0692C48.7806 70.5987 48.6073 70.2173 48.3871 70.3039V70.2509C47.8119 69.9501 48.1861 70.4507 47.6109 70.1101L47.6843 70.4242C47.7385 71.1138 47.1693 70.0897 46.9081 70.3978L47.0429 70.565C46.9153 70.8189 46.434 69.7082 46.2535 69.6553C46.2053 69.6023 46.2932 69.5482 46.3401 69.4952C45.8323 69.1667 46.3534 69.9164 46.0453 70.0692C45.9454 69.8562 46.026 69.488 45.7986 69.488C45.6506 69.3207 45.2968 70.3304 44.9153 69.9633C45.0164 70.1234 45.1163 70.2762 44.9887 70.4375C44.7745 70.5518 44.227 69.9224 44.1331 70.5109C44.0992 70.4773 44.074 70.436 44.0597 70.3905C43.8792 70.5783 43.3232 70.8117 43.3497 71.1198C42.9959 70.6384 42.6481 70.8863 42.4267 71.1138C42.2005 71.3472 42.0657 71.5554 41.6385 71.1739C41.5302 71.2269 41.3978 71.2678 41.3172 71.3412V71.7287L41.2161 71.6421C41.109 72.0897 41.3244 72.3978 41.5446 72.6589C41.4712 72.7251 41.3834 72.6108 41.3364 72.5783C41.0897 73.1595 41.109 73.3208 41.5711 73.9357H41.2365C41.4038 74.1764 40.6613 74.7179 41.0223 75.233C40.9689 75.2265 40.9182 75.2057 40.8755 75.1728C41.2293 75.748 39.8791 76.4448 41.0765 76.7119L41.3509 77.0934C41.4712 76.6241 41.8719 77.1933 42.0789 77.0068C42.1391 77.1933 41.6914 77.4677 41.6385 77.233L41.6987 77.2005C41.0765 77.0802 41.4435 77.7757 41.0163 77.7348C40.9959 78.665 40.6072 79.5483 40.535 80.4184L41.0284 80.3438L40.9887 80.6446C40.8683 80.718 40.6012 80.7313 40.6349 80.5183C40.3533 80.6181 40.8491 80.8913 40.9562 80.9058C40.7347 81.3197 40.3942 80.712 40.3737 80.8456L40.4002 81.0261L40.4604 80.9864C40.6541 81.1392 40.8623 81.1597 40.8286 81.4196C40.7215 81.5809 40.5205 81.487 40.5013 81.5544C40.4676 81.5544 40.4471 81.5748 40.4808 81.6555L40.4207 82.0357L40.8154 81.9034C40.9959 82.0839 40.7757 82.2572 41.2233 82.1031C40.535 82.3306 40.9152 83.5147 40.701 83.6615C40.9694 83.9094 40.9562 84.1429 40.9092 84.4317C40.9886 84.3643 41.4303 84.3366 41.3641 84.5845C40.4736 84.457 40.955 85.0262 40.3003 85.1994C40.7347 85.0394 40.3737 85.9155 40.9959 85.6543C40.9152 85.8625 40.6613 85.6543 40.4411 85.8024C40.7684 86.3102 40.1728 86.8854 40.2666 87.5076C40.387 87.5208 40.5675 87.4269 40.7359 87.5605L40.133 87.8614C40.186 87.9817 40.8081 87.9961 40.3942 88.2031C40.4941 88.1766 40.6481 88.1357 40.6818 88.2163C40.0657 89.4005 41.0633 90.6845 39.9453 91.8747C40.18 91.7146 40.2004 91.8289 40.2004 91.9553C40.2606 91.8747 40.488 91.9685 40.6481 91.9553L40.186 92.4511C40.6276 92.557 40.2004 92.9986 40.6216 93.0648L40.5482 92.8987C41.0416 93.1262 41.665 92.6316 42.3064 92.6773C41.7456 92.4246 43.1632 92.0696 42.3665 91.6544C42.5013 91.5738 42.5675 91.7351 42.7215 91.6941C42.4472 91.5882 42.3942 91.4607 42.5278 91.2465L42.594 91.273C42.547 90.6448 42.8286 90.3837 43.0296 89.6809L42.7083 89.7218C42.7552 89.5738 42.8551 89.5413 42.9357 89.4739C42.4604 89.2801 42.8948 89.8951 42.3665 89.7218C43.0164 89.5413 42.4147 88.6508 43.1487 88.5437C43.1632 88.3102 42.7817 88.5978 42.7949 88.3632L42.9959 88.3102L42.742 88.2428C42.7889 88.0888 43.0428 88.0226 43.2101 88.0226C43.1897 88.0563 43.2498 88.1297 43.2631 88.1694C43.5037 87.9829 43.2029 87.6074 43.2835 87.5413L43.1499 87.7615C42.9887 87.1189 43.2763 86.3499 42.902 85.7217L42.748 85.7614C42.4941 85.2801 42.9285 85.3944 42.8214 84.8721L42.8551 84.8926C42.7083 84.7843 42.6409 84.6447 42.6614 84.5039C42.8286 84.6447 43.0091 84.2765 43.1969 84.4509C42.9225 83.9287 42.9754 84.1898 42.4339 83.8288L42.6878 83.7614C42.4676 83.635 42.3533 83.6218 42.3003 83.3607C42.5013 83.5809 42.6878 83.2127 42.9562 83.4605C43.5242 82.9455 42.4472 82.6314 43.2498 82.4244C42.5747 82.1428 42.8491 82.8721 42.7083 82.7253C42.4797 82.8324 42.2065 82.4966 42.2799 82.3306C42.3003 82.1561 43.1704 82.0767 43.1764 81.641C43.1764 81.6819 43.2233 81.6892 43.2161 81.7349C43.3966 81.5809 42.9959 81.4076 43.2907 81.2198C42.8816 81.0863 43.3232 80.9659 42.8022 80.9058L42.902 81.3065C42.7745 81.073 42.1668 80.8323 42.4809 80.4773C42.588 80.511 42.7215 80.6314 42.7949 80.712C42.9562 80.6109 42.7011 80.4978 42.8683 80.3907C43.3978 80.4509 42.9622 80.8793 43.3497 81.1404C43.5783 81.0321 42.9887 80.6651 43.5579 80.8119C42.8359 80.6049 43.671 80.3907 43.1295 80.0694L43.4436 80.1031C43.3966 80.0562 43.251 79.9491 43.2631 79.8624L43.665 80.0357C43.3232 79.783 43.9923 79.5941 43.8118 79.3534C43.7986 79.8287 43.4243 79.4412 43.1836 79.635C42.7889 79.0261 44.032 79.3401 43.9117 78.6723C43.9526 78.7649 43.7047 78.9996 43.5639 78.8528C43.6385 78.7324 43.7649 78.5712 43.9394 78.5038C43.8984 78.0634 43.6108 78.5519 43.4243 78.357C43.819 78.2306 43.2763 78.1368 43.1632 77.9358L43.4845 77.949C43.7179 77.4605 42.8226 77.7818 43.0958 77.3473L43.5314 77.5615L43.4303 77.3209L43.7913 77.387C43.5314 77.1199 43.6108 77.0465 43.7252 76.7986C43.4965 76.8467 43.1427 76.7324 43.1427 76.511C43.3437 76.3702 43.4436 76.6109 43.4171 76.2968C43.6181 76.3774 43.866 76.4713 43.5579 76.5916C43.665 76.6109 43.7576 76.671 43.8587 76.6915C44.0862 76.5447 43.9321 76.2908 43.9321 76.1764C43.9189 76.2173 43.8984 76.2703 43.8515 76.2968L43.4303 75.8226C43.5579 75.7552 43.6518 75.8226 43.7384 75.8828C43.7119 75.7889 43.5639 75.7143 43.5447 75.582C43.8046 75.6277 44.0729 75.6349 44.1861 75.8347L43.9189 75.387C44.032 75.3678 44.2462 75.1872 44.3401 75.2474C44.4267 75.1331 44.3064 74.9791 44.1933 74.8118C44.1386 74.7355 44.0938 74.6526 44.0597 74.5651C44.0455 74.5267 44.0409 74.4853 44.0465 74.4448C44.0465 74.4111 44.0585 74.4111 44.0862 74.3906C44.032 74.3786 43.9851 74.3641 43.9526 74.3304C44.0188 74.1896 44.3401 74.2306 43.9995 73.9429C44.1524 73.9827 44.3064 74.0368 44.4604 74.097C44.4135 74.0296 44.2667 73.9694 44.1127 73.902C43.9586 73.8358 43.7986 73.7757 43.7179 73.6012C43.5844 73.3412 44.1066 73.7889 44.2402 73.8226C44.1019 73.6971 43.9765 73.558 43.866 73.4074C43.7986 73.2943 43.866 73.2606 44.0657 73.3942C44.1066 73.4748 44.0188 73.4279 44.0188 73.4676V73.4279H44.02ZM46.0922 72.7384C46.0393 72.819 45.9599 73.0464 45.872 72.8659C45.872 72.4917 45.9659 72.6517 46.0922 72.7384ZM51.049 71.2943C51.0093 71.4074 50.9287 71.3605 50.8348 71.2461C50.895 71.2137 50.9623 71.2209 51.049 71.2943ZM56.0394 81.1669H56.025C56.1453 81.0129 56.0996 81.0658 56.0394 81.1669ZM55.9047 81.4738C55.9246 81.4856 55.9469 81.4929 55.97 81.4952C55.9931 81.4975 56.0164 81.4947 56.0382 81.487C55.9588 81.4677 55.9516 81.4003 55.9721 81.3197C55.8854 81.3402 55.8313 81.3799 55.9047 81.4738ZM40.5735 81.5279L40.6613 81.4738C40.748 81.6146 40.6601 81.5748 40.5735 81.5279Z" fill="#F9CF01"/>
<path d="M50.5074 71.7877C50.4809 71.7336 50.4737 71.6734 50.4605 71.6132C50.4487 71.6435 50.447 71.6768 50.4554 71.7081C50.4638 71.7395 50.4821 71.7674 50.5074 71.7877ZM53.1633 76.7096C53.2064 76.6538 53.265 76.6119 53.3318 76.5892C53.2499 76.5892 53.1838 76.6157 53.1633 76.7096ZM56.481 83.0719L56.3944 82.8794C56.4149 82.972 56.3415 83.0057 56.2945 83.0599C56.3667 83.0599 56.475 83.0117 56.481 83.0719ZM54.5412 84.8301C54.5809 84.8577 54.5472 84.8902 54.5881 84.9179L54.7349 84.9047C54.7217 84.7843 54.5941 84.7037 54.534 84.8301H54.5412ZM55.4172 83.2789C55.1429 83.2981 55.244 83.4185 55.2969 83.5593V83.5328C55.6784 83.5593 55.5508 83.4197 55.4172 83.2789ZM55.3029 83.5857C55.3174 83.6266 55.3219 83.6703 55.3162 83.7133C55.4702 83.7265 55.3487 83.6604 55.3029 83.5857ZM56.0863 81.8541C56.0189 81.9203 56.4341 81.8878 56.327 81.9263C56.676 81.9937 55.9058 81.4991 56.0863 81.8541ZM54.5267 83.4125L54.8553 83.3523L54.5881 83.2849L54.5267 83.4125ZM54.7434 82.3162L54.6555 82.5376C54.7085 82.5376 54.7421 82.5581 54.7686 82.5905C54.7758 82.4582 54.8432 82.3029 54.7421 82.3102V82.3162H54.7434ZM54.7686 82.5966C54.7686 82.67 54.7686 82.7374 54.8288 82.771C54.8288 82.7301 54.8095 82.6507 54.7686 82.5966ZM54.4136 83.1116L54.481 83.0442L54.5075 82.8902L54.4136 83.1116ZM54.7831 79.9551L54.6892 79.7144C54.5749 79.6868 54.5015 79.7542 54.5484 79.8468C54.629 79.907 54.676 79.9948 54.7831 79.9551ZM53.8649 80.6844C53.9323 80.6182 54.0057 80.6122 54.1188 80.5773H53.7048L53.8649 80.6844ZM53.765 79.9804C53.6519 79.9599 53.4305 79.6314 53.4569 79.9407C53.5713 79.9672 53.6711 80.2078 53.765 79.9804ZM54.3065 76.3498L54.3137 76.416L54.9961 76.4099L54.3065 76.3498ZM52.7421 73.1259C52.5748 73.393 53.1633 73.1993 52.9491 73.4472C53.1104 73.5194 53.1236 73.239 53.2572 73.3124C53.1765 73.2258 53.1573 73.1524 53.1031 73.1319C53.0502 73.1199 52.9623 73.1199 52.7349 73.1319L52.7421 73.1259ZM53.2572 73.3124C53.2572 73.3124 53.3173 73.3726 53.357 73.4063C53.3173 73.3533 53.2836 73.3329 53.2572 73.3124ZM39.7924 92.7243L39.6456 92.9048L39.8791 92.7917L39.7924 92.7243ZM40.287 93.0913L39.8538 93.125L40.2413 93.2454C40.2208 93.2044 40.1871 93.1178 40.287 93.0913ZM46.7216 73.5146V73.4075C46.6686 73.3004 46.6289 73.3004 46.5483 73.2944L46.7216 73.5086V73.5146ZM44.6349 73.5988H44.6481C44.5952 73.4857 44.541 73.3654 44.4808 73.245L44.6349 73.5988ZM44.7757 74.1692C44.7757 74.1692 44.7083 74.0958 44.7275 74.0886C44.7949 74.1632 44.3064 73.8816 44.7757 74.1692ZM18.6296 21.5426C18.6092 21.5823 18.8835 21.5426 18.9377 21.5426C18.8703 21.4824 18.5562 21.5426 18.6296 21.5426ZM17.9605 20.9337L18.0749 20.9397L17.786 20.8675L17.9605 20.9337ZM17.9329 20.3235C17.4587 20.4174 18.0207 20.5377 17.8607 20.6653L17.7523 20.6918L18.141 20.711C18.0737 20.5847 17.8125 20.4306 17.9401 20.3308L17.9329 20.3235ZM18.9437 19.918C18.7572 19.9505 18.7837 19.8578 18.8908 19.9974C18.907 19.992 18.9227 19.9851 18.9377 19.977C18.9377 19.9649 18.9377 19.9445 18.9437 19.9168V19.918ZM18.9377 19.977C18.9569 20.0371 19.0905 19.9228 18.9377 19.977V19.977ZM18.8161 19.6894L18.9834 19.7628C19.0905 19.7363 19.111 19.6629 19.1904 19.6821C19.0965 19.6027 18.9906 19.6292 18.8089 19.6894H18.8161ZM18.4611 19.6352L18.5358 19.6749C18.5827 19.6617 18.5947 19.6484 18.4611 19.6352ZM18.6898 19.7555L18.5358 19.6749C18.4623 19.6954 18.3071 19.7086 18.5887 19.7146C18.4479 19.7146 18.5899 19.7279 18.6898 19.7555ZM18.6164 19.8157C18.5165 19.8699 18.4551 19.9361 18.2818 19.8638C18.3552 20.0239 18.6898 19.9697 18.6164 19.8157ZM17.4383 20.3308L17.3047 20.4054L17.4647 20.4451C17.3841 20.4246 17.5851 20.3115 17.4383 20.3247V20.332V20.3308ZM19.0303 19.1418C18.9305 19.1418 18.7632 19.1887 18.6356 19.208L18.756 19.2622C18.8234 19.2212 18.8835 19.1611 19.0376 19.1418H19.0303ZM18.6356 19.208L18.4551 19.1274C18.4431 19.214 18.5225 19.2212 18.6356 19.208ZM17.9341 19.6617L18.3083 19.788L17.928 19.628L17.9341 19.6617ZM19.0243 18.7808L19.265 18.8205L18.904 18.7531L19.0243 18.7808ZM18.9702 18.5461C19.1639 18.5726 19.2975 18.4655 19.4178 18.498C19.3781 18.4378 19.2109 18.3921 19.0568 18.3584C19.1435 18.4065 19.1242 18.4667 18.9702 18.5461ZM18.8366 18.291C18.8835 18.3103 18.9702 18.3367 19.058 18.3572C18.9883 18.3234 18.9135 18.301 18.8366 18.291ZM18.496 18.9601C18.5562 18.9469 18.7163 18.9204 18.7837 18.8662L18.5021 18.9264V18.9673L18.496 18.9601ZM18.4888 18.9276H18.496C18.496 18.8879 18.5021 18.8542 18.5093 18.847C18.5093 18.8614 18.5021 18.8807 18.4888 18.9276ZM18.1747 19.3933C18.0147 19.3536 17.8342 19.2465 17.5995 19.3813C17.7933 19.4078 17.9341 19.3332 18.1747 19.3933ZM18.141 19.0467L18.0809 19.1551C18.1531 19.1478 18.2674 19.1214 18.348 19.1406L18.141 19.0467Z" fill="#F9CF01"/>
<path d="M18.0469 18.9997L18.1407 19.0478L18.1672 19.0069L18.0469 18.9997ZM18.5752 18.4858C18.4476 18.4521 18.4344 18.4052 18.4151 18.351C18.361 18.4112 18.3345 18.4714 18.3405 18.5316C18.4283 18.5316 18.5956 18.5448 18.5812 18.4858H18.5752ZM18.3886 17.8228C18.3886 17.8228 18.3549 17.8288 18.3345 17.836H18.3826V17.8228H18.3886ZM18.2876 18.546C18.2346 18.5929 18.308 18.6122 18.3947 18.6326C18.3787 18.6212 18.3656 18.6063 18.3564 18.5889C18.3472 18.5716 18.3422 18.5524 18.3417 18.5328C18.3008 18.5328 18.2743 18.534 18.2876 18.546ZM18.6967 18.1585C18.6424 18.1819 18.5908 18.2109 18.5427 18.2451C18.6293 18.2187 18.7701 18.1657 18.6967 18.1585ZM18.5691 18.6723H18.5812C18.6413 18.6579 18.6161 18.6651 18.5691 18.6723Z" fill="#F9CF01"/>
<path d="M18.5699 18.6736C18.529 18.6532 18.4556 18.6399 18.3954 18.6255C18.4237 18.6547 18.4577 18.6776 18.4953 18.6929C18.5158 18.6929 18.5495 18.6809 18.5759 18.6736H18.5699ZM16.5566 17.7964C16.8238 17.7843 17.0717 17.8842 16.7901 17.9973C16.9911 18.078 17.8611 17.9504 18.3425 17.8373C18.2281 17.8373 18.121 17.8493 17.961 17.7639C17.8202 17.8096 17.6337 18.0046 17.3918 17.9372C17.2522 17.8168 17.4796 17.824 17.6204 17.7506C17.2919 17.8301 17.1319 17.6159 16.6493 17.6832L16.8238 17.7831C16.7504 17.7903 16.6228 17.7567 16.5566 17.7964ZM18.3232 18.031L18.3557 18.0707C18.4038 18.0238 18.5037 17.9769 18.7107 17.9035C18.5771 17.8433 18.476 17.8373 18.3894 17.8433L18.3629 18.0443L18.3232 18.031Z" fill="#F9CF01"/>
<path d="M18.3677 18.2522C18.0801 18.2389 17.9537 18.1511 17.6456 18.2317C17.6721 18.3521 17.8935 18.2991 18.0199 18.3593C17.9405 18.1716 18.1812 18.4062 18.3412 18.251C18.3796 18.2736 18.4084 18.3096 18.4218 18.3521C18.4582 18.3096 18.5013 18.2734 18.5494 18.245H18.5289C18.4952 18.2582 18.4688 18.2582 18.4952 18.245H18.3881C18.4423 18.1848 18.4615 18.2317 18.4952 18.245H18.535L18.3677 18.0645C18.328 18.1114 18.3412 18.1583 18.3809 18.245L18.3689 18.2522H18.3677ZM16.9766 19.3196C16.9766 19.3196 17.0247 19.3136 17.044 19.3076C17.0103 19.3003 16.9838 19.2931 16.9766 19.3196Z" fill="#F9CF01"/>
<path d="M17.1446 19.2281C17.1855 19.2414 17.2986 19.2414 17.2721 19.2883C17.1855 19.3352 17.1313 19.3015 17.0375 19.3088C17.1181 19.328 17.2517 19.3882 17.3865 19.2943L17.3455 19.2823C17.4394 19.1944 17.7932 19.0681 17.8341 19.0813C17.601 19.1135 17.3706 19.1626 17.1446 19.2281ZM17.6861 18.7408L17.5381 18.5939L17.2914 18.6938L17.4382 18.6806C17.384 18.7745 17.5658 18.7408 17.6861 18.7468V18.7408ZM18.5357 17.7961H18.8365L18.4021 17.7359L18.5345 17.7961H18.5357ZM18.4888 17.5891L18.7499 17.5831L18.5898 17.535L18.4888 17.5891ZM19.1711 6.12442L19.2722 6.03777C19.2342 6.06119 19.2 6.09043 19.1711 6.12442ZM18.6428 6.16413L18.6031 6.29891C18.6428 6.21828 18.6633 6.16413 18.6428 6.16413ZM18.1879 12.4783C18.4286 12.3977 18.8101 12.2978 18.5152 12.3243L18.2276 12.3652C18.2818 12.4121 18.2541 12.4446 18.1939 12.4855L18.1879 12.4783ZM16.2673 9.06069C16.2673 9.06069 16.2071 9.07272 16.1807 9.08716C16.2805 9.1004 16.3744 9.11364 16.461 9.12086C16.3972 9.09986 16.3318 9.0798 16.2673 9.06069ZM15.0639 9.05949L15.2444 8.9596C15.1777 8.97946 15.1162 9.01354 15.0639 9.05949ZM22.188 5.78988L22.4816 5.57447C22.4816 5.41442 22.3348 5.64908 22.188 5.78988ZM18.2685 15.4675C18.3756 15.4014 18.4226 15.3544 18.4358 15.3075C18.2746 15.3881 18.0267 15.4615 18.2673 15.4675H18.2685ZM18.1482 9.39523C18.1747 9.33506 18.1951 9.27489 18.2156 9.20149C18.1831 9.26213 18.1603 9.32751 18.1482 9.39523ZM18.4214 15.1402C18.4214 15.1402 18.3817 15.1667 18.354 15.1739C18.4081 15.2136 18.4478 15.2545 18.4286 15.3075C18.5489 15.2473 18.6211 15.1799 18.4214 15.1342V15.1402ZM22.4611 14.4122L22.4287 14.4326C22.4684 14.4326 22.4684 14.4194 22.4611 14.4122ZM19.8137 16.7516C19.8137 16.7516 19.7872 16.7034 19.78 16.6709C19.7607 16.6902 19.768 16.7106 19.8137 16.7516ZM18.5694 16.7455C18.5898 16.7877 18.6043 16.7455 18.5694 16.7455V16.7455ZM17.4322 17.0392C17.4322 17.0392 17.3588 17.0259 17.2914 17.0319C17.3588 17.0319 17.4045 17.0319 17.4322 17.0392ZM16.5958 14.8141C16.5429 14.8273 16.5489 14.8201 16.5958 14.8141V14.8141ZM18.4418 16.8201C18.471 16.8034 18.4981 16.7832 18.5225 16.76C18.502 16.7732 18.4755 16.7865 18.4418 16.8201ZM18.5766 16.8069C18.5766 16.8069 18.5562 16.8334 18.5489 16.8478C18.5971 16.8478 18.6296 16.8478 18.5766 16.8069ZM18.5489 16.6854C18.5489 16.6854 18.5489 16.7323 18.5225 16.7576C18.5417 16.7516 18.5549 16.7455 18.5694 16.7455C18.5694 16.7323 18.5549 16.7118 18.5489 16.6854ZM21.3444 10.9199C21.3444 10.9199 21.3312 10.9199 21.3179 10.932C21.4383 10.9657 21.4178 10.9524 21.3444 10.9199ZM14.8906 11.3423C15.2516 11.3892 15.2107 11.4362 15.1373 11.4891L15.9737 11.3965L14.8906 11.3483V11.3423Z" fill="#F9CF01"/>
<path d="M20.4865 5.94421C20.479 5.85718 20.4682 5.77047 20.454 5.68428C20.9221 5.22217 21.022 5.36899 21.0485 5.00195C20.7608 5.47609 20.5671 5.50978 20.3661 5.54348C20.1736 5.57717 19.9714 5.60967 19.7644 6.085L19.7307 5.89126C19.7307 5.89126 19.7909 5.84312 19.8174 5.85155C19.7572 5.41592 19.3769 6.54711 19.1688 6.44C19.1026 6.37983 19.0689 6.24505 19.1688 6.12472L18.8884 6.37983C18.8282 6.36539 18.8884 6.20534 18.9413 6.21136L18.5875 6.3317V6.30522C18.5075 6.47605 18.4204 6.64346 18.3264 6.80704C18.2662 6.6867 18.3805 6.69994 18.3733 6.58682L18.1796 6.84073C18.1254 6.61329 18.2927 6.35216 18.4263 6.36539C18.3541 5.46285 18.259 6.62051 17.9052 6.14517L18.0989 5.99836C17.9918 5.48933 17.8246 5.70955 17.5695 5.42916C17.6573 5.58319 18.0388 6.16563 17.8246 6.43278C17.7716 6.37261 17.6838 6.35938 17.5911 6.56034C17.5707 6.23904 17.4636 6.3317 17.33 6.38585L17.2891 5.95744C17.1423 6.1187 17.1892 6.3329 17.1362 6.53989C16.9678 6.53989 16.8619 6.21858 16.7475 5.95744C16.4732 5.95744 17.0364 6.43278 16.7752 6.5796C16.5743 6.46648 16.5069 6.66022 16.3937 6.96829C16.2397 6.85999 16.3336 6.71438 16.2529 6.60728V6.96107C16.2529 6.96107 16.206 6.86119 16.1928 6.80704C16.1531 6.96107 16.3203 7.21619 16.2397 7.36902C16.3396 7.73004 15.9786 7.1825 15.8185 7.21499L15.2168 7.34255L15.0556 8.41356C15.0556 8.44605 15.0893 8.47975 15.2024 8.50021C15.082 8.53992 14.9425 8.50021 14.7752 8.51224C15.1362 8.69275 15.0351 8.66748 15.5177 8.80707L15.2433 8.95509C15.5562 8.84077 15.9449 8.95509 16.2662 9.04775C16.4202 9.00804 16.555 8.96833 16.6152 8.94787L16.8558 9.11514C16.7885 9.14161 16.6404 9.12838 16.4599 9.10792C16.4936 9.11514 16.5333 9.12838 16.5682 9.1356C16.413 9.2078 16.1663 9.18253 15.9256 9.14763C16.005 9.12236 16.0989 9.09468 16.1856 9.07543C15.92 9.03529 15.6511 9.02159 15.3829 9.03451C15.4276 9.03999 15.4695 9.05887 15.5032 9.08867C15.4459 9.07824 15.3872 9.07824 15.3299 9.08867C15.283 9.09468 15.3829 9.10792 15.49 9.1356L15.0159 9.19577H15.2024L14.9148 9.44246C15.4034 9.59048 16.1182 9.7036 16.3264 9.95751C15.9726 9.91058 15.7584 9.97075 15.3432 9.98519C15.7776 9.89133 15.1494 9.79024 15.2289 9.64343C15.1892 9.71683 14.9882 9.71082 14.922 9.69758L15.3372 9.92382C14.9954 9.93826 15.082 9.99121 14.9485 10.0586C15.6176 9.97797 15.4034 10.2186 15.6176 10.3113C15.3889 10.333 15.1627 10.3113 15.2084 10.191C14.715 10.3522 16.005 10.3258 15.5839 10.4798C15.5778 10.4533 15.6103 10.4316 15.4972 10.4256C15.6982 10.4858 15.5502 10.6603 15.3564 10.6338V10.6061C15.283 10.8071 15.3769 11.2078 15.9461 11.2078C15.8715 11.2078 15.2565 11.2151 15.1422 11.2078L17.0761 11.463C16.5875 11.463 15.4298 11.6362 15.1494 11.4894C15.082 11.5436 15.0026 11.6038 15.1831 11.6904C15.2493 11.6567 15.8847 11.5761 15.9316 11.617C15.3961 11.7638 15.644 11.7169 15.1892 11.8914C15.2902 11.8372 16.0592 11.8504 16.0387 11.9239C15.9256 11.9239 15.283 11.972 15.2024 11.9443L15.9653 12.0911C15.8245 12.0514 15.3299 12.1188 15.1157 12.1717C15.2626 12.1453 15.1157 12.339 15.1892 12.386L15.3576 12.2993C15.2565 12.5195 16.4262 12.4533 16.3925 12.6663C16.2397 12.6471 15.437 12.6543 15.3432 12.7674C15.7307 12.7939 17.2024 12.8805 17.5093 13.0478L17.2891 13.096L17.5502 13.2223C16.969 13.1682 15.7379 12.9876 15.2565 12.8733C15.0881 12.9612 14.9954 12.9142 15.0219 13.0286C14.8209 13.0815 14.7078 12.9804 14.6946 12.9479L14.5742 13.2355C15.0219 13.1946 15.0351 13.4221 15.4106 13.3896L14.9292 13.1152C15.3769 13.0743 16.2132 13.2151 16.1458 13.4161C15.9726 13.4762 15.3432 13.4221 15.1952 13.4365C15.3504 13.4558 15.5032 13.6038 15.3901 13.6291L15.1422 13.5629C14.9822 13.6832 15.7439 13.7097 15.3227 13.8637C15.2963 13.9119 14.7547 14.0382 15.0159 14.025C15.5237 13.9167 17.1098 13.8108 17.4973 13.8372C17.4636 13.8577 17.0219 14.1044 16.768 14.1718C16.3733 14.2717 15.8053 14.1176 15.4635 14.1983C15.5839 14.1983 15.7379 14.2247 15.7908 14.2392C15.691 14.2921 15.4106 14.2392 15.4707 14.3451C15.9256 14.333 15.4431 14.5593 15.8582 14.3728C15.9918 14.4654 15.7716 14.4859 15.7981 14.6062C16.0929 14.5533 16.8017 14.6543 16.9413 14.747C16.8282 14.747 16.6741 14.7807 16.6079 14.7939C16.5803 15.0009 16.3793 15.1285 16.3793 15.3222C16.2734 15.3487 16.1386 15.4498 15.9461 15.4221C16.0255 15.4426 16.1868 15.463 16.1988 15.5232C15.8113 15.664 16.1326 15.3956 15.6645 15.51C15.9316 15.5027 16.0387 15.6423 16.206 15.7169C16.6152 15.664 16.2734 15.516 16.1061 15.4426C16.6681 15.4089 17.2698 15.516 17.5382 15.7037C17.6838 15.8577 17.1759 15.7976 17.2566 15.8168C17.1759 16.1249 18.253 16.0118 17.8583 16.2861C17.5033 16.4065 17.1423 16.3391 16.8883 16.3788C16.7475 16.2585 17.1025 16.1646 17.0893 16.0719L16.9208 16.1923C16.8005 16.1586 16.7078 16.078 16.8077 16.0238C16.4864 16.1321 16.7752 16.5401 16.4864 16.794C16.6067 16.8277 16.7343 16.8878 16.8811 16.8469L16.8282 16.7747C17.1158 16.6869 17.2361 16.8878 17.3637 16.7807C17.5707 16.8674 17.898 16.954 17.7367 17.102L17.33 17.155C17.4503 17.1418 17.5707 17.0479 17.4431 17.0142C17.6308 17.0623 16.9016 17.2681 17.4431 17.2958L17.7247 17.1754C17.9389 17.2621 18.3733 17.3487 18.253 17.4823C18.6537 17.3957 18.206 17.4558 18.6742 17.3355C18.0917 17.4558 18.6814 17.0214 18.0725 17.1815C18.614 17.0551 18.2999 17.0082 18.7608 16.8602C18.6284 16.8734 18.5081 16.9203 18.5683 16.8132C18.5279 16.8132 18.4875 16.8092 18.4479 16.8012H18.4539H18.4395C18.413 16.8012 18.4203 16.8012 18.4395 16.8012C18.3758 16.8311 18.3087 16.8533 18.2397 16.8674C17.9257 16.8409 17.9257 16.6736 17.7644 16.6267C17.8246 16.5593 17.9184 16.6399 18.0653 16.6002L17.8186 16.5328C18.1194 16.5064 18.3059 16.3391 18.4937 16.4654V16.3331C18.6669 16.2452 18.7271 16.1321 18.5935 16.078C18.6537 16.0106 18.253 15.9444 18.4937 15.9841L18.2999 15.7915H18.3721C18.3998 15.5834 17.8583 15.4029 18.3866 15.1345C18.3059 15.0743 18.2121 15.0081 18.2927 14.8878L18.5538 14.8469C18.46 14.7675 18.8017 14.5725 18.5274 14.5533C19.2229 14.4197 18.6537 14.1249 18.774 13.9636L18.4335 13.978C18.4467 13.8697 18.3468 13.7771 18.206 13.6567L17.9052 13.6832C17.6513 13.5833 18.1062 13.3824 18.0653 13.2019C18.1796 13.2019 18.1519 13.256 18.0857 13.2885C18.7476 13.0358 17.5707 12.8673 18.052 12.6471C17.9389 12.6062 17.9786 12.5665 18.052 12.5328C18.052 12.5328 18.052 12.54 18.0653 12.546V12.5267C18.1194 12.4991 18.1736 12.4726 18.2193 12.4533C18.1459 12.4798 18.0857 12.4991 18.0592 12.5195C18.052 12.4858 18.0111 12.4257 17.9317 12.3787L18.253 12.339C18.253 12.339 18.253 12.3318 18.2458 12.3258C18.3601 12.2656 18.0917 12.2921 17.851 12.3318C17.7878 12.3021 17.7205 12.2818 17.6513 12.2716C18.1663 12.1994 17.4708 12.1393 18.0183 12.0442C17.7439 12.0249 17.7981 11.777 17.2301 11.777C17.3023 11.777 17.336 11.7506 17.3432 11.777C17.4034 11.7109 17.4636 11.6507 17.3035 11.6038L17.7115 11.5556L17.1555 11.4497C17.4034 11.3559 17.5442 11.3161 17.8655 11.3763C17.3697 11.2018 17.6705 11.2283 17.1832 11.0815H17.4503C17.4371 11.0141 17.0761 10.9407 17.2963 10.8938C17.7909 10.7337 17.33 10.2319 17.7776 9.86365C17.0027 9.96473 18.1194 9.69036 17.5177 9.7036C17.6982 9.67712 17.8053 9.62297 17.9654 9.6699C17.7776 9.50263 18.2458 9.39553 17.7307 9.29565C17.9184 9.26917 18.0051 9.32212 18.1122 9.29565C18.0725 9.28241 17.9521 9.24872 18.0592 9.22224C18.1663 9.20178 18.2121 9.2427 18.2999 9.26195C18.259 9.08867 17.691 9.09468 17.1567 9.1019C17.4034 9.00082 17.3637 8.95509 17.0159 8.90816C17.1892 8.86724 17.3697 8.80707 17.4371 8.91417C17.4563 8.84799 17.6705 8.51946 17.2433 8.5327C17.3492 8.50622 17.2698 8.44606 17.2229 8.43282L17.2494 8.27878L16.6946 9.15485C16.6946 9.15485 16.7548 9.14282 16.7945 9.1019L16.7415 9.04775C16.6007 8.55316 16.7945 8.90816 16.8619 8.81429L16.8739 8.86724C17.2096 9.14883 16.9148 8.66748 17.2566 9.00082L17.1555 8.69997C16.9822 8.03089 17.484 9.0285 17.5045 8.75412L17.4238 8.58565C17.4503 8.33895 17.7644 9.47014 17.7849 9.55678C17.7969 9.61695 17.7849 9.65667 17.7849 9.7036C17.898 10.0983 17.7367 9.28241 17.8053 9.16809C17.8318 9.39673 17.8378 9.75053 17.8715 9.79024C17.8847 9.88411 17.892 9.69036 17.9317 9.53031C17.9654 9.36905 18.0328 9.22946 18.0328 9.4557C18.0388 9.27519 18.0328 9.09468 18.0929 8.95509C18.1856 8.87446 18.1122 9.62899 18.2927 9.03451C18.2905 9.08481 18.2815 9.13458 18.2662 9.18253C18.3468 9.02128 18.4864 8.90816 18.6477 8.57361C18.4467 9.17531 18.5538 9.02128 18.7079 8.854C18.8547 8.68673 19.0352 8.50021 18.7139 9.07543L18.8884 9.00082L18.8077 9.12116C18.8342 9.18855 19.0556 8.91417 19.2963 8.63378C19.2626 8.71321 19.1688 8.82031 19.1218 8.88048C19.1098 8.9948 19.1026 9.03451 19.176 8.98156C19.2157 8.95509 19.2759 8.89492 19.3637 8.81309C19.4359 8.75292 19.531 8.66748 19.6513 8.56038L19.336 8.93343H19.3433C19.4167 8.86122 19.2963 9.05377 19.1964 9.21502C19.0954 9.37628 19.028 9.49661 19.2085 9.38951C19.176 9.42321 19.1086 9.47014 19.0689 9.50263C19.2566 9.40275 19.0424 9.68314 18.9148 9.81792C18.7945 9.96473 18.768 9.99843 19.3565 9.68314C19.4564 9.66389 19.5502 9.64343 19.6513 9.63621C19.738 9.41599 20.1592 9.38951 20.3529 9.209C20.4263 9.26917 20.0051 9.60372 19.9449 9.53633L20.0051 9.48939C19.3902 9.77099 19.7981 9.80348 19.3769 9.97075C19.3962 10.0983 19.3288 10.2523 19.2494 10.3799C19.2289 10.4124 19.2097 10.4329 19.1892 10.4726L19.1423 10.641C19.1137 10.7499 19.0979 10.8618 19.0954 10.9744L19.5767 10.8938L19.5575 11.0478C19.4431 11.0959 19.176 11.1284 19.1892 11.0213C18.9148 11.0947 19.4299 11.1814 19.5382 11.1814C19.3565 11.4028 18.9618 11.1416 18.9546 11.209L18.9955 11.2957L19.0484 11.2692C19.2566 11.3222 19.4636 11.3161 19.4504 11.4425C19.3565 11.5291 19.1555 11.5099 19.1363 11.5436C19.1026 11.5436 19.0881 11.5556 19.123 11.5965L19.0954 11.7903L19.4768 11.6832C19.6706 11.7506 19.4768 11.8637 19.898 11.7373C19.2362 11.9178 19.7175 12.4594 19.5165 12.5532C19.8054 12.6471 19.8114 12.7602 19.7909 12.907C19.8643 12.8673 20.2999 12.8011 20.2602 12.9275C19.3637 12.9684 19.892 13.1886 19.2626 13.3559C19.6778 13.2223 19.4034 13.6964 19.9919 13.4967C19.9317 13.6026 19.6573 13.5364 19.4564 13.6363C19.8318 13.8445 19.2891 14.1983 19.4443 14.4931C19.5647 14.4859 19.7307 14.4125 19.9185 14.4594L19.3493 14.6868C19.4167 14.7398 20.0316 14.6604 19.6381 14.8204C19.7307 14.7939 19.8788 14.753 19.9185 14.7867C19.4239 15.4486 20.5334 15.9239 19.5502 16.6736C19.7644 16.5593 19.7981 16.6135 19.8114 16.6736C19.8583 16.6255 20.099 16.6327 20.253 16.6002L19.8511 16.9131C20.2927 16.8939 19.9185 17.1815 20.3469 17.1417L20.259 17.0744C20.7681 17.102 21.3361 16.7603 21.9715 16.6869C21.3902 16.6532 22.7609 16.2657 21.9317 16.1923C22.0521 16.1321 22.1387 16.1983 22.2855 16.1586C22.0051 16.1514 21.945 16.0984 22.0521 15.9781H22.1195C22.0112 15.6893 22.2663 15.5232 22.3999 15.1622L22.0918 15.2284C22.1255 15.1477 22.2194 15.1213 22.3 15.0815C21.8114 15.0611 22.3 15.2885 21.7645 15.2825C22.3926 15.102 21.7115 14.7675 22.4263 14.6134C22.4203 14.4991 22.0653 14.6868 22.0593 14.5797L22.2518 14.5268H21.9991C22.0316 14.4522 22.2723 14.386 22.4396 14.3583C22.4203 14.3788 22.4937 14.4064 22.507 14.4185C22.7272 14.2981 22.3999 14.1658 22.4673 14.1176L22.3589 14.238C22.1387 13.9576 22.3589 13.5569 21.9257 13.3017L21.7777 13.3426C21.4769 13.1417 21.9245 13.1417 21.7705 12.907H21.8042C21.6501 12.8805 21.5707 12.8204 21.5767 12.747C21.7573 12.7939 21.9053 12.6002 22.1062 12.6603C21.7849 12.4461 21.8656 12.5592 21.2964 12.4533L21.537 12.3932C21.3096 12.3595 21.1893 12.3655 21.1158 12.2452C21.3361 12.3258 21.4829 12.132 21.7777 12.2187C22.2928 11.9106 21.1953 11.8769 21.9787 11.6964C21.2831 11.6362 21.6177 11.9515 21.4636 11.8974C21.2422 11.9708 20.9414 11.8444 21.0087 11.7506C21.0148 11.6639 21.8716 11.5364 21.8451 11.3294C21.8451 11.3486 21.898 11.3486 21.892 11.3691C22.0593 11.2752 21.6441 11.2355 21.9185 11.1152C21.4973 11.0947 21.9305 10.9876 21.4035 11.0141L21.543 11.1946C21.3962 11.0947 20.7681 11.0418 21.0617 10.8336C21.17 10.8336 21.3168 10.8877 21.3962 10.9142C21.5503 10.854 21.2891 10.8203 21.4444 10.7542C21.9715 10.7337 21.5707 10.9816 21.9859 11.067C22.2061 10.9948 21.584 10.8745 22.1664 10.8938C21.4299 10.8613 22.2458 10.6868 21.6778 10.5809L21.9907 10.5664C21.9378 10.546 21.7909 10.5135 21.7909 10.4726L22.2061 10.5207C22.0256 10.4726 22.0978 10.4124 22.1929 10.3522C22.2398 10.3185 22.2928 10.2993 22.3192 10.2584C22.3469 10.2054 22.3469 10.1585 22.3 10.1115C22.3192 10.333 22.2194 10.3125 22.099 10.3258C21.9715 10.3258 21.8174 10.3257 21.7043 10.3727C21.2554 10.0454 22.513 10.0586 22.3397 9.51587C22.3866 9.59048 22.1592 9.83717 22.0124 9.75053C22.0939 9.5964 22.2105 9.46365 22.3529 9.36304C22.2723 9.01406 22.0316 9.50985 21.8319 9.40877C22.2049 9.17531 21.6706 9.28843 21.537 9.20178L21.8583 9.08144C22.0449 8.61333 21.1893 9.25594 21.4227 8.84077C21.5707 8.81429 21.7236 8.78782 21.8716 8.77338L21.7512 8.64702L22.1123 8.50622C21.8379 8.43282 21.9053 8.34617 22.0051 8.08504C21.7849 8.26555 21.4299 8.40634 21.4155 8.26555C21.6044 8.03089 21.7175 8.13197 21.6706 7.931C21.8716 7.84436 22.1195 7.74448 21.8319 8.04533C21.9378 7.99117 22.0316 7.97072 22.1327 7.91777C22.3469 7.64339 22.1724 7.53629 22.1724 7.44844C22.1592 7.49658 22.1459 7.54953 22.099 7.60368C21.9502 7.58484 21.8002 7.576 21.6501 7.57721C21.7251 7.47241 21.8339 7.39673 21.9582 7.363C21.9245 7.31487 21.7777 7.38226 21.744 7.30885C22.0052 7.12233 22.2663 6.88044 22.3938 6.95506C22.2994 6.9041 22.2008 6.86142 22.099 6.8275C22.2121 6.70716 22.4071 6.35817 22.4997 6.31967C22.6478 5.93819 21.9919 6.29199 22.1869 5.83109C22.1387 5.8708 22.0858 5.89728 22.0521 5.88404V5.872C21.9787 5.73722 21.9787 5.44961 21.4227 5.83109C21.4901 5.66983 21.5575 5.50978 21.6177 5.34973C21.3168 5.47007 21.383 5.95143 20.9077 6.15841C20.5671 6.32689 21.0954 5.74444 21.0954 5.61689C20.7945 5.8708 20.3132 6.38705 20.306 5.99836C20.4335 5.9045 20.454 5.97189 20.5406 5.93097L20.4865 5.94421ZM17.8318 6.44C17.8787 6.35938 17.9918 6.13194 18.0183 6.31967C17.9461 6.70716 17.9184 6.53267 17.8318 6.44ZM15.6561 9.33536C15.549 9.31611 15.5959 9.27519 15.7162 9.22826C15.7439 9.25594 15.7367 9.29445 15.6561 9.33536ZM18.2722 16.2849H18.2578C18.3781 16.2055 18.3324 16.232 18.2722 16.2849ZM18.1375 16.4462C18.1818 16.4563 18.2279 16.4563 18.2722 16.4462C18.1916 16.4462 18.1844 16.4053 18.2048 16.3656C18.1182 16.3788 18.064 16.4053 18.1375 16.4462ZM19.2085 11.5628L19.2879 11.5291C19.389 11.5893 19.3023 11.5773 19.2085 11.5628Z" fill="#F9CF01"/>
<path d="M15.2047 9.06108C15.2619 9.04765 15.3205 9.04118 15.3792 9.04182C15.3206 9.02811 15.259 9.03491 15.2047 9.06108ZM22.1338 5.82877V5.84201L22.194 5.78906L22.1411 5.82877H22.1338ZM15.2974 14.291C15.3461 14.2582 15.4009 14.2356 15.4586 14.2248C15.378 14.2248 15.3106 14.2441 15.2974 14.291ZM18.7367 17.1948L18.65 17.1081C18.6693 17.1563 18.5959 17.1755 18.5489 17.202C18.6236 17.1948 18.7295 17.1683 18.7367 17.202V17.1948ZM16.7884 18.1647C16.8293 18.178 16.7884 18.1924 16.8365 18.2056L16.9833 18.1924C16.9701 18.1322 16.8498 18.0985 16.7896 18.1647H16.7884ZM17.6729 17.3548C17.4057 17.3813 17.4996 17.4355 17.5525 17.5029V17.4872C17.934 17.4812 17.8004 17.421 17.6729 17.3548ZM17.5586 17.5149C17.5586 17.5149 17.579 17.5546 17.5718 17.5751C17.7258 17.5751 17.6043 17.5486 17.5586 17.5149ZM18.3347 16.6208C18.2686 16.6533 18.6837 16.6208 18.5754 16.64C18.9244 16.6533 18.147 16.4607 18.3347 16.6208ZM16.7836 17.4752L17.1181 17.4295L16.8437 17.409L16.7836 17.4752ZM16.9966 16.9264L16.9099 17.0408C16.9629 17.0408 16.9966 17.0408 17.023 17.06C17.0303 16.9938 17.0965 16.9132 16.9966 16.9264ZM17.0315 17.0612C17.0315 17.0949 17.0315 17.1286 17.0916 17.1418C17.0916 17.1214 17.0712 17.0817 17.0315 17.0612ZM16.6765 17.3344L16.7427 17.2947L16.7631 17.2213L16.6765 17.3344ZM17.0038 15.7628L16.9027 15.6484C16.7896 15.6484 16.7222 15.6821 16.7703 15.7218C16.8498 15.7423 16.8967 15.7892 17.011 15.7628H17.0038ZM16.1073 16.1791C16.1882 16.1446 16.2738 16.1219 16.3612 16.1117L15.9472 16.1382L16.1073 16.1863V16.1791ZM15.9941 15.8434C15.8798 15.8434 15.6536 15.6966 15.6861 15.8434C15.8004 15.8434 15.9003 15.9577 15.9941 15.8434ZM16.4226 14.0383L16.4286 14.072L17.1109 14.0239L16.4226 14.0383ZM14.7101 12.5654C14.5561 12.7122 15.1313 12.5714 14.9376 12.7122C15.0976 12.7386 15.0976 12.5978 15.2384 12.6255C15.0639 12.5521 15.159 12.498 14.7101 12.5654Z" fill="#F9CF01"/>
<path d="M15.2363 12.6253C15.2363 12.6253 15.2965 12.653 15.3446 12.6662C15.2965 12.6458 15.27 12.6325 15.2363 12.6253ZM19.4987 17.1416L19.3712 17.2548L19.5926 17.1609L19.4987 17.1416ZM20.027 17.2415L19.5986 17.3294H19.9933C19.9933 17.3294 19.9259 17.2692 20.0198 17.2427H20.027V17.2415ZM17.3651 5.63602V5.74313C17.3976 5.85023 17.4373 5.85023 17.5119 5.85624L17.3651 5.63602ZM19.4987 5.66129L19.465 5.65528L19.3916 6.05601L19.4987 5.66129ZM21.5589 5.04035C21.4915 5.02711 21.3447 5.12097 21.2773 5.10774C21.4915 5.02711 21.2376 5.54818 21.5589 5.04035Z" fill="#F9CF01"/>
</g>
</g>
</g>
</g>
</g>
<defs>
<clipPath id="clip0_127_1005">
<rect width="71" height="96" fill="white" transform="translate(0 0.519531)"/>
</clipPath>
<clipPath id="clip1_127_1005">
<rect width="71" height="96.26" fill="white" transform="translate(0 0.519531)"/>
</clipPath>
<clipPath id="clip2_127_1005">
<rect width="71" height="96.26" fill="white" transform="translate(0 0.519531)"/>
</clipPath>
<clipPath id="clip3_127_1005">
<rect width="71" height="96.2712" fill="white" transform="translate(0 0.519043)"/>
</clipPath>
</defs>
</svg>
