<svg width="88" height="97" viewBox="0 0 88 97" fill="none" xmlns="http://www.w3.org/2000/svg">
<g clip-path="url(#clip0_127_1048)">
<g clip-path="url(#clip1_127_1048)">
<g clip-path="url(#clip2_127_1048)">
<path d="M45.0031 90.5525C45.1417 90.6634 45.2249 90.3801 45.2731 90.3463C44.9958 90.2559 44.9693 90.6212 45.0031 90.5525ZM42.1979 89.6447L42.3088 89.5688L41.7844 89.5965L42.1979 89.6447ZM39.9544 88.1379C39.8857 88.6876 40.8103 88.6261 41.1069 89.0384V89.1758L41.5083 88.9709C40.99 88.6948 40.2184 88.4814 39.9544 88.1379ZM39.4095 86.4598C39.3686 86.6648 39.072 86.4032 39.6386 86.7069C39.6241 86.672 39.6241 86.6515 39.6169 86.631C39.544 86.5783 39.4747 86.5219 39.4095 86.4598ZM39.6181 86.6298C39.5699 86.3887 39.8459 86.7889 39.6181 86.6298V86.6298ZM38.5259 85.9294L38.9189 86.0198C38.9261 85.8812 38.685 85.6606 38.8297 85.675C38.4765 85.5231 38.4632 85.6545 38.5259 85.9366V85.9294ZM38.028 86.0053L38.2209 86.068C38.2209 86.0126 38.1932 85.9644 38.028 86.0053ZM38.6441 86.1898L38.2294 86.0656C38.2294 86.1621 38.1329 86.2935 38.409 86.1343C38.292 86.2308 38.4439 86.1693 38.6441 86.1898ZM38.7803 86.3899C38.8852 86.6033 39.0575 86.8239 38.6573 86.7274C39.2649 87.106 39.3818 86.7624 38.7815 86.3899H38.7803ZM39.547 88.4814L39.6989 88.7563H39.9966C39.852 88.7563 39.6229 88.3428 39.547 88.4814ZM36.8804 84.3188C36.7984 84.3876 36.7984 84.6142 36.7285 84.7384L37.0118 84.8203C36.9503 84.6757 36.7912 84.449 36.8744 84.3188H36.8804Z" fill="#F9CF01"/>
<path d="M36.7382 84.738L36.309 84.6078C36.5718 84.8622 36.6827 84.8417 36.7382 84.738ZM37.6423 86.398L38.409 86.5065L37.5386 86.322L37.6423 86.398ZM35.7147 83.301L36.045 83.2649L35.4929 83.2721L35.7135 83.2998L35.7147 83.301ZM34.907 82.6609C35.1686 82.6199 34.9553 82.2547 35.1759 82.2824C34.9408 82.1305 34.6575 82.0823 34.3959 82.0485C34.6237 82.1377 34.7756 82.3378 34.907 82.6609ZM33.9824 81.9666C34.1006 82.0075 34.2452 82.0268 34.3983 82.0485C34.2667 81.993 34.1252 81.9647 33.9824 81.9653V81.9666ZM35.8148 84.1123C35.8268 84.0424 35.8895 83.8773 35.7654 83.6784L35.6966 84.0087C35.7304 84.0424 35.7726 84.0774 35.8136 84.1184L35.8148 84.1123ZM35.6882 84.0171V84.0038C35.6039 83.9247 35.5207 83.8443 35.4387 83.7627C35.4748 83.7965 35.5496 83.8725 35.6882 84.0111V84.0171Z" fill="#F9CF01"/>
<path d="M35.8386 84.139L35.8109 84.1112C35.8109 84.1112 35.8109 84.1595 35.8386 84.139ZM36.9513 85.5241C36.6547 85.5096 36.1436 85.324 36.3714 85.8255C36.6403 85.7772 36.5028 85.4964 36.9513 85.5241ZM35.7542 84.5537L36.0448 84.8912C36.0869 84.8285 36.1002 84.6839 36.2449 84.7056L35.7542 84.5537ZM35.5276 84.4837L35.7566 84.5525L35.6445 84.4223L35.5276 84.4837ZM34.3329 82.6803C34.1123 82.6466 33.9532 82.5079 33.7736 82.3645C33.9122 82.5778 34.0786 82.784 34.257 82.9491C34.3474 82.9082 34.5343 82.8587 34.3329 82.6803ZM34.9694 83.3482L34.9273 83.3337C34.9273 83.3687 34.9417 83.3891 34.9694 83.3482ZM32.116 80.7744L32.1016 80.8431L32.1438 80.8094L32.116 80.7744ZM34.2437 83.0191C34.3474 83.1842 34.4788 83.2047 34.6235 83.2047C34.4902 83.1335 34.3649 83.0482 34.2498 82.9503C34.2088 82.9708 34.1883 82.9913 34.2498 83.0191H34.2437ZM33.4276 81.6219C33.4565 81.7328 33.4975 81.8497 33.553 81.9667C33.553 81.8353 33.5108 81.5942 33.4288 81.6219H33.4276ZM34.9345 83.2324C34.9345 83.2324 34.955 83.2324 34.9622 83.2397C34.9622 83.1493 34.9417 83.177 34.9345 83.2324Z" fill="#F9CF01"/>
<path d="M34.9362 83.2323C34.8337 83.1985 34.73 83.2046 34.6264 83.2046C34.73 83.26 34.8265 83.3082 34.9302 83.336V83.2323H34.9374H34.9362ZM30.2745 81.594C30.5024 81.4216 31.0063 81.6278 31.1232 82.1305C31.5801 82.2823 32.008 81.4494 32.0972 80.8442C32.008 80.9201 31.9176 81.0021 31.5102 80.796C31.4969 81.0154 31.9453 81.7182 31.5102 81.6422C30.9918 81.3396 31.2486 81.236 31.1509 80.9334C31.075 81.3457 30.2878 80.7405 30.0117 81.1745L30.4951 81.4276C30.4469 81.4903 30.2263 81.4421 30.2745 81.594ZM32.6795 81.4276L32.8302 81.5241C32.7205 81.3517 32.6927 81.1733 32.6506 80.837C32.3468 80.7261 32.2298 80.7526 32.1467 80.8092L32.7554 81.4421L32.6855 81.4276H32.6795Z" fill="#F9CF01"/>
<path d="M33.4085 82.0767C33.1047 82.1936 32.7045 81.9863 32.6696 82.3997C33.0638 82.7505 33.1047 82.4757 33.423 82.5999C32.76 82.0694 33.7123 82.6481 33.388 82.1044C33.5399 82.1791 33.6581 82.2756 33.7678 82.3576C33.6849 82.2303 33.6112 82.0974 33.5472 81.9597V81.9863C33.5472 82.0417 33.5472 82.0622 33.5267 82.0224C33.5267 82.0224 33.5122 82.0224 33.5122 82.014C33.481 82.0382 33.446 82.057 33.4085 82.0694C33.2783 81.8561 33.4363 81.9863 33.5122 82.014C33.5267 82.008 33.5399 82.0007 33.5472 81.9863L32.8287 81.5185C32.9324 81.6704 33.0987 81.8211 33.4085 82.0694V82.0767ZM35.6134 86.0259C35.6134 85.9909 35.6267 85.9704 35.6339 85.9572C35.5712 85.9499 35.5374 85.9572 35.6134 86.0259ZM35.4603 85.6594C35.5362 85.6666 35.6471 85.6112 35.7846 85.7703C35.8605 85.956 35.6954 85.88 35.6399 85.9632C35.7846 85.9837 36.1028 86.0801 35.9015 85.7149H35.8328C35.6327 85.4051 35.5435 84.8349 35.6122 84.8409C35.5157 85.1097 35.4603 85.3159 35.4675 85.6667L35.4603 85.6594ZM34.3271 83.9199C34.1198 83.8029 33.8992 83.686 33.6918 83.5631C33.7196 83.7137 33.7617 83.8524 33.7883 83.9898L33.8787 83.8656C34.1475 84.1754 34.2042 83.9753 34.3211 83.9199H34.3271ZM32.1596 80.618L32.4502 80.4589C32.25 80.4734 32.0572 80.4734 31.8559 80.4806L32.1596 80.618ZM31.5123 79.9863L31.7329 79.82L31.4496 79.7585L31.5123 79.9863ZM5.87009 34.7801L5.75195 34.5872C5.79415 34.6836 5.83634 34.7379 5.87009 34.7801ZM6.16785 36.3075H6.30528C6.21607 36.2592 6.16062 36.2448 6.16785 36.3075ZM18.6532 61.717C18.7436 61.3312 18.9437 60.8563 18.6809 61.0298L18.4531 61.242C18.5978 61.4072 18.64 61.5651 18.646 61.717H18.6532ZM11.0224 48.0454C10.9998 48.0823 10.9812 48.1215 10.9669 48.1623C11.0839 48.2033 11.202 48.2383 11.3045 48.272C11.2138 48.1969 11.1217 48.1233 11.0284 48.0514L11.0224 48.0454ZM9.77109 48.225L9.82654 47.7766C9.78566 47.9224 9.76697 48.0736 9.77109 48.225ZM7.8881 25.8497L7.93632 25.464C7.61083 25.6689 7.83265 25.7111 7.8881 25.8497ZM25.4281 72.91C25.3878 72.6877 25.3104 72.4738 25.1991 72.2772C25.2413 72.628 25.1786 72.9848 25.4281 72.91ZM9.10807 34.7439C9.03212 34.627 8.95617 34.586 8.89469 34.6065C8.97064 34.7234 9.03935 34.7849 9.10807 34.7439ZM24.7567 71.672C24.7567 71.7275 24.7711 71.7684 24.7772 71.8239C24.9303 71.9481 25.0749 72.0783 25.1918 72.2784C25.1641 72.0168 25.0749 71.7552 24.7579 71.672H24.7567ZM33.7268 9.98897C33.7268 9.98897 33.775 9.98295 33.8027 9.98897C33.7895 9.95522 33.7617 9.96848 33.7268 9.98897ZM42.8283 7.85645C42.7668 7.91793 42.6427 7.99387 42.5318 8.06982C42.6005 8.05656 42.6909 7.99387 42.8283 7.85645ZM29.1423 77.198C29.1905 77.198 29.2809 77.3294 29.1423 77.198V77.198ZM28.8662 78.6892C28.8111 78.6809 28.7548 78.6934 28.7083 78.7242C28.7698 78.6892 28.8252 78.676 28.8662 78.6892ZM22.113 71.1163V71.103C22.0853 71.1862 22.0925 71.1717 22.113 71.1163ZM29.2339 77.5078C29.2123 77.4211 29.1795 77.3376 29.1362 77.2595C29.1563 77.3465 29.19 77.4301 29.2339 77.5078ZM29.3074 77.3825C29.3424 77.4379 29.3701 77.4861 29.3978 77.5271C29.4533 77.5126 29.4593 77.4789 29.3074 77.3825ZM28.9554 77.0051C29.0314 77.0883 29.0868 77.1703 29.135 77.2607C29.1278 77.2185 29.129 77.198 29.1423 77.198C29.1013 77.157 29.0446 77.1016 28.9554 77.0051ZM20.3795 19.2774H20.4277C20.5326 19.0628 20.4699 19.1327 20.3795 19.2774ZM13.6263 58.4139C13.6263 58.4139 13.6407 58.4211 13.6468 58.4272V58.3934L13.6263 58.4067V58.4139ZM13.1284 57.8413C13.5986 57.9727 13.6263 58.1523 13.6468 58.3934L14.3375 57.828L13.1284 57.8413Z" fill="#F9CF01"/>
<path d="M5.13081 31.1322L4.94516 31.6747C4.67513 31.3926 4.56543 31.1804 4.47502 31.008C4.4268 30.8911 4.38581 30.8429 4.34362 30.8778C4.31338 30.9132 4.29227 30.9554 4.28214 31.0008C4.26485 31.0726 4.23418 31.1405 4.19173 31.2009C5.12478 31.1322 4.61365 33.1538 5.55273 33.0646L5.4141 33.4299C5.40808 33.3334 5.35262 33.3262 5.34539 33.2298C5.0199 33.9531 6.09762 33.5818 6.12535 34.428C6.11209 34.7234 6.01565 34.95 5.86978 34.7776L6.22902 35.3707C6.24951 35.5564 6.08436 35.5492 6.06387 35.3563L6.33993 36.3134H6.3122C6.48459 36.4219 6.77511 36.6847 6.90651 36.8149C6.83057 37.0898 6.78235 36.7125 6.67747 36.8017L7.02345 37.2839C6.83659 37.5515 6.50508 37.1585 6.45686 36.7872C5.65641 37.4888 6.78837 37.1802 6.49905 38.3773L6.27001 37.8951C5.82156 38.3423 6.10485 38.6931 5.92523 39.3405C6.05784 39.1608 6.46409 38.006 6.82936 38.5279C6.80284 38.7076 6.82333 38.927 7.0789 39.1958C6.75341 39.279 6.90651 39.5611 7.02345 39.9384L6.58947 40.0216C6.8161 40.4073 7.02345 40.3169 7.27901 40.5098C7.35496 40.9775 7.05117 41.1571 6.80284 41.3356C6.92701 42.0854 7.20306 40.6894 7.50685 41.5357C7.50685 42.189 7.79014 42.5676 8.25306 43.221C8.22533 43.6815 7.96976 43.221 7.89382 43.4066L8.34226 43.6887C8.36276 43.7851 8.24582 43.7851 8.19037 43.7851C8.41098 44.06 8.62555 43.6887 8.88112 44.1504C9.37779 44.1504 8.50139 45.3607 9.21866 45.814C9.14392 46.0008 8.93657 45.814 8.79191 45.9177C9.39949 46.647 9.25362 46.565 9.94437 47.0942L9.86119 47.7621C10.0348 47.2317 10.5869 47.6584 11.0498 48.0297C11.1367 47.8748 11.2129 47.7141 11.2777 47.5487L11.7478 48.2298C11.7056 48.3467 11.5392 48.319 11.3259 48.2503C11.3741 48.2913 11.4295 48.3262 11.4705 48.354C11.4018 48.677 11.1185 48.6156 10.822 48.4986C10.8762 48.3817 10.9317 48.2575 10.9871 48.1406C10.6701 48.0369 10.3313 47.9549 10.0963 48.0719C10.1771 48.1261 10.2433 48.1994 10.2891 48.2853C10.2072 48.2575 10.1312 48.2503 10.0963 48.2853C10.0625 48.3262 10.1794 48.3745 10.3253 48.4637L9.91664 48.794L10.1168 48.7735C10.124 49.1388 10.1517 49.5028 10.165 49.8669C10.8907 50.4178 11.7743 50.7891 12.3891 51.821C11.9467 51.6703 11.8153 51.9656 11.4091 52.1043C11.7128 51.6426 10.9039 51.305 10.787 50.6866C10.8497 51.0097 10.6351 51.0097 10.5387 50.9542C10.7942 51.2568 11.0353 51.5606 11.2981 51.8559C10.9606 51.9524 11.1318 52.1658 11.1053 52.4888C11.6779 52.0428 11.8298 53.094 12.189 53.4388C11.9817 53.5485 11.7261 53.5352 11.5814 52.9976C11.3114 53.7486 12.6097 53.4388 12.4169 54.1476C12.3614 54.0234 12.3686 53.9475 12.236 53.9403C12.541 54.1536 12.6857 54.9167 12.4241 54.8287L12.3686 54.7045C12.6242 55.558 13.3909 57.2096 13.9985 57.0914C13.9285 57.1336 13.3005 57.2638 13.1691 57.2638L15.6138 57.9112C15.0955 57.9871 14.2191 58.9708 13.6597 58.4127C13.6802 58.6333 13.7079 58.9081 14.0539 59.2457C14.0539 59.0805 14.5723 58.6188 14.6952 58.7779C14.3987 59.5073 14.5783 59.2384 14.4264 60.0437C14.4264 59.8026 15.2546 59.6857 15.3727 60.0027C15.2401 60.0027 14.6748 60.3608 14.5506 60.2848L15.6211 60.7188C15.4065 60.5862 15.0135 60.9659 14.8954 61.2347C14.9918 61.0901 15.1991 61.9086 15.3727 62.0798V61.6747C15.697 62.597 16.788 62.0328 17.175 62.8923C16.9821 62.8646 16.166 63.0924 16.3046 63.5674C16.7675 63.5794 18.4311 63.5674 19.1146 64.1303L18.9904 64.3787L19.5293 64.8054C18.8181 64.7572 17.1545 64.3787 16.4432 64.0411C16.4432 64.4474 16.2503 64.2545 16.5192 64.7283C16.4227 64.9983 16.0972 64.6198 16.0141 64.4811C16.166 64.8802 16.3251 65.2732 16.4975 65.665C16.8772 65.3973 17.3751 66.2846 17.6921 66.0567L16.6011 65.0935C16.9809 64.832 18.1478 65.1562 18.4998 65.9675C18.4516 66.2569 17.6994 66.2231 17.568 66.3123C17.7608 66.3328 18.2442 66.903 18.19 67.0272L17.7898 66.8222C17.879 67.3454 18.7144 67.2213 18.6457 67.9578C18.7289 68.1507 18.4528 68.7896 18.7072 68.6811C18.9844 68.1157 20.3647 67.2345 20.8204 67.214C20.8204 67.29 20.9313 68.3773 20.8349 68.7149C20.654 69.2164 19.7294 68.8041 19.5775 69.2308C19.6957 69.1754 19.9235 69.2513 20.0055 69.2923C20.026 69.5334 19.6257 69.4225 19.9163 69.795C20.3502 69.6154 20.3985 70.6208 20.3647 69.7745C20.7312 70.0831 20.5516 70.235 20.8626 70.669C21.0205 70.3652 21.9945 70.5099 22.3538 70.8136C22.2356 70.8546 22.1669 71.0258 22.1332 71.109C22.6033 71.9143 22.7118 72.4435 23.2242 73.1463C23.1759 73.2765 23.3134 73.696 23.0433 73.6683C23.182 73.7237 23.3821 73.7237 23.5484 73.9371C23.5207 74.5977 23.1482 73.4826 22.9819 74.095C23.223 73.9648 23.6931 74.4386 24.0523 74.652C24.3212 74.3084 23.6039 73.8889 23.2374 73.6755C23.7136 73.338 24.5912 73.5236 25.3302 74.0817C25.8823 74.5555 25.2193 74.5495 25.3639 74.5977C26.1113 75.7188 26.8708 74.8726 27.2216 76.0009C27.2011 76.5795 26.6622 76.4831 26.5104 76.7242C26.0402 76.3517 26.1379 75.8695 25.8895 75.5669L26.0547 76.0564C25.8413 75.9876 25.5303 75.7321 25.4821 75.4982C25.4471 76.0009 26.8286 77.3426 27.2975 78.3131C27.5121 78.3745 27.8231 78.5325 27.8364 78.3191L27.5808 78.1057C27.6158 77.6862 28.2993 78.3058 28.133 77.9008C28.5826 78.0997 29.1492 78.2504 29.418 78.829L29.1829 79.1931C29.2589 79.1039 29.107 78.7253 28.8936 78.6771C29.1902 78.7531 29.0998 79.7645 29.7073 79.5993L29.6254 79.0906C30.0883 79.269 30.7851 79.3522 31.0551 79.8332C31.1925 79.3655 30.9297 79.7777 31.0274 79.1665C30.8128 79.8199 30.1015 78.1479 29.9979 78.9664C30.1425 78.3058 29.7146 78.3058 29.7423 77.597C29.6459 77.7007 29.6591 77.914 29.4168 77.521C29.3651 77.5311 29.3119 77.5311 29.2601 77.521C29.2601 77.5078 29.2517 77.5005 29.2456 77.4933V77.521C29.2456 77.521 29.2179 77.521 29.2456 77.5355C29.2715 77.6395 29.269 77.7486 29.2384 77.8514C28.8526 77.8935 28.3825 77.3354 28.0992 77.2534C27.975 77.0051 28.2921 77.239 28.3126 77.0256L27.8846 76.9087C28.0992 76.682 27.8159 76.0419 28.368 76.3999L28.0088 75.9599C27.9328 75.5874 27.705 75.1824 27.4301 75.0437C27.318 74.7906 26.7382 74.7207 27.0769 74.7544L26.3729 74.171L26.4284 74.1155C25.9028 73.4139 24.936 72.9522 24.7913 71.8106C24.5562 71.6105 24.2934 71.4188 24.0801 70.9643L24.2452 70.7305C23.9559 70.4616 23.839 69.6298 23.5207 69.6431C23.9004 68.9077 22.6298 68.0265 22.4092 67.3731L22.0982 67.5299C21.8776 67.1248 21.5594 66.8017 21.1459 66.3822L20.8963 66.5679C20.4057 66.2713 20.4479 65.3503 20.0332 64.6825C20.1646 64.6692 20.2333 64.8609 20.2405 65.02C20.3997 63.8627 18.8181 63.5409 18.8868 62.5367C18.6867 62.398 18.6529 62.2474 18.6529 62.075C18.6589 62.0955 18.6734 62.1027 18.6939 62.116C18.6939 62.0955 18.6734 62.0677 18.6589 62.04C18.6589 61.9303 18.6734 61.8206 18.6734 61.7025C18.6462 61.7989 18.6344 61.899 18.6384 61.999C18.5238 61.8069 18.387 61.6289 18.231 61.4686L18.4793 61.2275C18.4793 61.2275 18.4588 61.201 18.4456 61.1793C18.4456 60.9117 18.2165 61.0768 18.0514 61.3047C17.9537 61.2217 17.844 61.1542 17.7259 61.1045C18.114 60.6983 17.2847 60.6103 17.6849 60.1209C17.3606 60.0931 16.9676 59.1082 16.3805 59.2336C16.4493 59.1914 16.4492 59.1094 16.5119 59.2336C16.4565 58.9576 16.3938 58.6827 16.1382 58.5308L16.477 58.2487L15.7175 57.9389C15.8067 57.4989 15.8827 57.306 16.3251 57.4989C15.5174 56.9082 15.8694 56.9347 15.1172 56.4537L15.3788 56.3778C15.2618 56.1439 14.7507 55.8956 14.9026 55.6617C15.1582 54.9191 13.8466 52.93 13.7839 51.3412C13.1353 51.8921 13.8743 50.5637 13.2655 50.7143C13.4186 50.5637 13.4463 50.3286 13.6802 50.5094C13.2462 49.8476 13.5765 49.3184 12.9075 48.9881C13.0594 48.8434 13.2245 49.0495 13.3077 48.9398C13.245 48.8989 13.0726 48.7614 13.1486 48.6505C13.2318 48.5408 13.3354 48.706 13.4596 48.7952C13.1703 48.0659 12.5892 48.1756 12.0504 48.3009C12.1745 47.8392 12.0781 47.6596 11.6429 47.4944C11.7671 47.3088 11.878 47.0267 12.0926 47.474C12.0299 47.1991 11.8153 45.7959 11.3946 45.8984C11.4778 45.7814 11.3114 45.5198 11.2427 45.4644C11.0836 44.8665 11.1113 44.7977 10.8907 44.2263L10.8702 44.406C10.2904 44.3228 10.6074 43.9515 10.4145 43.497H10.4688C10.5314 42.3072 10.159 43.0775 10.2759 41.8877L9.9721 42.0323C9.25362 42.1215 10.124 40.9655 9.69483 40.4146L9.57187 40.6894C9.24639 40.4085 10.2554 39.4996 10.2626 39.1343C10.3036 39.0451 10.3868 39.2308 10.4555 39.3212C10.6484 38.3302 10.0071 39.3067 9.74426 38.6666C9.94437 38.4882 10.3591 38.6883 10.2964 38.2266C10.4205 37.965 9.24759 37.0982 9.55138 36.3822C9.40672 36.5545 9.26085 36.7342 9.06074 36.4521C8.88112 35.9831 9.45373 35.0199 8.80517 34.6969C8.84013 34.6282 8.88112 34.5944 8.92211 34.5799C8.7015 34.2424 8.45196 33.4383 8.10116 33.2732C9.15718 32.7295 7.14882 31.0707 8.19037 30.9056L8.12889 30.6235L8.10116 30.4861L8.07946 30.4101L8.00352 30.1087L8.11442 30.1353C8.12889 29.9629 8.05897 29.8327 7.9553 29.6952C7.89382 29.6193 7.83836 29.5578 7.78291 29.4879L7.69973 29.3227C7.86609 29.3022 7.89261 29.4059 7.94083 29.4337C8.30851 29.33 8.45317 29.289 8.54961 29.1721C8.61229 29.1033 8.59783 29.0551 8.69427 28.9032C8.78468 28.7586 8.88112 28.5802 9.00529 28.3463L9.26809 28.5874C9.37176 28.2908 10.8907 28.2016 11.5814 27.3011C11.5928 27.3327 11.5968 27.3665 11.5933 27.3999C11.5897 27.4333 11.5787 27.4655 11.5609 27.494C12.3686 26.5163 14.5096 26.7707 14.2191 25.4844L14.7302 24.8033C13.8044 25.2638 14.5711 24.2669 14.1021 24.3139C14.4059 24.039 15.1859 24.08 14.7989 24.3971L14.7025 24.3826C14.8954 25.03 15.9044 23.9004 16.1177 24.2862C17.8175 23.1855 19.674 22.4502 21.2966 21.4653L20.8409 21.1567L21.4147 20.8324C21.622 20.8396 21.8222 21.0458 21.4147 21.2736C21.7739 21.3833 21.9596 20.654 21.9114 20.5503C22.8034 20.2345 21.9186 21.2387 22.1669 21.1012L22.4707 20.8674H22.3671C22.5189 20.5238 22.4297 20.3237 22.9204 20.0476C23.2784 19.9452 23.2447 20.214 23.3688 20.1585C23.3893 20.1863 23.4375 20.179 23.5617 20.0549L24.2934 19.6498L23.7968 19.4907C24.0041 19.1266 24.4743 19.0929 23.9077 18.912C24.7563 19.2014 26.6695 17.4823 27.0842 17.4751C27.3675 16.9591 27.8026 16.6915 28.3548 16.3877C28.1739 16.4022 27.8569 16.0719 28.3548 15.8308C28.679 16.718 29.4108 15.6379 30.1425 15.9682C29.5759 15.8031 31.3999 15.0532 30.544 14.8531C30.9719 14.6747 30.7513 15.1292 31.1588 15.1364C31.8821 14.2624 33.3046 14.0696 34.3762 13.257C34.328 13.1473 34.0387 13.1064 34.1894 12.8038L35.108 12.9412C35.3009 12.7483 34.9416 12.2179 35.5781 12.3216C35.4672 12.2734 35.2948 12.1974 35.425 12.0672C37.9602 11.18 39.707 8.8196 42.5519 8.35187C42.124 8.34463 42.3108 8.19997 42.5387 8.04205C42.3579 8.09027 42.3796 7.78769 42.2614 7.66353L43.45 7.45739C43.3813 6.96192 44.4446 6.79677 44.3132 6.37002L44.0576 6.62438C44.1818 5.94328 42.8907 6.00476 42.6002 5.41406C42.4688 6.18438 40.9643 5.41406 40.681 6.5834C40.4459 6.56893 40.7087 6.31457 40.5363 6.23983C40.5002 6.59666 40.3073 6.78231 39.8251 6.9342V6.84499C38.7064 7.62857 38.0566 7.70451 36.6474 8.36513L36.9174 8.5785C36.6136 8.71593 36.4955 8.66771 36.3231 8.68217C36.2616 9.30059 37.1308 8.21444 37.1248 8.85335C36.3991 8.52305 35.1357 10.0854 34.4799 9.60438C34.0447 9.872 34.8042 9.84548 34.3762 10.1131L34.1556 10.0094L34.1822 10.2987C33.8784 10.4362 33.5963 10.312 33.4926 10.1746C33.5746 10.1469 33.665 10.0094 33.7265 9.95518C33.2298 9.9817 32.7319 10.67 32.5668 10.6845L33.0502 10.5326C31.9725 11.4343 30.3848 12.1082 29.4662 13.1678L29.6314 13.2438C28.9141 14.0274 28.8454 13.5391 27.9606 14.248L27.975 14.1925C27.8641 14.4408 27.6495 14.6675 27.3807 14.8194C27.5254 14.5168 26.7382 14.8061 26.9528 14.4408C26.1728 15.2871 26.6152 14.9351 26.297 15.8103L26.0137 15.6861C25.9233 16.0164 25.9715 16.1261 25.5303 16.4842C25.8063 16.0502 25.0191 16.3467 25.3012 15.8236C24.0041 15.9754 24.115 17.234 23.2157 16.8277C23.1337 17.7162 24.2946 16.6228 24.115 16.9109C24.4526 16.9724 24.0186 17.592 23.6654 17.7307C23.3339 17.9151 22.6371 17.3027 21.8427 17.8187C21.9258 17.7704 21.9053 17.7222 21.9801 17.674C21.5799 17.7102 21.5184 18.2526 20.9928 18.2321C21.0145 18.7204 20.5033 18.5142 20.7312 19.0097L21.4002 18.4383C21.0555 18.824 21.0072 19.6076 20.1501 19.7728C20.1501 19.6498 20.2755 19.3942 20.3719 19.2363C20.0826 19.2303 20.0404 19.5666 19.7439 19.5594C19.5148 19.0579 20.5793 18.9 20.8071 18.2659C20.4684 18.2044 20.1718 19.1339 20.0814 18.4937C20.1574 19.3328 19.2388 18.906 18.9965 19.739L18.859 19.4425C18.7976 19.5389 18.7011 19.78 18.542 19.8764L18.6035 19.34C18.3551 19.9247 17.5824 19.6016 17.2654 20.0344C18.1478 19.4702 17.6716 20.2405 18.1755 20.214C17.3124 21.2664 17.0906 19.8837 15.9526 20.7782C16.09 20.6335 16.6771 20.5576 16.4975 20.8469C16.2286 20.9361 15.8549 21.0181 15.6211 20.9638C14.8471 21.528 15.9249 21.1699 15.6826 21.5545C15.1931 21.3906 15.3727 21.9403 15.0822 22.2706L14.9026 21.9885C13.8659 22.3875 15.0268 22.7238 14.0599 23.0276L14.1636 22.4152L13.7899 22.7865L13.6814 22.408C13.3559 22.9384 13.1691 22.9722 12.6519 23.1723C12.8858 23.3025 12.9135 23.7232 12.5073 23.9836C12.1191 23.9908 12.4928 23.6195 11.9407 24.0258C11.9612 23.7702 11.9684 23.4544 12.3819 23.558C12.3481 23.4471 12.4024 23.3025 12.3686 23.1928C11.9467 23.1928 11.5875 23.6195 11.3741 23.757C11.4567 23.7114 11.5487 23.6854 11.6429 23.681L11.0498 24.5972C10.8497 24.5755 10.9052 24.4248 10.9534 24.2729C10.8003 24.4103 10.7665 24.6104 10.5315 24.7961C10.4555 24.5273 10.2904 24.3006 10.5724 23.9703L9.93111 24.7274C9.81297 24.6587 9.35006 24.7129 9.39949 24.5622C8.86786 24.7069 8.5918 25.6833 7.88658 25.8762C7.88658 25.9377 7.85162 26.0209 7.74192 26.1306C7.59726 26.2065 7.44416 26.262 7.29227 26.3162C7.14038 26.3717 7.02345 26.4066 6.73292 26.5573C6.24349 26.8117 5.71789 27.148 5.35262 27.6097C4.97797 27.6465 4.60481 27.6972 4.23392 27.7616C4.20619 27.7821 4.1857 27.8026 4.1652 27.8171C4.15074 27.8376 4.17123 27.8713 4.17846 27.8918C4.19173 27.94 4.21342 27.9822 4.22668 28.0087C4.26164 28.0714 4.28937 28.0919 4.32312 28.0992C4.39304 28.1052 4.45573 28.0365 4.54494 27.9955C4.70286 27.9955 4.83426 27.9955 4.86198 28.0714V28.1402C4.86922 28.1739 4.90297 28.2294 4.92467 28.2848C4.97289 28.4017 5.01388 28.5524 5.0621 28.7525C5.35985 29.8809 4.68236 29.0551 4.59195 29.4469C4.75831 29.7772 5.00062 30.1907 5.173 30.6307C5.21399 30.7344 5.25618 30.8718 5.28391 30.9466C5.31043 31.0225 5.3249 31.0984 5.33816 31.1744C5.35712 31.3464 5.33608 31.5205 5.27668 31.6831C5.15251 31.477 5.1935 31.2974 5.12478 31.0984L5.13081 31.1334V31.1322ZM6.8161 38.5219C6.71243 38.3978 6.43637 38.1566 6.60875 38.012C7.01621 38.0879 6.86432 38.2531 6.8161 38.5219ZM10.7665 49.2967C10.6279 49.228 10.6219 49.0556 10.6833 48.835C10.7635 48.9747 10.7929 49.1378 10.7665 49.2967ZM27.5676 75.7514H27.5471C27.4506 75.4223 27.4844 75.5392 27.5676 75.7514ZM27.8714 76.3505C27.9473 76.371 27.9811 76.3372 28.0028 76.289C27.9063 76.3095 27.8026 76.1986 27.7195 76.0552C27.6773 76.1444 27.6917 76.248 27.8774 76.3505H27.8714ZM23.3688 20.0488H23.2097C23.4098 19.8077 23.3821 19.9247 23.3688 20.0488Z" fill="#F9CF01"/>
<path d="M9.92418 48.2092C9.96506 48.1582 10.0176 48.1177 10.0773 48.0911C10.0074 48.0573 9.94468 48.0706 9.92418 48.2092ZM7.88086 25.9183H7.90135C7.90135 25.9183 7.90135 25.8629 7.88689 25.8496V25.9183H7.88086ZM19.5429 69.5586C19.5148 69.4528 19.5148 69.3414 19.5429 69.2356C19.4669 69.2705 19.4464 69.3585 19.5429 69.5586ZM30.578 78.5878L30.2248 78.3407C30.3767 78.4781 30.3695 78.5746 30.4056 78.6843C30.4538 78.6228 30.4876 78.4914 30.578 78.5818V78.5878ZM31.6569 82.6479C31.7329 82.6612 31.7534 82.7372 31.8305 82.7504L31.927 82.6275C31.7256 82.4466 31.505 82.4068 31.6569 82.6479ZM30.0259 79.6185C29.8463 79.8319 30.0958 79.9621 30.3369 80.1417C30.3237 80.1273 30.3092 80.1212 30.302 80.1007C30.6479 79.8934 30.3369 79.756 30.0259 79.6113V79.6185ZM30.3912 80.1839C30.4599 80.2394 30.5358 80.3008 30.584 80.3768C30.7227 80.2936 30.5298 80.2731 30.3912 80.1839ZM28.5564 76.8603C28.5901 77.011 28.8867 76.6952 28.8529 76.8254C29.2266 76.7157 27.9211 76.3986 28.5564 76.8603ZM29.516 80.4166L29.6956 80.1055L29.3773 80.1682L29.516 80.4166ZM28.12 78.4914L28.3611 78.9181C28.4033 78.8771 28.466 78.8976 28.5347 78.9386C28.3478 78.7048 28.1887 78.4142 28.12 78.4914Z" fill="#F9CF01"/>
<path d="M28.5261 78.9372C28.6226 79.0626 28.719 79.1663 28.8239 79.1928C28.7367 79.0948 28.6365 79.008 28.5261 78.9372ZM28.9902 80.0125L28.942 79.8619L28.7274 79.6003L28.9902 80.0125ZM24.9217 74.46C24.7831 74.3431 24.6661 74.2189 24.5359 74.0947C24.4106 74.1225 24.431 74.2804 24.5841 74.4118C24.7216 74.466 24.8807 74.5902 24.9217 74.46ZM25.1507 76.29C25.1146 76.132 25.1712 76.0766 25.2122 75.9452L24.8662 76.1935L25.1507 76.29ZM24.1212 75.1327C23.9886 75.1676 23.3883 74.7204 23.809 75.2424C23.9416 75.2159 24.3406 75.5727 24.12 75.1339L24.1212 75.1327ZM20.1214 68.2469L20.1973 68.3638L20.7916 67.978L20.1214 68.2469ZM15.2331 62.9053C15.3705 63.5454 15.6888 62.8438 15.7635 63.449C15.9781 63.5044 15.7032 62.9547 15.9033 63.0295C15.5718 62.7679 15.5718 62.5473 15.2331 62.9125V62.9053ZM15.9045 63.0246C15.96 63.0656 16.0142 63.1066 16.0914 63.1476C16.0369 63.0959 15.9736 63.0543 15.9045 63.0246ZM44.27 7.40045L44.6859 7.31004L44.3399 7.24856L44.27 7.40045ZM44.6449 6.5554L44.9619 6.8857L44.9487 6.41797C44.8787 6.47945 44.7558 6.61085 44.6449 6.56263V6.5554ZM6.20027 39.8308H6.31118C6.40762 39.7464 6.39436 39.65 6.36663 39.4571L6.20027 39.8308ZM5.34437 34.359L5.3516 34.4555L5.71807 34.2072L5.34437 34.359ZM3.92188 28.6956C3.9496 29.0536 4.09426 29.4937 4.12199 29.8445C3.9496 29.0331 4.44024 28.7511 3.92188 28.6956ZM43.5322 6.87847C43.3936 6.76154 43.2971 7.04483 43.2429 7.07135C43.5322 7.17502 43.5599 6.80976 43.5322 6.87847ZM46.3772 7.88145L46.2663 7.95739L46.7907 7.94413L46.3772 7.88145ZM48.705 9.34854C48.746 8.79039 47.8141 8.88683 47.4971 8.48058V8.34315L47.0884 8.56376C47.6273 8.82535 48.4217 9.00979 48.7038 9.35457L48.705 9.34854ZM49.3801 11.029C49.4078 10.8156 49.7393 11.0567 49.1245 10.7939C49.1378 10.8289 49.145 10.8422 49.1522 10.8699C49.2077 10.8976 49.2764 10.9458 49.3873 11.029H49.3801Z" fill="#F9CF01"/>
<path d="M49.1539 10.8688C48.8983 10.7242 49.2298 11.1027 49.1539 10.8688V10.8688ZM50.3425 11.4812L49.9266 11.4258C49.9338 11.5632 50.2099 11.7633 50.0592 11.7694C50.4377 11.9008 50.4317 11.7633 50.3413 11.4873L50.3425 11.4812ZM50.8476 11.3703L50.6403 11.3293C50.6403 11.3848 50.6812 11.433 50.8476 11.3703ZM50.1966 11.2329L50.6318 11.3293C50.6318 11.2329 50.7078 11.0955 50.4389 11.2751C50.5414 11.1714 50.3967 11.2474 50.1966 11.2401V11.2329ZM50.0375 11.0473C49.9133 10.8411 49.712 10.641 50.1267 10.6977C49.4709 10.3661 49.3817 10.717 50.0375 11.0473ZM49.0984 8.99067L48.9333 8.71582H48.6367C48.7814 8.71582 49.0297 9.1281 49.0984 8.99067ZM52.2291 12.9604C52.3051 12.8844 52.2701 12.6566 52.3183 12.5264L52.0145 12.4782C52.0977 12.6156 52.2978 12.8157 52.2291 12.9604Z" fill="#F9CF01"/>
<path d="M52.3082 12.5278L52.7639 12.5965C52.4529 12.3771 52.3492 12.4181 52.3082 12.5278ZM51.1907 10.9437L50.4023 10.8955L51.3065 11.0124L51.1907 10.9437ZM53.5788 13.8285L53.2473 13.9056L53.8067 13.8225L53.5776 13.8297L53.5788 13.8285ZM54.5107 14.3577C54.2551 14.4324 54.5384 14.77 54.3106 14.7772C54.5722 14.9002 54.8772 14.8869 55.146 14.8737C54.8964 14.8182 54.6963 14.6663 54.5035 14.3577H54.5107ZM55.5908 14.8797C55.4459 14.8631 55.2998 14.8607 55.1544 14.8725C55.2981 14.9029 55.4462 14.9054 55.5908 14.8797ZM53.345 13.022C53.345 13.0907 53.304 13.2631 53.4691 13.4488L53.4836 13.1112C53.4426 13.0835 53.3932 13.0497 53.345 13.022Z" fill="#F9CF01"/>
<path d="M53.4828 13.1047V13.1168C53.6275 13.2216 53.7323 13.2904 53.7806 13.3241L53.4828 13.1107V13.1047ZM53.3116 13.001L53.3466 13.0215C53.3466 12.9866 53.3466 12.9733 53.3116 13.001ZM51.9844 11.757C52.2821 11.7497 52.8138 11.8739 52.5232 11.3989C52.2677 11.4749 52.434 11.7497 51.9844 11.757ZM53.3309 12.5827L52.9849 12.2874C52.9512 12.3561 52.9584 12.4923 52.8126 12.5008L53.3309 12.5827ZM53.5648 12.6153L53.3309 12.5815L53.4611 12.6852L53.566 12.6153H53.5648ZM55.0849 14.2415C55.32 14.2415 55.4996 14.3379 55.7142 14.4464C55.5311 14.263 55.3272 14.1016 55.1066 13.9654C55.0307 14.0281 54.8438 14.1101 55.0849 14.2415ZM54.3182 13.6689C54.3182 13.6689 54.352 13.6689 54.3664 13.6761C54.3592 13.6424 54.3459 13.6207 54.3182 13.6689ZM57.7081 15.6989V15.6302L57.6731 15.6712L57.7093 15.6989H57.7081ZM55.0994 13.8895C54.968 13.7388 54.8306 13.7388 54.6919 13.7593C54.8306 13.8075 54.9692 13.8762 55.1066 13.9582C55.1416 13.9317 55.1621 13.91 55.0994 13.8895ZM56.2169 15.1143C56.1626 15.0106 56.0927 14.9069 56.024 14.7972C56.0578 14.9274 56.1482 15.1553 56.2169 15.1143ZM54.3797 13.7798H54.3447C54.3664 13.869 54.3713 13.8352 54.3797 13.7798Z" fill="#F9CF01"/>
<path d="M54.3794 13.78C54.4833 13.789 54.5879 13.7842 54.6904 13.7655C54.5856 13.7239 54.4764 13.6939 54.365 13.6763C54.3736 13.7102 54.3785 13.745 54.3794 13.78ZM59.3256 14.4731C59.1532 14.6865 58.5866 14.631 58.3733 14.15C57.8959 14.0946 57.662 15.0023 57.7102 15.6292C57.7862 15.5328 57.8404 15.4435 58.3033 15.54C58.2479 15.3326 57.6548 14.7202 58.1032 14.7142C58.677 14.9071 58.4625 15.0518 58.6216 15.3266C58.5939 14.9131 59.5185 15.3049 59.6776 14.8107L59.1472 14.6865C59.1809 14.6178 59.4015 14.6105 59.3184 14.4731H59.3256ZM57.0038 15.1627L56.8314 15.0939C56.9833 15.2446 57.0532 15.417 57.169 15.7401C57.4944 15.7883 57.6053 15.7401 57.6741 15.6714L56.9351 15.1627H57.011H57.0038ZM56.1419 14.66C56.4179 14.4816 56.8591 14.6117 56.8049 14.1922C56.342 13.9234 56.3552 14.2055 56.0177 14.144C56.7904 14.5358 55.7199 14.1512 56.1551 14.6262C56.0049 14.5809 55.8595 14.5207 55.7212 14.4466C55.8296 14.5563 55.9345 14.6744 56.0237 14.7974C56.0237 14.7914 56.0237 14.7841 56.0177 14.7709C56.0032 14.7227 56.0105 14.6949 56.031 14.7347H56.0515C56.0792 14.701 56.1141 14.6805 56.1419 14.66C56.3215 14.8456 56.1346 14.7492 56.0515 14.7359C56.0454 14.7492 56.031 14.7564 56.0177 14.7709L56.8387 15.0939C56.7073 14.9625 56.5071 14.8456 56.1419 14.66ZM53.2535 11.1037C53.2569 11.1164 53.2575 11.1297 53.2552 11.1426C53.2529 11.1555 53.2478 11.1678 53.2402 11.1785C53.3089 11.1785 53.3367 11.1664 53.2535 11.1037Z" fill="#F9CF01"/>
<path d="M53.4642 11.4401C53.3871 11.4401 53.2774 11.5148 53.1255 11.3774C53.0218 11.2062 53.2014 11.2605 53.2424 11.1725C53.0977 11.1725 52.7662 11.1243 53.0146 11.4461H53.0905C53.3316 11.715 53.5124 12.2659 53.4425 12.2659C53.5081 11.9929 53.5175 11.7096 53.4702 11.4329L53.4642 11.4401ZM54.8638 13.0012L55.5546 13.2628L55.3822 12.8505L55.3135 12.988C54.9952 12.7191 54.9759 12.9253 54.8638 13.0012ZM57.704 15.8643L57.4544 16.0777L58.0415 15.9258L57.704 15.8643ZM58.5177 16.3248L58.3381 16.5394L58.6358 16.5321L58.5177 16.3248ZM76.8365 54.685V54.9116C76.8435 54.8363 76.8435 54.7604 76.8365 54.685ZM77.4175 53.2468L77.3066 53.1625C77.3476 53.2589 77.3898 53.3011 77.4175 53.2468ZM78.007 28.4762C78.1312 28.8548 78.2131 29.3707 78.3445 29.0959L78.4205 28.7933C78.25 28.7428 78.1033 28.6329 78.007 28.4835V28.4762ZM79.7526 40.7663C79.7875 40.7446 79.8285 40.7241 79.8635 40.7036C79.7847 40.6137 79.7083 40.5216 79.6344 40.4276C79.6706 40.5312 79.7116 40.6421 79.7453 40.7651H79.7526V40.7663ZM80.893 41.2871L80.6024 41.6319C80.7166 41.533 80.8154 41.4166 80.893 41.2871ZM73.6551 62.563L73.8143 62.921C73.9939 62.569 73.7781 62.6522 73.6551 62.563ZM66.6946 21.3144C66.8597 21.5555 67.0116 21.7061 67.1635 21.8158C66.9839 21.5 66.9019 21.1492 66.6946 21.3144ZM74.1024 52.9636C74.1024 53.101 74.1446 53.1769 74.2073 53.1974C74.2073 53.0528 74.1783 52.9636 74.1024 52.9636ZM67.8121 22.2221C67.7916 22.1739 67.7566 22.1329 67.7301 22.0907C67.5242 22.0335 67.3299 21.9405 67.1563 21.8158C67.2877 22.0497 67.4745 22.2559 67.8061 22.2221H67.8121ZM54.7613 86.8984C54.7613 86.8984 54.7131 86.9189 54.6854 86.9189C54.7071 86.9538 54.7336 86.9333 54.7613 86.8984ZM45.8262 89.6578C45.8877 89.5963 46.0058 89.5276 46.1155 89.4576C46.0468 89.4721 45.9576 89.5276 45.8262 89.6578ZM61.6399 18.432C61.4603 18.3416 61.5989 18.4453 61.6399 18.432V18.432ZM61.4458 16.9239C61.5013 16.9239 61.5495 16.8962 61.5905 16.8407C61.5362 16.8962 61.4941 16.9167 61.4458 16.9239ZM70.4786 21.6929H70.4919C70.4714 21.6242 70.4786 21.6374 70.4786 21.6929ZM61.4603 18.162C61.5048 18.2385 61.5605 18.308 61.6255 18.3681C61.5792 18.2928 61.5237 18.2235 61.4603 18.162ZM61.4181 18.3006C61.3627 18.2524 61.3289 18.2162 61.2867 18.1825C61.2385 18.2102 61.2373 18.2524 61.4181 18.3006ZM61.8822 18.5682C61.7885 18.5136 61.7026 18.4468 61.6267 18.3693C61.6472 18.4031 61.6544 18.4308 61.6399 18.4308C61.6881 18.4585 61.7641 18.4995 61.881 18.5622L61.8822 18.5682ZM65.3746 74.2322L65.3263 74.2527C65.3058 74.4866 65.3468 74.4034 65.3746 74.2322ZM83.2184 30.6425L83.2051 30.6148C83.2051 30.622 83.1906 30.6353 83.1906 30.6425H83.2184ZM83.3305 31.3923C83.0134 31.0283 83.0822 30.8619 83.1931 30.6425L82.301 30.7462L83.3233 31.3851L83.3305 31.3923Z" fill="#F9CF01"/>
<path d="M75.4712 58.1435L75.9268 57.7855C76.086 58.5209 75.7617 58.8729 76.3066 58.5836C75.4784 58.1435 77.0251 56.7271 76.1692 56.2931L76.479 56.0592C76.438 56.1412 76.479 56.1822 76.438 56.2642C77.101 55.8314 75.9956 55.5638 76.438 54.8417C76.6176 54.6006 76.8177 54.462 76.8454 54.6826L76.8732 53.9954C76.9563 53.823 77.0938 53.9255 77.0106 54.0979L77.2939 53.148L77.3144 53.1624C77.2165 52.9224 77.1426 52.6732 77.0938 52.4186C77.3083 52.233 77.142 52.5705 77.2746 52.55L77.2529 51.9581C77.5639 51.834 77.6182 52.3367 77.453 52.6814C78.509 52.5295 77.4048 52.1775 78.2884 51.3252L78.2269 51.8557C78.8417 51.717 78.7935 51.2698 79.3035 50.8225C79.0901 50.8985 78.1221 51.6543 78.1028 51.0154C78.2269 50.884 78.3306 50.6851 78.2607 50.3199C78.5789 50.4308 78.6067 50.1077 78.7164 49.7292L79.1238 49.8943C79.1443 49.4531 78.9237 49.4121 78.814 49.1095C78.9997 48.6755 79.3589 48.69 79.6627 48.6755C79.9665 47.9739 78.9792 48.9998 79.1805 48.1258C79.5313 47.5749 79.5108 47.1072 79.4758 46.3092C79.7531 45.9306 79.7109 46.4598 79.8773 46.3501L79.6555 45.8752C79.6904 45.786 79.7881 45.8474 79.8363 45.8752C79.8001 45.5256 79.4216 45.7245 79.4553 45.1941C79.0334 44.9264 80.4499 44.3828 80.0846 43.6112C80.2498 43.4955 80.3257 43.7559 80.4981 43.7559C80.3884 42.8132 80.4499 42.9579 80.1738 42.1405L80.6078 41.6234C80.1738 41.9742 79.9388 41.3136 79.7519 40.7554C79.559 40.8663 79.3866 40.9628 79.2974 41.0327L79.2697 40.2057C79.3661 40.1298 79.4903 40.2479 79.635 40.4191C79.6167 40.3632 79.5962 40.3081 79.5735 40.2539C79.8013 40.0201 80.0147 40.2262 80.2003 40.4818C80.0919 40.5505 79.9737 40.6192 79.8628 40.6951C80.0702 40.9483 80.3125 41.2039 80.574 41.2316C80.5338 41.1433 80.5172 41.0461 80.5258 40.9495C80.5813 41.0182 80.6367 41.0664 80.685 41.052C80.7404 41.0387 80.6645 40.935 80.5885 40.7771L81.1129 40.7217L80.9333 40.6325L81.4854 39.6898C81.1816 38.8363 80.6295 38.0382 80.685 36.8412C80.9743 37.2064 81.2443 37.034 81.659 37.1377C81.1406 37.3571 81.6518 38.0804 81.4095 38.6651C81.5336 38.3625 81.7132 38.4794 81.7627 38.5747L81.6096 37.4053C81.9483 37.509 81.9206 37.2341 82.1207 36.9858C81.4034 37.0473 81.8519 36.0841 81.7277 35.6031C81.9628 35.6236 82.1689 35.7743 82.0038 36.3047C82.6391 35.8165 81.3685 35.3765 81.9206 34.887C81.9001 35.0184 81.8519 35.0799 81.9556 35.1559C81.8242 34.8123 82.1207 34.095 82.2871 34.3096L82.2666 34.4398C82.5221 33.5863 82.7632 31.7768 82.1967 31.5502C82.2726 31.5502 82.8741 31.7769 82.9838 31.8528C82.4263 31.2243 81.858 30.6054 81.2793 29.9963C81.7554 30.2085 83.026 29.8444 83.1984 30.6147C83.2799 30.4772 83.3319 30.3241 83.351 30.1653C83.3701 30.0065 83.3559 29.8455 83.3093 29.6925C83.2189 29.83 82.5354 29.9541 82.5137 29.754C82.9633 29.4237 82.9501 29.3972 83.1164 29.1006L82.6113 28.0615C82.6258 28.0133 82.5631 27.8831 82.4739 27.6637C82.5981 27.8686 81.9761 28.4063 81.7 28.2062C81.8109 28.1374 82.0942 27.5311 82.2388 27.5251L81.1129 27.7312C81.3685 27.7312 81.4926 27.1947 81.4505 26.9127C81.4505 27.085 80.8441 26.5148 80.609 26.4582L80.8164 26.803C80.0702 26.1966 79.4349 27.2297 78.6609 26.6933C78.8417 26.6173 79.4276 26.0109 79.0696 25.6746C78.6682 25.894 77.2252 26.7752 76.3548 26.5896L76.3415 26.3147L75.658 26.1906C76.3138 25.894 77.9364 25.4263 78.7103 25.3371C78.503 24.9935 78.7646 25.055 78.3029 24.7946C78.2547 24.5113 78.7248 24.6765 78.8622 24.7464L77.881 23.9676C77.6809 24.3871 76.8249 23.8579 76.6658 24.2087L78.0678 24.5185C77.8677 24.9381 76.7068 25.2201 76.0028 24.6837C75.9136 24.4076 76.5826 24.0785 76.6526 23.9339C76.4717 24.0098 75.7822 23.7482 75.775 23.6108L76.2234 23.5963C75.8991 23.1901 75.2156 23.6928 74.9528 23.0056C74.7949 22.873 74.7527 22.1787 74.5803 22.392C74.5803 23.0189 73.7654 24.4354 73.3652 24.6487C73.323 24.58 72.7299 23.6578 72.6744 23.3142C72.6117 22.7838 73.6268 22.7428 73.5725 22.2956C73.4966 22.3993 73.2543 22.433 73.165 22.433C73.0409 22.2281 73.4483 22.1521 73.0264 21.9508C72.7094 22.3101 72.2465 21.4156 72.6262 22.1726C72.1705 22.0485 72.2669 21.8351 71.804 21.5663C71.7835 21.911 70.8517 22.1859 70.3888 22.0617C70.472 21.9725 70.472 21.7869 70.4647 21.7037C69.698 21.1745 69.387 20.7272 68.6565 20.2667C68.648 20.1281 68.366 19.7918 68.6275 19.7158C68.4757 19.7158 68.296 19.7918 68.061 19.6604C67.8404 19.0419 68.5998 19.922 68.5239 19.3035C68.3515 19.5157 67.7367 19.2553 67.3232 19.1999C67.1978 19.6194 68.0272 19.7363 68.4419 19.7906C68.1309 20.2872 67.2472 20.4452 66.3359 20.1968C65.6451 19.9364 66.2732 19.7158 66.1213 19.7158C65.0303 18.9105 64.6024 19.963 63.8706 19.0142C63.6898 18.4633 64.2431 18.3813 64.3046 18.098C64.8784 18.2909 64.9472 18.7731 65.2931 18.972L64.9676 18.567C65.1895 18.567 65.5752 18.6899 65.7006 18.8973C65.562 18.4151 63.7947 17.6315 63.0762 16.819C62.8556 16.819 62.5096 16.7636 62.5651 16.9709L62.8761 17.1011C62.9725 17.5134 62.1299 17.1216 62.406 17.4591C61.9153 17.4037 61.321 17.4181 60.8798 16.9432L61.004 16.5237C60.9485 16.6322 61.2185 16.9504 61.4319 16.9359C61.1149 16.9564 60.928 15.945 60.3892 16.2609L60.6037 16.7431C60.1131 16.6888 59.4091 16.778 59.0089 16.3718C59.0016 16.86 59.1403 16.3995 59.2162 17.0191C59.25 16.3235 60.4036 17.7894 60.2795 16.9564C60.3204 17.652 60.7424 17.5278 60.9353 18.2162C60.9967 18.092 60.9208 17.8919 61.2728 18.1957C61.3216 18.1733 61.3731 18.1571 61.4259 18.1475C61.4319 18.1607 61.4391 18.1607 61.4464 18.1752L61.4319 18.1475C61.4319 18.1475 61.4681 18.1402 61.4319 18.1402C61.3744 18.0497 61.3435 17.9449 61.3427 17.8377C61.7092 17.6858 62.3312 18.092 62.6266 18.0788C62.8267 18.2777 62.4482 18.1535 62.4964 18.3608L62.9448 18.3464C62.8134 18.6285 63.2896 19.1721 62.6483 18.9793L63.1377 19.3023C63.3378 19.6326 63.7043 19.9425 64.0153 19.9846C64.2154 20.1836 64.788 20.0594 64.4565 20.1414L65.3341 20.4669L65.2992 20.5344C66.0454 21.0431 67.1496 21.0853 67.7307 22.1099C68.0272 22.2064 68.3455 22.2896 68.7312 22.6331L68.6758 22.9152C69.0567 23.0454 69.5256 23.7615 69.8222 23.6168C69.7945 24.4486 71.3484 24.7524 71.8595 25.2274L72.0668 24.9453C72.461 25.2129 72.895 25.372 73.4688 25.5637L73.6002 25.2816C74.1668 25.3371 74.5875 26.1556 75.2843 26.5546C75.1746 26.6233 75.0227 26.4931 74.9395 26.3557C75.382 27.4491 76.9214 26.9946 77.3843 27.8831C77.6254 27.9036 77.7363 28.0205 77.8255 28.1652C77.805 28.1579 77.7918 28.1519 77.7713 28.1519C77.7933 28.1727 77.8191 28.189 77.8472 28.2001C77.9015 28.2966 77.9497 28.399 78.0124 28.4955C77.9847 28.3982 77.9429 28.3056 77.8882 28.2206C78.0329 28.3026 78.2679 28.4063 78.5163 28.4678L78.4271 28.8053L78.4825 28.8258C78.6199 29.0597 78.7308 28.7981 78.7513 28.516C78.8788 28.5399 79.0096 28.5399 79.1371 28.516C79.0202 29.0729 79.7881 28.7089 79.7109 29.3357C80.0002 29.1911 80.8778 29.8167 81.3058 29.39C81.272 29.4587 81.313 29.5274 81.2033 29.4587C81.313 29.5756 81.4312 29.6925 81.5614 29.7685L81.1334 28.88C81.1209 28.992 81.1427 29.1051 81.1961 29.2043L80.7609 29.2658L81.2431 29.9264C80.9405 30.2495 80.7681 30.3736 80.4981 29.9746C80.8646 30.8968 80.5813 30.6907 80.9538 31.4948L80.6922 31.4128C80.6645 31.6744 80.9478 32.1481 80.6922 32.2723C80.0906 32.7617 80.0846 35.1354 79.2757 36.5036C80.1256 36.3951 78.7718 37.11 79.3661 37.3089C79.1588 37.3511 79.0069 37.5367 78.9032 37.2607C78.9165 38.0527 78.3366 38.3143 78.7308 38.9532C78.5235 38.9954 78.4958 38.7266 78.3716 38.7748C78.3993 38.8435 78.4753 39.0496 78.3439 39.1051C78.2125 39.1533 78.2125 38.9604 78.1643 38.823C78.0124 39.5945 78.5585 39.8139 79.0756 40.0068C78.7236 40.3299 78.7103 40.53 78.9792 40.9013C78.7718 40.9905 78.5307 41.1689 78.5934 40.6734C78.503 40.935 77.9015 42.2358 78.3162 42.3804C78.1848 42.4347 78.1787 42.7445 78.2052 42.8265C78.0124 43.4196 77.9641 43.4606 77.8255 44.0597L77.9436 43.915C78.3849 44.2936 77.9087 44.431 77.8255 44.9192L77.7773 44.8915C77.0805 45.8559 77.8195 45.4147 77.066 46.3429L77.3976 46.3851C78.0473 46.7009 76.6863 47.1964 76.749 47.892L77.0046 47.7268C77.1215 48.1391 75.7822 48.3597 75.5748 48.6551C75.4917 48.7105 75.5194 48.5104 75.5122 48.3935C74.8081 49.1228 75.8859 48.649 75.7472 49.3289C75.4844 49.3711 75.2433 48.9793 75.0432 49.3989C74.7876 49.5495 75.3193 50.919 74.6635 51.3518C74.8841 51.2843 75.0975 51.2216 75.1119 51.5651C74.995 52.0473 74.0077 52.5561 74.3802 53.1757C74.3115 53.2167 74.2633 53.2239 74.2138 53.2106C74.2138 53.6085 73.98 54.4282 74.1801 54.7513C73.5858 54.6958 73.4966 55.2877 73.4278 55.8386C73.3507 56.3883 73.2952 56.9055 72.813 56.6921L72.3983 57.765L72.3152 57.6963C71.9559 58.3437 72.0668 58.68 72.191 59.0175C72.0536 59.1417 72.0186 58.9898 71.9704 58.9488C71.3146 59.8288 71.3074 59.9397 71.3906 60.9861L71.0446 60.9162C71.1145 61.226 69.8572 62.0518 69.7258 63.1729C69.6766 63.129 69.6467 63.0675 69.6426 63.0017C69.4425 64.247 67.4474 65.0101 68.3238 66.0082C68.29 66.2903 68.2346 66.5579 68.1924 66.834C68.8011 66.0143 68.5793 67.2318 68.9796 66.9847C68.8349 67.3704 68.1164 67.6803 68.3165 67.2258L68.413 67.1908C67.9513 66.7098 67.5571 68.1552 67.1978 67.8997C66.7084 68.7676 66.0864 69.5379 65.4788 70.295C64.8857 71.0581 64.2492 71.7741 63.6971 72.5167L64.2359 72.6337L63.8357 73.1436C63.6428 73.2123 63.38 73.0954 63.6693 72.7373C63.2968 72.7651 63.4138 73.5089 63.4897 73.5836C62.8002 74.196 63.2209 72.9447 63.0485 73.1641L62.8616 73.4944L62.9581 73.4594C62.9521 73.8307 63.0967 73.9754 62.7375 74.4021C62.4409 74.6155 62.3782 74.3539 62.2746 74.4503C62.2468 74.4299 62.2058 74.4503 62.1299 74.6083L61.591 75.2207L62.1094 75.2074C62.0407 75.6137 61.6188 75.7981 62.2058 75.786C61.3427 75.8126 60.0589 77.98 59.6647 78.097C59.5537 78.6756 59.2222 79.0529 58.7605 79.4737C58.9257 79.4182 59.3199 79.6521 58.9124 80.0041C58.3663 79.2326 57.9384 80.4501 57.1644 80.2994C57.4538 80.3115 57.2127 80.608 57.0065 80.8974C56.7992 81.1867 56.6051 81.4543 57.0547 81.4688C56.675 81.7231 56.7919 81.2409 56.3917 81.3241C56.1362 81.8184 55.666 82.1836 55.1621 82.5417C54.9065 82.7213 54.6437 82.8997 54.3954 83.0986C54.1338 83.2855 53.877 83.4844 53.6504 83.7182C53.7119 83.8219 54.0024 83.8147 53.912 84.1377H52.9874C52.8283 84.3451 53.2634 84.8188 52.6282 84.8056C52.7451 84.8393 52.9175 84.8948 52.815 85.0322C52.2412 85.3493 51.6963 85.7073 51.1779 86.1051C50.6596 86.5053 50.1629 86.9381 49.659 87.3649C48.609 88.1569 47.5036 88.92 46.116 89.1406C46.544 89.1611 46.3571 89.2985 46.1293 89.4419C46.3101 89.4022 46.2884 89.6975 46.4066 89.8217L45.2252 89.9941C45.2879 90.4883 44.2379 90.6197 44.3548 91.0537L44.6176 90.8054C44.4729 91.4865 45.7508 91.4587 46.0329 92.0579C46.1775 91.2803 47.7109 92.0856 48.0014 90.9006C48.2365 90.9006 47.9809 91.1706 48.1461 91.2454C48.1811 90.8813 48.3679 90.6812 48.8501 90.51V90.5992C49.9483 89.7385 50.6391 89.683 51.9929 88.8512L51.7035 88.6656C52.0001 88.4932 52.117 88.5342 52.2894 88.5005C52.2894 87.8736 51.5167 89.0574 51.4685 88.404C52.2207 88.6523 53.3671 86.9803 54.0639 87.3516C54.4653 87.0141 53.7059 87.1587 54.1061 86.8212L54.34 86.8899L54.2712 86.6006C54.5545 86.4161 54.8511 86.4921 54.9753 86.615C54.8993 86.656 54.8306 86.8079 54.7691 86.8766C55.2658 86.7669 55.666 85.9966 55.8324 85.9544L55.3695 86.1883C56.3495 85.1492 57.7515 84.0968 58.4628 82.8647L58.2771 82.831C58.8075 81.8955 58.9811 82.3488 59.6779 81.4266V81.482C59.7201 81.2072 59.8792 80.9396 60.0998 80.7189C60.0311 81.0493 60.7351 80.5598 60.6182 80.9721C61.1703 79.9414 60.8243 80.4019 60.887 79.4592L61.1908 79.5002C61.1836 79.1566 61.1004 79.0602 61.4259 78.5852C61.2873 79.0807 61.9563 78.5647 61.8394 79.1494C63.0485 78.5924 62.5723 77.4496 63.5391 77.5256C63.3318 76.6528 62.5928 78.0898 62.6615 77.7534C62.324 77.8077 62.5446 77.0723 62.8207 76.8167C63.069 76.5274 63.9321 76.8722 64.5192 76.1019C64.4565 76.1778 64.4987 76.2116 64.436 76.2875C64.8025 76.1091 64.6771 75.5859 65.1895 75.4075C64.9893 74.953 65.5475 74.953 65.1473 74.5745C65.0098 74.8361 64.8784 75.1049 64.7253 75.3581C64.9194 74.8759 64.6651 74.1128 65.3956 73.6378C65.4511 73.756 65.4233 74.0381 65.3956 74.2237C65.6656 74.12 65.5825 73.7825 65.8585 73.68C66.2599 74.0586 65.3341 74.6227 65.3546 75.3038C65.6922 75.2279 65.6319 74.243 65.9489 74.8084C65.562 74.0513 66.5842 74.0851 66.4938 73.2256L66.7349 73.4462C66.7566 73.3292 66.7494 73.0676 66.8675 72.923L67.0122 73.4462C67.0327 72.8133 67.8548 72.7783 67.9718 72.2407C67.3919 73.1363 67.5088 72.2214 67.0676 72.4625C67.4196 71.1268 68.1924 72.3106 68.8759 70.9894C68.8072 71.1822 68.2972 71.5125 68.3455 71.1678C68.5516 70.9689 68.8638 70.7278 69.1049 70.6795C69.5751 69.82 68.7385 70.6253 68.7939 70.1708C69.305 70.1021 68.9036 69.6754 69.0145 69.2486L69.2978 69.421C70.0573 68.5808 68.8554 68.8086 69.5944 68.0925L69.7752 68.6917L69.9403 68.189L70.2092 68.4711C70.2574 67.8382 70.4237 67.7357 70.783 67.3017C70.5129 67.3017 70.2923 66.9365 70.5202 66.5097C70.8517 66.3168 70.7058 66.8268 71.0024 66.2011C71.1073 66.4422 71.2519 66.7171 70.8372 66.834C70.9132 66.916 70.9409 67.0751 71.0241 67.1498C71.3978 66.9437 71.5147 66.3795 71.6317 66.1589C71.5762 66.2349 71.5003 66.3313 71.4315 66.359L71.522 65.2584C71.7076 65.1825 71.7353 65.3331 71.7631 65.4923C71.8318 65.2994 71.7631 65.0993 71.8872 64.8244C72.0873 65.0173 72.3429 65.1342 72.2465 65.567C72.3152 65.2367 72.3839 64.9136 72.4393 64.5773C72.5719 64.5773 72.9505 64.288 72.9854 64.4459C73.3712 64.0396 73.1229 63.0427 73.634 62.505C73.6063 62.4508 73.593 62.3604 73.628 62.2097C73.9655 61.6383 74.5249 61.2465 74.5249 60.3797L75.1602 60.1796C75.3265 59.5745 74.3452 60.469 74.6213 59.4648C74.7744 58.7415 75.1047 59.3888 75.3325 59.2104C75.2566 58.7764 75.0565 58.0049 75.6857 57.5589C75.6857 57.8 75.5471 57.9229 75.4929 58.1303L75.4712 58.1435ZM78.0811 51.0359C78.0955 51.1938 78.2052 51.5446 77.9846 51.5784C77.6809 51.2903 77.8954 51.236 78.0811 51.0359ZM80.644 39.8549C80.7259 39.9863 80.6367 40.137 80.4631 40.2889C80.4723 40.1279 80.5361 39.9748 80.644 39.8549ZM63.6223 19.3578H63.6428C63.8489 19.6399 63.7814 19.5374 63.6223 19.3578ZM63.1317 18.8828C63.0473 18.8828 63.028 18.931 63.028 18.9793C63.11 18.931 63.2414 19.007 63.3728 19.1167C63.3728 19.0202 63.3378 18.9238 63.1317 18.8756V18.8828ZM62.3095 74.589L62.4542 74.5408C62.3505 74.8289 62.33 74.7119 62.3095 74.589Z" fill="#F9CF01"/>
<path d="M80.7621 41.2268C80.7001 41.2481 80.6336 41.2527 80.5692 41.2401C80.6102 41.3088 80.6717 41.3293 80.7621 41.2268ZM73.6268 62.5015L73.6123 62.522C73.6123 62.522 73.64 62.5569 73.6545 62.5702L73.6268 62.5015ZM73.4471 22.0015C73.5185 22.0829 73.5642 22.1835 73.5785 22.2908C73.6267 22.2294 73.6135 22.1329 73.4471 22.0015ZM59.8177 17.4749L60.2252 17.6268C60.0384 17.5303 60.0179 17.4266 59.9552 17.3302C59.9202 17.3989 59.9347 17.5376 59.8177 17.4749ZM57.7527 13.7535C57.6768 13.7535 57.6346 13.6848 57.5659 13.6908L57.496 13.8282C57.731 13.9608 57.9528 13.9524 57.7527 13.7535ZM60.0649 16.3248C60.1818 16.0717 59.9057 16.009 59.6225 15.892C59.6369 15.8993 59.6574 15.9053 59.6707 15.9198C59.3886 16.2019 59.7261 16.2633 60.0649 16.3248ZM59.5598 15.8655C59.4766 15.8233 59.3874 15.7811 59.3187 15.7209C59.2078 15.8378 59.3946 15.8101 59.5598 15.8655ZM62.3107 18.5827C62.2287 18.4453 62.0419 18.8359 62.0347 18.6997C61.7104 18.913 63.0702 18.8371 62.3107 18.5827ZM60.3482 15.4195L60.2565 15.7691L60.5471 15.6244L60.347 15.4195H60.3482ZM62.2336 16.8902L61.8743 16.5527C61.8466 16.6081 61.7779 16.6009 61.7019 16.5888C61.9503 16.7528 62.1853 16.9866 62.2336 16.8902ZM61.7019 16.5888C61.5778 16.4984 61.4464 16.4285 61.3427 16.4285C61.4186 16.4707 61.5705 16.5539 61.7019 16.5888ZM60.963 15.6775L61.0474 15.8149L61.3234 16.015L60.963 15.6775ZM66.5842 19.6894L67.0809 19.8823C67.1918 19.8135 67.1086 19.6761 66.9157 19.6074C66.7638 19.6074 66.5782 19.5447 66.5842 19.6833V19.6894ZM65.7428 18.0463C65.8248 18.1837 65.791 18.2524 65.797 18.391L66.0393 18.039H65.7428V18.0463ZM67.0881 18.7732C67.199 18.6972 67.9175 18.8901 67.3364 18.5598C67.2267 18.6285 66.7289 18.4357 67.0881 18.7732ZM73.5098 23.4264L73.3929 23.3577L73.0336 23.9641L73.5098 23.4264ZM80.3185 25.7024C79.8845 25.2286 79.9592 25.9917 79.6 25.5168C79.3866 25.5794 79.8978 25.9025 79.6964 25.9507C80.1111 25.999 80.222 26.1918 80.3257 25.7096L80.3185 25.7024ZM79.6892 25.9447C79.6155 25.9368 79.5415 25.9328 79.4674 25.9327C79.5855 25.9519 79.6482 25.9519 79.6892 25.9447ZM44.4042 90.064L43.9956 90.1388L44.3283 90.2147L44.4042 90.064ZM44.0173 90.8958L43.7207 90.5535V91.0272C43.7822 90.9658 43.9136 90.8404 44.0173 90.8958ZM79.3119 50.2729L79.2215 50.2114C79.0901 50.2319 79.0491 50.3211 78.9659 50.4935L79.3119 50.2729ZM77.0516 55.3252L77.0938 55.242L76.6513 55.2564L77.0516 55.3252ZM75.6918 59.7939C75.7822 59.63 75.7954 59.3889 75.8847 59.2165C75.781 59.63 75.2084 59.63 75.6918 59.7951V59.7939ZM45.9858 91.9844C45.9581 92.1158 46.2486 92.0676 46.3041 92.0881C46.2414 91.8747 45.9099 91.9916 45.9858 91.9844ZM45.3288 89.8724L45.447 89.9073L45.1637 89.5975L45.3288 89.8724ZM45.3361 87.8966C44.8454 88.0822 45.4193 88.6126 45.2396 88.9634L45.1287 89.0189L45.5229 89.1756C45.4602 88.75 45.1974 88.1931 45.3361 87.8905V87.8966ZM46.4066 86.8429C46.2125 86.9044 46.2402 86.6151 46.3439 87.0913C46.3644 87.0708 46.3788 87.0636 46.3921 87.0503C46.3921 87.0081 46.3921 86.9466 46.4066 86.8502V86.8429Z" fill="#F9CF01"/>
<path d="M46.3903 87.0431C46.4048 87.2492 46.5494 86.9057 46.3903 87.0431V87.0431ZM46.2806 86.0799L46.4542 86.3548C46.5639 86.3005 46.5916 86.0522 46.6748 86.1414C46.5783 85.8593 46.4674 85.9208 46.2806 86.0799ZM45.9238 85.8183L45.9925 85.963C46.0407 85.9352 46.0552 85.9003 45.9238 85.8183ZM46.1504 86.2668L45.9985 85.9642C45.9141 86.0052 45.7562 86.0052 46.054 86.1016C45.9093 86.0739 46.054 86.1366 46.1504 86.2668ZM46.0745 86.4379C45.9648 86.5886 45.9021 86.7887 45.7297 86.5127C45.7984 87.0371 46.1444 86.9611 46.0757 86.4367L46.0745 86.4379ZM44.8243 87.7941L44.6797 88.0003L44.8448 88.1799C44.7617 88.0907 44.9774 87.7797 44.8243 87.7941ZM46.5374 84.3741C46.4337 84.3609 46.2601 84.4645 46.1227 84.485L46.2396 84.6851C46.3083 84.5815 46.3782 84.3814 46.5301 84.3681L46.5374 84.3741ZM46.1227 84.485L45.9418 84.1812C45.9226 84.4501 46.0057 84.5055 46.1227 84.485ZM45.3777 85.7713L45.7502 86.2728L45.3704 85.6749L45.3777 85.7713ZM46.5494 83.2168L46.7905 83.3904L46.4253 83.0794L46.5494 83.2168ZM46.5084 82.4477C46.7085 82.5707 46.8472 82.2754 46.9713 82.4055C46.9364 82.2006 46.764 82.0198 46.6061 81.8631C46.6953 82.0342 46.6664 82.2127 46.5084 82.4477ZM46.3782 81.5942C46.4265 81.6774 46.5096 81.7666 46.6061 81.8631C46.551 81.7573 46.4739 81.6654 46.3782 81.5942ZM45.9901 83.6653C46.054 83.6436 46.2191 83.5954 46.289 83.4242L45.9913 83.5411L45.9901 83.6653Z" fill="#F9CF01"/>
<path d="M45.9912 83.5558H45.9985C45.9985 83.4256 46.0129 83.3352 46.0129 83.2942C46.0129 83.3292 46.0057 83.4039 45.9852 83.5558H45.9912ZM45.9912 83.7016V83.6739C45.9635 83.6872 45.949 83.6944 45.9912 83.7016ZM45.638 84.9795C45.4729 84.7999 45.2933 84.4286 45.0449 84.7866C45.245 84.9168 45.3897 84.7106 45.638 84.9795ZM45.626 83.8451L45.5573 84.1694C45.6332 84.1694 45.7501 84.1067 45.8345 84.1899L45.626 83.8451ZM45.5271 83.6848L45.6236 83.8439L45.6453 83.727L45.5271 83.6848ZM46.1009 82.1441C45.9695 82.0067 45.9635 81.8548 45.9418 81.6836C45.8853 81.864 45.8553 82.0516 45.8526 82.2406C45.9418 82.2683 46.1154 82.3443 46.1009 82.1514V82.1441ZM46.0262 82.8313C46.0262 82.8313 46.0202 82.8108 46.0129 82.8048C45.9852 82.8253 45.978 82.8385 46.0274 82.8325L46.0262 82.8313ZM45.949 79.9911C45.949 79.9911 45.9141 80.0116 45.8936 80.0176H45.9418V79.9839L45.949 79.9911ZM45.7972 82.2683C45.7417 82.4057 45.8104 82.4889 45.9008 82.5709C45.8703 82.4634 45.8541 82.3523 45.8526 82.2406C45.8104 82.2273 45.7839 82.2273 45.7972 82.2683ZM46.2396 81.1195C46.1748 81.1915 46.1212 81.2727 46.0804 81.3606C46.1769 81.2906 46.3215 81.146 46.2396 81.1195ZM46.0877 82.7493C46.0877 82.7493 46.0949 82.7638 46.1021 82.771C46.1648 82.7228 46.1371 82.7288 46.0877 82.7493Z" fill="#F9CF01"/>
<path d="M46.0865 82.7504C46.0455 82.6817 45.9696 82.6263 45.9069 82.5648C45.9264 82.6451 45.9589 82.7217 46.0033 82.7914C46.0305 82.7738 46.0587 82.7577 46.0877 82.7432L46.0865 82.7504ZM44.0504 79.4799C44.3265 79.5089 44.5748 79.8657 44.2843 80.1827C44.4916 80.4925 45.3897 80.2924 45.8936 80.0176C45.7767 80.0103 45.6658 80.0103 45.5006 79.6873C45.3487 79.797 45.1486 80.3961 44.9063 80.1273C44.7689 79.7078 45.0028 79.7837 45.1474 79.5776C44.8099 79.7488 44.6508 79.0399 44.1541 79.1303L44.3337 79.5016C44.2578 79.5089 44.1336 79.3775 44.0564 79.4739L44.0504 79.4799ZM45.8659 80.6251L45.9009 80.7553C45.9491 80.6047 46.06 80.501 46.2746 80.3009C46.142 80.0815 46.0383 80.0405 45.9491 80.026L45.9081 80.6734L45.8659 80.6251ZM45.8997 81.3485C45.6031 81.2448 45.4777 80.9277 45.1547 81.1194C45.1751 81.5052 45.403 81.3894 45.5344 81.6161C45.4584 80.9965 45.6995 81.7945 45.8647 81.3473C45.9129 81.4714 45.9346 81.5811 45.9418 81.6848C45.9776 81.5731 46.0236 81.4649 46.0793 81.3617C46.0793 81.3617 46.066 81.3677 46.0588 81.375C46.0238 81.4027 45.9961 81.4099 46.0178 81.375V81.3617C45.9794 81.3599 45.9417 81.3505 45.9069 81.334C45.9684 81.1556 45.9828 81.3063 46.0178 81.3617C46.0311 81.3617 46.0455 81.3677 46.0588 81.3677L45.8924 80.7493C45.8514 80.8795 45.8587 81.0447 45.8924 81.334L45.8997 81.3485ZM44.4097 84.4574C44.4097 84.4574 44.4579 84.4369 44.4772 84.4369C44.4434 84.396 44.4169 84.3815 44.4097 84.4574ZM44.5905 84.2007C44.6315 84.2489 44.7484 84.2838 44.7207 84.4273C44.6315 84.5515 44.576 84.4273 44.4796 84.4273C44.5555 84.5177 44.6929 84.7371 44.8376 84.4623L44.7966 84.4213C44.9003 84.1729 45.2728 83.8499 45.3078 83.8908C45.0533 83.9518 44.8106 84.054 44.5893 84.1934V84.2007H44.5905ZM45.1691 82.7589L45.0233 82.2417L44.7677 82.5033L44.9196 82.4901C44.8581 82.7854 45.051 82.7167 45.1679 82.7577L45.1691 82.7589ZM46.0925 79.9356L46.4108 80.0043L45.9611 79.7017L46.0925 79.9356ZM46.0588 79.2629L46.3288 79.2895L46.1624 79.1098L46.0588 79.2629ZM42.6677 41.3572L42.5918 41.2053C42.6135 41.274 42.64 41.3222 42.6677 41.3572ZM42.6484 42.459L42.7798 42.4868C42.7039 42.4385 42.6472 42.418 42.6472 42.459H42.6484ZM46.025 62.7705C46.2806 62.5499 46.676 62.3016 46.371 62.3293L46.0732 62.398C46.0973 62.4587 46.1062 62.5244 46.099 62.5893C46.0919 62.6543 46.069 62.7165 46.0323 62.7705H46.025ZM44.2361 51.4713C44.2361 51.4713 44.1734 51.5123 44.1456 51.5328C44.2493 51.5883 44.347 51.6365 44.4362 51.6847C44.3735 51.622 44.312 51.5473 44.2433 51.4713H44.2361ZM43.0004 51.3134L43.1933 51.0241C43.1127 51.1086 43.0474 51.2065 43.0004 51.3134ZM42.3507 35.3574L42.0469 35.1778C42.0469 35.4539 42.206 35.3357 42.3507 35.3574ZM45.9479 72.3831C46.0431 72.2405 46.105 72.0781 46.1287 71.9082C45.9551 72.1348 45.6995 72.3205 45.9479 72.3831ZM45.8442 41.7912C45.7899 41.6947 45.7273 41.6598 45.6658 41.6598C45.714 41.7562 45.7767 41.8117 45.8454 41.79L45.8442 41.7912ZM46.1275 71.3549C46.1275 71.3549 46.0793 71.4236 46.0588 71.4573C46.107 71.5947 46.148 71.7394 46.1275 71.9046C46.2589 71.7334 46.3348 71.5405 46.1275 71.3549ZM42.593 13.5813C42.593 13.5813 42.6135 13.5463 42.6279 13.5331C42.5857 13.5331 42.5869 13.5463 42.593 13.5813ZM45.6176 7.22949C45.6362 7.31577 45.6431 7.40417 45.6381 7.49229C45.6586 7.44407 45.6586 7.36812 45.6176 7.22949ZM46.1854 76.5578C46.2058 76.7025 46.2191 76.5783 46.1854 76.5578V76.5578ZM45.0028 77.2534C45.0028 77.2534 44.9268 77.1979 44.8581 77.1979C44.9097 77.2061 44.9589 77.225 45.0028 77.2534ZM44.265 69.9396V69.9251C44.2023 69.9673 44.2168 69.9601 44.265 69.9396ZM46.0515 76.77C46.0886 76.7138 46.1189 76.6535 46.142 76.5903C46.103 76.6458 46.0725 76.7055 46.0515 76.77ZM46.1902 76.7434C46.1769 76.7917 46.1697 76.8339 46.1624 76.8676C46.2107 76.8881 46.2456 76.8664 46.1902 76.7434ZM46.1697 76.3577C46.1723 76.4375 46.1604 76.5171 46.1347 76.5928C46.1552 76.565 46.1697 76.5506 46.1829 76.5566C46.1829 76.5168 46.1697 76.4541 46.1697 76.3577ZM43.4006 25.2445C43.4006 25.2445 43.4139 25.2228 43.4284 25.2156C43.303 25.0709 43.3247 25.1348 43.4006 25.2445ZM42.9172 59.0588C42.9172 59.0588 42.9317 59.066 42.9317 59.0732C42.9317 59.0732 42.9389 59.06 42.9462 59.0527H42.9172V59.0588ZM42.6894 58.544C43.0619 58.7634 43.0137 58.8876 42.9377 59.0527L43.8009 58.8815L42.6894 58.544Z" fill="#F9CF01"/>
<path d="M42.5785 38.7291L42.3097 39.0872C41.8685 38.6532 42.0204 38.3373 41.6406 38.6749C42.5797 38.7231 41.7371 40.0708 42.6774 40.1191L42.476 40.3529C42.4833 40.2842 42.4278 40.2782 42.4411 40.2083C41.9926 40.67 43.1186 40.553 42.9872 41.1449C42.9185 41.3511 42.7798 41.4945 42.6689 41.3583L42.904 41.8188C42.8835 41.9502 42.7244 41.9225 42.7388 41.7851L42.8148 42.4867H42.7871C42.9317 42.5831 43.1608 42.8097 43.2572 42.9206C43.1246 43.0991 43.1608 42.8302 43.0426 42.8785L43.2705 43.2714C43.0294 43.4282 42.7943 43.1063 42.828 42.8375C41.889 43.2015 43.0631 43.1605 42.517 43.9453L42.4001 43.5801C41.8685 43.8139 42.0626 44.1032 41.7298 44.5228C41.9034 44.4263 42.5665 43.691 42.8003 44.1105C42.7316 44.2274 42.6966 44.3853 42.8835 44.612C42.552 44.612 42.6352 44.8398 42.6484 45.1147L42.2072 45.0942C42.3314 45.3967 42.5592 45.369 42.7593 45.5486C42.7171 45.8862 42.3736 45.9537 42.0818 46.0308C42.0131 46.5661 42.6279 45.6583 42.7111 46.2985C42.5448 46.7445 42.7244 47.0615 42.9872 47.592C42.8353 47.9018 42.7171 47.5365 42.593 47.6462L42.945 47.9223C42.9389 47.991 42.828 47.9705 42.7726 47.956C42.9112 48.1899 43.215 47.9765 43.3319 48.3418C43.8153 48.4382 42.6207 49.0988 43.174 49.5533C43.0486 49.6618 42.904 49.4979 42.7316 49.5316C43.0908 50.1585 42.9944 50.0693 43.4838 50.578L43.1945 51.012C43.526 50.6877 43.919 51.1012 44.2433 51.458C44.4024 51.3411 44.5411 51.2458 44.6098 51.1831L44.8448 51.7546C44.7749 51.8233 44.623 51.7678 44.4374 51.6714C44.4684 51.7093 44.5032 51.744 44.5411 51.775C44.3747 51.9812 44.1191 51.8715 43.878 51.7268L44.1469 51.5207C43.878 51.376 43.5803 51.2458 43.3259 51.2796C43.3832 51.3279 43.424 51.3927 43.4428 51.4652C43.3669 51.4315 43.3042 51.4038 43.2632 51.4242C43.215 51.4447 43.3114 51.5074 43.4296 51.5966L42.9389 51.7268L43.1318 51.7618L42.8208 52.5116C43.3187 53.0481 44.0432 53.5158 44.2505 54.362C43.8913 54.1487 43.6635 54.3138 43.2355 54.3066C43.6912 54.0727 43.0426 53.6472 43.1318 53.206C43.0836 53.4338 42.8835 53.3856 42.8075 53.3301L43.2222 54.1137C42.8702 54.0932 42.9594 54.2801 42.8148 54.4862C43.5055 54.3283 43.2777 55.0709 43.4838 55.394C43.25 55.4144 43.0137 55.3397 43.0703 54.9479C42.552 55.3807 43.8853 55.5049 43.4428 55.9244C43.4428 55.8279 43.4706 55.7797 43.3524 55.7387C43.5598 55.9581 43.3946 56.5018 43.1945 56.3776V56.2812C43.1041 56.9153 43.1873 58.2088 43.7732 58.3052C43.6984 58.3052 43.0619 58.2221 42.945 58.1811L44.9208 59.3094C44.4169 59.213 43.215 59.5915 42.9317 59.0683C42.863 59.2202 42.7726 59.4059 42.9522 59.7217C43.0209 59.6192 43.6839 59.4685 43.7261 59.6048C43.1668 59.9905 43.4224 59.8736 42.945 60.3486C43.0559 60.1967 43.8431 60.3618 43.8226 60.6102C43.7056 60.568 43.0426 60.6306 42.9594 60.5414L43.7334 61.1466C43.5947 60.9947 43.0764 61.1189 42.8558 61.2563C43.0077 61.1948 42.8425 61.7795 42.9185 61.9434L43.0981 61.6903C42.9799 62.3714 44.1891 62.3654 44.1469 63.0453C43.9877 62.9633 43.1596 62.8464 43.0619 63.1899C43.4633 63.3478 44.9762 63.8915 45.28 64.4907L45.051 64.6076L45.3138 65.0681C44.7134 64.7788 43.4573 63.9747 42.9667 63.5335C42.7858 63.7891 42.6966 63.6034 42.7171 63.988C42.5038 64.1254 42.3929 63.7818 42.3796 63.6649L42.241 64.5594C42.7039 64.5184 42.7039 65.2405 43.0908 65.2055L42.6074 64.2363C43.0704 64.1941 43.9263 64.7932 43.8431 65.4261C43.6574 65.584 43.0149 65.3092 42.863 65.3164C43.0221 65.3984 43.1668 65.9144 43.0559 65.977L42.8075 65.7082C42.6352 66.059 43.4224 66.2796 42.9799 66.7064C42.9522 66.851 42.3796 67.1403 42.6545 67.1669C43.1873 66.9258 44.8244 66.8848 45.2246 67.0427C45.1896 67.0909 44.7207 67.807 44.4579 67.9782C44.0432 68.2193 43.4694 67.6213 43.1113 67.8215C43.2355 67.8275 43.3946 67.9661 43.4428 68.0204C43.3319 68.171 43.0486 67.9577 43.1053 68.288C43.5742 68.3434 43.0631 68.9631 43.5055 68.4471C43.6357 68.7702 43.4091 68.7907 43.4296 69.1764C43.7334 69.0523 44.4651 69.52 44.5965 69.8431C44.4784 69.8226 44.3192 69.8985 44.2505 69.9335C44.2095 70.6001 43.995 70.9582 43.9877 71.585C43.8708 71.6393 43.7394 71.9419 43.5321 71.8117C43.6164 71.9009 43.7732 71.9828 43.7876 72.1757C43.3802 72.547 43.7261 71.749 43.2355 72.0311C43.5128 72.0588 43.6152 72.5265 43.7816 72.8026C44.2035 72.7194 43.8636 72.1685 43.6912 71.8936C44.271 71.8936 44.8858 72.3686 45.1559 73.022C45.3005 73.5379 44.7749 73.2486 44.8581 73.339C44.7544 74.3095 45.8731 74.1648 45.4524 74.9761C45.0787 75.2992 44.7134 74.9906 44.4446 75.0593C44.306 74.6386 44.6785 74.4119 44.6652 74.1226L44.4928 74.4734C44.3675 74.3432 44.2783 74.0611 44.3819 73.9032C44.0504 74.1708 44.3192 75.5475 44.0082 76.2973C44.1336 76.4275 44.265 76.6626 44.4097 76.5517L44.3542 76.3178C44.6508 76.0972 44.7689 76.7651 44.9063 76.4625C45.1137 76.7795 45.4452 77.1376 45.28 77.5836L44.8581 77.6668C44.9823 77.6595 45.1137 77.3702 44.9823 77.2473C45.1691 77.4329 44.4097 77.9344 44.9618 78.1417L45.2511 77.8247C45.4657 78.1417 45.9141 78.5408 45.7839 78.9398C46.2059 78.7602 45.7357 78.8494 46.2263 78.5673C45.6176 78.8156 46.2529 77.5498 45.6115 77.9416C46.1781 77.6523 45.8526 77.4389 46.336 77.0616C46.1986 77.0749 46.0672 77.1918 46.1359 76.8615C46.0908 76.843 46.0488 76.8173 46.0118 76.7856C46.0118 76.7795 46.0118 76.7723 46.025 76.7651C46.025 76.7651 46.0118 76.7795 46.0118 76.7856C45.984 76.7723 45.9913 76.7723 46.0118 76.7856C45.9595 76.8636 45.8847 76.9238 45.7972 76.9579C45.4801 76.7928 45.4862 76.2624 45.321 76.0839C45.3897 75.8838 45.4801 76.1671 45.632 76.0562L45.3837 75.7886C45.6935 75.7609 45.9021 75.2654 46.0805 75.7259L46.0949 75.3064C46.2673 75.0593 46.336 74.7217 46.2046 74.5084C46.2746 74.3095 45.8599 74.0057 46.101 74.1781L45.9081 73.5174H45.984C46.025 72.8641 45.4729 72.1757 46.0323 71.4319C45.9563 71.2125 45.8599 70.9859 45.9491 70.6206L46.2191 70.5519C46.1227 70.2698 46.4879 69.7129 46.2046 69.5887C46.9304 69.2861 46.3638 68.2265 46.4879 67.731L46.1359 67.7105C46.1564 67.373 46.0528 67.0427 45.9153 66.6232L45.6043 66.6509C45.3487 66.2856 45.8249 65.7154 45.7912 65.144C45.9081 65.185 45.8804 65.3297 45.8044 65.4334C46.5024 64.745 45.2933 63.9807 45.8044 63.3623C45.6935 63.2032 45.7285 63.0935 45.8044 62.9838C45.8044 62.997 45.8044 63.0115 45.8177 63.0248V62.9633C45.8731 62.8946 45.9358 62.8259 45.984 62.7499C45.9177 62.7982 45.8612 62.8588 45.8177 62.9283C45.8177 62.8114 45.7695 62.6257 45.6935 62.4461L46.025 62.3714C46.025 62.3714 46.025 62.3437 46.019 62.3292C46.1432 62.158 45.8599 62.1918 45.6115 62.281C45.5602 62.1911 45.4923 62.1117 45.4114 62.0471C45.9491 61.9025 45.2306 61.5794 45.8044 61.3877C45.5272 61.2708 45.5971 60.4932 45.01 60.3968C45.0859 60.3968 45.1209 60.3341 45.1281 60.4305C45.1969 60.2316 45.2583 60.0327 45.0932 59.8519L45.5151 59.7699L44.9485 59.3359C45.2041 59.0756 45.356 58.9659 45.6803 59.2274C45.1824 58.5934 45.4934 58.7175 44.9967 58.1811L45.2728 58.2088C45.2595 58.0159 44.8931 57.7133 45.1209 57.5964C45.6393 57.1697 45.1896 55.4699 45.673 54.3693C44.8653 54.5827 46.0323 53.8606 45.4102 53.8123C45.6031 53.7497 45.708 53.5917 45.8731 53.7701C45.6875 53.206 46.1769 52.9239 45.6525 52.5393C45.8454 52.4766 45.9298 52.6563 46.0467 52.6008C46.0045 52.5526 45.8804 52.4224 45.9913 52.3669C46.101 52.3115 46.1492 52.4489 46.2324 52.5393C46.1974 51.9679 45.6115 51.9052 45.0654 51.8643C45.3282 51.5749 45.2861 51.4303 44.928 51.2181C45.1064 51.1144 45.2933 50.9493 45.362 51.3073C45.3897 51.1072 45.6248 50.0825 45.1836 50.062C45.2933 49.9993 45.2173 49.7799 45.1619 49.7317C45.1896 49.2845 45.2318 49.2435 45.1896 48.7963L45.1209 48.9192C44.5893 48.748 45.004 48.5552 44.9413 48.1971H44.9967C45.3825 47.3918 44.8099 47.8536 45.2523 47.0483L44.9208 47.0893C44.2095 47.0133 45.3427 46.3744 45.0654 45.9067L44.8786 46.0779C44.6375 45.8235 45.8454 45.363 45.9358 45.1074C45.9973 45.0532 46.0323 45.1978 46.0805 45.2726C46.5024 44.5987 45.6465 45.1834 45.5501 44.6879C45.7839 44.5987 46.1432 44.8048 46.1842 44.4685C46.371 44.3034 45.4247 43.4921 45.8731 43.0303C45.6935 43.1328 45.5139 43.2293 45.3765 43.0026C45.3138 42.6446 46.06 42.0382 45.4874 41.7151C45.5356 41.6669 45.5838 41.6549 45.6248 41.6549C45.4801 41.3776 45.3837 40.7664 45.0727 40.6013C46.2179 40.3469 44.5133 38.9087 45.5693 38.9148L45.5139 38.0757L45.6248 38.0962C45.6935 37.5598 45.4379 37.3741 45.1908 37.1813C45.2583 37.0583 45.362 37.1475 45.4175 37.1608C45.632 36.3772 45.5838 36.3012 45.0582 35.6406L45.4042 35.5719C45.2041 35.3923 45.9431 34.4363 45.5416 33.6721C45.5712 33.6752 45.5998 33.6842 45.6259 33.6985C45.6519 33.7127 45.6749 33.732 45.6935 33.7552C45.2933 32.8873 46.6459 31.6842 45.397 31.3683L45.0932 30.7969C44.9967 31.5323 44.5543 30.686 44.347 30.9898C44.271 30.7005 44.7207 30.2388 44.7894 30.5968L44.7267 30.6523C45.3765 30.7825 44.9558 29.7361 45.397 29.7578C45.362 28.3052 45.7224 26.8887 45.749 25.5325L45.2451 25.6916L45.2728 25.2167C45.3897 25.0925 45.667 25.0515 45.6465 25.3879C45.9286 25.2094 45.4042 24.8237 45.2933 24.8092C45.5006 24.1498 45.8804 25.072 45.8936 24.8659L45.8599 24.5898L45.7972 24.6525C45.5898 24.4247 45.3692 24.4114 45.397 23.9979C45.5006 23.7448 45.708 23.8677 45.7285 23.764C45.7634 23.764 45.7839 23.7303 45.7417 23.6073L45.7839 23.007L45.3837 23.2481C45.1908 22.9805 45.4042 22.6839 44.9557 22.9588C45.6525 22.5537 45.2041 20.7298 45.4247 20.4827C45.1354 20.1114 45.1414 19.7473 45.1764 19.2916C45.0932 19.4025 44.6447 19.4713 44.7002 19.0795C45.6248 19.2241 45.1004 18.3634 45.7695 18.0464C45.3282 18.3284 45.6598 16.9325 45.0317 17.3797C45.1076 17.0554 45.3765 17.3592 45.5983 17.1109C45.2378 16.3333 45.8321 15.3979 45.7068 14.4347C45.5838 14.4202 45.4042 14.5793 45.2173 14.3732L45.8249 13.8633C45.7634 13.6704 45.1209 13.6909 45.5489 13.3401C45.4452 13.3883 45.2933 13.4643 45.2523 13.3401C45.8454 11.4547 44.7689 9.49454 45.8804 7.58141C45.6453 7.84301 45.6248 7.67062 45.6115 7.47171C45.5561 7.60191 45.3138 7.47171 45.1486 7.49221L45.6043 6.69417C45.1486 6.54951 45.5766 5.83344 45.1342 5.75146L45.2101 6.00583C44.6917 5.66829 44.0649 6.48079 43.4019 6.42534C43.9877 6.80387 42.5315 7.42349 43.3741 8.04191C43.2355 8.18055 43.1596 7.92498 43.0077 8.00093C43.291 8.16005 43.3524 8.3457 43.2222 8.6965L43.1523 8.65431C43.2222 9.6392 42.945 10.0647 42.7593 11.1738L43.0848 11.0906C43.0426 11.3317 42.9389 11.3799 42.8558 11.4896C43.3536 11.7645 42.8835 10.8218 43.4296 11.0701C42.7666 11.386 43.4224 12.7494 42.6629 12.9628C42.6629 13.3268 43.0426 12.8519 43.0354 13.2232L42.828 13.3196L43.0908 13.4088C43.0486 13.6499 42.7943 13.7741 42.6207 13.7813C42.6424 13.7258 42.5725 13.6161 42.5592 13.5535C42.3181 13.8633 42.6424 14.4335 42.5592 14.5384L42.6834 14.1863C42.8763 15.1845 42.6074 16.4093 43.0209 17.3725L43.174 17.2965C43.4561 18.0319 43.0004 17.8884 43.1379 18.7009L43.1041 18.6732C43.1799 18.7522 43.2383 18.8462 43.2752 18.9493C43.3122 19.0523 43.327 19.162 43.3187 19.2711C43.1379 19.0662 42.9667 19.6569 42.7666 19.3881C43.0704 20.1861 43.0077 19.7871 43.5803 20.3103L43.3259 20.4345C43.5598 20.6129 43.6779 20.6273 43.7466 21.0336C43.526 20.7033 43.3609 21.294 43.0631 20.9227C42.5038 21.7689 43.6297 22.1824 42.8075 22.5742C43.5188 22.966 43.2017 21.8389 43.3536 22.0583C43.5875 21.8726 43.8841 22.3813 43.8093 22.6429C43.7949 22.9118 42.9052 23.1034 42.9173 23.7845C42.9173 23.7158 42.869 23.7098 42.869 23.6471C42.6906 23.9027 43.1113 24.1498 42.8208 24.4596C43.25 24.638 42.7931 24.8659 43.3464 24.9129L43.2222 24.2872C43.3669 24.6453 44.0022 24.9744 43.6924 25.5602C43.5803 25.512 43.4356 25.3396 43.3524 25.2227C43.1945 25.3951 43.4561 25.553 43.2982 25.7326C42.7521 25.6844 43.1801 24.9683 42.7593 24.5898C42.5303 24.7755 43.1523 25.3059 42.5665 25.1202C43.3187 25.3951 42.47 25.7953 43.0486 26.2558L42.7244 26.2281C42.7726 26.304 42.9317 26.4547 42.9245 26.5849L42.4965 26.3438C42.8558 26.7163 42.1795 27.0671 42.3796 27.4251C42.3724 26.6753 42.7726 27.26 43.0149 26.9369C43.4561 27.8652 42.159 27.4673 42.3169 28.5041C42.2687 28.3679 42.517 27.9749 42.6629 28.1955C42.593 28.3956 42.47 28.6572 42.2964 28.7741C42.3651 29.4612 42.634 28.6704 42.8353 28.9597C42.4351 29.1936 43.0004 29.2973 43.1246 29.5987H42.7931C42.5797 30.3834 43.4923 29.806 43.2283 30.5148L42.7666 30.2183L42.8835 30.5836L42.5038 30.5076C42.7871 30.9054 42.7111 31.0308 42.6074 31.4226C42.8425 31.3334 43.215 31.4708 43.2222 31.8216C43.0221 32.0555 42.904 31.6914 42.9522 32.1796C42.7449 32.0699 42.4821 31.9458 42.7871 31.7324C42.6761 31.7119 42.5797 31.6227 42.4688 31.601C42.241 31.8554 42.4133 32.2411 42.4206 32.4207C42.435 32.3508 42.4483 32.2688 42.4965 32.2279L42.9594 32.9427C42.8353 33.0536 42.7304 32.9632 42.634 32.8812C42.6701 33.0259 42.8208 33.1223 42.8558 33.3357C42.5869 33.2803 42.3036 33.2935 42.1795 32.9909L42.4833 33.6721C42.3651 33.7203 42.1578 34.0229 42.0613 33.9336C41.9034 34.3122 42.5869 34.8559 42.3796 35.3585C42.435 35.3863 42.4833 35.4345 42.5243 35.5442C42.4628 36.0119 42.1313 36.4314 42.5038 36.9824L42.0204 37.2982C42.1313 37.7322 42.6352 36.8714 42.8148 37.5947C42.9667 38.1107 42.4001 37.7876 42.2615 37.966C42.5026 38.2204 43.0089 38.6676 42.6074 39.1354C42.517 38.9775 42.5869 38.8605 42.552 38.7086L42.5785 38.7291ZM42.7931 44.096C42.7244 43.9935 42.511 43.7862 42.7039 43.7102C43.0836 43.8284 42.9028 43.9248 42.7931 44.096ZM43.5947 52.2572C43.4838 52.1813 43.5393 52.0571 43.6635 51.9269C43.6912 52.0234 43.6779 52.1319 43.5947 52.2572ZM45.9153 74.9966L45.9009 74.9833C46.0335 74.7495 45.9768 74.8314 45.9153 74.9966ZM45.7707 75.4788C45.8189 75.527 45.8599 75.527 45.9081 75.5065C45.8249 75.4716 45.8177 75.3619 45.8394 75.2377C45.749 75.2727 45.6947 75.3341 45.7634 75.4788H45.7707ZM45.6381 23.7231L45.5489 23.8195C45.4524 23.6061 45.5404 23.6688 45.6381 23.7231Z" fill="#F9CF01"/>
<path d="M43.1391 51.3351C43.196 51.3106 43.2568 51.2963 43.3187 51.2929C43.2632 51.2519 43.2018 51.2519 43.1391 51.3351ZM42.4073 35.3851V35.3706C42.3874 35.3625 42.3662 35.3576 42.3447 35.3562L42.4001 35.3923L42.4073 35.3851ZM42.9462 68.0108C42.985 67.9319 43.0446 67.8652 43.1186 67.8179C43.0354 67.8179 42.9667 67.8601 42.9462 68.0108ZM46.3373 78.0309L46.2469 77.7211C46.2613 77.8729 46.1914 77.9212 46.1372 77.9971C46.2131 77.9971 46.33 77.9284 46.33 78.0248L46.3373 78.0309ZM44.2795 80.7143C44.3205 80.7625 44.2795 80.8108 44.3277 80.8517L44.4796 80.8385C44.4736 80.6456 44.3422 80.5142 44.2795 80.7071V80.7143ZM45.2306 78.319C44.9473 78.3467 45.045 78.5396 45.1004 78.753V78.712C45.4946 78.7735 45.3632 78.5468 45.2318 78.3117L45.2306 78.319ZM45.1077 78.8024C45.1236 78.8675 45.1261 78.9352 45.1149 79.0013C45.274 79.029 45.1499 78.9193 45.1077 78.8024ZM45.9563 76.0888C45.8876 76.1925 46.3168 76.1515 46.1986 76.213C46.5579 76.3311 45.7695 75.5307 45.9563 76.0888ZM44.306 78.4914L44.6508 78.4154L44.3735 78.2973L44.306 78.4914ZM44.5616 76.7844L44.4651 77.1279C44.5206 77.1279 44.5543 77.1701 44.5821 77.2184C44.5965 77.0038 44.6664 76.7699 44.5616 76.7771V76.7844ZM44.5821 77.2244C44.5821 77.3341 44.5821 77.4378 44.6375 77.5005C44.6368 77.4053 44.618 77.3112 44.5821 77.2232V77.2244ZM44.2035 78.0224L44.2795 77.92L44.3 77.6716L44.2035 78.0224ZM44.6327 73.0678L44.5363 72.6893C44.4181 72.6483 44.3422 72.7508 44.3904 72.8966C44.4736 72.9859 44.523 73.1233 44.6327 73.0678ZM43.6779 74.2118C43.7479 74.107 43.831 74.1009 43.9407 74.0455L43.5128 74.0322L43.6779 74.2118ZM43.5815 73.1112C43.4646 73.0775 43.2428 72.5603 43.2632 73.0425C43.3814 73.0835 43.4778 73.456 43.5815 73.1112ZM44.1264 67.4345V67.5237L44.8304 67.5105L44.1264 67.4345ZM42.4411 62.4245C42.2747 62.8705 42.8751 62.5269 42.6617 62.9332C42.8281 63.0369 42.8341 62.6029 42.98 62.7126C42.8064 62.445 42.904 62.3015 42.4411 62.4245ZM42.9824 62.7066C43.0101 62.7475 43.0438 62.7958 43.086 62.844C43.061 62.7917 43.0258 62.745 42.9824 62.7066ZM45.9985 6.17704L46.1432 5.89495L45.9081 6.0806L45.9985 6.17704ZM45.4729 5.62733L45.9226 5.55862L45.5151 5.38623C45.5356 5.44892 45.5694 5.57911 45.4729 5.62733ZM41.889 44.8941L41.9999 44.9146C42.1168 44.8736 42.124 44.8037 42.1445 44.6662L41.8962 44.8941H41.889ZM42.2277 40.9991L42.2205 41.0678L42.6219 40.9364L42.2277 40.9991ZM41.7106 37.7226C41.6961 37.854 41.7865 38.0119 41.766 38.1493C41.6901 37.86 42.2157 37.6876 41.7106 37.7226Z" fill="#F9CF01"/>
</g>
</g>
</g>
<defs>
<clipPath id="clip0_127_1048">
<rect width="88" height="96" fill="white" transform="translate(0 0.519531)"/>
</clipPath>
<clipPath id="clip1_127_1048">
<rect width="88" height="96.43" fill="white" transform="translate(0 0.519531)"/>
</clipPath>
<clipPath id="clip2_127_1048">
<rect width="88" height="96.43" fill="white" transform="translate(0 0.519531)"/>
</clipPath>
</defs>
</svg>
