<svg width="22" height="23" viewBox="0 0 22 23" fill="none" xmlns="http://www.w3.org/2000/svg">
<path d="M19.9803 7.19709L8.9803 18.1971C8.8845 18.2932 8.77066 18.3695 8.64531 18.4216C8.51995 18.4736 8.38556 18.5004 8.24984 18.5004C8.11411 18.5004 7.97972 18.4736 7.85437 18.4216C7.72902 18.3695 7.61517 18.2932 7.51937 18.1971L2.70687 13.3846C2.61094 13.2887 2.53485 13.1748 2.48293 13.0494C2.43102 12.9241 2.4043 12.7898 2.4043 12.6541C2.4043 12.5185 2.43102 12.3841 2.48293 12.2588C2.53485 12.1335 2.61094 12.0196 2.70687 11.9237C2.80279 11.8277 2.91667 11.7516 3.04201 11.6997C3.16734 11.6478 3.30168 11.6211 3.43734 11.6211C3.573 11.6211 3.70733 11.6478 3.83266 11.6997C3.958 11.7516 4.07188 11.8277 4.1678 11.9237L8.2507 16.0065L18.5211 5.73787C18.7148 5.54414 18.9776 5.4353 19.2516 5.4353C19.5255 5.4353 19.7883 5.54414 19.982 5.73787C20.1758 5.9316 20.2846 6.19436 20.2846 6.46834C20.2846 6.74232 20.1758 7.00508 19.982 7.19881L19.9803 7.19709Z" fill="black"/>
</svg>
