<svg width="141" height="26" viewBox="0 0 141 26" fill="none" xmlns="http://www.w3.org/2000/svg">
<mask id="mask0_127_448" style="mask-type:luminance" maskUnits="userSpaceOnUse" x="1" y="0" width="140" height="26">
<path d="M1.5 0.5H140.5V25.5H1.5V0.5Z" fill="white"/>
</mask>
<g mask="url(#mask0_127_448)">
<path d="M29.409 7.48C24.385 7.48 20.46 11.339 20.46 16.506C20.46 21.672 24.286 25.499 29.409 25.499C34.531 25.499 38.424 21.606 38.424 16.473C38.424 11.372 34.598 7.48 29.409 7.48ZM29.443 21.775C26.582 21.775 24.486 19.527 24.486 16.507C24.486 13.453 26.548 11.206 29.409 11.206C32.303 11.206 34.398 13.487 34.398 16.506C34.398 19.526 32.303 21.775 29.443 21.775ZM39.521 11.406H42.016V25.165H46.008V7.815H39.521V11.406ZM10.415 11.204C12.511 11.204 14.174 12.513 14.805 14.459H19.031C18.265 10.299 14.872 7.479 10.449 7.479C5.425 7.48 1.5 11.34 1.5 16.508C1.5 21.676 5.326 25.501 10.449 25.501C14.773 25.501 18.232 22.682 18.998 18.487H14.805C14.207 20.433 12.544 21.777 10.447 21.777C7.553 21.777 5.524 19.527 5.524 16.507C5.526 13.454 7.521 11.204 10.415 11.204ZM115.364 14.829L112.437 14.393C111.04 14.193 110.042 13.723 110.042 12.614C110.042 11.406 111.34 10.803 113.103 10.803C115.032 10.803 116.263 11.641 116.529 13.017H120.388C119.955 9.527 117.294 7.481 113.203 7.481C108.978 7.481 106.184 9.662 106.184 12.749C106.184 15.701 108.014 17.414 111.705 17.95L114.633 18.386C116.064 18.586 116.862 19.158 116.862 20.232C116.862 21.608 115.465 22.178 113.536 22.178C111.173 22.178 109.843 21.205 109.643 19.728H105.718C106.085 23.118 108.712 25.5 113.502 25.5C117.86 25.5 120.753 23.486 120.753 20.03C120.753 16.943 118.658 15.332 115.364 14.829ZM44.012 0.668C42.549 0.668 41.45 1.741 41.45 3.218C41.45 4.694 42.547 5.767 44.012 5.767C45.476 5.767 46.574 4.694 46.574 3.217C46.574 1.741 45.476 0.668 44.012 0.668ZM102.591 13.755C102.591 9.997 100.329 7.481 95.539 7.481C91.016 7.481 88.487 9.797 87.988 13.354H91.947C92.146 11.978 93.211 10.837 95.473 10.837C97.503 10.837 98.5 11.743 98.5 12.851C98.5 14.294 96.67 14.662 94.408 14.897C91.348 15.233 87.556 16.307 87.556 20.333C87.556 23.455 89.852 25.467 93.511 25.467C96.372 25.467 98.168 24.259 99.067 22.346C99.2 24.056 100.464 25.165 102.227 25.165H104.556V21.575H102.593V13.755H102.591ZM98.666 18.118C98.666 20.434 96.67 22.145 94.241 22.145C92.744 22.145 91.48 21.507 91.48 20.165C91.48 18.455 93.51 17.985 95.372 17.784C97.169 17.616 98.167 17.214 98.666 16.441V18.118ZM77.477 7.48C75.247 7.48 73.385 8.42 72.054 9.996V0.5H68.062V25.165H71.987V22.883C73.318 24.527 75.215 25.5 77.477 25.5C82.267 25.5 85.893 21.675 85.893 16.507C85.893 11.339 82.2 7.48 77.477 7.48ZM76.878 21.775C74.017 21.775 71.921 19.527 71.921 16.507C71.921 13.487 74.05 11.206 76.911 11.206C79.805 11.206 81.834 13.454 81.834 16.506C81.834 19.526 79.739 21.775 76.878 21.775ZM58.515 7.48C55.921 7.48 54.223 8.553 53.226 10.063V7.815H49.267V25.163H53.258V15.735C53.258 13.083 54.921 11.205 57.383 11.205C59.679 11.205 61.108 12.848 61.108 15.231V25.165H65.1V14.93C65.101 10.567 62.873 7.48 58.515 7.48ZM139.781 15.937C139.781 10.971 136.189 7.481 131.365 7.481C126.242 7.481 122.483 11.373 122.483 16.507C122.483 21.91 126.508 25.5 131.431 25.5C135.59 25.5 138.85 23.016 139.681 19.494H135.522C134.923 21.037 133.46 21.91 131.497 21.91C128.935 21.91 127.006 20.299 126.574 17.48H139.78V15.937H139.781ZM126.807 14.594C127.44 12.177 129.236 11.004 131.298 11.004C133.56 11.004 135.29 12.312 135.689 14.594H126.807Z" fill="#A3A3A3"/>
</g>
</svg>
