<svg width="115" height="22" viewBox="0 0 115 22" fill="none" xmlns="http://www.w3.org/2000/svg">
<g clip-path="url(#clip0_127_321)">
<mask id="mask0_127_321" style="mask-type:luminance" maskUnits="userSpaceOnUse" x="0" y="0" width="115" height="22">
<path d="M0.5 0H114.5V22H0.5V0Z" fill="white"/>
</mask>
<g mask="url(#mask0_127_321)">
<mask id="mask1_127_321" style="mask-type:luminance" maskUnits="userSpaceOnUse" x="0" y="0" width="115" height="22">
<path d="M0.5 0H114.5V22H0.5V0Z" fill="white"/>
</mask>
<g mask="url(#mask1_127_321)">
<path d="M7.722 21.661H3.426V10.984H0.5V7.507H3.426V5.034C3.426 2.102 4.72 0 9.004 0C9.91 0 11.333 0.182 11.333 0.182V3.41H9.839C8.317 3.41 7.722 3.872 7.722 5.148V7.507H11.276L10.96 10.984H7.722V21.661ZM17.578 7.229C17.516 7.229 17.451 7.232 17.388 7.233C13.404 7.233 11.582 10.221 11.582 14.461C11.582 19.804 13.946 21.942 17.419 21.942C19.406 21.942 20.711 21.108 21.505 19.552V21.662H25.59V7.509H21.505V9.685C20.857 8.285 19.515 7.246 17.578 7.229ZM18.617 10.574C20.29 10.574 21.294 11.737 21.294 13.717L21.298 15.738C21.298 17.072 20.469 18.632 18.617 18.632C15.771 18.632 15.847 15.568 15.847 14.547C15.847 11.113 17.363 10.574 18.617 10.574ZM27.24 14.586C27.24 12.866 27.158 7.239 34.511 7.239C37.463 7.239 38.696 8.174 38.696 8.174L37.705 11.238C37.705 11.238 36.474 10.562 34.87 10.562C32.816 10.562 31.505 11.75 31.505 13.839L31.507 15.337C31.507 17.345 32.772 18.685 34.874 18.685C36.335 18.685 37.682 18.003 37.682 18.003L38.67 21.003C38.67 21.003 37.543 21.944 34.532 21.944C27.53 21.944 27.24 16.895 27.24 14.586ZM62.652 7.233C66.635 7.233 68.486 10.221 68.486 14.461C68.486 19.804 66.122 21.942 62.649 21.942C60.663 21.942 59.194 21.108 58.4 19.552V21.662L54.366 21.661V0.43L58.649 0.058V9.494C59.268 7.843 61.299 7.233 62.652 7.233ZM61.451 10.574C59.778 10.574 58.649 11.737 58.649 13.717L58.645 15.738C58.643 17.072 59.427 18.632 61.451 18.632C64.298 18.632 64.222 15.568 64.222 14.547C64.222 11.113 62.705 10.574 61.451 10.574ZM46.128 7.245C41.61 7.245 39.225 9.701 39.225 14.066V14.877C39.225 20.542 42.574 22 46.567 22C50.449 22 52.206 20.918 52.206 20.918L51.404 18.035C51.404 18.035 49.337 18.912 47.081 18.912C44.742 18.912 43.736 18.317 43.478 16.076H52.548V13.763C52.548 9.028 49.871 7.245 46.128 7.245ZM46.237 10.132C47.8 10.132 48.814 11.088 48.758 13.305H43.486C43.577 10.971 44.67 10.132 46.237 10.132ZM77.027 7.226C72.388 7.226 69.945 9.832 69.945 14.504C69.945 20.914 74.156 21.946 77.035 21.946C81.25 21.946 84.055 19.683 84.055 14.562C84.055 9.233 80.901 7.226 77.027 7.226ZM76.969 10.586C79.009 10.586 79.817 12.108 79.817 13.841V15.331C79.817 17.43 78.686 18.644 76.961 18.644C75.348 18.644 74.214 17.508 74.214 15.331V13.841C74.214 11.518 75.563 10.586 76.969 10.586ZM92.588 7.226C87.949 7.226 85.506 9.832 85.506 14.504C85.506 20.914 89.716 21.946 92.596 21.946C96.811 21.946 99.615 19.683 99.615 14.562C99.615 9.233 96.462 7.226 92.588 7.226ZM92.53 10.586C94.57 10.586 95.378 12.108 95.378 13.841V15.331C95.378 17.43 94.247 18.644 92.522 18.644C90.909 18.644 89.775 17.508 89.775 15.331V13.841C89.775 11.518 91.124 10.586 92.53 10.586ZM101.234 21.661V0.43L105.53 0.058V14.288L109.792 7.507H114.329L109.883 14.53L114.5 21.661H109.95L105.53 14.737V21.661H101.234Z" fill="#A3A3A3"/>
</g>
</g>
</g>
<defs>
<clipPath id="clip0_127_321">
<rect width="115" height="22" fill="white"/>
</clipPath>
</defs>
</svg>
