<svg width="31" height="38" viewBox="0 0 31 38" fill="none" xmlns="http://www.w3.org/2000/svg">
<path d="M30.4023 18.4288L16.6523 0.928786C16.5354 0.779957 16.3861 0.659635 16.2159 0.576898C16.0456 0.494162 15.8588 0.451172 15.6695 0.451172C15.4802 0.451172 15.2934 0.494162 15.1232 0.576898C14.9529 0.659635 14.8037 0.779957 14.6867 0.928786L0.936708 18.4288C0.763867 18.6489 0.669922 18.9208 0.669922 19.2007C0.669922 19.4806 0.763867 19.7524 0.936708 19.9725L14.6867 37.4725C14.8037 37.6214 14.9529 37.7417 15.1232 37.8244C15.2934 37.9072 15.4802 37.9501 15.6695 37.9501C15.8588 37.9501 16.0456 37.9072 16.2159 37.8244C16.3861 37.7417 16.5354 37.6214 16.6523 37.4725L30.4023 19.9725C30.5752 19.7524 30.6691 19.4806 30.6691 19.2007C30.6691 18.9208 30.5752 18.6489 30.4023 18.4288ZM16.9195 5.31472L27.4539 18.721L16.9195 23.51V5.31472ZM14.4195 23.51L3.88515 18.721L14.4195 5.31472V23.51ZM14.4195 26.2553V33.0866L6.07108 22.4616L14.4195 26.2553ZM16.9195 26.2553L25.268 22.46L16.9195 33.085V26.2553Z" fill="black"/>
</svg>
