<svg width="39" height="18" viewBox="0 0 39 18" fill="none" xmlns="http://www.w3.org/2000/svg">
<path d="M38.09 9.19985C38.0901 10.9305 37.577 12.6224 36.6156 14.0614C35.6541 15.5005 34.2875 16.6221 32.6886 17.2844C31.0896 17.9467 29.3302 18.12 27.6328 17.7823C25.9354 17.4446 24.3762 16.6112 23.1525 15.3874L23.1009 15.3327L13.7337 4.75454C12.8568 3.88781 11.743 3.29985 10.5327 3.06463C9.3223 2.82942 8.0694 2.95746 6.93165 3.43266C5.79389 3.90786 4.82211 4.70897 4.13859 5.73518C3.45508 6.76139 3.09037 7.96685 3.09037 9.19985C3.09037 10.4329 3.45508 11.6383 4.13859 12.6645C4.82211 13.6907 5.79389 14.4919 6.93165 14.967C8.0694 15.4422 9.3223 15.5703 10.5327 15.3351C11.743 15.0999 12.8568 14.5119 13.7337 13.6452L15.065 12.142C15.1738 12.0189 15.3059 11.9185 15.4536 11.8464C15.6012 11.7743 15.7617 11.732 15.9257 11.7219C16.0897 11.7118 16.2541 11.7341 16.4095 11.7876C16.5649 11.8411 16.7083 11.9246 16.8314 12.0334C16.9545 12.1423 17.055 12.2743 17.1271 12.422C17.1992 12.5697 17.2414 12.7301 17.2515 12.8942C17.2616 13.0582 17.2393 13.2226 17.1858 13.378C17.1324 13.5334 17.0488 13.6767 16.94 13.7999L15.5822 15.3327L15.5306 15.3874C14.3069 16.611 12.7478 17.4442 11.0505 17.7818C9.35315 18.1193 7.59387 17.946 5.99506 17.2837C4.39626 16.6214 3.02975 15.4999 2.06833 14.061C1.10691 12.6221 0.59375 10.9304 0.59375 9.19985C0.59375 7.46931 1.10691 5.77762 2.06833 4.33871C3.02975 2.8998 4.39626 1.77829 5.99506 1.11599C7.59387 0.4537 9.35315 0.280369 11.0505 0.617918C12.7478 0.955466 14.3069 1.78873 15.5306 3.01235L15.5822 3.06704L24.9494 13.6452C25.8263 14.5119 26.9401 15.0999 28.1505 15.3351C29.3608 15.5703 30.6137 15.4422 31.7515 14.967C32.8892 14.4919 33.861 13.6907 34.5445 12.6645C35.228 11.6383 35.5927 10.4329 35.5927 9.19985C35.5927 7.96685 35.228 6.76139 34.5445 5.73518C33.861 4.70897 32.8892 3.90786 31.7515 3.43266C30.6137 2.95746 29.3608 2.82942 28.1505 3.06463C26.9401 3.29985 25.8263 3.88781 24.9494 4.75454L23.6181 6.25767C23.3983 6.50631 23.0887 6.65743 22.7574 6.6778C22.4261 6.69816 22.1004 6.5861 21.8517 6.36626C21.6031 6.14642 21.4519 5.83681 21.4316 5.50555C21.4112 5.17428 21.5233 4.84849 21.7431 4.59985L23.1009 3.06704L23.1525 3.01235C24.3762 1.78852 25.9354 0.955059 27.6328 0.617386C29.3302 0.279713 31.0896 0.452994 32.6886 1.11531C34.2875 1.77763 35.6541 2.89924 36.6156 4.33828C37.577 5.77733 38.0901 7.46918 38.09 9.19985Z" fill="black"/>
</svg>
