<svg width="34" height="28" viewBox="0 0 34 28" fill="none" xmlns="http://www.w3.org/2000/svg">
<path d="M33.25 26.7002C33.25 27.0317 33.1183 27.3497 32.8839 27.5841C32.6495 27.8185 32.3315 27.9502 32 27.9502H2C1.66848 27.9502 1.35054 27.8185 1.11612 27.5841C0.881696 27.3497 0.75 27.0317 0.75 26.7002V1.7002C0.75 1.36867 0.881696 1.05073 1.11612 0.816312C1.35054 0.581892 1.66848 0.450195 2 0.450195C2.33152 0.450195 2.64946 0.581892 2.88388 0.816312C3.1183 1.05073 3.25 1.36867 3.25 1.7002V25.4502H32C32.3315 25.4502 32.6495 25.5819 32.8839 25.8163C33.1183 26.0507 33.25 26.3687 33.25 26.7002ZM17.625 19.2002C17.9958 19.2002 18.3584 19.0902 18.6667 18.8842C18.975 18.6782 19.2154 18.3853 19.3573 18.0427C19.4992 17.7001 19.5363 17.3231 19.464 16.9594C19.3916 16.5957 19.213 16.2616 18.9508 15.9994C18.6886 15.7371 18.3545 15.5586 17.9908 15.4862C17.6271 15.4139 17.2501 15.451 16.9075 15.5929C16.5649 15.7348 16.272 15.9752 16.066 16.2835C15.86 16.5918 15.75 16.9544 15.75 17.3252C15.75 17.8225 15.9475 18.2994 16.2992 18.651C16.6508 19.0027 17.1277 19.2002 17.625 19.2002ZM13.875 10.4502C14.2458 10.4502 14.6084 10.3402 14.9167 10.1342C15.225 9.92817 15.4654 9.63534 15.6073 9.29273C15.7492 8.95012 15.7863 8.57311 15.714 8.2094C15.6416 7.84569 15.463 7.51159 15.2008 7.24937C14.9386 6.98715 14.6045 6.80857 14.2408 6.73622C13.8771 6.66388 13.5001 6.70101 13.1575 6.84292C12.8149 6.98484 12.522 7.22516 12.316 7.5335C12.11 7.84184 12 8.20436 12 8.5752C12 9.07248 12.1975 9.54939 12.5492 9.90102C12.9008 10.2527 13.3777 10.4502 13.875 10.4502ZM8.875 21.7002C9.24584 21.7002 9.60835 21.5902 9.91669 21.3842C10.225 21.1782 10.4654 20.8853 10.6073 20.5427C10.7492 20.2001 10.7863 19.8231 10.714 19.4594C10.6416 19.0957 10.463 18.7616 10.2008 18.4994C9.9386 18.2371 9.60451 18.0586 9.2408 17.9862C8.87708 17.9139 8.50008 17.951 8.15747 18.0929C7.81486 18.2348 7.52202 18.4752 7.31599 18.7835C7.10997 19.0918 7 19.4544 7 19.8252C7 20.3225 7.19754 20.7994 7.54917 21.151C7.90081 21.5027 8.37772 21.7002 8.875 21.7002ZM23.875 14.2002C24.2458 14.2002 24.6084 14.0902 24.9167 13.8842C25.225 13.6782 25.4654 13.3853 25.6073 13.0427C25.7492 12.7001 25.7863 12.3231 25.714 11.9594C25.6416 11.5957 25.463 11.2616 25.2008 10.9994C24.9386 10.7371 24.6045 10.5586 24.2408 10.4862C23.8771 10.4139 23.5001 10.451 23.1575 10.5929C22.8149 10.7348 22.522 10.9752 22.316 11.2835C22.11 11.5918 22 11.9544 22 12.3252C22 12.8225 22.1975 13.2994 22.5492 13.651C22.9008 14.0027 23.3777 14.2002 23.875 14.2002ZM27.625 7.9502C27.9958 7.9502 28.3584 7.84023 28.6667 7.6342C28.975 7.42817 29.2154 7.13534 29.3573 6.79273C29.4992 6.45012 29.5363 6.07311 29.464 5.7094C29.3916 5.34569 29.213 5.01159 28.9508 4.74937C28.6886 4.48715 28.3545 4.30857 27.9908 4.23622C27.6271 4.16388 27.2501 4.20101 26.9075 4.34292C26.5649 4.48484 26.272 4.72516 26.066 5.0335C25.86 5.34184 25.75 5.70436 25.75 6.0752C25.75 6.57248 25.9475 7.04939 26.2992 7.40102C26.6508 7.75265 27.1277 7.9502 27.625 7.9502ZM24.5 19.8252C24.5 20.196 24.61 20.5585 24.816 20.8669C25.022 21.1752 25.3149 21.4156 25.6575 21.5575C26.0001 21.6994 26.3771 21.7365 26.7408 21.6642C27.1045 21.5918 27.4386 21.4132 27.7008 21.151C27.963 20.8888 28.1416 20.5547 28.214 20.191C28.2863 19.8273 28.2492 19.4503 28.1073 19.1077C27.9654 18.7651 27.725 18.4722 27.4167 18.2662C27.1084 18.0602 26.7458 17.9502 26.375 17.9502C25.8777 17.9502 25.4008 18.1477 25.0492 18.4994C24.6975 18.851 24.5 19.3279 24.5 19.8252Z" fill="black"/>
</svg>
