<svg width="98" height="32" viewBox="0 0 98 32" fill="none" xmlns="http://www.w3.org/2000/svg">
<mask id="mask0_127_368" style="mask-type:luminance" maskUnits="userSpaceOnUse" x="0" y="0" width="153" height="32">
<path d="M0.519531 0.5H152.479V31.5H0.519531V0.5Z" fill="white"/>
</mask>
<g mask="url(#mask0_127_368)">
<mask id="mask1_127_368" style="mask-type:luminance" maskUnits="userSpaceOnUse" x="0" y="0" width="153" height="32">
<path d="M0.519531 0.5H152.479V31.5H0.519531V0.5Z" fill="white"/>
</mask>
<g mask="url(#mask1_127_368)">
<path d="M105.352 8.33398C103.001 8.33398 100.674 10.445 100.425 13.467V8.57798H97.0354V23.333H100.47V16.2C100.47 14.2 101.917 11.378 105.374 11.378V8.33398H105.352ZM141.353 20.977V10.867H143.342C145.986 10.867 148.156 12.489 148.156 15.844C148.156 19.177 146.009 20.977 143.342 20.977H141.353ZM137.941 23.333H143.748C147.319 23.333 151.704 21.044 151.704 15.844C151.704 10.711 147.319 8.59999 143.748 8.59999H137.941V23.333ZM124.946 16C124.946 13.311 126.347 11.111 128.675 11.111C130.912 11.111 132.155 13.311 132.155 16C132.155 18.688 130.912 20.888 128.675 20.888C126.37 20.888 124.946 18.688 124.946 16ZM121.465 16.155C121.465 20.555 123.793 23.644 127.431 23.644C130.076 23.644 131.658 21.933 132.494 19.155V23.333H135.884V8.57798H132.494V12.489C131.749 9.88899 130.167 8.33398 127.68 8.33398C123.951 8.35598 121.465 11.689 121.465 16.155ZM44.1068 23.666C39.88 23.666 37.3945 20.333 37.3945 16.178C37.3945 11.867 40.1288 8.35598 45.3495 8.35598C50.7284 8.35598 52.5592 11.933 52.6498 13.978H48.7623C48.6718 12.844 47.6778 11.133 45.2818 11.133C42.7058 11.133 41.0561 13.333 41.0561 16.022C41.0561 18.711 42.7058 20.911 45.2818 20.911C47.6091 20.911 48.6041 19.111 49.0111 17.333H45.2818V15.866H53.1015V23.333H49.6658V18.6C49.417 20.311 48.3325 23.666 44.1068 23.666ZM60.0625 23.666C56.8307 23.666 54.8417 21.555 54.8417 17.311V8.59999H58.3222V17.311C58.3222 19.511 59.4068 20.577 61.2147 20.577C64.7857 20.577 66.0961 16.266 66.0961 13.244V8.59999H69.5766V23.333H66.1866V17.866C65.5309 20.888 63.7001 23.666 60.0625 23.666ZM90.3908 8.33398C87.4307 8.33398 85.5541 11.156 84.9442 13.755C84.8308 10.267 83.0916 8.33398 80.2887 8.33398C77.8708 8.33398 75.6331 10.445 75.0461 13.8V8.57798H71.6561V23.333H75.0908V18.044C75.0908 16.733 75.656 11.356 79.1136 11.356C81.3513 11.356 81.5772 13.333 81.5772 16.066V23.333H85.0119V18.044C85.0119 16.733 85.5999 11.356 89.0575 11.356C91.2953 11.356 91.5211 13.333 91.5211 16.066V23.333H94.9558V14.6C94.9787 10.422 93.4643 8.33398 90.3908 8.33398ZM112.719 8.33398C108.267 8.33398 105.261 11.756 105.261 16C105.261 20.666 108.132 23.666 112.719 23.666C117.171 23.666 120.245 20.244 120.245 16C120.223 11.333 117.307 8.33398 112.719 8.33398ZM112.719 21.044C110.121 21.044 108.448 18.888 108.448 16C108.448 13.111 110.121 10.956 112.719 10.956C115.295 10.956 116.923 13.111 116.923 16C116.923 18.888 115.295 21.044 112.719 21.044Z" fill="#A3A3A3"/>
<path d="M1.4668 15.9998C1.4668 8.39979 7.72523 2.23779 15.4429 2.23779C23.1616 2.23779 29.419 8.39979 29.419 15.9998C29.419 23.5998 23.1616 29.7618 15.4429 29.7618C7.72523 29.7618 1.4668 23.5998 1.4668 15.9998Z" stroke="#A3A3A3" stroke-width="1.60172" stroke-miterlimit="10"/>
<path d="M14.2271 22.9179C10.1263 22.9179 7.73242 19.7019 7.73242 15.6629C7.73242 11.4749 10.3927 8.10889 15.4428 8.10889C20.6458 8.10889 22.4308 11.5869 22.5068 13.5319H18.7474C18.6714 12.4099 17.7222 10.7639 15.3668 10.7639C12.899 10.7639 11.266 12.8959 11.266 15.4759C11.266 18.0939 12.8605 20.1879 15.3668 20.1879C17.6077 20.1879 18.5954 18.4679 18.9753 16.7099H15.3293V15.2899H22.9242V22.5439H19.5821V17.9819C19.3531 19.7019 18.3279 22.9179 14.2271 22.9179Z" fill="#A3A3A3"/>
</g>
</g>
</svg>
