<svg width="107" height="24" viewBox="0 0 107 24" fill="none" xmlns="http://www.w3.org/2000/svg">
<mask id="mask0_127_334" style="mask-type:luminance" maskUnits="userSpaceOnUse" x="0" y="0" width="107" height="24">
<path d="M0.5 0H106.5V24H0.5V0Z" fill="white"/>
</mask>
<g mask="url(#mask0_127_334)">
<path d="M93.546 0C86.828 0 81.373 5.37 81.373 12C81.373 18.63 86.828 24 93.546 24C100.264 24 105.72 18.63 105.72 12C105.72 5.37 100.264 0 93.546 0ZM0.5 0.963V4.852H9.593V19.185H0.5V23.075H22.62V19.185H13.564V4.852H22.62V0.962L0.5 0.963ZM28.485 0.963V23.036H39.099C45.966 22.962 50.679 18.148 50.679 11.963C50.679 5.853 46.04 1.148 39.285 0.963H28.485ZM55.504 0.963V23.074H77.847V19.185H59.512V13.963H73.802V10.073H59.512V4.853H77.847V0.962L55.504 0.963ZM93.546 4.185C97.926 4.185 101.526 7.704 101.526 12.037C101.526 16.37 97.926 19.888 93.546 19.888C89.167 19.888 85.567 16.37 85.567 12.037C85.567 7.704 89.13 4.185 93.546 4.185ZM32.456 4.778H39.173C43.516 4.889 46.374 7.926 46.374 12.037C46.337 16.185 43.479 19.185 39.099 19.259H32.456V4.778Z" fill="#A3A3A3"/>
</g>
</svg>
