<svg width="290" height="17" viewBox="0 0 290 17" fill="none" xmlns="http://www.w3.org/2000/svg">
<g clip-path="url(#clip0_127_1281)">
<mask id="mask0_127_1281" style="mask-type:luminance" maskUnits="userSpaceOnUse" x="0" y="0" width="290" height="17">
<path d="M289.5 0.200195H0.5V16.2002H289.5V0.200195Z" fill="white"/>
</mask>
<g mask="url(#mask0_127_1281)">
<path d="M289.162 1.91753C289.586 1.96729 289.433 1.44474 289.501 1.34521C288.789 1.46134 289.179 2.05024 289.162 1.91753Z" fill="#F9CF01"/>
<path d="M282.111 3.09506L282.238 2.8877L281.195 3.41025L282.111 3.09506Z" fill="#F9CF01"/>
<path d="M275.518 3.08617C276.144 3.97367 277.907 2.94516 279.076 3.26035L279.272 3.45941L279.806 2.74609C278.382 2.86222 276.526 3.335 275.518 3.08617Z" fill="#F9CF01"/>
<path d="M272.001 1.16259C272.221 1.51096 271.238 1.4612 272.823 1.27042C272.746 1.22895 272.721 1.21236 272.671 1.17918C272.526 1.17918 272.331 1.17918 272.001 1.1543V1.16259Z" fill="#F9CF01"/>
<path d="M272.669 1.18796C272.212 0.89765 273.365 1.16307 272.669 1.18796V1.18796Z" fill="#F9CF01"/>
<path d="M269.467 1.39496L270.382 1.07977C270.187 0.872412 269.373 0.83094 269.678 0.681641C268.738 0.855824 268.933 1.05489 269.467 1.38667V1.39496Z" fill="#F9CF01"/>
<path d="M268.602 2.04084L269.076 1.90814C268.991 1.82519 268.864 1.79201 268.602 2.04084Z" fill="#F9CF01"/>
<path d="M270.077 1.63574L269.068 1.91776C269.203 2.05876 269.212 2.34907 269.526 1.81822C269.441 2.08364 269.644 1.82652 270.068 1.63574H270.077Z" fill="#F9CF01"/>
<path d="M270.645 1.76782C271.161 1.9586 271.823 2.07472 270.907 2.3899C272.653 2.26549 272.399 1.64341 270.645 1.76782Z" fill="#F9CF01"/>
<path d="M275.187 4.0078L275.873 4.26493L276.466 3.96633C276.17 4.11563 275.144 3.72579 275.187 4.0078Z" fill="#F9CF01"/>
<path d="M263.762 0.955566C263.703 1.14634 264.076 1.46153 264.144 1.70207L264.822 1.48641C264.474 1.36199 263.813 1.24587 263.771 0.963861L263.762 0.955566Z" fill="#F9CF01"/>
<path d="M264.145 1.70215L263.137 2.03393C264.043 2.06711 264.205 1.90951 264.145 1.70215Z" fill="#F9CF01"/>
<path d="M268.441 3.02828L270.102 2.33984L268.119 3.03658L268.441 3.02828Z" fill="#F9CF01"/>
<path d="M259.907 0.94693L260.474 0.507324L259.457 1.17088L259.907 0.94693Z" fill="#F9CF01"/>
<path d="M257.347 1.03793C257.771 0.672979 256.762 0.424145 257.211 0.200195C256.516 0.266551 255.923 0.58174 255.389 0.863751C255.957 0.706157 256.559 0.739335 257.347 1.03793Z" fill="#F9CF01"/>
<path d="M254.492 1.27849C254.772 1.18725 255.068 1.02966 255.39 0.86377C255.086 0.946714 254.789 1.07113 254.492 1.27849Z" fill="#F9CF01"/>
<path d="M261.415 1.94149C261.339 1.82536 261.187 1.52677 260.619 1.40234L261.017 1.9332C261.136 1.9332 261.279 1.9332 261.415 1.9332V1.94149Z" fill="#F9CF01"/>
<path d="M261.025 1.95114L261.008 1.93454C260.575 1.91796 260.279 1.90967 260.152 1.90967C260.262 1.90967 260.525 1.92625 261.025 1.95114Z" fill="#F9CF01"/>
<path d="M261.517 1.94287C261.517 1.94287 261.45 1.94287 261.416 1.94287C261.458 1.99264 261.475 2.00923 261.517 1.94287Z" fill="#F9CF01"/>
<path d="M265.789 2.56396C265.196 2.86256 263.959 3.18604 265.161 3.63395C265.585 3.26899 264.899 3.01186 265.789 2.56396Z" fill="#F9CF01"/>
<path d="M262.008 2.6047L263.083 2.72082C263.059 2.57981 262.863 2.37245 263.16 2.23145L262.008 2.6047Z" fill="#F9CF01"/>
<path d="M261.482 2.77962L262.008 2.60543L261.609 2.56396L261.482 2.77962Z" fill="#F9CF01"/>
<path d="M256.332 1.76775C255.865 2 255.365 2.02488 254.789 2.05806C255.407 2.15759 256.043 2.21565 256.645 2.20736C256.73 2.04147 256.992 1.74287 256.332 1.75945V1.76775Z" fill="#F9CF01"/>
<path d="M258.611 1.90039C258.611 1.90039 258.535 1.92528 258.51 1.93357C258.577 1.97504 258.627 1.99163 258.611 1.90039Z" fill="#F9CF01"/>
<path d="M249.145 2.09912L249.237 2.19036L249.263 2.09912H249.145Z" fill="#F9CF01"/>
<path d="M256.746 2.30747C257.212 2.40701 257.483 2.27429 257.746 2.1084C257.398 2.16646 257.034 2.19965 256.644 2.20794C256.61 2.28258 256.601 2.33235 256.746 2.30747Z" fill="#F9CF01"/>
<path d="M252.916 1.53478C253.152 1.6426 253.433 1.73385 253.721 1.82509C253.483 1.6592 253 1.40207 252.916 1.53478Z" fill="#F9CF01"/>
<path d="M258.357 1.78501C258.357 1.78501 258.399 1.76841 258.425 1.76012C258.272 1.644 258.289 1.70206 258.357 1.78501Z" fill="#F9CF01"/>
<path d="M258.357 1.78368C258.119 1.85834 257.933 1.99104 257.746 2.10716C258.026 2.0657 258.289 2.00764 258.509 1.92469C258.449 1.88322 258.39 1.83345 258.357 1.77539V1.78368Z" fill="#F9CF01"/>
<path d="M247.466 5.52529C247.543 5.03592 248.754 4.56313 249.805 5.08568C250.831 4.70414 250.145 3.09502 249.237 2.19092C249.204 2.40658 249.213 2.60565 248.153 2.90425C248.526 3.16967 250.509 3.50974 249.619 3.96594C248.213 4.23136 248.466 3.80005 247.78 3.54292C248.365 4.14841 246 4.4553 246.314 5.35111L247.543 5.01933C247.569 5.16034 247.119 5.38428 247.466 5.50871V5.52529Z" fill="#F9CF01"/>
<path d="M251.263 2.22308L251.694 2.15673C251.195 2.07378 250.839 1.88301 250.177 1.50146C249.449 1.7503 249.305 1.93278 249.254 2.09867L251.406 2.14844L251.254 2.22308H251.263Z" fill="#F9CF01"/>
<path d="M253.661 2.14135C253.323 2.6805 252.28 2.91274 252.925 3.49335C254.204 3.44358 253.822 3.03716 254.585 2.80491C252.517 2.94592 255.178 2.50631 253.679 2.20771C254.085 2.11647 254.45 2.08329 254.797 2.05841C254.424 1.99205 254.068 1.9174 253.729 1.81787C253.747 1.83446 253.763 1.84276 253.78 1.85105H253.789C253.882 1.9174 253.907 1.95888 253.806 1.9174C253.806 1.9174 253.771 1.9257 253.763 1.9257C253.747 2.00035 253.712 2.06671 253.67 2.12477C253.068 2.01694 253.576 1.98376 253.763 1.9257C253.763 1.90082 253.789 1.87593 253.789 1.84276L251.721 2.14135C252.161 2.21601 252.712 2.19112 253.679 2.12477L253.661 2.14135Z" fill="#F9CF01"/>
<path d="M264.059 4.78799C263.991 4.73822 264 4.70504 263.991 4.66357C263.856 4.72993 263.805 4.7714 264.059 4.78799Z" fill="#F9CF01"/>
<path d="M263.203 4.47118C263.356 4.39652 263.475 4.18087 263.966 4.23063C264.39 4.38823 263.966 4.48776 263.992 4.66194C264.288 4.52094 265.025 4.27211 264.093 4.01498L263.95 4.08962C263.119 3.90715 262.042 3.24359 262.187 3.16895C262.433 3.65002 262.644 3.99009 263.203 4.46287V4.47118Z" fill="#F9CF01"/>
<path d="M258.373 3.44287L256.652 3.71659L257.534 4.18108L257.492 3.89907C258.474 4.0069 258.263 3.65853 258.382 3.44287H258.373Z" fill="#F9CF01"/>
<path d="M248.948 1.83501L249.168 1.2627L248.186 2.07555L248.948 1.83501Z" fill="#F9CF01"/>
<path d="M246.712 1.9176L246.789 1.42822L246.195 1.72682L246.712 1.9176Z" fill="#F9CF01"/>
<path d="M120.525 11.0073L120.025 11.165C120.263 11.1152 120.415 11.0571 120.525 11.0073Z" fill="#F9CF01"/>
<path d="M124.187 10.8919L124.263 10.6431C124.102 10.7841 124.035 10.8836 124.187 10.8919Z" fill="#F9CF01"/>
<path d="M191.67 2.78803C190.924 2.34842 190.077 1.65169 190.178 2.19911L190.416 2.72997C190.932 2.62213 191.323 2.6719 191.661 2.77973L191.67 2.78803Z" fill="#F9CF01"/>
<path d="M154.094 7.00167C154.162 7.05143 154.238 7.10949 154.315 7.15926C154.484 6.96849 154.645 6.78601 154.797 6.62842C154.586 6.74454 154.348 6.86895 154.094 7.00167Z" fill="#F9CF01"/>
<path d="M153.645 9.24878L152.662 8.93359C152.882 9.04972 153.204 9.15754 153.645 9.24878Z" fill="#F9CF01"/>
<path d="M100.567 12.4097L100 12.9819C100.923 12.9405 100.5 12.6834 100.567 12.4097Z" fill="#F9CF01"/>
<path d="M223.753 2.36548C223.109 2.16642 222.609 2.08348 222.16 2.05859C222.931 2.35719 223.558 2.81339 223.753 2.36548Z" fill="#F9CF01"/>
<path d="M121.737 5.22607C121.432 5.3339 121.304 5.45003 121.313 5.57444C121.627 5.46662 121.805 5.35879 121.737 5.22607Z" fill="#F9CF01"/>
<path d="M220.322 2.09234C220.432 2.14211 220.542 2.16699 220.661 2.21676C221.127 2.11722 221.594 2.04258 222.162 2.06745C221.594 1.84351 220.941 1.7108 220.322 2.09234Z" fill="#F9CF01"/>
<path d="M28.1019 15.8095C28.051 15.7847 27.9833 15.7847 27.9323 15.7515C27.9239 15.8262 27.9917 15.8262 28.1019 15.8095Z" fill="#F9CF01"/>
<path d="M6.62695 11.7462C6.83034 11.6965 7.16933 11.6798 7.49136 11.6467C7.33034 11.6218 7.06763 11.6467 6.62695 11.7462Z" fill="#F9CF01"/>
<path d="M237.688 1.75975C237.763 1.70169 238.162 1.71827 237.688 1.75975V1.75975Z" fill="#F9CF01"/>
<path d="M240.026 3.875C239.925 3.93306 239.848 4.01601 239.84 4.14042C239.874 4.00771 239.941 3.92476 240.026 3.875Z" fill="#F9CF01"/>
<path d="M215.644 5.5166C215.644 5.5166 215.618 5.5166 215.602 5.5166C215.745 5.61613 215.72 5.59955 215.644 5.5166Z" fill="#F9CF01"/>
<path d="M238.407 1.99939C238.229 1.93303 238.026 1.88327 237.797 1.8418C237.898 1.88327 238.085 1.93303 238.407 1.99939Z" fill="#F9CF01"/>
<path d="M238.305 1.74298C238.465 1.75957 238.601 1.77616 238.72 1.79275C238.779 1.7015 238.72 1.64344 238.305 1.74298Z" fill="#F9CF01"/>
<path d="M237.025 1.80124C237.296 1.79294 237.551 1.81783 237.797 1.851C237.704 1.81783 237.661 1.78465 237.687 1.76807C237.551 1.76807 237.348 1.78465 237.025 1.80124Z" fill="#F9CF01"/>
<path d="M66.8309 12.1435C66.8309 12.1435 66.763 12.1187 66.7292 12.0938C66.263 12.3426 66.4749 12.2928 66.8309 12.1435Z" fill="#F9CF01"/>
<path d="M179.449 8.67722C179.449 8.67722 179.482 8.66063 179.5 8.65234C179.474 8.65234 179.449 8.64403 179.432 8.63574L179.449 8.67722Z" fill="#F9CF01"/>
<path d="M177.754 9.11661C178.465 8.42818 178.88 8.49453 179.431 8.62724L178.83 7.08447L177.754 9.11661Z" fill="#F9CF01"/>
<path d="M111.77 11.5132L112.991 11.9528C111.585 12.8071 110.525 12.575 111.678 13.2136C111.77 11.5215 116.313 12.8569 116.414 11.1649L117.22 11.4884C116.992 11.4884 116.957 11.5796 116.737 11.5713C118.304 12.3178 117.821 10.3022 119.814 10.4681C120.508 10.5677 120.999 10.7999 120.533 11.0156L122.051 10.5345C122.5 10.5511 122.398 10.8497 121.957 10.8331L124.287 10.6091L124.271 10.6589C124.593 10.3769 125.339 9.93731 125.695 9.75482C126.296 9.97044 125.406 9.9456 125.568 10.1529L126.847 9.68847C127.39 10.1031 126.339 10.5677 125.44 10.5428C126.72 12.1768 126.5 10.07 129.152 10.9658L127.94 11.223C128.762 12.1519 129.711 11.7703 131.109 12.3178C130.771 12.0192 128.28 10.9078 129.669 10.4433C130.067 10.5593 130.593 10.6008 131.338 10.2359C131.373 10.8331 132.101 10.6589 133.034 10.5926L132.999 11.3888C133.991 11.1234 133.898 10.7253 134.474 10.3437C135.593 10.3852 135.847 10.9907 136.127 11.4967C137.923 11.563 134.856 10.5511 136.966 10.3271C138.466 10.576 139.5 10.2193 141.263 9.68018C142.313 9.92075 141.101 10.1695 141.483 10.3852L142.381 9.7216C142.61 9.7216 142.542 9.92903 142.508 10.0285C143.279 9.75482 142.542 9.23227 143.762 8.97514C144.059 8.08763 146.321 10.1695 147.796 9.13273C148.178 9.34839 147.635 9.62211 147.754 9.92903C149.804 9.21568 149.516 9.39815 151.195 8.46917L152.661 8.95025C151.576 8.38624 152.915 7.63973 154.093 7.01765C153.703 6.74393 153.373 6.4951 153.152 6.38727L155.051 5.8979C155.288 6.02231 155.101 6.30433 154.796 6.6444C154.923 6.57804 155.042 6.50339 155.143 6.44533C155.839 6.71905 155.499 7.19183 155.025 7.64802C154.787 7.49873 154.55 7.34114 154.321 7.17524C153.864 7.67291 153.44 8.22034 153.559 8.68483C153.677 8.58529 153.915 8.50236 154.178 8.45259C154.059 8.5853 153.983 8.70972 154.042 8.78436C154.11 8.86731 154.305 8.68483 154.609 8.46917L155.076 9.34009L155.169 8.98343L157.677 9.46451C159.431 8.51894 160.949 7.15036 163.771 6.70246C163.084 7.37431 163.653 7.77245 163.635 8.54383C162.838 7.74756 161.449 8.95855 159.983 8.83413C160.754 8.89219 160.593 9.26545 160.407 9.40645L163 8.58529C162.957 9.21568 163.567 9.04149 164.262 9.28203C163.712 8.04616 166.186 8.40282 167.245 7.9881C167.322 8.40282 167.084 8.84242 165.779 8.77607C167.237 9.6719 167.593 7.26648 169.025 8.02128C168.711 8.03787 168.534 7.97981 168.415 8.19546C169.144 7.80562 170.966 8.05445 170.55 8.4277L170.237 8.4443C172.347 8.53553 176.652 8.2867 176.94 7.21671C176.966 7.34943 176.695 8.50236 176.576 8.71801L180.245 5.06016C179.94 5.98084 181.262 8.10422 179.533 8.66824C180.042 8.78436 180.661 8.91708 181.711 8.577C181.364 8.45259 180.821 7.28307 181.287 7.19184C182.601 8.17888 182.195 7.71439 183.796 8.54383C183.28 8.36135 183.813 6.92641 184.627 6.95129C184.508 7.16695 184.729 8.35305 184.432 8.51065L186.415 7.06741C185.915 7.33283 186.355 8.25352 186.813 8.64336C186.601 8.37794 188.559 8.62677 189.093 8.47747L188.228 8.17058C190.509 8.32818 190.432 6.15503 192.694 6.17991C192.423 6.47851 192.059 7.97151 193.212 8.12081C193.72 7.39089 195.466 4.62055 197.457 4.03165L197.847 4.42977L199.373 3.93211C198.441 5.02698 195.804 7.35772 194.355 8.27011C195.212 8.577 194.601 8.75119 195.881 8.68483C196.338 9.05808 195.195 9.28203 194.822 9.31522L197.797 9.49769C197.644 8.65995 200.05 8.61018 199.923 7.92175L196.711 8.85902C196.559 8.02957 198.525 6.43704 200.644 6.55316C201.186 6.87665 200.27 8.04616 200.322 8.32818C200.593 8.03787 202.313 7.73926 202.508 7.94663L201.626 8.41111C202.804 8.70142 203.516 7.26648 204.94 8.04616C205.432 8.08763 206.415 9.09955 206.492 8.60189C205.677 7.66462 205.466 4.71179 205.982 3.99017C206.152 4.04823 208.559 4.86109 209.118 5.31729C209.932 6.05549 207.949 7.12547 208.644 7.75586C208.67 7.52361 209.11 7.2333 209.288 7.14207C209.805 7.32454 209.093 7.85538 210.195 7.73097C210.364 6.87665 212.457 7.76415 210.703 7.00106C211.787 6.73564 211.864 7.15865 213.136 7.0923C212.72 6.55316 214.246 5.20946 215.33 4.94403C215.271 5.1597 215.517 5.43341 215.635 5.56612C217.864 5.5993 219.068 5.98084 221.143 5.95596C221.339 6.15503 222.347 6.39556 221.923 6.76882C222.22 6.61122 222.491 6.32092 223.126 6.29603C224.372 7.00935 221.703 6.42874 222.66 7.29966C222.737 6.80199 224.304 6.59463 225.211 6.27944C224.923 5.52465 223.101 6.16332 222.194 6.47851C222.178 5.42512 223.745 4.30536 225.915 3.7911C227.635 3.5091 226.669 4.46296 226.966 4.30536C230.212 4.44637 229.703 2.43911 232.407 3.16073C233.482 3.81599 232.474 4.48784 232.711 4.96892C231.313 5.24263 230.55 4.57078 229.592 4.61226L230.77 4.91086C230.33 5.1431 229.39 5.31729 228.873 5.13481C229.779 5.72371 234.348 5.16799 236.856 5.70712C237.296 5.48318 238.059 5.24263 237.695 4.97721L236.906 5.07675C236.17 4.5459 238.39 4.32195 237.381 4.07312C238.44 3.68328 239.627 3.07778 241.118 3.36809L241.406 4.13118C241.373 3.90722 240.423 3.68328 240.008 3.92382C240.627 3.58374 242.313 4.93574 242.983 3.92382L241.931 3.40127C242.991 3.01143 244.305 2.19027 245.635 2.41423C245.025 1.66772 245.33 2.50546 244.381 1.62626C245.203 2.71282 240.991 1.60966 242.313 2.7543C241.339 1.74238 240.636 2.33128 239.364 1.47696C239.406 1.72578 239.813 1.95803 238.703 1.84191C238.652 1.91656 238.533 2.0078 238.458 2.06586C238.423 2.06586 238.415 2.05757 238.381 2.04927C238.406 2.05757 238.423 2.06586 238.44 2.08245C238.39 2.12392 238.39 2.13221 238.465 2.09074C238.728 2.19857 238.949 2.33128 239.034 2.47229C238.491 3.0529 236.72 3.0529 236.126 3.3598C235.465 3.24368 236.398 3.06949 236.034 2.80406L235.144 3.26026C235.051 2.70453 233.381 2.35617 234.932 2.0078H233.533C232.703 1.7009 231.568 1.58478 230.873 1.83362C230.212 1.71749 229.212 2.47229 229.779 2.03268L227.592 2.40594L227.567 2.26493C225.398 2.22345 223.126 3.25197 220.635 2.26493C219.906 2.41423 219.161 2.5967 217.932 2.4557L217.686 1.97462C216.754 2.1571 214.864 1.53502 214.474 2.04927C213.44 0.763631 209.923 1.84191 208.279 1.64284L208.228 2.27322C207.093 2.25664 206.008 2.4557 204.61 2.72942L204.703 3.28514C203.499 3.76623 201.576 2.94507 199.661 3.03631C199.788 2.82066 200.27 2.87042 200.619 2.99484C198.305 1.76726 195.804 4.01505 193.703 3.13585C193.186 3.3515 192.813 3.28514 192.449 3.16073C192.5 3.16073 192.542 3.14414 192.576 3.12755C192.525 3.12755 192.441 3.12755 192.364 3.12755C192.135 3.03631 191.898 2.92849 191.635 2.84554C191.856 2.97825 192.067 3.08608 192.245 3.12755C191.847 3.14414 191.245 3.22708 190.652 3.38467L190.39 2.78748C190.338 2.78748 190.305 2.80406 190.254 2.80406C189.669 2.5967 189.788 3.09437 190.109 3.54227C189.813 3.6501 189.542 3.77452 189.331 3.92382C188.839 2.96995 187.779 4.28048 187.109 3.26855C186.72 3.78281 184.135 3.71646 183.847 4.77814C183.821 4.63714 183.643 4.57908 183.966 4.56249C183.305 4.45466 182.636 4.34684 182.05 4.66202L181.754 3.90722L180.339 4.96892C179.449 4.52931 179.076 4.27218 179.932 3.6584C177.847 4.61226 178.237 4.03994 176.466 4.98551L176.542 4.48784C175.906 4.52102 174.898 5.20945 174.5 4.81133C173.042 3.91553 167.415 4.86939 163.72 4.098C164.475 5.52465 161.991 3.4925 161.881 4.62884C161.66 4.29707 161.135 4.11459 161.728 3.7994C159.864 4.19753 158.897 3.34321 157.627 4.33025C157.398 3.99017 158.008 3.81599 157.813 3.61692C157.669 3.69157 157.229 3.93211 157.025 3.73304C156.83 3.53398 157.288 3.43444 157.585 3.27685C155.669 3.39297 155.508 4.45466 155.406 5.45C154.424 5.01039 153.94 5.09333 153.262 5.76518C152.915 5.45 152.339 5.12651 153.525 4.97721C152.855 4.95233 149.424 4.62884 149.381 5.42512C149.16 5.22605 148.44 5.39194 148.27 5.49147C146.771 5.49147 146.635 5.42512 145.16 5.54124L145.576 5.65736C145.025 6.6361 144.356 5.91449 143.169 6.07208L143.203 5.97255C140.457 5.37535 142.042 6.34579 139.322 5.64906L139.491 6.23797C139.288 7.5319 137.085 5.56612 135.542 6.11355L136.118 6.43704C135.279 6.90982 133.669 4.77814 132.805 4.64544C132.61 4.53761 133.093 4.45466 133.347 4.36342C131.076 3.68328 133.085 5.15139 131.423 5.39194C131.102 4.98551 131.779 4.30536 130.652 4.26389C130.076 3.94041 127.44 5.74031 125.881 4.9938C126.228 5.30899 126.576 5.61588 125.813 5.88961C124.627 6.05549 122.55 4.78644 121.517 5.85643C121.364 5.77348 121.304 5.69054 121.287 5.60759C120.39 5.90619 118.355 6.16332 117.83 6.74393C116.906 4.72008 112.22 7.97151 112.161 6.07208L109.372 6.28773L109.44 6.08867C107.653 6.03061 107.033 6.51998 106.432 7.00935C106.016 6.90153 106.304 6.71075 106.339 6.60292C103.712 6.3375 103.457 6.42874 101.313 7.47384L101.059 6.86834C100.483 7.2499 97.2371 6.07208 94.7114 6.90153C94.7369 6.82688 94.7793 6.71075 94.9826 6.61122C92.1352 7.45726 87.9996 5.21776 87.059 7.51532L85.186 8.16228C87.6522 8.22034 84.8725 9.15761 85.8979 9.47281C84.9403 9.65524 83.3641 8.91708 84.5505 8.74289L84.7453 8.84242C85.1268 7.64802 81.6691 8.577 81.6946 7.78074C76.864 8.07105 72.1098 7.64802 67.5759 7.84709L68.1437 8.7263L66.5589 8.75948C66.1352 8.56871 65.9657 8.07934 67.0928 8.05445C66.4742 7.57338 65.2284 8.58529 65.203 8.78436C62.9742 8.53553 66.0081 7.6812 65.3301 7.6895L64.4148 7.80562L64.6267 7.89686C63.8979 8.31158 63.8555 8.70142 62.4996 8.7346C61.6352 8.60189 62.025 8.19546 61.686 8.17887C61.686 8.11251 61.5674 8.08763 61.169 8.17887L59.1775 8.20375L60.0166 8.8756C59.1522 9.27374 58.1436 8.93366 59.1098 9.70503C57.686 8.51894 51.6607 9.65524 50.8047 9.32351C49.6013 9.92075 48.381 9.97873 46.864 10.0037C47.2454 10.1281 47.525 10.9243 46.2115 10.8995C46.5843 9.20738 43.7793 10.3189 42.6522 9.1825C43.6437 9.92075 38.9572 9.58893 40.508 10.6341C39.4148 10.5593 40.4064 10.0119 39.5504 9.6719C36.9996 10.4599 33.8216 9.59722 30.6352 10.0119C30.6013 10.2359 31.1522 10.5345 30.4911 10.8995L28.7284 9.91237C28.1013 10.0617 28.2284 11.2063 27.025 10.5262C27.203 10.7004 27.4572 10.9658 27.042 11.057C20.703 10.3686 14.3047 12.7408 7.80469 11.1732C8.69451 11.5382 8.12673 11.6211 7.4657 11.6791C7.89791 11.7538 7.49113 12.2183 7.6013 12.5086L4.88096 11.8616C4.45723 12.7159 2.0335 12.1104 1.80469 12.915L2.6352 12.7159C1.58435 13.7195 4.34706 14.6734 4.27079 15.8679C5.44876 14.7315 7.68604 17.2032 9.64367 15.5609C10.1183 15.7766 9.27926 15.9673 9.54197 16.2327C10.025 15.6854 10.6521 15.5361 11.8301 15.6936L11.703 15.8263C14.9742 15.4863 16.4148 15.8844 20.1182 15.984L19.8047 15.4117C20.6013 15.4448 20.7793 15.619 21.1606 15.7351C22.0081 14.7895 18.9318 15.8263 19.6945 14.7895C20.8217 15.9176 25.2793 14.4578 26.0844 15.7766C27.3047 15.7102 25.6861 15.1213 26.898 15.0467L27.2453 15.395L27.525 14.9057C28.3301 14.9305 28.7623 15.3702 28.8132 15.6771C28.6183 15.6521 28.2708 15.8015 28.0589 15.8346C29.1267 16.1996 30.9657 15.5029 31.3301 15.6273L30.1437 15.4697C33.4488 14.914 37.5335 15.1463 40.703 14.2172L40.4403 13.9518C42.8641 13.2966 42.4234 14.1426 45.1013 13.7527L45.0081 13.8274C45.5335 13.5205 46.2454 13.3381 46.9827 13.3297C46.3216 13.6947 48.3047 13.8855 47.4318 14.3001C50.0589 13.5951 48.7199 13.7943 50.4149 12.6579L50.8471 13.0975C51.4233 12.6496 51.4572 12.4256 52.7962 12.2265C51.7115 12.6827 53.6945 12.8818 52.4911 13.4708C55.3725 14.3085 56.6267 12.2265 58.008 13.6283C59.2284 12.2846 55.525 13.0477 56.2369 12.7408C55.6013 12.3592 57.2539 11.7289 58.1436 11.8119C59.0504 11.7953 59.7707 13.3629 62.042 13.2136C61.8132 13.2136 61.8047 13.3131 61.5844 13.3214C62.4488 13.6035 63.2199 12.7906 64.2962 13.2633C64.8386 12.4588 65.6522 13.2385 65.7623 12.2432L63.6945 12.5832C64.864 12.2598 65.9063 11.057 67.8809 11.5049C67.7369 11.7123 67.1776 12.0026 66.7877 12.1685C67.3725 12.4256 67.8725 11.9197 68.4742 12.1851C68.364 13.1804 65.9573 12.5335 64.7284 13.3546C65.364 13.7362 67.0844 12.5169 66.5081 13.6118C67.347 12.21 68.7539 13.6615 70.2369 12.55L70.1691 13.1473C70.4064 13.0394 70.8979 12.7325 71.347 12.7242L70.5759 13.5287C71.7877 12.8071 73.0081 13.9684 74.1776 13.562C71.6776 13.703 73.5759 12.8818 72.4996 12.5003C75.542 11.5547 74.3555 13.9518 77.7877 13.5039C77.3217 13.6118 76.0166 13.2385 76.7284 12.9233C77.3894 13.0145 78.2708 13.197 78.6861 13.4873C80.9657 13.2551 78.3046 12.8984 79.2624 12.4919C80.0759 13.1721 80.3725 12.1436 81.364 11.8699L81.3979 12.4671C84.025 12.7242 82.025 11.1815 84.3979 11.5382L83.4487 12.4173L84.6606 12.1436L84.4402 12.8404C85.7453 12.268 86.1691 12.3842 87.4827 12.5086C87.1606 12.1021 87.6013 11.4137 88.7538 11.3391C89.5589 11.6542 88.3386 11.928 89.9742 11.7621C89.6267 12.1519 89.2454 12.6496 88.4996 12.1271C88.4403 12.3261 88.1522 12.5252 88.0843 12.7159C88.9487 13.0809 90.22 12.7077 90.8132 12.6744C90.5844 12.6662 90.3132 12.6413 90.1691 12.5667L92.4996 11.6294C92.881 11.8367 92.5928 12.0358 92.3132 12.2183C92.7878 12.1353 93.1098 11.845 93.8131 11.7621C93.6522 12.2598 93.7199 12.7575 92.7368 13.0311L94.9742 12.3925C95.1352 12.5998 96.1606 12.9233 95.8725 13.1141C97.1357 13.3463 98.8984 12.0358 100.576 12.3344C100.661 12.2348 100.83 12.1353 101.178 12.0524C102.745 12.0938 104.152 12.633 105.974 11.8782L107.059 12.7077C108.499 12.4423 105.593 11.6709 107.991 11.2312C109.686 10.8745 108.66 11.9528 109.271 12.1685C110.101 11.6957 111.542 10.7418 113.144 11.3888C112.635 11.5713 112.22 11.4634 111.737 11.5464L111.77 11.5132ZM129.627 10.4266C129.287 10.5677 128.61 10.9741 128.339 10.6341C128.703 9.92903 129.025 10.2525 129.627 10.4266ZM156.763 8.07105C156.508 8.27841 156.11 8.19546 155.652 7.97981C155.974 7.92175 156.347 7.93004 156.763 8.07105ZM232.482 2.3064C232.482 2.3064 232.458 2.32299 232.449 2.33957C231.669 2.11563 231.948 2.20687 232.482 2.3064ZM234.093 2.54694C234.254 2.464 234.245 2.38105 234.17 2.2981C234.059 2.4474 233.695 2.464 233.288 2.43082C233.407 2.58841 233.61 2.69624 234.093 2.55523V2.54694ZM61.5335 8.37793L61.8556 8.51894C61.1606 8.7263 61.347 8.56042 61.5335 8.37793Z" fill="#F9CF01"/>
<path d="M153.703 8.98315C153.602 8.88362 153.568 8.77579 153.543 8.65967C153.407 8.7675 153.407 8.88362 153.703 8.98315Z" fill="#F9CF01"/>
<path d="M100.67 12.3013H100.619C100.619 12.3013 100.577 12.3676 100.568 12.4091L100.67 12.3013Z" fill="#F9CF01"/>
<path d="M209.28 7.99684C208.95 7.91389 208.763 7.80606 208.636 7.69824C208.619 7.84754 208.772 7.96366 209.28 7.99684Z" fill="#F9CF01"/>
<path d="M242.601 1.45215L241.576 1.61804C242.076 1.58485 242.254 1.71757 242.508 1.80881C242.482 1.6678 242.288 1.46873 242.61 1.45215H242.601Z" fill="#F9CF01"/>
<path d="M251.575 5.08517C251.728 5.01052 251.898 5.07688 252.041 5.00223L251.999 4.72021C251.355 4.7451 250.915 4.96905 251.575 5.08517Z" fill="#F9CF01"/>
<path d="M243.576 3.43457C243.661 3.94053 244.305 3.75806 245.026 3.65853C244.984 3.65853 244.941 3.65853 244.899 3.65853C245.103 2.95349 244.34 3.19404 243.576 3.42628V3.43457Z" fill="#F9CF01"/>
<path d="M245.195 3.64185C245.415 3.61696 245.644 3.60038 245.865 3.62526C245.949 3.34325 245.593 3.5672 245.195 3.64185Z" fill="#F9CF01"/>
<path d="M236.127 2.19124C236.475 2.31565 236.331 1.54427 236.534 1.75163C236.907 1.10466 234.263 2.54789 236.127 2.19124Z" fill="#F9CF01"/>
<path d="M244.177 5.09426L243.915 4.47217L243.516 4.97814L244.177 5.09426Z" fill="#F9CF01"/>
<path d="M238.483 4.68785L239.637 4.85373C239.619 4.74591 239.763 4.68785 239.941 4.63808C239.229 4.62149 238.45 4.50537 238.483 4.68785Z" fill="#F9CF01"/>
<path d="M239.939 4.62979C240.313 4.63809 240.66 4.62979 240.864 4.52197C240.66 4.53026 240.236 4.55515 239.939 4.62979Z" fill="#F9CF01"/>
<path d="M242.601 5.29235L242.263 5.16793L241.449 5.12646L242.601 5.29235Z" fill="#F9CF01"/>
<path d="M226.093 4.71289L224.839 4.91196C224.712 5.12761 225.06 5.25203 225.526 5.1608C225.822 5.01149 226.288 4.92025 226.093 4.71289Z" fill="#F9CF01"/>
<path d="M229.915 6.37074C229.576 6.24633 229.55 6.10532 229.356 5.90625L229.33 6.67764L229.915 6.37074Z" fill="#F9CF01"/>
<path d="M226.255 6.59521C226.136 6.81088 224.441 7.23389 226.034 7.16753C226.162 6.95187 227.416 6.76111 226.255 6.59521Z" fill="#F9CF01"/>
<path d="M207.297 5.91601L207.618 5.89943L207.551 4.63037L207.297 5.91601Z" fill="#F9CF01"/>
<path d="M190.678 9.27366C192.169 9.54737 191.016 8.48569 192.364 8.83406C192.703 8.52716 191.254 8.55204 191.61 8.28662C190.72 8.6184 190.245 8.4525 190.678 9.28195V9.27366Z" fill="#F9CF01"/>
<path d="M191.609 8.27964C191.753 8.22987 191.906 8.16351 192.067 8.08057C191.812 8.16351 191.685 8.22987 191.609 8.27964Z" fill="#F9CF01"/>
<path d="M3.07613 11.2982L2.10156 11.0991L2.74563 11.4807L3.07613 11.2982Z" fill="#F9CF01"/>
<path d="M1.30509 12.3593L1.02542 11.5713L0.5 12.3427C0.711865 12.2929 1.12712 12.1934 1.30509 12.3676V12.3593Z" fill="#F9CF01"/>
<path d="M132.347 11.9533L132.415 11.7543C132.262 11.5468 132.034 11.5385 131.584 11.522L132.347 11.945V11.9533Z" fill="#F9CF01"/>
<path d="M119.356 11.8466L119.577 11.8549L119.127 11.1416L119.356 11.8466Z" fill="#F9CF01"/>
<path d="M108.508 13.2053C108.957 13.2136 109.466 13.0311 109.915 13.0478C108.949 13.2136 108.348 12.3012 108.508 13.2053Z" fill="#F9CF01"/>
</g>
</g>
<defs>
<clipPath id="clip0_127_1281">
<rect width="289" height="16" fill="white" transform="translate(0.5 0.200195)"/>
</clipPath>
</defs>
</svg>
