<svg width="113" height="32" viewBox="0 0 113 32" fill="none" xmlns="http://www.w3.org/2000/svg">
<mask id="mask0_127_341" style="mask-type:luminance" maskUnits="userSpaceOnUse" x="1" y="0" width="112" height="32">
<path d="M1.5 0.5H112.5V31.5H1.5V0.5Z" fill="white"/>
</mask>
<g mask="url(#mask0_127_341)">
<path d="M49.1028 24.0709V13.0169H49.2988L57.2708 24.0709H59.7798V7.83791H56.9908V18.8639H56.7958L48.8248 7.83791H46.3148V24.0709H49.1028ZM67.6688 24.3209C71.3478 24.3209 73.6058 21.9269 73.6058 17.9169C73.6058 13.9369 71.3478 11.5129 67.6688 11.5129C64.0168 11.5129 61.7308 13.9359 61.7308 17.9169C61.7588 21.9269 63.9888 24.3209 67.6688 24.3209ZM67.6688 21.9819C65.7168 21.9819 64.6018 20.5069 64.6018 17.9169C64.6018 15.3569 65.7168 13.8519 67.6688 13.8519C69.6188 13.8519 70.7348 15.3559 70.7348 17.9169C70.7348 20.5069 69.6198 21.9819 67.6688 21.9819ZM76.1428 8.75691V11.8479H74.1908V14.0749H76.1428V20.7849C76.1428 23.1799 77.2578 24.1259 80.1008 24.1259C80.5964 24.1267 81.091 24.0801 81.5778 23.9869V21.8149C81.2438 21.8429 81.0208 21.8709 80.6308 21.8709C79.4598 21.8709 78.9298 21.3419 78.9298 20.1169V14.0749H81.5778V11.8479H78.9298V8.75791H76.1428V8.75691ZM83.2508 24.0709H86.0388V11.7639H83.2508V24.0709ZM84.6448 9.73191C85.5648 9.73191 86.3168 8.97991 86.3168 8.06191C86.3168 7.11391 85.5648 6.36291 84.6448 6.36291C83.7248 6.36291 82.9718 7.11391 82.9718 8.06091C82.9718 8.98091 83.7248 9.73191 84.6448 9.73191ZM93.6748 24.3219C97.3548 24.3219 99.6138 21.9269 99.6138 17.9169C99.6138 13.9369 97.3558 11.5129 93.6758 11.5129C90.0248 11.5129 87.7388 13.9359 87.7388 17.9169C87.7388 21.9269 89.9688 24.3209 93.6758 24.3209L93.6748 24.3219ZM93.6748 21.9819C91.7248 21.9819 90.6098 20.5069 90.6098 17.9169C90.6098 15.3569 91.7248 13.8519 93.6758 13.8519C95.5998 13.8519 96.7428 15.3559 96.7428 17.9169C96.7148 20.5069 95.5988 21.9819 93.6748 21.9819ZM101.259 24.0719H104.046V16.9149C104.046 15.1049 105.105 13.9649 106.75 13.9649C108.451 13.9649 109.231 14.9099 109.231 16.7759V24.0709H112.019V16.1079C112.019 13.1559 110.513 11.5129 107.782 11.5129C105.942 11.5129 104.715 12.3489 104.13 13.7409H103.935V11.7639H101.231C101.259 11.7639 101.259 24.0709 101.259 24.0709V24.0719ZM7.27277 6.25991C8.21877 7.01791 8.56077 6.95791 10.3328 6.83891L27.0228 5.84291C27.3848 5.84291 27.0828 5.48291 26.9628 5.44291L24.1838 3.47191C23.6608 3.07391 22.9358 2.59591 21.5868 2.71591L5.44077 3.88991C4.85677 3.94991 4.73577 4.24791 4.97777 4.46691L7.27277 6.25991ZM8.27977 10.1049V27.4739C8.27977 28.4099 8.74277 28.7479 9.80977 28.6889L28.1498 27.6329C29.2178 27.5729 29.3378 26.9359 29.3378 26.1789V8.92891C29.3378 8.17291 29.0358 7.75491 28.3918 7.81491L9.22577 8.92991C8.52077 8.98991 8.27977 9.34791 8.27977 10.1049ZM26.3788 11.0409C26.4998 11.5589 26.3788 12.0969 25.8548 12.1569L24.9698 12.3359V25.1629C24.2048 25.5609 23.4998 25.7999 22.8958 25.7999C21.9498 25.7999 21.7078 25.5019 21.0028 24.6249L15.2248 15.6419V24.3269L17.0568 24.7249C17.0568 24.7249 17.0568 25.7809 15.5878 25.7809L11.5208 26.0199C11.3998 25.7799 11.5208 25.2029 11.9238 25.0829L12.9908 24.7849V13.3119L11.5208 13.1919C11.3998 12.6749 11.7018 11.9179 12.5278 11.8579L16.8958 11.5579L22.9158 20.6419V12.6149L21.3858 12.4349C21.2648 11.7979 21.7478 11.3199 22.3318 11.2599L26.3788 11.0399V11.0409ZM4.09177 2.29691L20.9028 1.08191C22.9558 0.901912 23.4998 1.02191 24.7878 1.95891L30.1438 5.68291C31.0288 6.32091 31.3308 6.49991 31.3308 7.19691V27.6529C31.3308 28.9279 30.8678 29.6829 29.2178 29.8029L9.70877 30.9799C8.46077 31.0399 7.87677 30.8599 7.23277 30.0439L3.26677 24.9639C2.56177 24.0289 2.25977 23.3319 2.25977 22.5139V4.32991C2.25977 3.27391 2.74277 2.41791 4.09177 2.29791V2.29691Z" fill="#A3A3A3"/>
</g>
</svg>
