<svg width="24" height="25" viewBox="0 0 24 25" fill="none" xmlns="http://www.w3.org/2000/svg">
<g clip-path="url(#clip0_127_984)">
<path d="M7.36984 13.8234L2.48438 18.7088M10.2351 6.0727L8.88707 7.42074C8.77712 7.5307 8.72214 7.58568 8.6595 7.62937C8.6039 7.66815 8.54392 7.70024 8.48081 7.72499C8.40972 7.75288 8.33347 7.76813 8.18098 7.79863L5.01621 8.43158C4.19377 8.59607 3.78255 8.67832 3.59017 8.89513C3.42256 9.08402 3.34603 9.3368 3.38071 9.58693C3.42051 9.87405 3.71704 10.1706 4.31012 10.7637L10.4296 16.8831C11.0227 17.4763 11.3192 17.7728 11.6063 17.8126C11.8565 17.8473 12.1093 17.7707 12.2982 17.6031C12.515 17.4107 12.5972 16.9995 12.7617 16.1771L13.3947 13.0123C13.4251 12.8598 13.4404 12.7835 13.4683 12.7124C13.493 12.6494 13.5251 12.5894 13.5639 12.5338C13.6076 12.4711 13.6626 12.4161 13.7726 12.3062L15.1205 10.9581C15.1908 10.8878 15.2261 10.8527 15.2647 10.822C15.299 10.7947 15.3353 10.7701 15.3734 10.7484C15.4163 10.7239 15.4619 10.7043 15.5533 10.6652L17.7076 9.74193C18.336 9.47259 18.6503 9.33791 18.793 9.12029C18.9179 8.92998 18.9625 8.69809 18.9173 8.47504C18.8655 8.21998 18.6238 7.97823 18.1403 7.49475L13.6986 3.05294C13.215 2.56946 12.9733 2.32772 12.7183 2.27601C12.4952 2.23079 12.2633 2.27545 12.073 2.40027C11.8554 2.54301 11.7207 2.85725 11.4514 3.48571L10.5282 5.63993C10.4889 5.73132 10.4694 5.77701 10.4449 5.81986C10.4231 5.85792 10.3985 5.89427 10.3713 5.9286C10.3406 5.96724 10.3054 6.00239 10.2351 6.0727Z" stroke="black" stroke-width="1.72727" stroke-linecap="round" stroke-linejoin="round"/>
</g>
<defs>
<clipPath id="clip0_127_984">
<rect width="19" height="19" fill="white" transform="translate(1 1.19971)"/>
</clipPath>
</defs>
</svg>
