<svg width="247" height="141" viewBox="0 0 247 141" fill="none" xmlns="http://www.w3.org/2000/svg">
<mask id="mask0_127_105" style="mask-type:luminance" maskUnits="userSpaceOnUse" x="0" y="0" width="247" height="140">
<path d="M246.185 36.3105L16.7773 0.989014L0.837469 104.516L230.245 139.838L246.185 36.3105Z" fill="white"/>
</mask>
<g mask="url(#mask0_127_105)">
<path d="M96.7776 32.2893C96.0709 32.4702 96.38 32.8544 96.2812 32.9723C97.4411 32.5011 96.7323 32.1727 96.7776 32.2893Z" fill="#F9CF01"/>
<path d="M108.347 27.9202L108.154 28.1645C108.716 27.8439 109.286 27.5871 109.86 27.2998C109.356 27.504 108.85 27.6845 108.354 27.9134L108.347 27.9202Z" fill="#F9CF01"/>
<path d="M119.355 25.8377C118.828 25.5143 117.826 25.7039 116.717 25.9789C116.16 26.1197 115.579 26.2648 115.01 26.4039C114.444 26.5592 113.89 26.6772 113.396 26.7028L113.064 26.5812L112.209 27.419C113.398 27.1409 114.758 26.6544 116.037 26.3902C117.316 26.0945 118.512 25.8486 119.356 25.8301L119.355 25.8377Z" fill="#F9CF01"/>
<path d="M125.215 26.8501C124.856 26.5676 126.478 26.4338 123.854 26.8988C123.983 26.9187 124.022 26.9325 124.099 26.9522C124.335 26.9181 124.663 26.8825 125.215 26.8501Z" fill="#F9CF01"/>
<path d="M124.103 26.9583C124.858 27.1452 122.95 27.1102 124.103 26.9583Z" fill="#F9CF01"/>
<path d="M129.428 26.2381C128.918 26.371 128.41 26.4885 127.904 26.6298C128.215 26.7795 129.563 26.7443 129.06 26.9095C130.621 26.6488 130.307 26.483 129.429 26.2305L129.428 26.2381Z" fill="#F9CF01"/>
<path d="M130.888 25.5513L130.096 25.7269C130.235 25.7952 130.439 25.8111 130.888 25.5513Z" fill="#F9CF01"/>
<path d="M128.421 26.0852L130.096 25.7169C129.879 25.5972 129.861 25.3362 129.326 25.8566C129.468 25.6045 129.13 25.8577 128.416 26.0766L128.421 26.0852Z" fill="#F9CF01"/>
<path d="M127.476 26.0478C126.625 25.9637 125.523 25.9741 127.056 25.5212C124.136 25.964 124.562 26.4915 127.476 26.0478Z" fill="#F9CF01"/>
<path d="M119.909 24.9042L118.755 24.8438L117.766 25.2787C118.26 25.0651 119.987 25.1509 119.909 24.9042Z" fill="#F9CF01"/>
<path d="M138.861 26.2374C138.97 26.0584 138.379 25.7795 138.28 25.5608L137.145 25.7853C137.715 25.8966 138.797 25.9848 138.856 26.2366L138.861 26.2374Z" fill="#F9CF01"/>
<path d="M138.28 25.5637L139.979 25.2303C138.482 25.2268 138.2 25.3713 138.28 25.5637Z" fill="#F9CF01"/>
<path d="M131.188 24.6171L128.402 25.4241L131.725 24.5745L131.188 24.6171Z" fill="#F9CF01"/>
<path d="M145.233 26.3137L144.258 26.6959L145.994 26.1255L145.233 26.3137Z" fill="#F9CF01"/>
<path d="M149.463 26.4222C148.734 26.7091 150.357 27.0531 149.601 27.2107C150.745 27.2302 151.753 27.0096 152.659 26.8124C151.707 26.893 150.721 26.7881 149.458 26.4214L149.463 26.4222Z" fill="#F9CF01"/>
<path d="M154.181 26.5398C153.706 26.592 153.206 26.6951 152.658 26.8142C153.16 26.774 153.661 26.6947 154.181 26.5398Z" fill="#F9CF01"/>
<path d="M142.828 25.3232C142.949 25.4357 143.177 25.7135 144.106 25.8565L143.487 25.3464C143.287 25.339 143.058 25.3272 142.828 25.3232Z" fill="#F9CF01"/>
<path d="M143.459 25.3354L143.479 25.3542C144.194 25.386 144.687 25.4071 144.898 25.4163C144.716 25.4038 144.281 25.3837 143.459 25.3354Z" fill="#F9CF01"/>
<path d="M142.66 25.3222C142.722 25.3317 142.764 25.3224 142.826 25.3319C142.764 25.283 142.727 25.2615 142.66 25.3222Z" fill="#F9CF01"/>
<path d="M135.594 24.8127C136.595 24.521 138.682 24.1773 136.7 23.8018C135.972 24.1513 137.102 24.3722 135.594 24.8127Z" fill="#F9CF01"/>
<path d="M141.89 24.6784C141.301 24.6112 140.703 24.6052 140.114 24.5771C140.14 24.7064 140.452 24.8876 139.951 25.0374C140.597 24.9178 141.248 24.7675 141.89 24.6784Z" fill="#F9CF01"/>
<path d="M142.776 24.5466L141.891 24.6766L142.544 24.7381L142.776 24.5466Z" fill="#F9CF01"/>
<path d="M151.202 25.8723C151.987 25.7114 152.828 25.7546 153.78 25.7838C152.78 25.6142 151.733 25.4922 150.741 25.4255C150.585 25.5738 150.116 25.8147 151.202 25.8723Z" fill="#F9CF01"/>
<path d="M147.453 25.4858C147.506 25.4784 147.577 25.4661 147.623 25.4655C147.521 25.4187 147.436 25.4057 147.453 25.4858Z" fill="#F9CF01"/>
<path d="M163.027 26.9143C162.981 26.8762 162.941 26.8389 162.895 26.8008C162.879 26.8294 162.87 26.8513 162.848 26.879L163.028 26.9067L163.027 26.9143Z" fill="#F9CF01"/>
<path d="M150.579 25.3116C149.824 25.164 149.362 25.2493 148.91 25.3755C149.482 25.3619 150.091 25.3773 150.742 25.4149C150.816 25.348 150.828 25.3029 150.579 25.3116Z" fill="#F9CF01"/>
<path d="M156.789 26.5963C156.408 26.4515 155.975 26.3066 155.512 26.1726C155.879 26.37 156.634 26.7055 156.789 26.5963Z" fill="#F9CF01"/>
<path d="M147.871 25.6057C147.831 25.6072 147.794 25.6172 147.754 25.6187C147.996 25.7335 147.968 25.6904 147.871 25.6057Z" fill="#F9CF01"/>
<path d="M147.871 25.6064C148.269 25.5659 148.59 25.4666 148.909 25.3748C148.441 25.3888 148.008 25.3926 147.629 25.4595C147.721 25.4972 147.811 25.5502 147.871 25.6064Z" fill="#F9CF01"/>
<path d="M166.325 24.2271C166.115 24.6561 164.055 24.7532 162.403 23.9907C160.653 24.0574 161.554 25.7285 162.892 26.8024C162.974 26.6116 163.002 26.4283 164.78 26.4441C164.216 26.0993 161.017 25.2471 162.543 25.0677C164.885 25.2015 164.407 25.5345 165.49 25.9513C164.625 25.2397 168.559 25.5874 168.2 24.7033C167.508 24.6672 166.815 24.6778 166.121 24.6569C166.102 24.521 166.875 24.4369 166.331 24.228L166.325 24.2271Z" fill="#F9CF01"/>
<path d="M159.591 26.2835L158.869 26.2585C159.671 26.4368 160.235 26.6646 161.252 27.1733C162.466 27.1412 162.74 27.0111 162.841 26.8779L161.092 26.5617L159.331 26.3219L159.585 26.2827L159.591 26.2835Z" fill="#F9CF01"/>
<path d="M155.652 25.8909C156.271 25.4621 158.025 25.4505 157.037 24.79C154.919 24.589 155.509 25.024 154.222 25.1153C157.641 25.3601 153.212 25.2727 155.632 25.8331C154.957 25.8387 154.355 25.7851 153.779 25.7825C154.387 25.8761 154.968 26.0282 155.509 26.1819C155.477 26.169 155.461 26.1588 155.435 26.1392L155.418 26.1366C155.28 26.0606 155.235 26.0146 155.394 26.0703C155.405 26.072 155.446 26.0704 155.464 26.0654C155.497 26.0001 155.563 25.9476 155.64 25.8969C156.61 26.1088 155.778 26.0434 155.464 26.0654C155.449 26.0866 155.423 26.106 155.413 26.1357L155.424 26.1375L158.857 26.2592C158.148 26.1109 157.247 26.0113 155.641 25.8892L155.652 25.8909Z" fill="#F9CF01"/>
<path d="M138.611 22.6965C138.714 22.736 138.708 22.7743 138.715 22.8067C138.944 22.74 139.031 22.6985 138.611 22.6965Z" fill="#F9CF01"/>
<path d="M140.023 22.9583C139.763 23.0358 139.542 23.2366 138.729 23.2053C138.029 23.074 138.748 22.9656 138.721 22.8049C138.216 22.9462 136.972 23.201 138.508 23.4061L138.755 23.3346C140.139 23.4772 141.887 24.0596 141.638 24.1464C141.266 23.682 140.931 23.3877 140.029 22.9592L140.023 22.9583Z" fill="#F9CF01"/>
<path d="M148.005 24.0724L150.886 24.0307L149.47 23.4995L149.516 23.7649C147.895 23.5467 148.217 23.8937 147.998 24.0792L148.005 24.0724Z" fill="#F9CF01"/>
<path d="M163.309 27.2116L162.857 27.6745L164.59 27.1975L163.309 27.2116Z" fill="#F9CF01"/>
<path d="M166.966 27.735L166.756 28.1645C167.091 28.1222 167.432 28.0807 167.763 28.0612C167.499 27.9423 167.234 27.831 166.968 27.7273L166.966 27.735Z" fill="#F9CF01"/>
<path d="M122.75 120.357L121.883 120.451C122.29 120.428 122.554 120.398 122.75 120.357Z" fill="#F9CF01"/>
<path d="M128.911 120.65L129.083 120.433C128.789 120.545 128.66 120.635 128.911 120.65Z" fill="#F9CF01"/>
<path d="M234.519 83.1814C234.241 83.8656 233.856 84.5335 233.642 85.0244C233.423 85.5144 233.257 85.8094 233.469 85.8109L233.948 85.5406C234.102 84.5401 234.329 83.8167 234.519 83.1814Z" fill="#F9CF01"/>
<path d="M179.684 114.747C179.801 114.773 179.928 114.808 180.051 114.835C180.35 114.615 180.631 114.4 180.879 114.211C180.519 114.375 180.111 114.555 179.684 114.747Z" fill="#F9CF01"/>
<path d="M178.842 116.954C178.289 116.955 177.738 116.902 177.189 116.872C177.561 116.929 178.095 116.98 178.842 116.954Z" fill="#F9CF01"/>
<path d="M89.2823 117.048L88.2188 117.369C89.7481 117.652 89.1151 117.273 89.2823 117.048Z" fill="#F9CF01"/>
<path d="M203.166 39.2715C204.062 39.9257 204.79 40.3977 205.45 40.7574C204.394 39.9064 203.603 39.0179 203.166 39.2715Z" fill="#F9CF01"/>
<path d="M125.671 115.152C125.148 115.221 124.916 115.31 124.92 115.428C125.46 115.363 125.765 115.284 125.671 115.152Z" fill="#F9CF01"/>
<path d="M208.172 42.2338C208.027 42.0939 207.872 41.9762 207.718 41.8507C206.997 41.5596 206.287 41.2311 205.455 40.7585C206.226 41.4018 207.136 42.0429 208.172 42.2338Z" fill="#F9CF01"/>
<path d="M24.291 35.9063C24.387 35.8818 24.4966 35.8438 24.5846 35.8338C24.5964 35.7572 24.472 35.8165 24.291 35.9063Z" fill="#F9CF01"/>
<path d="M59.7693 38.2023C59.4225 38.1725 58.8709 38.0875 58.3418 38.0061C58.5892 38.0835 59.0226 38.1502 59.7693 38.2023Z" fill="#F9CF01"/>
<path d="M181.411 31.3683C181.281 31.3877 180.652 31.1725 181.411 31.3683Z" fill="#F9CF01"/>
<path d="M178.137 28.4221C178.312 28.4098 178.451 28.3684 178.497 28.2578C178.406 28.3615 178.284 28.4055 178.137 28.4221Z" fill="#F9CF01"/>
<path d="M216.185 43.71C216.185 43.71 216.221 43.739 216.242 43.7502C216.081 43.5214 216.105 43.5564 216.185 43.71Z" fill="#F9CF01"/>
<path d="M180.33 30.8015C180.601 30.9451 180.912 31.0948 181.259 31.242C181.11 31.1566 180.832 31.0197 180.33 30.8015Z" fill="#F9CF01"/>
<path d="M180.431 31.0732C180.177 30.9637 179.973 30.9087 179.781 30.8479C179.668 30.9088 179.745 30.9676 180.431 31.0732Z" fill="#F9CF01"/>
<path d="M182.466 31.6599C182.036 31.5388 181.638 31.3914 181.258 31.239C181.396 31.315 181.452 31.3628 181.41 31.372C181.631 31.4373 181.946 31.5249 182.465 31.6676L182.466 31.6599Z" fill="#F9CF01"/>
<path d="M35.3236 98.9217C35.2778 98.8833 35.2263 98.8441 35.1816 98.7981C34.3829 98.6046 34.7104 98.7568 35.3236 98.9217Z" fill="#F9CF01"/>
<path d="M222.484 105.29C222.523 105.264 222.538 105.243 222.571 105.217C222.533 105.235 222.485 105.251 222.449 105.261L222.486 105.282L222.484 105.29Z" fill="#F9CF01"/>
<path d="M219.689 107.065C220.806 105.908 221.504 105.64 222.454 105.271L221.213 104.431C220.726 105.309 220.214 106.2 219.694 107.074L219.689 107.065Z" fill="#F9CF01"/>
<path d="M108.028 119.323L109.969 119.998C107.46 120.464 105.739 120.003 107.544 120.852C107.791 120.077 109.733 120.297 111.69 120.419C113.649 120.533 115.608 120.647 115.83 119.876L117.118 120.309C116.738 120.266 116.668 120.349 116.294 120.307C118.79 121.238 118.324 119.361 121.619 119.774C122.762 119.95 123.552 120.205 122.746 120.354L125.364 120.077C126.115 120.138 125.902 120.402 125.156 120.342L129.107 120.388L129.072 120.429C129.366 120.318 129.837 120.18 130.316 120.058C130.793 119.92 131.28 119.784 131.598 119.708C132.582 119.938 131.083 119.871 131.324 120.065L133.54 119.702C134.398 120.116 132.559 120.497 131.049 120.429C132.966 122.006 132.893 120.048 137.237 120.991L135.157 121.178C136.425 122.07 138.065 121.783 140.374 122.318C139.832 122.062 135.782 120.899 138.183 120.534C138.846 120.644 139.723 120.748 141.024 120.378C141.002 120.937 142.267 120.764 143.835 120.685L143.686 121.428C145.397 121.168 145.281 120.798 146.3 120.431C148.187 120.448 148.55 121.012 148.979 121.477C152.006 121.466 146.926 120.669 150.519 120.346C153.03 120.467 154.816 120.054 157.841 119.417C159.6 119.555 157.522 119.884 158.146 120.059C158.671 119.827 159.2 119.611 159.723 119.355C160.108 119.329 159.979 119.528 159.913 119.619C161.236 119.26 160.04 118.872 162.113 118.465C162.679 117.598 166.353 119.219 168.925 118.044C169.558 118.165 168.619 118.536 168.81 118.792C172.336 117.709 171.833 117.944 174.715 116.738L177.182 116.884C176.271 116.736 176.396 116.411 176.996 116.034C177.595 115.657 178.672 115.213 179.67 114.757C179.027 114.595 178.475 114.471 178.111 114.407L181.31 113.462C181.698 113.521 181.381 113.824 180.865 114.222C181.082 114.122 181.286 114.029 181.449 113.944C182.602 114.012 182.02 114.54 181.208 115.096C180.812 115.011 180.422 114.928 180.037 114.845C179.25 115.427 178.515 116.049 178.689 116.451C178.898 116.327 179.3 116.186 179.745 116.066C179.537 116.222 179.407 116.351 179.507 116.413C179.62 116.469 179.953 116.247 180.475 115.968L181.228 116.654L181.398 116.297L185.639 116.067C186.389 115.729 187.112 115.371 187.848 115.008C188.582 114.62 189.335 114.22 190.139 113.82C191.748 113.028 193.573 112.254 195.952 111.58C194.802 112.427 195.754 112.605 195.73 113.321C194.385 112.856 192.04 114.426 189.551 114.801C190.849 114.602 190.58 114.998 190.257 115.191L194.655 113.57C194.586 114.169 195.621 113.804 196.792 113.797C195.855 112.887 200.039 112.241 201.811 111.435C201.953 111.785 201.548 112.285 199.346 112.744C201.826 112.985 202.374 110.622 204.797 110.753C204.262 110.897 203.971 110.915 203.773 111.158C204.382 110.83 205.458 110.542 206.293 110.397C207.129 110.244 207.725 110.227 207.378 110.494L206.848 110.647C208.628 110.233 211.341 109.454 213.657 108.521C215.971 107.603 217.866 106.519 218.047 105.944C218.104 106.055 217.776 107.255 217.588 107.539C219.536 105.626 221.404 103.6 223.09 101.444C222.933 101.975 223.477 102.41 223.744 102.959C224.006 103.5 223.979 104.2 222.571 105.226C223.43 104.881 224.521 104.424 226.172 102.981C225.573 103.28 224.441 102.809 225.177 102.258C226.337 101.983 226.733 101.809 227.185 101.605C227.405 101.483 227.644 101.355 227.995 101.167C228.351 100.987 228.823 100.732 229.514 100.322C229.077 100.614 228.968 100.277 229.106 99.751C229.176 99.4881 229.311 99.1727 229.503 98.8583C229.687 98.5269 229.922 98.1957 230.22 97.9055C230.116 98.249 230.877 98.804 230.486 99.3614L231.104 98.3386L231.67 97.2453C232.031 96.5112 232.421 95.8519 232.703 95.0666C232.204 96.139 233.144 95.979 233.938 95.3116C233.837 95.3741 233.928 95.1927 234.133 94.8725C234.237 94.7166 234.366 94.5175 234.509 94.2972C234.644 94.0599 234.789 93.7929 234.946 93.5201C235.25 92.9649 235.597 92.3616 235.878 91.8106C236.128 91.2315 236.333 90.7237 236.44 90.4039L235.938 91.304L235.685 91.7497L235.402 92.1674C235.482 92.0233 235.562 91.8792 235.641 91.7352C235.704 91.5885 235.767 91.4418 235.823 91.3019C235.941 91.023 236.041 90.7491 236.132 90.4972C236.314 89.9858 236.465 89.5321 236.554 89.1003C236.707 88.217 236.755 87.4972 236.788 86.7986C236.788 85.3757 236.761 84.0504 237.081 81.4884C237.136 81.8018 237.389 82.2161 237.687 82.2306C237.962 82.2416 238.385 81.8142 238.499 80.4011C238.391 80.0875 238.215 79.5835 237.992 78.9392C237.742 78.3145 237.418 77.5766 237.11 76.7708C236.79 75.9709 236.378 75.1257 236.06 74.2325C235.868 73.7963 235.677 73.3526 235.507 72.8885C235.335 72.4321 235.195 71.9571 235.013 71.4913L235.1 70.5899C234.779 69.6101 234.336 68.7054 233.934 67.7991C234.251 68.1372 234.679 68.6487 235.177 69.304C235.613 69.9888 236.158 70.7919 236.626 71.7162C237.07 72.6523 237.568 73.6438 237.887 74.678C238.057 75.1887 238.232 75.6927 238.371 76.1753C238.485 76.6698 238.592 77.1396 238.674 77.5745C238.833 75.4569 239.06 76.9068 238.744 73.8325C238.885 72.6503 239.339 75.3939 239.376 76.3457C239.394 75.7074 239.312 75.1162 239.281 74.4938C239.226 73.8833 239.214 73.2482 239.12 72.663C238.94 71.4705 238.805 70.2535 238.526 69.1082C238.406 69.2538 238.234 69.0241 238.034 68.6024C237.933 68.3915 237.829 68.1331 237.722 67.8585C237.602 67.5899 237.473 67.3042 237.345 67.0109C237.089 66.432 236.836 65.8615 236.62 65.4686C236.398 65.0825 236.202 64.896 236.117 65.0315C236.392 65.5274 236.601 66.0832 236.828 66.6264C237.049 67.1764 237.302 67.7002 237.496 68.2772C237.883 69.4313 238.3 70.5745 238.582 71.814C238.451 71.9503 238.241 71.7849 237.99 71.3945C237.858 71.2022 237.736 70.9488 237.572 70.6656C237.408 70.3824 237.233 70.0584 237.06 69.6877C236.885 69.3246 236.705 68.9217 236.523 68.4949C236.316 68.08 236.113 67.6421 235.914 67.1737C235.542 66.2251 235.074 65.2617 234.694 64.2104C234.48 62.9813 235.921 64.2507 236.063 64.0381C235.709 63.5692 234.002 60.398 233.876 59.98C234.275 60.4167 234.632 60.9094 234.992 61.4106C234.568 60.1647 233.878 59.4799 233.245 58.6867C232.934 58.2791 232.587 57.9129 232.267 57.4416C231.941 56.977 231.651 56.3929 231.342 55.7043C230.81 54.8952 230.183 52.641 229.811 52.8885C230.322 54.7731 228.923 57.044 227.996 56.7448C227.914 56.5994 227.29 55.526 226.623 54.36C225.913 53.2422 225.174 51.9792 224.908 51.4614C224.564 50.6656 225.145 50.7082 225.754 50.7942C226.357 50.8869 226.971 51.0518 226.685 50.3276C226.545 50.4469 225.837 50.072 225.552 49.903C224.969 49.0861 226.151 49.6434 224.635 48.2607C224.017 48.6816 221.6 45.4089 223.612 48.1659C222.05 47.0106 222.116 46.622 220.328 45.174C220.507 45.616 219.916 45.6812 219.083 45.5139C218.669 45.4345 218.195 45.2913 217.721 45.1166C217.245 44.9496 216.769 44.7511 216.36 44.524C216.533 44.4099 216.285 43.9261 216.164 43.7041C212.987 41.4325 211.333 40.052 208.208 38.3044C207.983 37.9726 206.542 36.9298 207.296 36.9678C206.796 36.8516 206.287 36.8984 205.302 36.4106C203.619 34.8067 207.525 37.4253 206.34 35.9214C206.202 36.1035 205.515 35.9273 204.682 35.6505C203.839 35.3957 202.845 35.0395 202.097 34.8461C202.322 35.7094 205.301 36.5277 206.784 36.9985C206.464 37.9186 203.738 37.5849 200.274 36.512C197.546 35.5526 199.303 35.4087 198.802 35.3316C193.79 33.1137 194.066 35.1028 190.02 32.9397C188.494 31.7353 190.26 31.7179 189.996 31.1534C192.28 31.7319 193.314 32.7276 194.797 33.3469C194.21 33.0063 193.634 32.6361 193.042 32.326C193.805 32.3811 195.304 32.862 196.058 33.3534C195.435 32.7962 193.311 31.8514 190.817 30.9828C189.574 30.5255 188.255 30.0333 187.002 29.5666C185.737 29.1373 184.536 28.7023 183.566 28.2714C182.802 28.2554 181.525 28.0901 182.053 28.5154L183.343 28.8157C184.395 29.6578 180.805 28.7611 182.353 29.4842C180.589 29.2673 178.545 29.367 176.201 28.4665L175.888 27.6522C175.9 27.873 177.376 28.4676 178.102 28.4309C177.031 28.5005 174.602 26.5004 173.305 27.2154C173.845 27.4862 174.376 27.7791 174.905 28.0872C173.115 27.9993 170.837 28.3521 168.735 27.6689C169.588 28.5664 169.244 27.6925 170.621 28.8192C170.051 28.1764 171.423 28.4736 172.689 28.7467C173.965 28.9901 175.118 29.324 174.17 28.5213C175.533 29.8491 176.775 29.6025 178.623 30.9191C178.609 30.6746 178.004 30.3 179.755 30.8666C179.849 30.8185 180.056 30.7801 180.192 30.7619C180.246 30.7858 180.261 30.7961 180.305 30.8106C180.274 30.7902 180.247 30.7782 180.215 30.7577C180.298 30.7469 180.31 30.741 180.184 30.7372C179.784 30.5271 179.464 30.3215 179.352 30.1556C180.361 29.8107 183.161 30.75 184.181 30.7506C185.203 31.1817 183.677 30.8764 184.195 31.2923L185.712 31.3225C185.733 31.8574 188.276 33.0387 185.748 32.5477C186.487 32.7631 187.214 33.0549 187.939 33.3229C189.156 34.0653 190.896 34.8102 192.043 34.9946C193.042 35.4689 194.772 35.493 193.78 35.5043L197.259 36.5951L197.255 36.7352C200.566 38.1676 204.348 38.9766 207.695 41.8608C208.806 42.3525 209.98 42.8146 211.679 44.0534L211.854 44.6746C212.556 45.0172 213.502 45.7961 214.369 46.4534C215.219 47.1471 215.991 47.743 216.368 47.7306C216.81 48.7838 218.316 50.0085 219.919 51.3107C221.507 52.6342 223.208 54.0454 224.12 55.1943L224.486 54.805C224.82 55.177 225.15 55.5406 225.498 55.8991C225.833 56.2711 226.168 56.6431 226.518 57.0254C227.24 57.762 227.932 58.6191 228.755 59.559L228.959 59.0587C229.696 59.8446 230.471 61.0976 231.142 62.6159C231.852 64.1089 232.461 65.8758 233.127 67.5733C232.901 67.4368 232.597 66.5614 232.437 65.88C232.899 68.1949 233.709 70.2664 234.386 72.458C235.023 74.6435 235.423 76.9879 235.105 79.128C235.172 80.1546 235.127 80.9296 234.937 81.643C234.951 81.5513 234.954 81.458 234.953 81.3875C234.937 81.4944 234.913 81.6471 234.888 81.8075C234.762 82.2571 234.623 82.7049 234.496 83.1935C234.645 82.7865 234.776 82.3845 234.86 82.0299C234.81 82.4287 234.763 82.9218 234.706 83.476C234.612 84.0165 234.515 84.6037 234.435 85.2011C234.261 85.3228 234.116 85.4412 233.927 85.5451C233.901 85.635 233.884 85.7105 233.859 85.8004C233.382 86.7981 233.764 86.7552 234.239 86.2889C234.119 86.8802 234.042 87.4547 233.989 87.9079C233.504 88.1772 233.268 88.8913 232.997 89.6783C232.665 90.4091 232.295 91.2043 231.73 91.4691C231.696 91.6905 231.488 92.1042 231.205 92.6314C231.062 92.8907 230.902 93.1788 230.734 93.4814C230.542 93.7567 230.336 94.0456 230.136 94.3353C229.363 95.5375 228.464 96.6265 228.44 97.2326C228.359 97.1576 228.097 97.3283 228.534 96.9188C228.051 97.2899 227.583 97.6714 227.123 98.0384C226.653 98.396 226.231 98.8158 225.831 99.2467L225.199 98.9306C224.598 99.7293 223.95 100.458 223.287 101.208C221.807 101.614 221.214 101.687 222.417 100.425C220.909 101.726 220.232 102.114 219.634 102.483C219.036 102.852 218.496 103.176 217.114 104.182L217.189 103.694C216.158 104.137 214.565 105.354 213.88 105.201C212.657 105.208 209.746 106.12 206.329 107.017C202.906 107.843 199.009 108.869 195.922 109.16C197.191 110.231 193.032 109.176 192.844 110.25C192.472 110.012 191.606 110.02 192.586 109.53C189.464 110.495 187.865 110.069 185.724 111.288C185.354 111.035 186.378 110.708 186.052 110.58C185.805 110.69 185.067 111.03 184.731 110.892C184.405 110.764 185.181 110.547 185.671 110.326C182.471 110.935 182.174 111.968 181.964 112.921C180.322 112.77 179.518 112.975 178.351 113.78C177.776 113.551 176.826 113.397 178.821 112.977C177.697 113.124 171.954 113.491 171.843 114.248C171.49 114.107 170.274 114.413 169.979 114.531C167.456 114.823 167.236 114.719 164.758 115.057L165.442 115.107C164.455 116.089 163.381 115.509 161.38 115.819L161.441 115.719C159.16 115.641 158.663 115.729 158.175 115.826C157.688 115.923 157.208 116.005 154.961 115.784L155.19 116.32C154.729 117.515 151.212 115.918 148.577 116.459L149.505 116.75C148.054 117.199 145.588 115.248 144.17 115.139C143.862 115.045 144.671 114.958 145.111 114.87C141.405 114.276 144.588 115.61 141.784 115.858C141.294 115.486 142.505 114.844 140.634 114.829C139.725 114.525 135.108 116.066 132.604 115.305C133.145 115.607 133.679 115.916 132.368 116.129C131.868 116.153 131.291 116.088 130.67 116C130.055 115.882 129.401 115.75 128.752 115.627C127.452 115.387 126.175 115.261 125.231 115.702C124.986 115.61 124.901 115.526 124.895 115.455C124.125 115.548 122.886 115.591 121.72 115.678C120.554 115.764 119.462 115.822 118.977 116.053C117.796 114.034 109.478 116.263 109.732 114.426L105.103 113.995L105.249 113.83C103.78 113.603 102.772 113.565 101.992 113.617C101.215 113.646 100.665 113.78 100.12 113.915C99.4558 113.696 99.977 113.604 100.048 113.521C95.807 112.509 95.3717 112.567 91.6369 112.836L91.3548 112.198C90.8416 112.276 89.3361 111.763 87.4207 111.217C85.5065 110.665 83.1853 110.135 81.0523 109.955C81.1067 109.901 81.2133 109.808 81.5536 109.806C79.1525 109.608 76.4277 108.595 74.0449 107.829C71.6796 106.988 69.6551 106.403 68.5818 107.199L65.4073 106.898C69.3422 108.098 64.6206 107.629 66.1797 108.393C64.578 108.13 62.2889 106.644 64.216 107.113L64.4932 107.296C65.4225 106.462 59.6847 105.446 59.9572 104.761C58.0252 104.174 56.0964 103.603 54.2134 102.923C52.328 102.257 50.4746 101.534 48.6484 100.784C44.9948 99.2908 41.466 97.6607 38.0639 95.9564C38.2394 96.3509 38.4081 96.7521 38.5904 97.1398C37.7929 96.7434 37.0058 96.3173 36.2163 95.9065C35.6618 95.3911 35.5919 94.8722 37.2776 95.7493C36.5362 94.8768 34.3314 94.639 34.2111 94.7846C32.6359 93.7134 33.0499 93.6442 33.7159 93.8093C34.3831 93.9668 35.3265 94.2762 34.828 93.9962C34.3663 93.7766 33.9069 93.5416 33.4544 93.3L33.7242 93.5682C32.5252 93.2351 32.2718 93.5713 30.3454 92.274C29.1762 91.3356 29.9081 91.4092 29.4451 91.0487C29.4702 90.9978 29.3246 90.8581 28.7307 90.5243C27.7996 89.8728 26.9141 89.1501 26.015 88.441L26.8284 89.8562C25.4656 89.2398 24.2917 87.8082 25.215 89.4827C24.5504 88.2233 22.0885 86.1008 19.9381 83.7136C17.7727 81.3865 15.9825 78.7186 15.7014 77.9248C14.2224 76.2663 13.1354 74.121 12.1813 71.2612C12.2543 71.6477 12.2112 72.0398 12.0412 72.0215C11.87 72.0107 11.5618 71.5802 11.1995 70.2657C11.8838 70.3867 11.6224 69.1659 11.3599 67.5775C11.085 65.9951 10.8895 63.9714 11.2608 62.8324C11.0481 63.8394 10.8481 61.9948 10.8819 60.241C10.8898 59.3666 10.9493 58.5314 10.9363 58.0916C10.9121 57.65 10.801 57.586 10.5065 58.3381C10.6986 57.2028 10.8485 57.2024 10.9608 57.2588C11.0844 57.3169 11.2098 57.4379 11.4965 56.6611C11.8027 54.0736 12.9739 51.369 14.7019 49.1646C15.5296 48.0177 16.5387 47.0394 17.5547 46.0544C18.6187 45.1315 19.7052 44.2121 20.8643 43.382C20.8827 43.1503 19.9918 43.4353 20.9198 42.4602C21.3817 42.3046 21.8578 42.2059 22.3239 42.0979C22.7899 41.9898 23.2504 41.8809 23.7263 41.8213C24.1992 41.5188 24.3572 41.1288 24.6423 40.7739C24.9307 40.4353 25.3551 40.1488 26.3258 40.0559C26.0444 40.0126 25.611 39.9458 26.2669 39.5777C31.3427 37.8966 36.5934 36.6879 41.9171 36.3896C47.2376 36.0752 52.5875 36.6175 57.6391 38.3491C56.2919 37.7429 57.2321 37.8486 58.3151 37.9997C57.6313 37.8006 58.4084 37.5059 58.3157 37.2102C59.7323 37.7019 61.1477 38.2013 62.554 38.7227C63.4785 38.1067 67.2337 39.5761 67.8203 38.9472L66.4139 38.801C68.4081 38.3106 64.1791 36.4008 64.6331 35.3605C62.4074 35.9325 59.4003 32.8974 55.7368 33.8266C55.0099 33.4958 56.4349 33.5588 56.0673 33.252C55.1264 33.5997 54.0619 33.5531 52.1253 33.1454L52.3648 33.0494C49.5899 32.8098 47.6045 32.6448 45.5346 32.4669C43.4543 32.3186 41.2819 32.1326 38.076 32.3348L38.5472 32.8296C37.1766 32.9 36.8877 32.793 36.2367 32.7553C35.4569 33.2919 36.419 33.143 37.3989 33.028C38.3809 32.9369 39.3718 32.8627 38.6551 33.4013C37.7601 32.9273 35.3333 33.2338 32.9941 33.7571C30.6495 34.2404 28.3977 35.0195 27.6914 34.6293C25.5836 35.4462 28.3923 34.9796 26.299 35.8144L25.6855 35.7199L25.2396 36.3705C23.8716 36.9104 23.1021 36.8936 22.9831 36.6564C23.3232 36.5055 23.9074 36.0794 24.2635 35.8997C23.7986 36.0001 23.2527 36.2522 22.6897 36.5408C22.4082 36.6851 22.1188 36.8438 21.8337 37.011C21.552 37.1944 21.2759 37.3786 21.0065 37.556C19.9204 38.2488 19.0352 39.0585 18.7154 39.189C19.3906 38.8083 20.0514 38.3706 20.7329 38.0611C20.0427 38.5021 19.3506 39.0679 18.6329 39.5751C17.9361 40.1714 17.2061 40.6844 16.5076 41.3665C15.082 42.6168 13.6986 44.1551 12.4581 45.8873C11.2032 47.6017 10.1399 49.6427 9.37814 51.7457C8.60963 53.8556 8.18983 56.0582 8.05859 58.0707L8.32714 57.4866C8.19 59.0134 8.17315 60.0584 8.14301 60.8903C8.11851 61.7231 8.09315 62.3368 8.08116 62.9761C8.07798 63.2961 8.07479 63.6162 8.07136 63.9753C8.08036 64.3285 8.10154 64.7148 8.12575 65.1563C8.20348 66.0361 8.33481 67.1665 8.7038 68.6618L8.61383 68.4604C9.04371 69.5976 9.54334 71.1053 10.0451 72.6367C9.7123 71.9913 9.81565 72.7421 9.93521 73.425C10.056 74.1003 10.1589 74.7416 9.70118 73.8972C10.2978 75.2243 10.7278 75.9863 11.021 76.4771C11.3074 76.9746 11.4874 77.1899 11.6363 77.3458C11.934 77.6574 12.1554 77.7541 13.3226 79.0048L13.4751 79.9978C14.3491 80.7578 14.4832 80.7472 16.0758 82.7905C14.6047 81.3053 16.7061 84.6466 15.0039 83.0164C16.3842 85.6525 17.9149 86.9749 19.1289 87.9592C19.7283 88.4815 20.2812 88.895 20.7559 89.3668C21.2262 89.8302 21.6012 90.3882 21.9079 91.0531C23.0917 91.2979 22.2778 90.4846 21.3867 89.5734C20.9366 89.1288 20.4471 88.6782 20.1402 88.3886C19.8413 88.0846 19.7206 87.9331 19.9898 88.1309C19.3772 87.0202 21.8177 88.7954 22.9903 89.8985C23.6135 90.4166 23.9609 91.2285 24.6029 92.1482C24.9234 92.6119 25.3054 93.1242 25.8134 93.6793C26.3318 94.2047 26.984 94.7586 27.8175 95.3326C27.4855 95.0938 27.4287 95.1633 27.1024 94.9254C27.6643 95.5044 28.3305 95.8181 29.0156 96.1581C29.704 96.5143 30.4171 96.8977 31.1249 97.5774C32.2558 97.4545 33.1735 98.7919 33.738 98.0814C32.6493 97.5932 31.5848 97.0228 30.5055 96.4735C32.383 97.302 34.3887 97.2981 37.2248 99.2359C36.9337 99.2927 35.965 99.0732 35.3069 98.8937C36.1003 99.5787 37.049 99.5919 37.8841 100.268C37.3282 101.034 33.8985 98.5361 31.7426 98.0556C32.5413 98.9682 35.6381 99.4372 34.3307 99.8457C35.2459 99.627 36.097 100.086 37.0635 100.657C38.0371 101.183 39.1213 101.85 40.4731 101.902L40.1558 102.353C40.5644 102.432 41.4346 102.542 42.1358 102.853L40.6532 102.977C42.7878 103.259 44.3188 105.066 46.3185 105.475C42.3236 103.953 45.5979 104.504 44.0249 103.457C46.5698 104.068 47.1812 104.662 47.8585 105.353C48.5301 106.043 49.2744 106.822 52.0828 107.629C51.3087 107.456 49.3429 106.34 50.579 106.507C51.6058 106.985 52.9503 107.646 53.5308 108.142C57.2538 109.184 53.0937 107.425 54.7513 107.587C55.8546 108.617 56.6312 107.876 58.2993 108.157L58.1809 108.701C62.3103 110.322 59.5596 107.905 63.2464 109.481L61.4768 109.748L63.4945 110.153L62.946 110.647C65.211 110.792 65.8606 111.064 67.9527 111.809C67.5425 111.292 68.4398 110.891 70.3252 111.369C71.5367 112.032 69.496 111.702 72.1783 112.318C71.5044 112.504 70.7569 112.756 69.6995 111.952C69.5441 112.1 69.0312 112.139 68.8759 112.287C70.1817 113.012 72.332 113.304 73.3075 113.516C72.9363 113.42 72.4978 113.274 72.2835 113.132C73.6262 113.206 74.9782 113.219 76.3244 113.269C76.8991 113.616 76.3782 113.669 75.8629 113.722C76.6621 113.845 77.2591 113.71 78.4251 113.921C78.0384 114.3 78.023 114.774 76.3417 114.617L80.1503 114.953C80.3594 115.204 81.9561 115.911 81.4452 115.973C83.4689 116.676 86.6853 116.069 89.3682 116.943C89.5275 116.882 89.8263 116.849 90.4175 116.901C91.6944 117.215 92.9002 117.542 94.1729 117.808C95.4456 118.074 96.7943 118.258 98.3791 118.182L100.006 119.253C102.446 119.426 97.7894 117.896 101.844 118.168C104.732 118.237 102.815 118.974 103.787 119.319C105.265 119.078 107.839 118.528 110.377 119.482C109.488 119.533 108.826 119.337 108.007 119.305L108.028 119.323ZM138.128 120.518C137.534 120.63 136.344 120.986 135.941 120.65C136.655 120.018 137.143 120.327 138.128 120.518ZM184.151 115.033C183.719 115.294 183.047 115.316 182.28 115.245C182.832 115.103 183.457 115.012 184.151 115.033ZM189.733 33.6069C189.733 33.6069 189.773 33.613 189.797 33.6012C190.954 34.2483 190.547 34.006 189.733 33.6069ZM187.275 32.4701C187.001 32.4514 187 32.5372 187.091 32.6529C187.299 32.5755 187.868 32.7725 188.506 33.0428C188.364 32.8411 188.064 32.6229 187.281 32.471L187.275 32.4701ZM29.151 91.0503L29.5335 91.4845C28.4824 90.9395 28.8133 90.9983 29.151 91.0503Z" fill="#F9CF01"/>
<path d="M178.956 116.699C178.788 116.633 178.739 116.54 178.702 116.44C178.474 116.577 178.47 116.679 178.956 116.699Z" fill="#F9CF01"/>
<path d="M89.4763 116.991L89.3862 116.977C89.332 116.992 89.2992 117.018 89.2832 117.047L89.4763 116.991Z" fill="#F9CF01"/>
<path d="M226 49.2368C226.401 49.737 226.592 50.064 226.695 50.3304C226.783 50.2499 226.659 49.9333 226 49.2368Z" fill="#F9CF01"/>
<path d="M173.504 29.5544C174.069 29.6258 174.624 29.7268 175.18 29.8203C174.378 29.642 174.12 29.4457 173.732 29.2686C173.746 29.4038 174.024 29.6579 173.504 29.5544Z" fill="#F9CF01"/>
<path d="M159.476 23.5862C159.217 23.6246 158.948 23.5362 158.689 23.5746L158.723 23.8382C159.784 23.9467 160.558 23.8232 159.476 23.5862Z" fill="#F9CF01"/>
<path d="M172.306 27.4079C172.261 26.9156 171.181 26.8589 169.99 26.699C170.063 26.7102 170.13 26.7206 170.197 26.7387C169.733 27.3171 171.023 27.3591 172.306 27.4079Z" fill="#F9CF01"/>
<path d="M169.72 26.6554C169.355 26.5991 168.983 26.5419 168.636 26.4414C168.456 26.6721 169.063 26.5854 169.72 26.6554Z" fill="#F9CF01"/>
<path d="M183.974 31.7519C183.459 31.469 183.497 32.2342 183.235 31.9512C182.489 32.3451 187.016 32.3533 183.974 31.7519Z" fill="#F9CF01"/>
<path d="M171.645 25.6882L171.958 26.3471L172.705 26.0237L171.645 25.6882Z" fill="#F9CF01"/>
<path d="M180.8 28.3437L178.968 27.7092C178.975 27.8121 178.728 27.8054 178.428 27.7748C179.571 28.0919 180.807 28.5248 180.8 28.3437Z" fill="#F9CF01"/>
<path d="M178.427 27.7699C177.83 27.6083 177.257 27.4736 176.91 27.4821C177.233 27.5551 177.934 27.7172 178.427 27.7699Z" fill="#F9CF01"/>
<path d="M174.249 26.0493C174.428 26.1238 174.604 26.2136 174.781 26.3034L176.088 26.6846C175.475 26.4729 174.865 26.2458 174.248 26.057L174.249 26.0493Z" fill="#F9CF01"/>
<path d="M200.327 35.536C200.987 35.7785 201.654 36.0066 202.311 36.272C202.567 36.1784 202.083 35.8064 201.332 35.5576C200.825 35.4796 200.081 35.2241 200.326 35.5436L200.327 35.536Z" fill="#F9CF01"/>
<path d="M194.834 31.5388C195.335 31.8744 195.337 32.0155 195.584 32.3197L195.841 31.6549L194.834 31.5388Z" fill="#F9CF01"/>
<path d="M200.631 33.7779C200.883 33.6758 203.645 34.5238 201.144 33.4419C200.887 33.5355 198.878 32.8113 200.631 33.7779Z" fill="#F9CF01"/>
<path d="M227.484 53.4782C227.358 53.3257 227.219 53.1791 227.085 53.041L226.535 54.0289L227.477 53.485L227.484 53.4782Z" fill="#F9CF01"/>
<path d="M238.268 86.8696C238.79 85.0111 238.704 84.7477 238.625 84.548C238.542 84.3397 238.461 84.1944 238.811 82.5205C238.766 82.0679 238.625 82.7576 238.481 83.4312C238.359 84.1083 238.149 84.764 238.162 84.3048C238.03 85.4258 237.859 86.275 237.828 86.7393C237.77 87.1916 237.866 87.2769 238.28 86.8638L238.268 86.8696Z" fill="#F9CF01"/>
<path d="M238.148 84.3135C238.192 83.9523 238.182 83.5672 238.187 83.1609C238.152 83.8051 238.161 84.1197 238.148 84.3135Z" fill="#F9CF01"/>
<path d="M65.3945 39.8885L66.9166 40.4439L65.9774 39.8452L65.3945 39.8885Z" fill="#F9CF01"/>
<path d="M68.55 39.6257L68.7868 40.4451L69.8458 39.9661C69.4832 39.926 68.7862 39.85 68.5488 39.6333L68.55 39.6257Z" fill="#F9CF01"/>
<path d="M142.536 121.965L142.668 121.782C142.426 121.596 142.046 121.592 141.287 121.585L142.53 121.972L142.536 121.965Z" fill="#F9CF01"/>
<path d="M120.644 121.005L121.019 121.039L120.387 120.323L120.644 121.005Z" fill="#F9CF01"/>
<path d="M102.262 120.132C103.005 120.246 103.9 120.196 104.643 120.31C103.005 120.246 102.175 119.273 102.262 120.132Z" fill="#F9CF01"/>
</g>
</svg>
