<svg width="302" height="19" viewBox="0 0 302 19" fill="none" xmlns="http://www.w3.org/2000/svg">
<g clip-path="url(#clip0_127_568)">
<g clip-path="url(#clip1_127_568)">
<mask id="mask0_127_568" style="mask-type:luminance" maskUnits="userSpaceOnUse" x="0" y="0" width="302" height="18">
<path d="M302 0.640137H0V17.6401H302V0.640137Z" fill="white"/>
</mask>
<g mask="url(#mask0_127_568)">
<path d="M301.646 2.46501C302.089 2.51789 301.929 1.96268 302 1.85693C301.256 1.98031 301.664 2.60602 301.646 2.46501Z" fill="#F9CF01"/>
<path d="M294.277 3.71593L294.41 3.49561L293.32 4.05082L294.277 3.71593Z" fill="#F9CF01"/>
<path d="M287.389 3.70654C288.044 4.64951 289.886 3.55672 291.108 3.89161L291.312 4.10311L291.87 3.34521C290.382 3.46859 288.443 3.97092 287.389 3.70654Z" fill="#F9CF01"/>
<path d="M283.712 1.66262C283.942 2.03276 282.915 1.97989 284.571 1.77719C284.491 1.73313 284.465 1.7155 284.412 1.68025C284.261 1.68025 284.057 1.68025 283.712 1.65381V1.66262Z" fill="#F9CF01"/>
<path d="M284.413 1.68954C283.935 1.38109 285.14 1.6631 284.413 1.68954V1.68954Z" fill="#F9CF01"/>
<path d="M281.065 1.90976L282.021 1.57487C281.818 1.35455 280.967 1.31049 281.286 1.15186C280.303 1.33693 280.507 1.54843 281.065 1.90095V1.90976Z" fill="#F9CF01"/>
<path d="M280.162 2.59592L280.658 2.45492C280.569 2.36679 280.436 2.33154 280.162 2.59592Z" fill="#F9CF01"/>
<path d="M281.702 2.16553L280.648 2.46517C280.789 2.61499 280.798 2.92344 281.126 2.35941C281.037 2.64142 281.25 2.36823 281.693 2.16553H281.702Z" fill="#F9CF01"/>
<path d="M282.297 2.30596C282.837 2.50866 283.528 2.63204 282.571 2.96692C284.396 2.83473 284.13 2.17377 282.297 2.30596Z" fill="#F9CF01"/>
<path d="M287.042 4.68578L287.759 4.95898L288.379 4.64172C288.069 4.80035 286.997 4.38614 287.042 4.68578Z" fill="#F9CF01"/>
<path d="M275.104 1.44287C275.042 1.64557 275.432 1.98046 275.503 2.23603L276.211 2.0069C275.848 1.8747 275.157 1.75132 275.113 1.45168L275.104 1.44287Z" fill="#F9CF01"/>
<path d="M275.503 2.23584L274.449 2.58836C275.396 2.62361 275.565 2.45616 275.503 2.23584Z" fill="#F9CF01"/>
<path d="M279.992 3.64503L281.728 2.91357L279.656 3.65385L279.992 3.64503Z" fill="#F9CF01"/>
<path d="M271.075 1.43339L271.668 0.966309L270.605 1.67134L271.075 1.43339Z" fill="#F9CF01"/>
<path d="M268.401 1.53023C268.844 1.14247 267.79 0.878084 268.259 0.640137C267.533 0.71064 266.913 1.04553 266.355 1.34516C266.949 1.17772 267.578 1.21297 268.401 1.53023Z" fill="#F9CF01"/>
<path d="M265.418 1.78586C265.71 1.68892 266.02 1.52147 266.356 1.34521C266.038 1.43334 265.728 1.56554 265.418 1.78586Z" fill="#F9CF01"/>
<path d="M272.652 2.49032C272.572 2.36694 272.413 2.04968 271.82 1.91748L272.236 2.48151C272.36 2.48151 272.51 2.48151 272.652 2.48151V2.49032Z" fill="#F9CF01"/>
<path d="M272.244 2.5006L272.226 2.48297C271.774 2.46535 271.464 2.45654 271.332 2.45654C271.447 2.45654 271.721 2.47416 272.244 2.5006Z" fill="#F9CF01"/>
<path d="M272.758 2.4917C272.758 2.4917 272.687 2.4917 272.652 2.4917C272.696 2.54458 272.714 2.56221 272.758 2.4917Z" fill="#F9CF01"/>
<path d="M277.221 3.15186C276.601 3.46912 275.308 3.81282 276.565 4.28872C277.008 3.90095 276.291 3.62775 277.221 3.15186Z" fill="#F9CF01"/>
<path d="M273.271 3.19492L274.395 3.3183C274.369 3.16848 274.165 2.94816 274.475 2.79834L273.271 3.19492Z" fill="#F9CF01"/>
<path d="M272.723 3.38099L273.272 3.19592L272.855 3.15186L272.723 3.38099Z" fill="#F9CF01"/>
<path d="M267.339 2.30591C266.851 2.55267 266.329 2.57911 265.727 2.61436C266.373 2.72011 267.037 2.7818 267.666 2.77299C267.755 2.59673 268.029 2.27947 267.339 2.29709V2.30591Z" fill="#F9CF01"/>
<path d="M269.721 2.44678C269.721 2.44678 269.641 2.47322 269.615 2.48203C269.685 2.5261 269.738 2.54372 269.721 2.44678Z" fill="#F9CF01"/>
<path d="M259.828 2.65771L259.925 2.75465L259.952 2.65771H259.828Z" fill="#F9CF01"/>
<path d="M267.773 2.87899C268.26 2.98475 268.543 2.84374 268.818 2.66748C268.454 2.72917 268.074 2.76443 267.666 2.77324C267.631 2.85255 267.622 2.90543 267.773 2.87899Z" fill="#F9CF01"/>
<path d="M263.77 2.05808C264.017 2.17264 264.31 2.26959 264.611 2.36653C264.363 2.19027 263.858 1.91707 263.77 2.05808Z" fill="#F9CF01"/>
<path d="M269.455 2.32385C269.455 2.32385 269.499 2.30622 269.526 2.29741C269.366 2.17403 269.384 2.23572 269.455 2.32385Z" fill="#F9CF01"/>
<path d="M269.454 2.32277C269.206 2.40209 269.011 2.54309 268.816 2.66647C269.109 2.62241 269.383 2.56072 269.613 2.47259C269.551 2.42853 269.489 2.37565 269.454 2.31396V2.32277Z" fill="#F9CF01"/>
<path d="M258.076 6.29814C258.156 5.77818 259.422 5.27585 260.52 5.83106C261.592 5.42567 260.875 3.71598 259.927 2.75537C259.892 2.98451 259.901 3.19602 258.794 3.51328C259.183 3.79529 261.256 4.15662 260.326 4.64133C258.856 4.92334 259.121 4.46507 258.404 4.19187C259.015 4.83521 256.544 5.16128 256.872 6.11307L258.156 5.76056C258.183 5.91038 257.713 6.14832 258.076 6.28052V6.29814Z" fill="#F9CF01"/>
<path d="M262.042 2.78967L262.493 2.71917C261.971 2.63104 261.599 2.42834 260.908 2.02295C260.147 2.28734 259.996 2.48122 259.943 2.65748L262.192 2.71036L262.033 2.78967H262.042Z" fill="#F9CF01"/>
<path d="M264.549 2.70259C264.195 3.27543 263.105 3.52219 263.779 4.13909C265.116 4.08621 264.717 3.65438 265.514 3.40762C263.353 3.55744 266.134 3.09036 264.567 2.77309C264.992 2.67615 265.373 2.6409 265.736 2.61446C265.346 2.54396 264.974 2.46464 264.62 2.35889C264.638 2.37652 264.655 2.38533 264.673 2.39414H264.682C264.779 2.46464 264.807 2.50871 264.701 2.46464C264.701 2.46464 264.664 2.47346 264.655 2.47346C264.638 2.55277 264.603 2.62328 264.559 2.68497C263.93 2.5704 264.46 2.53515 264.655 2.47346C264.655 2.44702 264.682 2.42058 264.682 2.38533L262.521 2.70259C262.981 2.78191 263.557 2.75547 264.567 2.68497L264.549 2.70259Z" fill="#F9CF01"/>
<path d="M275.415 5.51451C275.344 5.46163 275.353 5.42638 275.344 5.38232C275.202 5.45282 275.149 5.49688 275.415 5.51451Z" fill="#F9CF01"/>
<path d="M274.519 5.17805C274.679 5.09873 274.803 4.8696 275.316 4.92247C275.759 5.08992 275.316 5.19567 275.343 5.38074C275.653 5.23092 276.423 4.96654 275.449 4.69334L275.299 4.77265C274.431 4.57877 273.306 3.87374 273.457 3.79443C273.714 4.30557 273.935 4.6669 274.519 5.16923V5.17805Z" fill="#F9CF01"/>
<path d="M269.474 4.08545L267.676 4.37628L268.597 4.8698L268.553 4.57016C269.58 4.68473 269.359 4.31459 269.483 4.08545H269.474Z" fill="#F9CF01"/>
<path d="M259.625 2.37712L259.855 1.76904L258.828 2.6327L259.625 2.37712Z" fill="#F9CF01"/>
<path d="M257.286 2.46478L257.366 1.94482L256.746 2.26208L257.286 2.46478Z" fill="#F9CF01"/>
<path d="M125.424 12.1226L124.902 12.2901C125.15 12.2372 125.309 12.1755 125.424 12.1226Z" fill="#F9CF01"/>
<path d="M129.249 12.0002L129.329 11.7358C129.161 11.8856 129.09 11.9914 129.249 12.0002Z" fill="#F9CF01"/>
<path d="M199.769 3.38965C198.989 2.92257 198.104 2.18229 198.21 2.76393L198.458 3.32796C198.998 3.21339 199.406 3.26627 199.76 3.38083L199.769 3.38965Z" fill="#F9CF01"/>
<path d="M160.502 7.86679C160.573 7.91966 160.653 7.98136 160.733 8.03424C160.91 7.83154 161.078 7.63765 161.237 7.47021C161.016 7.59359 160.768 7.72578 160.502 7.86679Z" fill="#F9CF01"/>
<path d="M160.033 10.2543L159.006 9.91943C159.236 10.0428 159.572 10.1574 160.033 10.2543Z" fill="#F9CF01"/>
<path d="M104.57 13.6128L103.977 14.2208C104.942 14.1768 104.499 13.9036 104.57 13.6128Z" fill="#F9CF01"/>
<path d="M233.298 2.94082C232.625 2.72932 232.102 2.64119 231.633 2.61475C232.439 2.93201 233.094 3.41672 233.298 2.94082Z" fill="#F9CF01"/>
<path d="M126.691 5.97998C126.372 6.09455 126.239 6.21793 126.248 6.35012C126.576 6.23556 126.762 6.12099 126.691 5.97998Z" fill="#F9CF01"/>
<path d="M229.711 2.65039C229.826 2.70327 229.941 2.72971 230.065 2.78259C230.552 2.67683 231.04 2.59752 231.633 2.62395C231.04 2.38601 230.358 2.245 229.711 2.65039Z" fill="#F9CF01"/>
<path d="M28.844 17.2253C28.7908 17.1989 28.72 17.1989 28.6668 17.1636C28.658 17.243 28.7288 17.243 28.844 17.2253Z" fill="#F9CF01"/>
<path d="M6.40234 12.9077C6.61488 12.8549 6.96911 12.8372 7.30563 12.802C7.13737 12.7755 6.86284 12.802 6.40234 12.9077Z" fill="#F9CF01"/>
<path d="M247.855 2.29726C247.934 2.23557 248.351 2.25319 247.855 2.29726V2.29726Z" fill="#F9CF01"/>
<path d="M250.3 4.54443C250.194 4.60612 250.114 4.69425 250.105 4.82644C250.141 4.68543 250.211 4.5973 250.3 4.54443Z" fill="#F9CF01"/>
<path d="M224.821 6.28857C224.821 6.28857 224.794 6.28857 224.777 6.28857C224.927 6.39432 224.901 6.3767 224.821 6.28857Z" fill="#F9CF01"/>
<path d="M248.609 2.55172C248.423 2.48122 248.21 2.42834 247.971 2.38428C248.077 2.42834 248.272 2.48122 248.609 2.55172Z" fill="#F9CF01"/>
<path d="M248.502 2.27944C248.67 2.29706 248.812 2.31469 248.936 2.33232C248.998 2.23537 248.936 2.17368 248.502 2.27944Z" fill="#F9CF01"/>
<path d="M247.164 2.3414C247.447 2.33258 247.713 2.35902 247.97 2.39427C247.873 2.35902 247.828 2.32377 247.855 2.30615C247.713 2.30615 247.501 2.32377 247.164 2.3414Z" fill="#F9CF01"/>
<path d="M69.3143 13.3298C69.3143 13.3298 69.2434 13.3034 69.208 13.2769C68.7209 13.5413 68.9423 13.4884 69.3143 13.3298Z" fill="#F9CF01"/>
<path d="M186.998 9.6471C186.998 9.6471 187.033 9.62947 187.051 9.62066C187.024 9.62066 186.998 9.61184 186.98 9.60303L186.998 9.6471Z" fill="#F9CF01"/>
<path d="M185.229 10.1137C185.972 9.38228 186.406 9.45278 186.982 9.59378L186.353 7.95459L185.229 10.1137Z" fill="#F9CF01"/>
<path d="M116.276 12.6604L117.552 13.1275C116.082 14.0352 114.975 13.7885 116.179 14.4671C116.276 12.6692 121.023 14.0881 121.129 12.2903L121.971 12.634C121.732 12.634 121.696 12.7309 121.466 12.7221C123.104 13.5153 122.599 11.3737 124.681 11.55C125.407 11.6558 125.92 11.9025 125.433 12.1317L127.019 11.6205C127.488 11.6381 127.382 11.9554 126.921 11.9378L129.356 11.6998L129.339 11.7527C129.675 11.4531 130.455 10.986 130.827 10.7921C131.455 11.0212 130.525 10.9948 130.694 11.2151L132.031 10.7216C132.598 11.1622 131.5 11.6558 130.561 11.6293C131.898 13.3655 131.668 11.127 134.44 12.0788L133.173 12.352C134.032 13.339 135.024 12.9336 136.485 13.5153C136.131 13.198 133.528 12.0171 134.98 11.5236C135.396 11.6469 135.945 11.691 136.724 11.3032C136.76 11.9378 137.521 11.7527 138.496 11.6822L138.46 12.5282C139.496 12.2462 139.399 11.8232 140.001 11.4178C141.17 11.4619 141.436 12.1052 141.728 12.6428C143.605 12.7133 140.4 11.6381 142.605 11.4002C144.172 11.6646 145.253 11.2856 147.095 10.7128C148.193 10.9684 146.926 11.2327 147.325 11.4619L148.264 10.7568C148.503 10.7568 148.432 10.9772 148.396 11.0829C149.202 10.7921 148.432 10.2369 149.707 9.96373C150.017 9.02075 152.381 11.2327 153.922 10.1312C154.321 10.3603 153.754 10.6511 153.878 10.9772C156.021 10.2193 155.72 10.4132 157.474 9.42614L159.006 9.93729C157.872 9.33802 159.271 8.54486 160.502 7.8839C160.095 7.59307 159.75 7.32869 159.519 7.21412L161.503 6.69416C161.751 6.82635 161.556 7.12599 161.237 7.48732C161.37 7.41681 161.494 7.3375 161.6 7.27581C162.327 7.56663 161.972 8.06896 161.476 8.55367C161.228 8.39504 160.98 8.2276 160.741 8.05134C160.263 8.58011 159.82 9.16176 159.944 9.65528C160.068 9.54952 160.316 9.4614 160.591 9.40852C160.467 9.54952 160.387 9.68172 160.449 9.76103C160.52 9.84916 160.724 9.65528 161.042 9.42614L161.53 10.3515L161.627 9.97254L164.248 10.4837C166.081 9.47902 167.667 8.0249 170.616 7.54901C169.898 8.26285 170.492 8.68587 170.474 9.50546C169.641 8.65943 168.189 9.9461 166.657 9.81391C167.463 9.8756 167.295 10.2722 167.1 10.422L169.81 9.54952C169.765 10.2193 170.403 10.0342 171.129 10.2898C170.554 8.97669 173.139 9.35564 174.246 8.915C174.326 9.35564 174.078 9.82272 172.714 9.75222C174.238 10.704 174.61 8.14828 176.106 8.95025C175.778 8.96788 175.592 8.90619 175.469 9.13532C176.23 8.72112 178.134 8.9855 177.7 9.38208L177.373 9.39971C179.578 9.49665 184.076 9.23226 184.377 8.0954C184.404 8.23641 184.12 9.4614 183.997 9.69053L187.831 5.80406C187.512 6.78229 188.894 9.03838 187.087 9.63765C187.619 9.76103 188.265 9.90204 189.363 9.54071C189 9.40852 188.433 8.16591 188.92 8.06897C190.293 9.1177 189.868 8.62418 191.542 9.50546C191.002 9.31158 191.559 7.78695 192.41 7.81339C192.286 8.04253 192.516 9.30276 192.206 9.47021L194.278 7.93677C193.756 8.21878 194.216 9.19701 194.694 9.61121C194.473 9.3292 196.519 9.59359 197.077 9.43496L196.173 9.10888C198.556 9.27633 198.476 6.96736 200.84 6.9938C200.557 7.31106 200.176 8.89737 201.381 9.056C201.912 8.28047 203.736 5.33698 205.817 4.71127L206.225 5.13428L207.819 4.60551C206.845 5.76881 204.09 8.24522 202.576 9.21464C203.471 9.54071 202.833 9.72578 204.17 9.65528C204.648 10.0519 203.453 10.2898 203.063 10.3251L206.172 10.5189C206.012 9.62884 208.527 9.57596 208.394 8.8445L205.038 9.84035C204.879 8.95906 206.933 7.267 209.147 7.39038C209.714 7.73408 208.757 8.97669 208.811 9.27633C209.094 8.96788 210.892 8.65061 211.095 8.87094L210.174 9.36445C211.405 9.6729 212.148 8.14828 213.637 8.97669C214.151 9.02075 215.178 10.0959 215.258 9.56715C214.407 8.5713 214.186 5.43392 214.726 4.6672C214.903 4.72889 217.418 5.59255 218.003 6.07726C218.853 6.8616 216.781 7.99846 217.507 8.66824C217.534 8.42148 217.993 8.11303 218.18 8.01609C218.719 8.20997 217.976 8.77399 219.128 8.6418C219.305 7.73408 221.492 8.67705 219.659 7.86627C220.792 7.58426 220.872 8.03371 222.201 7.96321C221.767 7.39038 223.361 5.96269 224.494 5.68068C224.432 5.90982 224.689 6.20064 224.813 6.34165C227.142 6.3769 228.4 6.78229 230.569 6.75585C230.773 6.96736 231.827 7.22293 231.384 7.61951C231.694 7.45207 231.977 7.14362 232.641 7.11718C233.943 7.87508 231.154 7.25818 232.154 8.18353C232.234 7.65476 233.872 7.43444 234.82 7.09955C234.519 6.29758 232.615 6.97617 231.667 7.31106C231.65 6.19183 233.288 5.00209 235.555 4.45569C237.353 4.15606 236.343 5.16954 236.653 5.00209C240.045 5.15191 239.514 3.0192 242.339 3.78592C243.463 4.48213 242.409 5.19597 242.657 5.70712C241.196 5.99794 240.399 5.2841 239.398 5.32817L240.629 5.64543C240.169 5.89219 239.186 6.07726 238.646 5.88338C239.593 6.50909 244.367 5.91863 246.988 6.49146C247.448 6.25352 248.245 5.99794 247.865 5.71593L247.041 5.82169C246.271 5.25766 248.591 5.01972 247.537 4.75533C248.644 4.34113 249.884 3.69779 251.442 4.00624L251.743 4.81702C251.708 4.57907 250.716 4.34113 250.282 4.5967C250.929 4.23537 252.691 5.67187 253.391 4.5967L252.292 4.04149C253.399 3.62729 254.771 2.75481 256.161 2.99276C255.525 2.1996 255.844 3.0897 254.852 2.15554C255.711 3.31002 251.309 2.13791 252.691 3.35409C251.673 2.27892 250.938 2.90463 249.609 1.99691C249.653 2.26129 250.078 2.50805 248.918 2.38467C248.865 2.46399 248.741 2.56093 248.662 2.62262C248.626 2.62262 248.617 2.61381 248.582 2.60499C248.608 2.61381 248.626 2.62262 248.644 2.64025C248.591 2.68431 248.591 2.69312 248.67 2.64906C248.945 2.76363 249.175 2.90463 249.264 3.05445C248.697 3.67135 246.846 3.67135 246.226 3.99743C245.535 3.87405 246.51 3.68898 246.129 3.40696L245.199 3.89167C245.102 3.30121 243.357 2.93107 244.978 2.56093H243.516C242.649 2.23485 241.462 2.11147 240.736 2.37586C240.045 2.25248 239 3.05445 239.593 2.58737L237.308 2.98395L237.282 2.83413C235.015 2.79006 232.641 3.88286 230.038 2.83413C229.276 2.99276 228.497 3.18664 227.213 3.03682L226.956 2.52568C225.982 2.71956 224.007 2.0586 223.6 2.60499C222.519 1.239 218.844 2.38467 217.126 2.17316L217.073 2.84294C215.886 2.82532 214.753 3.03682 213.292 3.32765L213.389 3.91811C212.131 4.42926 210.121 3.55678 208.12 3.65372C208.253 3.42459 208.757 3.47747 209.121 3.60966C206.703 2.30536 204.09 4.69364 201.894 3.75948C201.354 3.98861 200.964 3.91811 200.584 3.78592C200.637 3.78592 200.681 3.76829 200.716 3.75067C200.663 3.75067 200.575 3.75067 200.495 3.75067C200.256 3.65372 200.008 3.53916 199.733 3.45103C199.964 3.59203 200.185 3.7066 200.371 3.75067C199.955 3.76829 199.326 3.85642 198.706 4.02386L198.432 3.38934C198.378 3.38934 198.342 3.40696 198.29 3.40696C197.679 3.18664 197.803 3.71541 198.139 4.19131C197.829 4.30588 197.546 4.43807 197.325 4.5967C196.811 3.58322 195.704 4.97565 195.004 3.90048C194.597 4.44688 191.896 4.37638 191.595 5.50442C191.568 5.35461 191.382 5.29292 191.719 5.27529C191.028 5.16072 190.329 5.04616 189.717 5.38104L189.408 4.57907L187.929 5.70712C186.999 5.24004 186.609 4.96684 187.504 4.31469C185.325 5.32817 185.732 4.72008 183.882 5.72475L183.961 5.19597C183.297 5.23123 182.243 5.96269 181.827 5.53968C180.304 4.58789 174.424 5.60137 170.562 4.78177C171.351 6.29758 168.756 4.13843 168.641 5.34579C168.41 4.99328 167.861 4.7994 168.481 4.46451C166.533 4.88752 165.523 3.9798 164.195 5.02853C163.956 4.6672 164.594 4.48213 164.39 4.27062C164.239 4.34994 163.779 4.60551 163.566 4.394C163.363 4.1825 163.841 4.07674 164.151 3.9093C162.149 4.03268 161.981 5.16072 161.875 6.21827C160.848 5.75118 160.343 5.83931 159.634 6.55315C159.271 6.21827 158.669 5.87456 159.909 5.71593C159.209 5.68949 155.623 5.34579 155.578 6.19183C155.348 5.98032 154.595 6.15658 154.418 6.26233C152.851 6.26233 152.709 6.19183 151.168 6.31521L151.602 6.43859C151.027 7.4785 150.327 6.71179 149.087 6.87923L149.123 6.77348C146.253 6.13895 147.909 7.17005 145.067 6.42977L145.244 7.05549C145.031 8.43029 142.729 6.34165 141.117 6.92329L141.719 7.267C140.842 7.76933 139.16 5.50442 138.257 5.36342C138.053 5.24885 138.558 5.16072 138.823 5.06378C136.45 4.34113 138.549 5.901 136.813 6.15658C136.477 5.72475 137.185 5.00209 136.007 4.95803C135.405 4.61433 132.651 6.52672 131.021 5.73356C131.384 6.06845 131.748 6.39452 130.95 6.68535C129.711 6.8616 127.541 5.51324 126.461 6.6501C126.301 6.56197 126.239 6.47384 126.221 6.38571C125.283 6.70297 123.157 6.97617 122.608 7.59307C121.643 5.44273 116.746 8.89737 116.684 6.87923L113.77 7.10836L113.841 6.89686C111.973 6.83517 111.326 7.35512 110.697 7.87508C110.263 7.76052 110.564 7.55782 110.6 7.44325C107.855 7.16124 107.589 7.25818 105.348 8.3686L105.083 7.72526C104.481 8.13066 101.089 6.87923 98.4492 7.76052C98.4758 7.6812 98.5201 7.55782 98.7326 7.45207C95.7571 8.35098 91.4355 5.97151 90.4525 8.41267L88.4953 9.10007C91.0724 9.16176 88.1677 10.1576 89.2392 10.4925C88.2385 10.6863 86.5914 9.90204 87.8312 9.71697L88.0348 9.82272C88.4334 8.55367 84.8202 9.54071 84.8468 8.69468C79.799 9.00313 74.8309 8.55367 70.093 8.76518L70.6864 9.69934L69.0303 9.73459C68.5875 9.5319 68.4104 9.01194 69.5882 8.9855C68.9418 8.47436 67.64 9.54952 67.6134 9.76103C65.2843 9.49665 68.4547 8.58892 67.7462 8.59774L66.7898 8.72112L67.0112 8.81806C66.2496 9.2587 66.2053 9.6729 64.7884 9.70816C63.8851 9.56715 64.2925 9.13532 63.9382 9.11769C63.9382 9.04719 63.8143 9.02075 63.398 9.11769L61.3169 9.14413L62.1937 9.85797C61.2904 10.281 60.2365 9.91966 61.2461 10.7392C59.7583 9.47902 53.4619 10.6863 52.5674 10.3339C51.3099 10.9684 50.0347 11.03 48.4495 11.0565C48.848 11.1887 49.1402 12.0347 47.7676 12.0083C48.1572 10.2105 45.226 11.3914 44.0482 10.184C45.0843 10.9684 40.187 10.6159 41.8076 11.7263C40.6652 11.6469 41.7014 11.0653 40.8069 10.704C38.1413 11.5412 34.8204 10.6247 31.4907 11.0653C31.4552 11.3032 32.0309 11.6205 31.3401 12.0083L29.4981 10.9595C28.8428 11.1182 28.9756 12.3343 27.7181 11.6117C27.9041 11.7968 28.1697 12.0788 27.7358 12.1757C21.1117 11.4442 14.4256 13.9647 7.63318 12.2991C8.56303 12.6869 7.9697 12.775 7.27894 12.8367C7.73059 12.916 7.30551 13.4095 7.42064 13.718L4.57793 13.0306C4.13514 13.9383 1.60239 13.2949 1.36328 14.1498L2.23115 13.9383C1.13303 15.0046 4.02002 16.0181 3.94031 17.2872C5.17127 16.0798 7.50919 18.706 9.55488 16.9611C10.0508 17.1902 9.17408 17.3929 9.44861 17.6749C9.95339 17.0933 10.6087 16.9347 11.8397 17.1021L11.7068 17.2431C15.1252 16.8818 16.6306 17.3048 20.5006 17.4106L20.173 16.8025C21.0054 16.8377 21.1914 17.0228 21.5899 17.1462C22.4755 16.1415 19.2608 17.2431 20.0578 16.1415C21.2357 17.3401 25.8938 15.789 26.7351 17.1902C28.0103 17.1197 26.3189 16.494 27.5853 16.4147L27.9483 16.7848L28.2406 16.2649C29.0819 16.2913 29.5335 16.7584 29.5867 17.0845C29.383 17.058 29.0199 17.2167 28.7985 17.2519C29.9143 17.6397 31.836 16.8994 32.2168 17.0316L30.977 16.8642C34.4308 16.2737 38.6993 16.5205 42.0113 15.5334L41.7368 15.2514C44.2696 14.5552 43.8091 15.4541 46.6075 15.0399L46.5101 15.1192C47.0591 14.7931 47.803 14.5993 48.5735 14.5904C47.8827 14.9782 49.955 15.1809 49.0428 15.6215C51.7881 14.8724 50.3889 15.084 52.1601 13.8766L52.6117 14.3437C53.2139 13.8678 53.2493 13.6298 54.6485 13.4183C53.515 13.903 55.5872 14.1145 54.3297 14.7403C57.3407 15.6304 58.6513 13.4183 60.0948 14.9077C61.3701 13.48 57.5001 14.2908 58.244 13.9647C57.5798 13.5593 59.3067 12.8896 60.2365 12.9777C61.1841 12.9601 61.9368 14.6257 64.3102 14.4671C64.0711 14.4671 64.0622 14.5728 63.832 14.5816C64.7353 14.8813 65.5411 14.0176 66.6658 14.5199C67.2326 13.6651 68.0828 14.4935 68.1979 13.436L66.0371 13.7973C67.2592 13.4536 68.3484 12.1757 70.4118 12.6516C70.2613 12.8719 69.6768 13.1804 69.2694 13.3566C69.8805 13.6298 70.403 13.0923 71.0317 13.3743C70.9166 14.4318 68.4016 13.7444 67.1175 14.6169C67.7817 15.0223 69.5794 13.7268 68.9772 14.8901C69.8539 13.4007 71.324 14.943 72.8737 13.762L72.8029 14.3966C73.0509 14.282 73.5645 13.9559 74.0338 13.9471L73.228 14.8019C74.4943 14.0352 75.7696 15.269 76.9917 14.8372C74.3792 14.987 76.3629 14.1145 75.2382 13.7092C78.4175 12.7045 77.1776 15.2514 80.7642 14.7755C80.2772 14.8901 78.9134 14.4935 79.6573 14.1586C80.348 14.2555 81.269 14.4494 81.703 14.7579C84.0852 14.5111 81.3044 14.1322 82.3052 13.7003C83.1553 14.423 83.4653 13.3302 84.5014 13.0394L84.5368 13.6739C87.2821 13.9471 85.1921 12.3079 87.6718 12.6869L86.6799 13.621L87.9463 13.3302L87.716 14.0705C89.0798 13.4624 89.5226 13.5858 90.8953 13.718C90.5587 13.2861 91.0192 12.5547 92.2236 12.4754C93.0649 12.8102 91.7897 13.1011 93.4989 12.9248C93.1358 13.339 92.7373 13.8678 91.958 13.3126C91.896 13.5241 91.5949 13.7356 91.524 13.9383C92.4273 14.3261 93.7557 13.9295 94.3756 13.8942C94.1365 13.8854 93.8531 13.859 93.7025 13.7797L96.1379 12.7838C96.5364 13.0041 96.2353 13.2156 95.9431 13.4095C96.439 13.3214 96.7755 13.0129 97.5105 12.9248C97.3423 13.4536 97.4131 13.9824 96.3858 14.2732L98.7238 13.5946C98.892 13.8149 99.9636 14.1586 99.6625 14.3613C100.983 14.6081 102.825 13.2156 104.578 13.5329C104.667 13.4271 104.844 13.3214 105.207 13.2333C106.845 13.2773 108.315 13.8502 110.219 13.0482L111.353 13.9295C112.858 13.6475 109.821 12.8279 112.327 12.3608C114.098 11.9818 113.026 13.1275 113.664 13.3566C114.532 12.8543 116.037 11.8408 117.711 12.5282C117.18 12.7221 116.746 12.6075 116.241 12.6957L116.276 12.6604ZM134.936 11.5059C134.581 11.6558 133.873 12.0876 133.59 11.7263C133.97 10.9772 134.307 11.3209 134.936 11.5059ZM163.292 9.00313C163.026 9.22345 162.61 9.13532 162.132 8.90619C162.468 8.8445 162.858 8.85331 163.292 9.00313ZM242.418 2.87819C242.418 2.87819 242.392 2.89582 242.383 2.91344C241.568 2.6755 241.86 2.77244 242.418 2.87819ZM244.101 3.13377C244.269 3.04564 244.26 2.95751 244.181 2.86938C244.065 3.02801 243.685 3.04564 243.26 3.01039C243.383 3.17783 243.596 3.2924 244.101 3.14258V3.13377ZM63.7788 9.3292L64.1154 9.47902C63.3892 9.69934 63.584 9.52309 63.7788 9.3292Z" fill="#F9CF01"/>
<path d="M160.095 9.97212C159.989 9.86637 159.953 9.7518 159.927 9.62842C159.785 9.74299 159.785 9.86637 160.095 9.97212Z" fill="#F9CF01"/>
<path d="M104.674 13.4976H104.621C104.621 13.4976 104.577 13.5681 104.568 13.6122L104.674 13.4976Z" fill="#F9CF01"/>
<path d="M218.17 8.92419C217.825 8.83606 217.63 8.72149 217.497 8.60693C217.479 8.76556 217.639 8.88894 218.17 8.92419Z" fill="#F9CF01"/>
<path d="M252.993 1.97021L251.922 2.14647C252.444 2.11121 252.63 2.25222 252.896 2.34916C252.869 2.19934 252.666 1.98783 253.002 1.97021H252.993Z" fill="#F9CF01"/>
<path d="M262.369 5.83064C262.529 5.75132 262.706 5.82183 262.856 5.74251L262.812 5.44287C262.139 5.46931 261.679 5.70726 262.369 5.83064Z" fill="#F9CF01"/>
<path d="M254.01 4.07676C254.099 4.61434 254.772 4.42046 255.525 4.31471C255.481 4.31471 255.436 4.31471 255.392 4.31471C255.605 3.56561 254.808 3.82119 254.01 4.06795V4.07676Z" fill="#F9CF01"/>
<path d="M255.701 4.29704C255.931 4.2706 256.17 4.25298 256.401 4.27942C256.489 3.97978 256.117 4.21773 255.701 4.29704Z" fill="#F9CF01"/>
<path d="M246.226 2.75565C246.589 2.88784 246.439 2.06825 246.651 2.28857C247.041 1.60117 244.278 3.1346 246.226 2.75565Z" fill="#F9CF01"/>
<path d="M254.638 5.84017L254.364 5.1792L253.947 5.71679L254.638 5.84017Z" fill="#F9CF01"/>
<path d="M248.689 5.40806L249.894 5.58431C249.876 5.46975 250.026 5.40806 250.212 5.35518C249.468 5.33755 248.654 5.21417 248.689 5.40806Z" fill="#F9CF01"/>
<path d="M250.211 5.34649C250.601 5.35531 250.964 5.34649 251.177 5.23193C250.964 5.24074 250.521 5.26718 250.211 5.34649Z" fill="#F9CF01"/>
<path d="M252.991 6.05076L252.637 5.91857L251.787 5.87451L252.991 6.05076Z" fill="#F9CF01"/>
<path d="M235.741 5.43506L234.43 5.64657C234.298 5.8757 234.661 6.0079 235.148 5.91096C235.458 5.75232 235.945 5.65538 235.741 5.43506Z" fill="#F9CF01"/>
<path d="M239.734 7.19616C239.38 7.06397 239.353 6.91415 239.15 6.70264L239.123 7.52224L239.734 7.19616Z" fill="#F9CF01"/>
<path d="M235.908 7.43506C235.784 7.6642 234.013 8.11365 235.678 8.04315C235.811 7.81401 237.122 7.61132 235.908 7.43506Z" fill="#F9CF01"/>
<path d="M216.1 6.71316L216.436 6.69554L216.366 5.34717L216.1 6.71316Z" fill="#F9CF01"/>
<path d="M198.734 10.2807C200.292 10.5715 199.088 9.44344 200.496 9.81358C200.85 9.4875 199.336 9.51394 199.708 9.23193C198.778 9.58444 198.282 9.40818 198.734 10.2895V10.2807Z" fill="#F9CF01"/>
<path d="M199.707 9.22469C199.857 9.17181 200.017 9.10131 200.185 9.01318C199.919 9.10131 199.786 9.17181 199.707 9.22469Z" fill="#F9CF01"/>
<path d="M2.69224 12.4317L1.67383 12.2202L2.34687 12.6256L2.69224 12.4317Z" fill="#F9CF01"/>
<path d="M0.8413 13.5595L0.549059 12.7222L0 13.5418C0.221395 13.4889 0.655328 13.3832 0.8413 13.5683V13.5595Z" fill="#F9CF01"/>
<path d="M137.777 13.1277L137.848 12.9162C137.689 12.6958 137.45 12.687 136.98 12.6694L137.777 13.1189V13.1277Z" fill="#F9CF01"/>
<path d="M124.202 13.0142L124.433 13.023L123.963 12.2651L124.202 13.0142Z" fill="#F9CF01"/>
<path d="M112.867 14.4582C113.336 14.467 113.868 14.2731 114.337 14.2908C113.327 14.467 112.699 13.4976 112.867 14.4582Z" fill="#F9CF01"/>
</g>
</g>
</g>
<defs>
<clipPath id="clip0_127_568">
<rect width="302" height="18" fill="white" transform="translate(0 0.140137)"/>
</clipPath>
<clipPath id="clip1_127_568">
<rect width="302" height="17" fill="white" transform="translate(0 0.640137)"/>
</clipPath>
</defs>
</svg>
