<svg width="153" height="20" viewBox="0 0 153 20" fill="none" xmlns="http://www.w3.org/2000/svg">
<g clip-path="url(#clip0_127_471)">
<mask id="mask0_127_471" style="mask-type:luminance" maskUnits="userSpaceOnUse" x="0" y="0" width="153" height="21">
<path d="M0.5 0H152.5V20.001H0.5V0Z" fill="white"/>
</mask>
<g mask="url(#mask0_127_471)">
<path d="M54.086 19.798L52.141 16.439C53.05 14.697 53.05 12.677 53.05 10C53.05 6.641 53.05 4.192 51.106 2.146C49.768 0.707 48.05 0 45.803 0C43.556 0 41.813 0.808 40.5 2.147C38.556 4.09 38.556 6.54 38.556 10C38.556 13.359 38.454 15.808 40.5 17.854C41.939 19.293 43.556 20 45.803 20C46.409 20 46.914 19.899 47.444 19.798H54.086ZM43.252 15.505C42.545 14.697 42.343 13.763 42.343 10C42.343 6.237 42.545 5.303 43.252 4.495C43.758 3.889 44.692 3.485 45.702 3.485C46.712 3.485 47.646 3.889 48.151 4.495C48.859 5.303 49.061 6.237 49.061 10C49.061 13.763 48.859 14.697 48.151 15.505C47.646 16.111 46.712 16.515 45.702 16.515C44.692 16.515 43.783 16.111 43.252 15.505ZM98.859 0.201H102.622V19.797H98.859V0.201ZM7.646 20C4.692 20 2.444 19.396 0.5 17.45L2.95 15C4.162 16.213 5.904 16.642 7.646 16.642C9.894 16.642 11.106 15.834 11.106 14.192C11.106 13.485 10.904 12.98 10.5 12.552C10.096 12.147 9.692 12.046 8.758 11.844L6.409 11.541C4.768 11.339 3.455 10.733 2.647 9.899C1.737 8.99 1.207 7.652 1.207 6.011C1.207 2.55 3.757 0.1 8.05 0.1C10.702 0.1 12.747 0.707 14.389 2.348L11.939 4.696C10.727 3.485 9.187 3.36 7.949 3.36C5.904 3.36 4.894 4.471 4.894 5.81C4.894 6.315 5.096 6.82 5.5 7.249C5.904 7.653 6.51 7.855 7.343 8.057L9.692 8.36C11.535 8.562 12.646 9.067 13.455 9.9C14.465 10.91 14.995 12.35 14.995 14.093C14.995 17.855 11.737 20.002 7.647 20.002L7.646 20ZM20.499 19.797V0.201H33.454V3.56H24.363V8.156H32.115V11.641H24.363V16.439H33.454V19.797H20.499ZM66.004 20C62.014 20 58.757 17.247 58.757 13.055V0.2H62.647V12.953C62.647 15.2 63.984 16.513 66.004 16.513C68.025 16.513 69.364 15.175 69.364 12.953V0.2H73.126V13.054C73.151 17.246 69.994 19.998 66.004 19.998V20ZM91.307 17.854C89.969 19.293 88.252 20 86.004 20C83.757 20 82.014 19.192 80.701 17.854C78.757 15.909 78.757 13.46 78.757 10C78.757 6.641 78.656 4.192 80.701 2.146C82.039 0.707 83.757 0 86.004 0C88.252 0 89.893 0.808 91.307 2.147C93.252 4.09 93.252 6.54 93.252 10C93.252 13.359 93.252 15.808 91.307 17.854ZM88.454 4.495C87.949 3.889 87.014 3.485 86.004 3.485C84.994 3.485 84.06 3.889 83.554 4.495C82.848 5.303 82.646 6.237 82.646 10C82.646 13.763 82.848 14.697 83.555 15.505C84.06 16.111 84.994 16.515 86.004 16.515C87.014 16.515 87.949 16.111 88.454 15.505C89.161 14.697 89.363 13.763 89.363 10C89.388 6.237 89.187 5.303 88.454 4.495ZM120.703 19.797L119.592 16.337H112.647L111.435 19.797H107.445L114.592 0.201H117.546L124.693 19.797H120.703ZM116.107 5.908L113.657 13.055H118.556L116.107 5.908ZM147.142 0.201H152.041V5.101H147.142V0.2V0.201ZM134.894 15.605V0.201H132.444V18.055L134.894 15.605ZM136.611 17.348L134.161 19.798H152.015V17.348H136.611ZM139.793 10.706V0.201H137.344V13.156L139.793 10.706ZM141.51 12.45L139.061 14.899H152.015V12.449L141.51 12.45ZM144.692 5.807V0.201H142.242V8.257L144.692 5.807ZM146.408 7.55L143.959 10H152.015V7.55H146.408Z" fill="#A3A3A3"/>
</g>
</g>
<defs>
<clipPath id="clip0_127_471">
<rect width="153" height="20" fill="white"/>
</clipPath>
</defs>
</svg>
