<svg width="24" height="25" viewBox="0 0 24 25" fill="none" xmlns="http://www.w3.org/2000/svg">
<g clip-path="url(#clip0_127_964)">
<path d="M7.93139 12.4026L14.0784 16.0208M14.0694 6.03896L7.93139 9.65715M19.1004 4.66624C19.1004 6.17246 17.8916 7.39351 16.4004 7.39351C14.9092 7.39351 13.7004 6.17246 13.7004 4.66624C13.7004 3.16001 14.9092 1.93896 16.4004 1.93896C17.8916 1.93896 19.1004 3.16001 19.1004 4.66624ZM8.30039 11.0299C8.30039 12.5361 7.09156 13.7571 5.60039 13.7571C4.10923 13.7571 2.90039 12.5361 2.90039 11.0299C2.90039 9.52365 4.10923 8.3026 5.60039 8.3026C7.09156 8.3026 8.30039 9.52365 8.30039 11.0299ZM19.1004 17.3935C19.1004 18.8998 17.8916 20.1208 16.4004 20.1208C14.9092 20.1208 13.7004 18.8998 13.7004 17.3935C13.7004 15.8872 14.9092 14.6662 16.4004 14.6662C17.8916 14.6662 19.1004 15.8872 19.1004 17.3935Z" stroke="black" stroke-width="1.80907" stroke-linecap="round" stroke-linejoin="round"/>
</g>
<defs>
<clipPath id="clip0_127_964">
<rect width="18" height="20" fill="white" transform="translate(2 1.02979)"/>
</clipPath>
</defs>
</svg>
