<svg width="24" height="25" viewBox="0 0 24 25" fill="none" xmlns="http://www.w3.org/2000/svg">
<g clip-path="url(#clip0_127_954)">
<path d="M4.63541 12.1494C4.63541 13.633 5.23971 14.9768 6.2179 15.9528C6.31225 16.0469 6.35941 16.0939 6.38726 16.1392C6.41383 16.1824 6.42929 16.2196 6.44116 16.2688C6.45359 16.3203 6.45359 16.379 6.45359 16.4962V18.6294C6.45359 18.8814 6.45359 19.0074 6.50314 19.1037C6.54671 19.1884 6.61625 19.2573 6.70178 19.3004C6.79901 19.3494 6.92629 19.3494 7.18087 19.3494H8.90814C9.16271 19.3494 9.28999 19.3494 9.38723 19.3004C9.47276 19.2573 9.54229 19.1884 9.58587 19.1037C9.63541 19.0074 9.63541 18.8814 9.63541 18.6294V18.2694C9.63541 18.0174 9.63541 17.8914 9.68496 17.7951C9.72853 17.7104 9.79807 17.6416 9.88359 17.5985C9.98083 17.5494 10.1081 17.5494 10.3627 17.5494H11.6354C11.89 17.5494 12.0173 17.5494 12.1145 17.5985C12.2 17.6416 12.2696 17.7104 12.3131 17.7951C12.3627 17.8914 12.3627 18.0174 12.3627 18.2694V18.6294C12.3627 18.8814 12.3627 19.0074 12.4122 19.1037C12.4558 19.1884 12.5254 19.2573 12.6108 19.3004C12.7081 19.3494 12.8354 19.3494 13.0899 19.3494H14.8173C15.0718 19.3494 15.1991 19.3494 15.2964 19.3004C15.3819 19.2573 15.4515 19.1884 15.495 19.1037C15.5446 19.0074 15.5446 18.8814 15.5446 18.6294V17.7513C15.5446 17.5695 15.5446 17.4785 15.5707 17.4055C15.5957 17.3356 15.6274 17.2866 15.6809 17.2346C15.7367 17.1804 15.8314 17.1369 16.0207 17.0499C16.9136 16.6395 17.6755 15.997 18.2274 15.2006C18.3245 15.0606 18.3729 14.9905 18.4248 14.9491C18.4744 14.9095 18.5188 14.8864 18.5797 14.8683C18.6436 14.8494 18.7193 14.8494 18.8707 14.8494H19.3627C19.6173 14.8494 19.7446 14.8494 19.8418 14.8004C19.9274 14.7573 19.9969 14.6884 20.0405 14.6037C20.09 14.5074 20.09 14.3814 20.09 14.1294V11.0566C20.09 10.8167 20.09 10.6967 20.045 10.6041C20.0003 10.5123 19.9255 10.4382 19.8327 10.394C19.7392 10.3494 19.618 10.3494 19.3757 10.3494C19.2003 10.3494 19.1126 10.3494 19.0419 10.3258C18.9657 10.3004 18.9123 10.2666 18.857 10.2088C18.8058 10.1552 18.7639 10.0656 18.6803 9.88634C18.4117 9.31101 18.0438 8.79041 17.5985 8.34605C17.5041 8.25192 17.4569 8.20486 17.4291 8.1596C17.4025 8.11642 17.387 8.07925 17.3752 8.03006C17.3627 7.97852 17.3627 7.91987 17.3627 7.80258V6.80394C17.3627 6.47989 17.3627 6.31787 17.2946 6.20897C17.2348 6.11357 17.1413 6.04371 17.0323 6.01307C16.9077 5.97811 16.7504 6.02262 16.4357 6.11164L14.2788 6.72171C14.2421 6.73208 14.2238 6.73726 14.2052 6.7409C14.1887 6.74414 14.1719 6.74645 14.1551 6.74785C14.1362 6.74941 14.1171 6.74941 14.079 6.74941H13.6891M4.63541 12.1494C4.63541 10.0758 5.81606 8.27509 7.54818 7.37032M4.63541 12.1494H3.72638C2.72223 12.1494 1.9082 11.3435 1.9082 10.3494C1.9082 9.68316 2.27384 9.10145 2.81729 8.79022M13.7264 6.29941C13.7264 8.03911 12.3018 9.44941 10.5446 9.44941C8.78729 9.44941 7.36275 8.03911 7.36275 6.29941C7.36275 4.55971 8.78729 3.14941 10.5446 3.14941C12.3018 3.14941 13.7264 4.55971 13.7264 6.29941Z" stroke="black" stroke-width="1.80907" stroke-linecap="round" stroke-linejoin="round"/>
</g>
<defs>
<clipPath id="clip0_127_954">
<rect width="20" height="18" fill="white" transform="translate(1 2.24951)"/>
</clipPath>
</defs>
</svg>
