<svg width="63" height="72" viewBox="0 0 63 72" fill="none" xmlns="http://www.w3.org/2000/svg">
<g clip-path="url(#clip0_127_461)">
<mask id="mask0_127_461" style="mask-type:luminance" maskUnits="userSpaceOnUse" x="0" y="0" width="63" height="72">
<path d="M0.5 0H62.5V72H0.5V0Z" fill="white"/>
</mask>
<g mask="url(#mask0_127_461)">
<path fill-rule="evenodd" clip-rule="evenodd" d="M0.5 0H61.659V60.196H0.5V0ZM18.404 42.86V21.506H26.945V17.12H5.573V21.506H14.076V42.86H18.404ZM48.113 42.86V47.13H52.48V42.783H48.228V38.59H52.48V21.391H48.228V17.12H35.359V21.39H31.107V38.59H35.359V42.86H48.113ZM35.435 21.506H48.113V38.512H35.435V21.506Z" fill="#A3A3A3"/>
<path d="M6.98745 66.5658V69.8238H5.91045V71.9998H3.71845V69.8238H2.64145V66.5658H1.56445V63.2808H3.74445V66.5408H4.82145V69.7978H5.88545V63.2808H8.06445V66.5658H6.98745ZM10.2175 71.9998V63.2808H15.6405V64.3888H12.3975V66.5398H14.5635V67.6468H12.3975V70.8918H15.6405V71.9998H10.2175ZM21.0245 71.9998V69.8238H19.9355V67.6468H18.8845V71.9998H17.7815V63.2808H19.9605V65.4578H21.0375V67.6338H22.1015V63.2808H23.2045V72.0008L21.0245 71.9998ZM28.6015 64.3898V71.9998H26.4215V64.3898H24.2555V63.2798H30.7675V64.3878H28.6015V64.3898ZM37.2545 70.9048V71.9998H32.9085V70.9048H31.8315V63.2808H34.0115V70.8918H36.1515V63.2818H38.3315V70.9048H37.2545ZM44.8045 71.9998V68.7418H43.7275V67.6338H44.8045V64.3898H42.6645V71.9998H40.4845V63.2808H45.9075V64.3758H46.9845V67.6468H45.9075V68.7168H46.9845V71.9998H44.8045ZM49.1375 71.9998V63.2808H54.5605V64.3888H51.3175V66.5398H53.4835V67.6468H51.3175V70.8918H54.5605V71.9998H49.1375ZM61.0475 70.9048V71.9998H57.7775V70.9048H56.7015V69.7978H57.8035V70.8918H59.9445V68.7418H57.7775V67.6468H56.7015V64.3768H57.7775V63.2798H61.0475V64.3748H62.1235V65.4828H61.0215V64.3898H58.8805V66.5408H61.0475V67.6348H62.1235V70.9058L61.0475 70.9048Z" fill="#A3A3A3"/>
</g>
</g>
<defs>
<clipPath id="clip0_127_461">
<rect width="63" height="72" fill="white"/>
</clipPath>
</defs>
</svg>
