<svg width="77" height="38" viewBox="0 0 77 38" fill="none" xmlns="http://www.w3.org/2000/svg">
<g clip-path="url(#clip0_127_353)">
<mask id="mask0_127_353" style="mask-type:luminance" maskUnits="userSpaceOnUse" x="0" y="0" width="77" height="38">
<path d="M0.5 0H76.5V38H0.5V0Z" fill="white"/>
</mask>
<g mask="url(#mask0_127_353)">
<mask id="mask1_127_353" style="mask-type:luminance" maskUnits="userSpaceOnUse" x="0" y="0" width="77" height="38">
<path d="M0.5 0H76.5V38H0.5V0Z" fill="white"/>
</mask>
<g mask="url(#mask1_127_353)">
<path d="M0.5 29.899L8.392 16.566H1.43C1.36538 16.1476 1.33961 15.7241 1.353 15.301C1.34007 14.8775 1.36584 14.4537 1.43 14.035H12.649L12.797 14.457L4.827 27.79H12.264C12.328 28.208 12.354 28.632 12.341 29.056C12.357 29.451 12.331 29.848 12.264 30.237H0.578L0.5 29.899ZM23.173 19.605C23.26 18.638 22.948 17.679 22.322 16.989C21.5914 16.4335 20.6834 16.1633 19.768 16.229C19.12 16.24 18.474 16.297 17.833 16.398C17.257 16.489 16.687 16.63 16.131 16.82C15.7333 16.0374 15.5469 15.1647 15.59 14.288C16.289 14.0317 17.0168 13.8617 17.757 13.782C18.524 13.642 19.301 13.585 20.079 13.613C21.658 13.505 23.222 14.013 24.489 15.047C25.495 15.976 26.036 17.579 26.036 19.688V29.898L23.56 30.404C22.5887 30.5721 21.6048 30.6567 20.619 30.657C19.7614 30.6643 18.9055 30.5795 18.066 30.404C17.3582 30.2475 16.6961 29.93 16.131 29.476C15.5911 29.0533 15.1655 28.5022 14.893 27.873C14.5666 27.1289 14.4078 26.3222 14.428 25.51C14.3941 24.6881 14.5809 23.8722 14.969 23.147C15.2709 22.4682 15.7526 21.8849 16.362 21.46C16.9797 21.0261 17.6576 20.6848 18.374 20.447C19.1502 20.2058 19.9604 20.0919 20.773 20.11C21.2902 20.0889 21.8082 20.117 22.32 20.194C22.707 20.194 23.017 20.278 23.326 20.278V19.603L23.173 19.605ZM23.173 22.643C22.8078 22.622 22.4453 22.5678 22.09 22.481C21.625 22.481 21.238 22.397 20.929 22.397C19.942 22.3364 18.9625 22.6035 18.143 23.157C17.523 23.679 17.176 24.498 17.215 25.351C17.125 26.301 17.547 27.221 18.298 27.714C18.63 27.917 19.001 28.033 19.381 28.051C19.739 28.118 20.102 28.147 20.465 28.135C20.93 28.149 21.396 28.121 21.858 28.051L23.095 27.798V22.651L23.173 22.643ZM29.209 14.035C29.441 14.035 29.596 13.951 29.827 13.951H31.065C31.297 13.951 31.452 14.035 31.684 14.035C31.726 14.172 31.752 14.314 31.761 14.457C31.761 14.71 31.838 14.879 31.838 15.132C31.838 15.385 31.915 15.639 31.915 15.892C31.913 16.037 31.939 16.18 31.992 16.313L32.689 15.301C32.989 14.974 33.327 14.69 33.695 14.457C34.5818 13.9178 35.5972 13.6267 36.635 13.614C37.4622 13.6041 38.2813 13.7769 39.034 14.12C39.7929 14.4577 40.4553 14.9799 40.961 15.639C41.53 16.3972 41.9501 17.2563 42.199 18.171C42.526 19.347 42.683 20.571 42.663 21.799C42.787 24.207 42.037 26.572 40.574 28.381C39.181 29.984 37.24 30.744 34.694 30.744C34.2537 30.758 33.813 30.7299 33.378 30.66C32.988 30.5915 32.6011 30.5071 32.218 30.407V37.917C31.986 37.917 31.753 38.001 31.444 38.001H30.051C29.819 38.001 29.587 37.917 29.355 37.917V14.035H29.209ZM32.071 27.706C32.4457 27.8573 32.8346 27.9706 33.232 28.044C33.744 28.121 34.262 28.149 34.779 28.128C35.4376 28.1473 36.0933 28.0323 36.706 27.79C37.2887 27.5686 37.7979 27.1886 38.176 26.693C38.6217 26.1094 38.9621 25.4526 39.182 24.752C39.447 23.852 39.578 22.912 39.569 21.967C39.6198 20.5677 39.3273 19.1772 38.717 17.917C38.117 16.889 37.046 16.305 35.931 16.398C35.4554 16.4001 34.9839 16.4857 34.538 16.651C34.098 16.833 33.701 17.121 33.378 17.495C33.007 17.905 32.717 18.393 32.526 18.929C32.2919 19.6037 32.187 20.3164 32.217 21.03V27.697L32.071 27.706ZM46.155 16.474H44.228C44.159 16.2854 44.1327 16.0839 44.151 15.884V14.535C44.151 14.282 44.228 14.113 44.228 13.945H48.949V30.315C48.717 30.315 48.484 30.399 48.252 30.399H46.859C46.627 30.399 46.394 30.315 46.163 30.315L46.155 16.474ZM55.209 22.971C55.286 24.743 55.674 26.093 56.446 26.853C57.434 27.769 58.713 28.224 60.006 28.118C61.3586 28.1254 62.6996 27.8676 63.953 27.359C64.14 27.727 64.271 28.126 64.34 28.54C64.429 28.984 64.481 29.436 64.495 29.89C63.8342 30.2127 63.1308 30.4396 62.406 30.564C61.565 30.74 60.702 30.825 59.853 30.817C58.6634 30.8674 57.4766 30.6663 56.37 30.227C55.4633 29.7606 54.6502 29.1314 53.971 28.371C53.3209 27.5796 52.8461 26.6594 52.578 25.671C52.2611 24.574 52.1048 23.4368 52.114 22.295C52.118 21.158 52.247 20.033 52.501 18.92C52.7611 17.9436 53.2076 17.0267 53.816 16.22C54.4222 15.4774 55.1561 14.8489 55.983 14.364C56.9845 13.8395 58.1028 13.578 59.233 13.604C61.007 13.52 62.718 14.329 63.875 15.798C64.4325 16.4897 64.8291 17.2969 65.036 18.161C65.326 19.141 65.458 20.169 65.422 21.199V22.128C65.422 22.466 65.345 22.718 65.345 22.972L55.209 22.971ZM62.638 20.608C62.6423 20.0374 62.5642 19.4692 62.406 18.921C62.2481 18.4235 62.0407 17.9431 61.787 17.487C61.5091 17.0701 61.1384 16.7234 60.704 16.474C60.227 16.2263 59.6928 16.1096 59.156 16.136C58.139 16.08 57.149 16.512 56.448 17.318C55.7554 18.282 55.3526 19.4238 55.287 20.609L62.638 20.608ZM68.673 14.027C68.905 14.027 69.06 13.943 69.292 13.943H70.53C70.762 13.943 70.916 14.027 71.148 14.027C71.248 14.44 71.3 14.866 71.303 15.293C71.366 15.739 71.392 16.191 71.38 16.642C71.7636 15.901 72.3212 15.2642 73.005 14.786C73.7523 14.2643 74.6481 13.998 75.559 14.027H76.024C76.1587 14.0054 76.2965 14.0354 76.41 14.111C76.41 14.272 76.487 14.532 76.487 14.7V15.375C76.5 15.631 76.474 15.888 76.41 16.135C76.41 16.388 76.333 16.641 76.333 16.894C76.185 16.894 76.024 16.81 75.869 16.81H75.482C74.982 16.805 74.485 16.891 74.012 17.063C73.5111 17.2329 73.0593 17.5226 72.696 17.907C72.2599 18.3896 71.9421 18.9672 71.768 19.594C71.5255 20.4728 71.4209 21.384 71.458 22.295V30.405C71.226 30.405 70.993 30.489 70.762 30.489H69.368C69.136 30.489 68.827 30.405 68.595 30.405V14.035L68.673 14.027ZM51.726 4.41597H48.87L50.882 2.22197C50.734 1.96897 50.572 1.80097 50.417 1.54797C50.1933 1.37068 49.9865 1.17318 49.799 0.957969L47.781 3.14897V0.102969C47.5293 0.0332053 47.2678 0.00483515 47.007 0.0189688C46.7464 0.0008517 46.4846 0.0292959 46.234 0.102969V3.22497L44.144 0.945969C43.904 1.09697 43.694 1.29697 43.525 1.53697C43.377 1.78997 43.138 1.95897 42.984 2.21197L44.996 4.40597H42.201L42.124 5.24897C42.107 5.53597 42.133 5.82397 42.201 6.10097H45.064L42.975 8.37997C43.281 8.87997 43.675 9.31197 44.135 9.64497L46.147 7.45097V10.574C46.4 10.643 46.66 10.672 46.921 10.658C47.1816 10.6761 47.4434 10.6476 47.694 10.574V7.45097L49.706 9.64497C49.946 9.49497 50.157 9.29397 50.325 9.05497C50.524 8.84897 50.705 8.62297 50.866 8.37997L48.87 6.18797H51.734C51.797 5.91197 51.823 5.62797 51.811 5.34397C51.8271 5.03192 51.8012 4.71912 51.734 4.41397L51.726 4.41597ZM48.166 5.25997C48.1593 5.63059 48.1072 5.99899 48.011 6.35697C47.6943 6.49486 47.348 6.55058 47.004 6.51897C46.6623 6.51081 46.3235 6.45356 45.998 6.34897C45.8708 5.99808 45.8204 5.62401 45.85 5.25197C45.8568 4.88103 45.9089 4.5123 46.005 4.15397C46.3219 4.01688 46.6682 3.96152 47.012 3.99297C47.3538 4.00104 47.6926 4.0583 48.018 4.16297C48.107 4.52097 48.159 4.88897 48.173 5.25997H48.166Z" fill="#A3A3A3"/>
</g>
</g>
</g>
<defs>
<clipPath id="clip0_127_353">
<rect width="77" height="38" fill="white"/>
</clipPath>
</defs>
</svg>
